<?xml version="1.0" encoding="utf-8"?>
<!-- Generator: Adobe Illustrator 16.0.0, SVG Export Plug-In . SVG Version: 6.00 Build 0)  -->
<!DOCTYPE svg PUBLIC "-//W3C//DTD SVG 1.1//EN" "http://www.w3.org/Graphics/SVG/1.1/DTD/svg11.dtd">
<svg version="1.1" id="Layer_1" xmlns="http://www.w3.org/2000/svg" xmlns:xlink="http://www.w3.org/1999/xlink" x="0px" y="0px"
	 width="200px" height="200px" viewBox="0 0 200 200" enable-background="new 0 0 200 200" xml:space="preserve">
<g>
	<g>
		<path fill="#005E9C" d="M100,197.844c-53.951,0-97.844-43.893-97.844-97.844S46.049,2.156,100,2.156S197.844,46.049,197.844,100
			S153.951,197.844,100,197.844z M100,7.156C48.806,7.156,7.156,48.806,7.156,100S48.806,192.844,100,192.844
			s92.844-41.649,92.844-92.844S151.194,7.156,100,7.156z"/>
	</g>
	<g>
		<g>
			<path fill="#005E9C" d="M158.475,65.927C146.736,49.542,124.328,39.364,100,39.364S53.264,49.542,41.525,65.927
				c-1.414,1.976-2.161,4.288-2.161,6.689c0,2.402,0.747,4.714,2.161,6.688c10.788,15.059,30.589,24.848,52.606,26.34v8.048H90.22
				v7.824h-3.912v3.912h3.912v25.427c0,5.394,4.389,9.78,9.78,9.78c5.393,0,9.78-4.387,9.78-9.78v-25.427h3.912v-3.912h-3.912
				v-7.824h-3.912v-8.048c22.018-1.492,41.818-11.281,52.606-26.34c1.414-1.975,2.161-4.286,2.161-6.688
				C160.636,70.215,159.889,67.902,158.475,65.927z M98.045,51.2c-4.467,0.405-8.54,2.173-11.804,4.893l-5.528-5.53
				c4.702-4.118,10.714-6.749,17.332-7.187V51.2z M77.946,53.327l5.53,5.53c-2.721,3.261-4.487,7.337-4.893,11.803H70.76
				C71.197,64.043,73.828,58.029,77.946,53.327z M78.58,74.571c0.397,4.427,2.13,8.521,4.881,11.819l-5.515,5.514
				c-4.118-4.702-6.749-10.716-7.187-17.333H78.58z M86.226,89.156c1.688,1.4,3.604,2.564,5.725,3.418l1.464-3.628
				c-6.693-2.701-11.019-9.112-11.019-16.33c0-9.707,7.898-17.604,17.604-17.604c7.583,0,14.224,4.804,16.645,11.857l-10.293,5.316
				l18.306,16.273c-5.227,8.104-14.315,13.496-24.657,13.496c-7.387,0-14.124-2.763-19.287-7.285L86.226,89.156z M126.59,84.94
				l-13.382-11.892l8.044-4.154l-0.373-1.502c-0.807-3.229-2.324-6.115-4.345-8.543l5.521-5.522
				c4.521,5.165,7.284,11.902,7.284,19.289C129.34,77.021,128.337,81.188,126.59,84.94z M113.767,56.083
				c-3.287-2.733-7.372-4.489-11.812-4.891v-7.816c6.618,0.44,12.631,3.068,17.332,7.187L113.767,56.083z M44.706,77.028
				c-0.935-1.306-1.43-2.832-1.43-4.412s0.495-3.105,1.43-4.413c7.835-10.937,20.831-18.902,35.984-22.604
				c-8.424,6.038-13.942,15.886-13.942,27.018s5.519,20.98,13.942,27.018C65.537,95.932,52.541,87.965,44.706,77.028z
				 M105.868,150.855c0,3.236-2.633,5.868-5.868,5.868c-3.234,0-5.868-2.632-5.868-5.868v-25.427h11.736V150.855z M94.132,121.517
				v-3.912h11.736v3.912H94.132z M101.955,113.692h-3.91v-7.876c0.652,0.015,1.301,0.052,1.955,0.052s1.303-0.037,1.955-0.052
				V113.692z M155.294,77.028c-7.835,10.937-20.83,18.903-35.983,22.605c8.423-6.037,13.941-15.886,13.941-27.018
				s-5.519-20.979-13.942-27.018c15.153,3.702,28.146,11.668,35.982,22.604c0.938,1.308,1.432,2.833,1.432,4.413
				S156.229,75.723,155.294,77.028z"/>
			<path fill="#005E9C" d="M100,161.136c-5.669,0-10.28-4.611-10.28-10.28v-24.927h-3.912v-4.912h3.912v-7.824h3.912v-7.082
				c-22.159-1.62-41.765-11.511-52.513-26.515c-1.476-2.06-2.255-4.473-2.255-6.979c0-2.506,0.779-4.92,2.254-6.98
				C52.949,49.123,75.511,38.864,100,38.864s47.051,10.258,58.881,26.771c1.476,2.061,2.255,4.475,2.255,6.98
				c0,2.506-0.779,4.92-2.255,6.979c-10.748,15.003-30.354,24.895-52.513,26.515v7.082h3.912v7.824h3.912v4.912h-3.912v24.927
				C110.28,156.524,105.669,161.136,100,161.136z M86.808,124.929h3.912v25.927c0,5.117,4.163,9.28,9.28,9.28s9.28-4.163,9.28-9.28
				v-25.927h3.912v-2.912h-3.912v-7.824h-3.912v-9.015l0.466-0.032c22.056-1.495,41.582-11.264,52.234-26.132
				c1.353-1.889,2.067-4.101,2.067-6.397c0-2.296-0.715-4.508-2.067-6.398C146.423,49.962,124.172,39.864,100,39.864
				S53.577,49.962,41.932,66.218c-1.353,1.89-2.067,4.103-2.067,6.398c0,2.296,0.715,4.508,2.067,6.397
				c10.651,14.868,30.179,24.637,52.234,26.132l0.466,0.032v9.015H90.72v7.824h-3.912V124.929z M100,157.224
				c-3.512,0-6.368-2.856-6.368-6.368v-25.927h12.736v25.927C106.368,154.367,103.512,157.224,100,157.224z M94.632,125.929v24.927
				c0,2.96,2.408,5.368,5.368,5.368s5.368-2.408,5.368-5.368v-24.927H94.632z M106.368,122.017H93.632v-4.912h12.736V122.017z
				 M94.632,121.017h10.736v-2.912H94.632V121.017z M102.455,114.192h-4.91v-8.888l1.255,0.035c0.799,0.028,1.602,0.028,2.4,0
				l1.255-0.035V114.192z M98.545,113.192h2.91v-6.86l-0.22,0.007c-0.822,0.029-1.648,0.029-2.471,0l-0.22-0.007V113.192z
				 M100,102.455c-7.195,0-14.162-2.631-19.616-7.409l-0.402-0.352l6.213-6.214l0.351,0.291c1.562,1.295,3.285,2.352,5.131,3.147
				l1.09-2.702c-6.62-2.882-10.87-9.344-10.87-16.601c0-9.983,8.122-18.104,18.104-18.104c7.735,0,14.614,4.901,17.117,12.195
				l0.141,0.408l-10.03,5.18L125.31,88.37l-0.232,0.36C119.535,97.324,110.16,102.455,100,102.455z M81.447,94.642
				c5.21,4.397,11.776,6.813,18.553,6.813c9.677,0,18.617-4.818,24.003-12.909l-18.527-16.47l10.551-5.45
				C113.55,59.96,107.163,55.512,100,55.512c-9.432,0-17.104,7.673-17.104,17.104c0,7.014,4.202,13.242,10.706,15.866l0.463,0.188
				l-1.838,4.555l-0.463-0.187c-1.976-0.795-3.825-1.874-5.503-3.209L81.447,94.642z M83.082,100.733l-2.511-0.613
				c-15.585-3.808-28.467-11.905-36.271-22.8c-0.997-1.392-1.523-3.019-1.523-4.703c0-1.683,0.526-3.31,1.522-4.704
				c7.806-10.895,20.688-18.992,36.272-22.8l2.511-0.613l-2.101,1.505c-8.6,6.164-13.733,16.112-13.733,26.611
				c0,10.5,5.134,20.448,13.733,26.611L83.082,100.733z M78.45,46.7c-14.292,3.966-26.068,11.647-33.338,21.794
				c-0.874,1.223-1.336,2.648-1.336,4.122c0,1.475,0.462,2.9,1.336,4.121c7.27,10.147,19.046,17.83,33.337,21.795
				c-7.682-6.398-12.201-15.914-12.201-25.917C66.248,62.615,70.769,53.099,78.45,46.7z M116.919,100.733l2.101-1.505
				c8.599-6.164,13.732-16.112,13.732-26.611c0-10.499-5.134-20.447-13.733-26.611l-2.101-1.505l2.511,0.613
				c15.582,3.807,28.464,11.904,36.27,22.799c0.998,1.392,1.525,3.018,1.525,4.704s-0.526,3.312-1.523,4.703
				c-7.806,10.896-20.687,18.993-36.271,22.8L116.919,100.733z M121.551,46.7c7.682,6.399,12.201,15.915,12.201,25.917
				c0,10.002-4.52,19.518-12.2,25.917c14.29-3.966,26.065-11.647,33.336-21.795c0.874-1.22,1.336-2.645,1.336-4.121
				c0-1.476-0.463-2.901-1.338-4.122C147.615,58.347,135.84,50.665,121.551,46.7z M77.922,92.636l-0.352-0.402
				c-4.348-4.964-6.875-11.06-7.31-17.629l-0.035-0.533h8.812l0.041,0.455c0.384,4.272,2.032,8.265,4.767,11.544l0.293,0.351
				L77.922,92.636z M71.299,75.071c0.503,5.968,2.802,11.512,6.675,16.098l4.814-4.812c-2.599-3.25-4.202-7.134-4.66-11.286H71.299z
				 M126.76,85.76l-14.429-12.821l8.341-4.308l-0.278-1.118c-0.769-3.076-2.196-5.884-4.244-8.344l-0.291-0.351l6.222-6.223
				l0.352,0.402c4.777,5.458,7.408,12.425,7.408,19.618c0,4.332-0.941,8.549-2.797,12.535L126.76,85.76z M114.085,73.159
				l12.329,10.957c1.61-3.671,2.426-7.536,2.426-11.499c0-6.773-2.415-13.341-6.812-18.554l-4.821,4.822
				c1.99,2.491,3.388,5.31,4.157,8.388l0.468,1.886L114.085,73.159z M79.041,71.16h-8.815l0.035-0.533
				c0.435-6.569,2.962-12.665,7.31-17.629l0.352-0.402l6.231,6.231l-0.293,0.351c-2.739,3.284-4.392,7.27-4.778,11.528L79.041,71.16
				z M71.299,70.16h6.833c0.461-4.139,2.069-8.017,4.672-11.269l-4.83-4.829C74.101,58.648,71.802,64.192,71.299,70.16z
				 M86.211,56.769l-6.229-6.231l0.402-0.352c4.964-4.348,11.06-6.875,17.628-7.31l0.533-0.035v8.815l-0.455,0.042
				c-4.254,0.386-8.24,2.038-11.528,4.779L86.211,56.769z M81.447,50.59l4.828,4.829c3.256-2.603,7.135-4.21,11.27-4.671v-6.833
				C91.578,44.418,86.033,46.717,81.447,50.59z M113.798,56.759l-0.351-0.292c-3.297-2.741-7.286-4.393-11.537-4.777l-0.455-0.041
				v-8.808l0.533,0.035c6.573,0.438,12.669,2.965,17.628,7.31l0.402,0.352L113.798,56.759z M102.455,50.74
				c4.133,0.459,8.014,2.067,11.277,4.67l4.82-4.82c-4.582-3.87-10.126-6.169-16.098-6.675V50.74z"/>
		</g>
		<g>
			<path fill="#005E9C" d="M100,90.22c-1.153,0-2.304-0.111-3.417-0.332l-0.759,3.839c1.362,0.271,2.768,0.405,4.176,0.405V90.22z"
				/>
			<path fill="#005E9C" d="M100.5,94.632H100c-1.449,0-2.887-0.14-4.273-0.415l-0.489-0.097l0.952-4.82l0.491,0.098
				c1.079,0.214,2.196,0.322,3.319,0.322h0.5V94.632z M96.413,93.327c1.009,0.174,2.043,0.274,3.087,0.299v-2.913
				c-0.851-0.023-1.695-0.105-2.522-0.245L96.413,93.327z"/>
		</g>
		<g>
			<path fill="#005E9C" d="M136.733,66.961c0.191,1.245,0.318,2.511,0.384,3.766l3.905-0.199c-0.07-1.386-0.211-2.783-0.42-4.158
				L136.733,66.961z"/>
			<path fill="#005E9C" d="M136.644,71.251l-0.025-0.499c-0.065-1.257-0.193-2.508-0.379-3.715l-0.076-0.495l4.858-0.743
				l0.075,0.495c0.211,1.386,0.354,2.802,0.425,4.208l0.025,0.5L136.644,71.251z M137.3,67.38c0.13,0.925,0.226,1.87,0.287,2.822
				l2.908-0.148c-0.066-1.041-0.171-2.084-0.314-3.114L137.3,67.38z"/>
		</g>
		<g>
			<path fill="#005E9C" d="M136.733,78.276l3.867,0.593c0.211-1.372,0.354-2.773,0.422-4.158l-3.905-0.195
				C137.052,75.766,136.923,77.032,136.733,78.276z"/>
			<path fill="#005E9C" d="M141.019,79.439l-4.854-0.744l0.075-0.494c0.187-1.225,0.313-2.474,0.379-3.712l0.025-0.498l4.902,0.245
				l-0.024,0.499c-0.067,1.39-0.211,2.806-0.427,4.21L141.019,79.439z M137.3,77.857l2.88,0.441
				c0.146-1.039,0.252-2.083,0.315-3.114l-2.908-0.146C137.525,75.98,137.43,76.924,137.3,77.857z"/>
		</g>
		<g>
			<path fill="#005E9C" d="M63.267,66.955l-3.867-0.593c-0.211,1.374-0.354,2.774-0.422,4.159l3.905,0.195
				C62.948,69.468,63.077,68.199,63.267,66.955z"/>
			<path fill="#005E9C" d="M63.356,71.241l-4.902-0.245l0.024-0.499c0.067-1.388,0.211-2.805,0.427-4.21l0.076-0.494l4.854,0.744
				l-0.075,0.494c-0.187,1.224-0.313,2.474-0.379,3.713L63.356,71.241z M59.505,70.047l2.908,0.146
				c0.062-0.941,0.157-1.886,0.287-2.819l-2.879-0.441C59.674,67.973,59.568,69.017,59.505,70.047z"/>
		</g>
		<g>
			<path fill="#005E9C" d="M58.978,74.703c0.07,1.385,0.211,2.783,0.421,4.158l3.868-0.593c-0.191-1.244-0.318-2.51-0.384-3.765
				L58.978,74.703z"/>
			<path fill="#005E9C" d="M58.979,79.431l-0.075-0.494c-0.211-1.382-0.354-2.798-0.426-4.208l-0.025-0.5l4.903-0.25l0.025,0.499
				c0.065,1.258,0.193,2.508,0.379,3.714l0.076,0.495L58.979,79.431z M59.505,75.177c0.066,1.043,0.172,2.087,0.315,3.114
				l2.88-0.441c-0.13-0.924-0.226-1.869-0.287-2.821L59.505,75.177z"/>
		</g>
	</g>
</g>
<rect y="-14.996" fill="#005E9C" width="200" height="3.644"/>
<rect x="-22.304" fill="#005E9C" width="17.409" height="200"/>
</svg>
