<?xml version="1.0" encoding="utf-8"?>
<!-- Generator: Adobe Illustrator 16.0.0, SVG Export Plug-In . SVG Version: 6.00 Build 0)  -->
<!DOCTYPE svg PUBLIC "-//W3C//DTD SVG 1.1//EN" "http://www.w3.org/Graphics/SVG/1.1/DTD/svg11.dtd">
<svg version="1.1" id="Layer_1" xmlns="http://www.w3.org/2000/svg" xmlns:xlink="http://www.w3.org/1999/xlink" x="0px" y="0px"
	 width="200px" height="200px" viewBox="0 0 200 200" enable-background="new 0 0 200 200" xml:space="preserve">
<rect y="-14.996" fill="#005E9C" width="200" height="3.644"/>
<rect x="-22.304" fill="#005E9C" width="17.409" height="200"/>
<g>
	<g>
		<path fill="#005E9C" d="M100,197.844c-53.951,0-97.844-43.893-97.844-97.844S46.049,2.156,100,2.156S197.844,46.049,197.844,100
			S153.951,197.844,100,197.844z M100,7.156C48.806,7.156,7.156,48.806,7.156,100S48.806,192.844,100,192.844
			s92.844-41.649,92.844-92.844S151.194,7.156,100,7.156z"/>
	</g>
	<g>
		<g>
			<path fill="#005E9C" d="M56.954,155.162c0,1.051,0.852,1.902,1.902,1.902h24.025c1.051,0,1.902-0.852,1.902-1.902v-15.217
				c0-1.051-0.852-1.902-1.902-1.902h-0.101v-3.805c-0.023-6.441-3.011-12.516-8.098-16.467l-2.782-5.502
				c-1.271-2.488-4.32-3.477-6.81-2.205c-0.621,0.316-1.169,0.758-1.611,1.297c-0.949,1.156-1.327,2.676-1.029,4.141l1.172,5.799
				c0.034,0.166,0.091,0.328,0.168,0.48l0.215,0.426c-4.653-4.486-7.743-10.35-8.813-16.725l-0.76-4.488
				c-0.558-3.158-3.569-5.268-6.727-4.709c-1.294,0.229-2.473,0.889-3.342,1.875c-1.086,1.232-1.589,2.873-1.382,4.504l1.097,8.705
				c1.312,10.33,6.022,19.932,13.391,27.293c-0.328,0.346-0.513,0.805-0.516,1.283V155.162z M80.98,141.848v11.412H60.759v-11.412
				H80.98z M47.858,110.895l-1.102-8.715c-0.07-0.547,0.101-1.096,0.466-1.506c0.733-0.828,1.999-0.902,2.825-0.168
				c0.33,0.291,0.554,0.686,0.637,1.119l0.761,4.488c1.716,10.18,7.952,19.031,16.96,24.074c0.915,0.518,2.075,0.193,2.592-0.721
				c0.312-0.553,0.327-1.227,0.041-1.793l-3.732-7.381l-1.122-5.545c-0.073-0.346,0.018-0.707,0.245-0.979
				c0.236-0.293,0.595-0.459,0.971-0.455c0.467,0,0.895,0.26,1.11,0.674l2.98,5.896c0.136,0.266,0.33,0.496,0.571,0.672
				c4.332,3.215,6.895,8.285,6.915,13.682v3.805H62.339C54.344,131.076,49.189,121.414,47.858,110.895z"/>
			<path fill="#005E9C" d="M82.882,157.564H58.856c-1.324,0-2.402-1.078-2.402-2.402v-15.217c0.003-0.444,0.126-0.871,0.354-1.24
				c-7.234-7.363-11.925-17.031-13.226-27.273l-1.097-8.705c-0.225-1.772,0.323-3.558,1.503-4.897
				c0.939-1.066,2.229-1.789,3.63-2.037c0.365-0.065,0.736-0.098,1.104-0.098c3.061,0,5.668,2.192,6.202,5.212l0.761,4.491
				c0.932,5.55,3.479,10.794,7.239,14.971l-0.964-4.769c-0.329-1.617,0.084-3.278,1.133-4.557c0.489-0.597,1.086-1.076,1.771-1.425
				c0.791-0.404,1.641-0.609,2.524-0.609c2.103,0,4.002,1.162,4.957,3.032l2.732,5.404c5.19,4.074,8.178,10.188,8.202,16.79v3.34
				c1.135,0.19,2.003,1.181,2.003,2.369v15.217C85.284,156.486,84.206,157.564,82.882,157.564z M48.723,96.695
				c-0.31,0-0.623,0.028-0.93,0.082c-1.179,0.208-2.264,0.817-3.054,1.713c-0.99,1.124-1.45,2.623-1.261,4.111l1.097,8.705
				c1.291,10.167,5.996,19.756,13.248,27.002l0.345,0.345l-0.336,0.353c-0.241,0.255-0.376,0.59-0.378,0.942v15.214
				c0,0.773,0.629,1.402,1.402,1.402h24.025c0.773,0,1.402-0.629,1.402-1.402v-15.217c0-0.773-0.629-1.402-1.402-1.402h-0.601
				v-4.305c-0.023-6.329-2.904-12.188-7.904-16.072l-0.14-0.169l-2.782-5.502c-0.782-1.532-2.341-2.485-4.065-2.485
				c-0.725,0-1.421,0.168-2.07,0.5c-0.562,0.286-1.051,0.68-1.452,1.169c-0.857,1.044-1.195,2.401-0.926,3.724l1.172,5.8
				c0.024,0.121,0.066,0.24,0.124,0.354l1.542,3.056l-2.12-2.044c-4.697-4.529-7.88-10.567-8.96-17.002l-0.76-4.487
				C53.491,98.54,51.297,96.695,48.723,96.695z M81.48,153.76H60.259v-12.412H81.48V153.76z M61.259,152.76H80.48v-10.412H61.259
				V152.76z M79.477,138.543H62.151l-0.141-0.123c-8.099-7.057-13.3-16.81-14.648-27.463l-1.102-8.715
				c-0.088-0.688,0.126-1.381,0.588-1.901c0.879-0.993,2.539-1.092,3.531-0.209c0.409,0.36,0.692,0.857,0.796,1.399l0.763,4.498
				c1.699,10.081,7.79,18.728,16.711,23.722c0.66,0.373,1.547,0.118,1.912-0.53c0.23-0.408,0.242-0.902,0.03-1.321l-3.776-7.507
				l-1.122-5.545c-0.104-0.488,0.028-1.013,0.353-1.399c0.322-0.4,0.813-0.634,1.341-0.634c0.668,0,1.264,0.361,1.566,0.942
				l2.983,5.902c0.1,0.195,0.245,0.366,0.42,0.493c4.438,3.294,7.1,8.559,7.12,14.084V138.543z M62.526,137.543h15.95v-3.305
				c-0.02-5.21-2.529-10.176-6.713-13.28c-0.297-0.217-0.547-0.51-0.719-0.846l-2.981-5.898c-0.127-0.244-0.383-0.399-0.664-0.399
				l0,0c-0.236,0-0.443,0.098-0.581,0.269c-0.135,0.161-0.187,0.367-0.146,0.562l1.109,5.483l3.702,7.32
				c0.362,0.718,0.343,1.563-0.052,2.264c-0.629,1.113-2.156,1.541-3.273,0.911c-9.185-5.143-15.457-14.046-17.207-24.427
				l-0.761-4.487c-0.06-0.314-0.229-0.611-0.474-0.828c-0.6-0.532-1.593-0.471-2.12,0.125c-0.271,0.304-0.396,0.708-0.344,1.109
				l1.102,8.717C49.664,121.18,54.694,130.658,62.526,137.543z"/>
		</g>
		<g>
			<path fill="#005E9C" d="M157.019,102.664c0.205-1.631-0.301-3.268-1.386-4.498c-2.123-2.402-5.79-2.629-8.195-0.508
				c-0.982,0.869-1.645,2.049-1.872,3.344l-0.763,4.488c-1.069,6.375-4.159,12.238-8.812,16.725l0.216-0.426
				c0.075-0.152,0.132-0.314,0.166-0.48l1.172-5.799c0.298-1.465-0.079-2.986-1.028-4.141c-1.774-2.162-4.964-2.475-7.126-0.701
				c-0.539,0.441-0.98,0.99-1.297,1.609l-2.775,5.494c-5.088,3.951-8.074,10.025-8.098,16.467v3.805h-0.1
				c-1.052,0-1.902,0.852-1.902,1.902v15.217c0,1.051,0.851,1.902,1.902,1.902h24.025c1.049,0,1.902-0.852,1.902-1.902v-15.217
				c-0.002-0.479-0.187-0.938-0.517-1.283c7.369-7.361,12.079-16.963,13.392-27.293L157.019,102.664z M139.245,153.26h-20.223
				v-11.412h20.223V153.26z M152.145,110.895c-1.33,10.52-6.486,20.182-14.481,27.148h-16.638v-3.805
				c0.018-5.402,2.587-10.479,6.926-13.695c0.24-0.176,0.437-0.406,0.57-0.672l2.979-5.896c0.221-0.406,0.646-0.66,1.108-0.66
				c0.375-0.004,0.732,0.162,0.969,0.455c0.228,0.271,0.318,0.633,0.246,0.979l-1.122,5.545l-3.733,7.381
				c-0.474,0.938-0.098,2.082,0.84,2.555c0.568,0.287,1.239,0.273,1.795-0.041c9.005-5.043,15.243-13.895,16.959-24.074l0.76-4.488
				c0.21-1.086,1.259-1.797,2.344-1.588c0.433,0.082,0.826,0.307,1.119,0.637c0.364,0.41,0.535,0.959,0.464,1.506L152.145,110.895z"
				/>
			<path fill="#005E9C" d="M141.146,157.564h-24.025c-1.324,0-2.402-1.078-2.402-2.402v-15.217c0-1.188,0.867-2.178,2.002-2.369
				v-3.338c0.024-6.605,3.012-12.719,8.202-16.792l2.725-5.395c0.352-0.688,0.831-1.283,1.427-1.771
				c0.992-0.814,2.245-1.263,3.526-1.263c1.674,0,3.242,0.741,4.303,2.033c1.049,1.275,1.461,2.937,1.132,4.558l-0.964,4.769
				c3.761-4.178,6.308-9.422,7.238-14.97l0.763-4.49c0.247-1.402,0.969-2.692,2.034-3.634c1.154-1.019,2.637-1.579,4.174-1.579
				c1.808,0,3.531,0.776,4.728,2.13c1.181,1.339,1.729,3.122,1.507,4.892l-1.095,8.705c-1.302,10.243-5.993,19.91-13.226,27.272
				c0.229,0.369,0.353,0.796,0.354,1.239v15.219C143.549,156.486,142.471,157.564,141.146,157.564z M117.221,138.543
				c-0.873,0-1.502,0.629-1.502,1.402v15.217c0,0.773,0.629,1.402,1.402,1.402h24.025c0.773,0,1.402-0.629,1.402-1.402v-15.217
				c-0.001-0.351-0.136-0.684-0.378-0.938l-0.338-0.354l0.346-0.346c7.252-7.244,11.957-16.834,13.249-27.003l1.095-8.704
				c0.187-1.485-0.274-2.981-1.265-4.105c-1.007-1.139-2.456-1.792-3.978-1.792c-1.293,0-2.541,0.472-3.512,1.329
				c-0.896,0.792-1.504,1.878-1.711,3.055l-0.762,4.486c-1.079,6.433-4.261,12.471-8.958,17.001l-2.132,2.056l1.555-3.067
				c0.056-0.112,0.098-0.233,0.123-0.355l1.171-5.797c0.27-1.325-0.067-2.683-0.924-3.725c-0.871-1.061-2.157-1.668-3.53-1.668
				c-1.051,0-2.078,0.368-2.893,1.036c-0.488,0.399-0.882,0.888-1.169,1.45l-2.914,5.661c-5,3.884-7.881,9.742-7.904,16.074v4.303
				H117.221z M139.745,153.76h-21.223v-12.412h21.223V153.76z M119.522,152.76h19.223v-10.412h-19.223V152.76z M137.851,138.543
				h-17.325v-4.305c0.018-5.532,2.683-10.801,7.128-14.097c0.18-0.132,0.324-0.302,0.422-0.495l2.979-5.897
				c0.315-0.581,0.909-0.935,1.555-0.935h0.013c0.526,0,1.017,0.233,1.346,0.642c0.322,0.384,0.45,0.895,0.346,1.395l-1.165,5.668
				l-3.733,7.381c-0.169,0.334-0.197,0.714-0.08,1.07c0.116,0.355,0.365,0.644,0.698,0.812c0.414,0.209,0.923,0.197,1.324-0.03
				c8.923-4.996,15.013-13.643,16.712-23.722l0.76-4.489c0.26-1.343,1.554-2.258,2.932-1.995c0.536,0.102,1.033,0.385,1.398,0.796
				c0.462,0.521,0.676,1.214,0.586,1.902l-1.104,8.713c-1.347,10.651-6.549,20.405-14.649,27.463L137.851,138.543z M121.525,137.543
				h15.95c7.834-6.887,12.864-16.365,14.173-26.711l1.104-8.715c0.053-0.403-0.072-0.808-0.342-1.111
				c-0.219-0.247-0.517-0.417-0.838-0.478c-0.845-0.16-1.605,0.393-1.76,1.191l-0.758,4.478
				c-1.75,10.379-8.021,19.282-17.208,24.427c-0.683,0.387-1.559,0.407-2.265,0.051c-0.572-0.289-0.998-0.783-1.198-1.394
				c-0.2-0.609-0.151-1.26,0.138-1.833l3.703-7.32l1.108-5.479c0.041-0.197-0.011-0.404-0.139-0.558
				c-0.145-0.179-0.351-0.276-0.573-0.276v-0.5l-0.008,0.5c-0.284,0-0.54,0.152-0.674,0.398l-2.972,5.884
				c-0.168,0.333-0.418,0.628-0.722,0.85c-4.19,3.107-6.704,8.077-6.721,13.294V137.543z"/>
		</g>
		<g>
			<path fill="#005E9C" d="M136.142,79.076c0-19.959-16.182-36.141-36.14-36.141c-19.96,0-36.142,16.182-36.142,36.141
				c0,19.961,16.182,36.141,36.142,36.141C119.951,115.195,136.118,99.027,136.142,79.076z M101.904,111.316v-7.609
				c12.139-0.947,21.78-10.59,22.727-22.729h7.608C131.264,97.312,118.235,110.338,101.904,111.316z M101.904,46.834
				c16.334,0.977,29.361,14.006,30.335,30.34h-7.608c-0.946-12.139-10.588-21.781-22.727-22.729V46.834z M120.925,79.076
				c0,11.557-9.367,20.924-20.923,20.924c-11.557,0-20.924-9.367-20.924-20.924c0-11.555,9.367-20.922,20.924-20.922
				C111.551,58.168,120.911,67.525,120.925,79.076z M98.099,46.836v7.609c-12.138,0.947-21.78,10.59-22.728,22.729h-7.609
				C68.739,60.842,81.767,47.814,98.099,46.836z M98.099,111.318c-16.333-0.975-29.361-14.006-30.337-30.34h7.609
				c0.947,12.139,10.59,21.781,22.728,22.729V111.318z"/>
			<path fill="#005E9C" d="M100.003,115.717L100.003,115.717c-20.205,0-36.643-16.437-36.643-36.641s16.438-36.641,36.642-36.641
				c20.203,0,36.64,16.437,36.64,36.641C136.618,99.258,120.182,115.695,100.003,115.717z M100.002,43.436
				c-19.653,0-35.642,15.988-35.642,35.641s15.988,35.641,35.642,35.641c19.629-0.021,35.616-16.01,35.64-35.641
				C135.642,59.424,119.653,43.436,100.002,43.436z M98.599,111.849l-0.529-0.031c-16.573-0.989-29.816-14.234-30.807-30.809
				l-0.031-0.53h8.603l0.035,0.461c0.935,11.97,10.3,21.335,22.269,22.27l0.461,0.035V111.849z M68.297,81.479
				c1.193,15.646,13.657,28.112,29.302,29.305v-6.617c-12.088-1.16-21.526-10.599-22.686-22.688H68.297z M101.404,111.848v-8.604
				l0.461-0.035c11.97-0.935,21.334-10.3,22.268-22.27l0.035-0.461h8.602l-0.031,0.53c-0.989,16.57-14.232,29.814-30.804,30.807
				L101.404,111.848z M102.404,104.166v6.615c15.641-1.197,28.105-13.663,29.3-29.303h-6.615
				C123.931,93.567,114.492,103.006,102.404,104.166z M100.002,100.5c-11.813,0-21.424-9.611-21.424-21.424
				c0-11.812,9.61-21.422,21.424-21.422h0.001c11.798,0.014,21.408,9.624,21.422,21.421C121.425,90.889,111.814,100.5,100.002,100.5
				z M100.002,58.654c-11.262,0-20.424,9.161-20.424,20.422c0,11.262,9.162,20.424,20.424,20.424
				c11.261,0,20.423-9.162,20.423-20.424C120.411,67.829,111.25,58.667,100.002,58.654L100.002,58.654z M132.77,77.674h-8.602
				l-0.035-0.461c-0.934-11.97-10.298-21.335-22.268-22.269l-0.461-0.036v-8.604l0.53,0.032
				c16.573,0.991,29.815,14.236,30.804,30.809L132.77,77.674z M125.089,76.674h6.615c-1.191-15.645-13.655-28.111-29.3-29.305v6.618
				C114.492,55.146,123.931,64.585,125.089,76.674z M75.834,77.674H67.23l0.032-0.53c0.992-16.57,14.235-29.814,30.806-30.807
				l0.53-0.032v8.603l-0.461,0.036c-11.969,0.934-21.334,10.299-22.269,22.269L75.834,77.674z M68.297,76.674h6.616
				c1.159-12.088,10.598-21.527,22.686-22.687v-6.616C81.959,48.568,69.493,61.034,68.297,76.674z"/>
		</g>
		<g>
			<path fill="#005E9C" d="M100.002,94.293c8.402,0,15.217-6.812,15.217-15.217c0-8.402-6.814-15.217-15.217-15.217
				c-8.404,0-15.218,6.814-15.218,15.217C84.793,87.477,91.601,94.283,100.002,94.293z M100.002,67.664
				c6.303,0,11.413,5.109,11.413,11.412s-5.11,11.414-11.413,11.414c-6.304,0-11.413-5.111-11.413-11.414
				C88.596,72.775,93.701,67.67,100.002,67.664z"/>
			<path fill="#005E9C" d="M100.002,94.793L100.002,94.793c-8.658-0.01-15.709-7.061-15.718-15.716
				c0-8.667,7.051-15.717,15.718-15.717c8.666,0,15.717,7.05,15.717,15.717S108.668,94.793,100.002,94.793z M100.002,64.359
				c-8.115,0-14.718,6.602-14.718,14.717c0.009,8.105,6.611,14.708,14.719,14.717c8.114,0,14.716-6.602,14.716-14.717
				S108.117,64.359,100.002,64.359z M100.002,90.99c-6.569,0-11.913-5.345-11.913-11.914c0.007-6.562,5.352-11.906,11.913-11.912
				l0,0c6.569,0,11.913,5.344,11.913,11.912C111.915,85.646,106.571,90.99,100.002,90.99z M100.002,68.164
				c-6.011,0.005-10.906,4.901-10.913,10.913c0,6.018,4.896,10.914,10.913,10.914s10.913-4.896,10.913-10.914
				C110.915,73.059,106.02,68.164,100.002,68.164L100.002,68.164z"/>
		</g>
		<g>
			<path fill="#005E9C" d="M100.002,84.783c3.151,0,5.706-2.555,5.706-5.707c0-3.15-2.555-5.707-5.706-5.707
				c-3.152,0-5.707,2.557-5.707,5.707C94.295,82.229,96.85,84.783,100.002,84.783z M100.002,77.174c1.049,0,1.902,0.852,1.902,1.902
				s-0.854,1.902-1.902,1.902c-1.051,0-1.903-0.852-1.903-1.902S98.951,77.174,100.002,77.174z"/>
			<path fill="#005E9C" d="M100.002,85.283c-3.423,0-6.207-2.785-6.207-6.207s2.784-6.207,6.207-6.207
				c3.422,0,6.206,2.785,6.206,6.207S103.424,85.283,100.002,85.283z M100.002,73.869c-2.871,0-5.207,2.336-5.207,5.207
				s2.336,5.207,5.207,5.207s5.206-2.336,5.206-5.207S102.873,73.869,100.002,73.869z M100.002,81.479
				c-1.325,0-2.403-1.078-2.403-2.402s1.078-2.402,2.403-2.402c1.324,0,2.402,1.078,2.402,2.402S101.326,81.479,100.002,81.479z
				 M100.002,77.674c-0.773,0-1.403,0.629-1.403,1.402s0.63,1.402,1.403,1.402s1.402-0.629,1.402-1.402
				S100.775,77.674,100.002,77.674z"/>
		</g>
	</g>
</g>
</svg>
