<?xml version="1.0" encoding="utf-8"?>
<!-- Generator: Adobe Illustrator 16.0.0, SVG Export Plug-In . SVG Version: 6.00 Build 0)  -->
<!DOCTYPE svg PUBLIC "-//W3C//DTD SVG 1.1//EN" "http://www.w3.org/Graphics/SVG/1.1/DTD/svg11.dtd">
<svg version="1.1" id="Layer_1" xmlns="http://www.w3.org/2000/svg" xmlns:xlink="http://www.w3.org/1999/xlink" x="0px" y="0px"
	 width="200px" height="200px" viewBox="0 0 200 200" enable-background="new 0 0 200 200" xml:space="preserve">
<g>
	<path fill="#005E9C" d="M99.75,198.031c-53.952,0-97.844-43.893-97.844-97.844S45.798,2.344,99.75,2.344
		c53.951,0,97.844,43.893,97.844,97.844S153.701,198.031,99.75,198.031z M99.75,7.344c-51.194,0-92.844,41.649-92.844,92.844
		s41.65,92.844,92.844,92.844s92.844-41.649,92.844-92.844S150.944,7.344,99.75,7.344z"/>
</g>
<g>
	<g>
		<path fill="#005E9C" d="M144.381,60.987H54.994c-7.989,0-14.605,6.493-14.605,14.606v49.188c0,7.99,6.491,14.606,14.605,14.606
			h89.512c7.988,0,14.605-6.491,14.605-14.606V75.469C158.986,67.48,152.494,60.987,144.381,60.987z M154.367,124.656
			c0,5.494-4.494,9.862-9.861,9.862H54.994c-5.492,0-9.862-4.493-9.862-9.862V75.469c0-5.492,4.495-9.862,9.862-9.862h89.512
			c5.492,0,9.861,4.495,9.861,9.862V124.656L154.367,124.656z"/>
		<path fill="#005E9C" d="M144.506,139.888H54.994c-8.329,0-15.105-6.776-15.105-15.106V75.594c0-8.33,6.776-15.106,15.105-15.106
			h89.387c8.269,0,15.102,6.717,15.23,14.974v49.32C159.611,133.111,152.835,139.888,144.506,139.888z M54.994,61.487
			c-7.777,0-14.105,6.328-14.105,14.106v49.188c0,7.778,6.328,14.106,14.105,14.106h89.512c7.777,0,14.105-6.328,14.105-14.106
			V75.469c-0.121-7.706-6.505-13.981-14.23-13.981H54.994z M144.506,135.019H54.994c-5.713,0-10.362-4.648-10.362-10.362V75.469
			c0-5.714,4.648-10.362,10.362-10.362h89.512c5.713,0,10.361,4.648,10.361,10.362v49.188
			C154.867,130.37,150.219,135.019,144.506,135.019z M54.994,66.106c-5.162,0-9.362,4.2-9.362,9.362v49.188
			c0,5.162,4.2,9.362,9.362,9.362h89.512c5.162,0,9.361-4.2,9.361-9.362V75.469c0-5.163-4.199-9.362-9.361-9.362H54.994z"/>
	</g>
	<g>
		<path fill="#005E9C" d="M139.512,79.339h-32.957c-1.249,0-2.373,0.999-2.373,2.373c0,1.373,0.999,2.372,2.373,2.372h32.957
			c1.248,0,2.373-0.999,2.373-2.372C141.885,80.338,140.885,79.339,139.512,79.339z"/>
		<path fill="#005E9C" d="M139.512,84.584h-32.957c-1.638,0-2.873-1.235-2.873-2.872c0-1.584,1.289-2.873,2.873-2.873h32.957
			c1.638,0,2.873,1.235,2.873,2.873C142.385,83.295,141.096,84.584,139.512,84.584z M106.555,79.839
			c-1.033,0-1.873,0.84-1.873,1.873c0,1.102,0.771,1.872,1.873,1.872h32.957c1.033,0,1.873-0.84,1.873-1.872
			c0-1.103-0.771-1.873-1.873-1.873H106.555z"/>
	</g>
	<g>
		<path fill="#005E9C" d="M139.512,97.691h-32.957c-1.249,0-2.373,0.999-2.373,2.371c0,1.374,0.999,2.373,2.373,2.373h32.957
			c1.248,0,2.373-0.999,2.373-2.373C141.885,98.69,140.885,97.691,139.512,97.691z"/>
		<path fill="#005E9C" d="M139.512,102.936h-32.957c-1.638,0-2.873-1.235-2.873-2.873c0-1.583,1.289-2.871,2.873-2.871h32.957
			c1.638,0,2.873,1.234,2.873,2.871C142.385,101.646,141.096,102.936,139.512,102.936z M106.555,98.191
			c-1.033,0-1.873,0.839-1.873,1.871c0,1.103,0.771,1.873,1.873,1.873h32.957c1.033,0,1.873-0.84,1.873-1.873
			c0-1.102-0.771-1.871-1.873-1.871H106.555z"/>
	</g>
	<g>
		<path fill="#005E9C" d="M139.512,116.168h-32.957c-1.249,0-2.373,0.998-2.373,2.371c0,1.249,0.999,2.372,2.373,2.372h32.957
			c1.248,0,2.373-0.998,2.373-2.372C141.885,117.166,140.885,116.168,139.512,116.168z"/>
		<path fill="#005E9C" d="M139.512,121.411h-32.957c-1.584,0-2.873-1.288-2.873-2.872c0-1.583,1.289-2.871,2.873-2.871h32.957
			c1.638,0,2.873,1.234,2.873,2.871C142.385,120.123,141.096,121.411,139.512,121.411z M106.555,116.668
			c-1.033,0-1.873,0.84-1.873,1.871c0,1.032,0.84,1.872,1.873,1.872h32.957c1.033,0,1.873-0.84,1.873-1.872
			c0-1.102-0.771-1.871-1.873-1.871H106.555z"/>
	</g>
	<g>
		<path fill="#005E9C" d="M82.085,97.566c2.497-2.122,4.119-5.369,4.119-8.864c0-6.492-5.242-11.734-11.734-11.734
			S62.735,82.21,62.735,88.702c0,3.621,1.624,6.742,4.12,8.864c-5.992,3.121-10.112,9.737-10.112,17.478
			c0,1.872,0.875,5.242,6.242,7.49c3.121,1.248,7.116,1.997,11.486,1.997c8.863,0,17.728-2.871,17.728-9.362
			C92.198,107.429,88.078,100.688,82.085,97.566z M67.479,88.702c0-3.869,3.121-6.99,6.991-6.99s6.991,3.121,6.991,6.99
			c0,3.87-3.121,6.99-6.991,6.99S67.479,92.572,67.479,88.702z M74.47,119.788c-7.116,0-12.984-2.123-12.984-4.744
			c0-8.115,5.868-14.731,12.984-14.731c7.116,0,12.983,6.616,12.983,14.731C87.578,117.665,81.586,119.788,74.47,119.788z"/>
		<path fill="#005E9C" d="M74.47,125.031c-4.248,0-8.393-0.722-11.671-2.033c-5.706-2.39-6.556-6.009-6.556-7.954
			c0-7.463,3.719-14.129,9.752-17.578c-2.431-2.311-3.76-5.396-3.76-8.764c0-6.746,5.489-12.234,12.235-12.234
			c6.746,0,12.234,5.488,12.234,12.234c0,3.265-1.395,6.489-3.762,8.763c5.948,3.417,9.755,10.283,9.755,17.704
			C92.698,121.981,83.543,125.031,74.47,125.031z M74.47,77.468c-6.195,0-11.235,5.04-11.235,11.234c0,3.309,1.4,6.321,3.943,8.483
			l0.566,0.481l-0.659,0.343c-6.071,3.163-9.843,9.689-9.843,17.034c0,1.696,0.771,4.866,5.935,7.029
			c3.155,1.262,7.168,1.958,11.292,1.958c8.575,0,17.228-2.74,17.228-8.862c0-7.31-3.864-14.045-9.843-17.159l-0.659-0.343
			l0.566-0.481c2.469-2.099,3.942-5.27,3.942-8.483C85.704,82.507,80.665,77.468,74.47,77.468z M74.47,120.288
			c-6.628,0-13.484-1.962-13.484-5.244c0-8.398,6.049-15.231,13.484-15.231c7.435,0,13.483,6.833,13.483,15.231
			c0.032,0.657-0.246,1.311-0.827,1.92C85.23,118.952,80.145,120.288,74.47,120.288z M74.47,100.812
			c-6.884,0-12.484,6.384-12.484,14.231c0,2.008,5.127,4.244,12.484,4.244c5.333,0,10.24-1.239,11.933-3.015
			c0.384-0.403,0.57-0.809,0.551-1.206C86.953,107.196,81.354,100.812,74.47,100.812z M74.47,96.192c-4.131,0-7.491-3.36-7.491-7.49
			c0-4.13,3.36-7.49,7.491-7.49s7.491,3.36,7.491,7.49C81.961,92.833,78.601,96.192,74.47,96.192z M74.47,82.212
			c-3.579,0-6.491,2.912-6.491,6.49s2.912,6.49,6.491,6.49s6.491-2.912,6.491-6.49S78.049,82.212,74.47,82.212z"/>
	</g>
</g>
</svg>
