<?xml version="1.0" encoding="utf-8"?>
<!-- Generator: Adobe Illustrator 16.0.0, SVG Export Plug-In . SVG Version: 6.00 Build 0)  -->
<!DOCTYPE svg PUBLIC "-//W3C//DTD SVG 1.1//EN" "http://www.w3.org/Graphics/SVG/1.1/DTD/svg11.dtd">
<svg version="1.1" id="Layer_1" xmlns="http://www.w3.org/2000/svg" xmlns:xlink="http://www.w3.org/1999/xlink" x="0px" y="0px"
	 width="200px" height="200px" viewBox="0 0 200 200" enable-background="new 0 0 200 200" xml:space="preserve">
<rect y="-14.996" fill="#005E9C" width="200" height="3.644"/>
<rect x="-22.304" fill="#005E9C" width="17.409" height="200"/>
<g>
	<circle fill="none" stroke="#005E9C" stroke-width="5" stroke-miterlimit="10" cx="100" cy="100" r="95.344"/>
	<g>
		<path fill="#005E9C" d="M160.446,124.001c-0.246-0.368-5.634-8.449-19.715-5.267c-8.327,1.96-15.062,4.041-18.735,5.389
			c-0.367-3.307-3.184-6-6.612-6.123l-51.307-10.041v-2.938c0-1.103-0.857-1.959-1.959-1.959H41.179
			c-1.102,0-1.959,0.856-1.959,1.959v40.163c0,1.104,0.857,1.96,1.959,1.96h20.939c1.102,0,1.959-0.856,1.959-1.96v-4.285
			c7.837,3.184,30.245,11.633,41.878,11.633c14.082,0,52.286-24.735,53.878-25.715C160.813,126.204,161.059,124.98,160.446,124.001z
			 M43.261,143.103v-36h16.897v2.571l0,0v28.286l0,0v5.143H43.261L43.261,143.103z M105.955,148.613
			c-11.633,0-36.123-9.674-41.878-11.879v-24.611l50.939,9.918c1.714,0,3.062,1.347,3.062,3.062c0,1.714-1.348,3.061-3.062,3.061
			H86.485c-1.102,0-1.959,0.858-1.959,1.96s0.857,1.959,1.959,1.959h28.653c2.449,0,4.653-1.347,6.001-3.306
			c2.204-0.858,10.041-3.796,20.693-6.245c7.592-1.715,12,0.489,13.959,2.082C147.589,129.878,117.221,148.613,105.955,148.613z"/>
		<path fill="#005E9C" d="M149.67,68.53L149.67,68.53c-0.245-0.734-0.856-1.225-1.592-1.348l-17.633-2.571l-0.122-0.122
			l-7.837-15.919c-0.367-0.611-0.98-1.102-1.715-1.102s-1.347,0.367-1.714,1.102l-7.96,16.041l-17.633,2.571
			c-0.734,0.123-1.347,0.613-1.591,1.348c-0.245,0.734,0,1.47,0.489,1.959l12.735,12.49l-3.062,17.633
			c-0.123,0.734,0.122,1.469,0.734,1.837c0.612,0.367,1.348,0.49,2.082,0.123l15.796-8.327l16.041,8.449
			c0.612,0.367,1.469,0.245,2.081-0.122c0.613-0.491,0.857-1.104,0.735-1.838l-3.062-17.633l12.735-12.49
			C149.793,70,149.915,69.265,149.67,68.53z M133.017,81.021c-0.489,0.489-0.612,1.102-0.612,1.714l2.572,14.816l-13.225-6.979
			c-0.49-0.245-1.226-0.245-1.838,0l-13.225,6.979l2.572-14.816c0.122-0.612-0.123-1.225-0.612-1.714L97.873,70.611l14.817-2.203
			c0.612-0.123,1.225-0.49,1.469-1.103l6.612-13.47l6.612,13.47c0.245,0.612,0.857,0.979,1.47,1.103l14.816,2.203L133.017,81.021z"
			/>
	</g>
</g>
</svg>
