<?xml version="1.0" encoding="utf-8"?>
<!-- Generator: Adobe Illustrator 16.0.0, SVG Export Plug-In . SVG Version: 6.00 Build 0)  -->
<!DOCTYPE svg PUBLIC "-//W3C//DTD SVG 1.1//EN" "http://www.w3.org/Graphics/SVG/1.1/DTD/svg11.dtd">
<svg version="1.1" id="Layer_1" xmlns="http://www.w3.org/2000/svg" xmlns:xlink="http://www.w3.org/1999/xlink" x="0px" y="0px"
	 width="200px" height="200px" viewBox="0 0 200 200" enable-background="new 0 0 200 200" xml:space="preserve">
<rect y="-14.996" fill="#005E9C" width="200" height="3.644"/>
<rect x="-22.304" fill="#005E9C" width="17.409" height="200"/>
<g>
	<circle fill="none" stroke="#005E9C" stroke-width="5" stroke-miterlimit="10" cx="100" cy="100" r="95.344"/>
	<g>
		<path fill="#005E9C" d="M101.433,63.207c-8.601-0.357-16.843,2.629-23.056,8.602c-6.212,5.973-9.676,13.977-9.676,22.578
			c0,7.047,2.27,13.736,6.689,19.352c3.823,4.896,6.452,9.557,8.123,14.453l0.12,0.359v12.543c0,1.553,1.195,2.986,2.747,3.227
			c0.598,6.928,6.451,12.422,13.619,12.422s13.021-5.494,13.618-12.543c1.553-0.238,2.747-1.553,2.747-3.225v-12.424l0.119-0.359
			c1.673-4.896,4.301-9.557,8.123-14.334c4.66-5.854,7.049-13.26,6.689-20.666C130.461,77.064,117.441,63.924,101.433,63.207z
			 M100,150.172c-3.584,0-6.451-2.627-7.048-5.973h14.096C106.451,147.664,103.583,150.172,100,150.172z M109.795,137.748H90.203
			v-7.883h19.592V137.748z M119.352,109.676c-3.584,4.539-6.211,8.959-8.123,13.619H88.77c-1.91-4.539-4.539-9.08-8.122-13.619
			c-3.464-4.42-5.257-9.676-5.257-15.289c0-6.811,2.748-13.143,7.646-17.92c4.896-4.658,11.348-7.168,18.275-6.809
			c12.663,0.598,22.938,10.99,23.535,23.533C124.967,99.283,123.055,105.018,119.352,109.676z"/>
		<path fill="#005E9C" d="M100,55.801c1.792,0,3.225-1.434,3.225-3.225v-6.094c0-1.791-1.433-3.225-3.225-3.225
			s-3.225,1.434-3.225,3.225v6.094C96.775,54.367,98.208,55.801,100,55.801z"/>
		<path fill="#005E9C" d="M76.228,59.863c0.597,1.074,1.673,1.67,2.866,1.67c0.598,0,1.076-0.117,1.674-0.477
			c1.553-0.957,2.149-2.867,1.193-4.42l-2.986-5.256c-0.955-1.553-2.867-2.15-4.42-1.195s-2.15,2.867-1.194,4.42L76.228,59.863z"/>
		<path fill="#005E9C" d="M65.357,70.613l-5.256-2.986c-1.554-0.955-3.586-0.357-4.42,1.195c-0.957,1.553-0.359,3.584,1.193,4.42
			l5.256,2.986c0.479,0.238,1.076,0.477,1.674,0.477c1.074,0,2.27-0.596,2.866-1.672C67.508,73.6,66.91,71.568,65.357,70.613z"/>
		<path fill="#005E9C" d="M61.414,94.387c0-1.793-1.433-3.227-3.225-3.227h-6.093c-1.791,0-3.224,1.434-3.224,3.227
			c0,1.791,1.433,3.225,3.224,3.225h6.093C59.981,97.73,61.414,96.178,61.414,94.387z"/>
		<path fill="#005E9C" d="M62.131,112.543l-5.256,2.986c-1.553,0.957-2.15,2.867-1.193,4.42c0.597,1.076,1.671,1.672,2.866,1.672
			c0.597,0,1.075-0.119,1.671-0.477l5.257-2.986c1.554-0.955,2.151-2.867,1.195-4.42S63.685,111.588,62.131,112.543z"/>
		<path fill="#005E9C" d="M143.123,115.529l-5.256-2.986c-1.552-0.955-3.584-0.357-4.42,1.195c-0.955,1.553-0.357,3.584,1.195,4.42
			l5.256,2.986c0.479,0.238,1.075,0.477,1.674,0.477c1.074,0,2.268-0.596,2.866-1.672
			C145.155,118.396,144.677,116.486,143.123,115.529z"/>
		<path fill="#005E9C" d="M147.902,91.16h-6.093c-1.791,0-3.224,1.434-3.224,3.227c0,1.791,1.433,3.225,3.224,3.225h6.093
			c1.793,0,3.226-1.434,3.226-3.225C151.128,92.594,149.695,91.16,147.902,91.16z"/>
		<path fill="#005E9C" d="M136.195,76.705c0.598,0,1.074-0.119,1.672-0.477l5.256-2.986c1.554-0.957,2.152-2.867,1.195-4.42
			c-0.955-1.553-2.866-2.15-4.42-1.195l-5.256,2.986c-1.553,0.955-2.15,2.867-1.195,4.42
			C134.046,76.229,135.12,76.705,136.195,76.705z"/>
		<path fill="#005E9C" d="M119.232,61.057c0.479,0.238,1.075,0.477,1.672,0.477c1.076,0,2.27-0.596,2.867-1.67l2.986-5.258
			c0.956-1.553,0.359-3.582-1.193-4.42c-1.554-0.955-3.584-0.357-4.42,1.195l-2.987,5.256C117.201,58.07,117.68,60.1,119.232,61.057
			z"/>
		<path fill="#005E9C" d="M100.119,80.17c-6.93,0-10.633,4.777-11.35,9.795c-0.119,0.957,0.717,1.912,1.674,1.912h2.627
			c0.836,0,1.553-0.598,1.673-1.434c0.358-1.912,1.554-4.301,5.257-4.301c2.866,0,4.182,1.553,4.658,2.508
			c0.717,1.314,0.598,2.988-0.238,4.062c-0.837,1.195-1.672,1.674-2.508,2.389c-2.271,1.553-4.062,3.227-4.42,7.766
			c-0.12,0.955,0.716,1.793,1.671,1.793h2.629c0.836,0,1.553-0.717,1.673-1.555c0.118-1.912,0.597-2.27,1.91-3.105
			c1.076-0.717,2.51-1.793,3.943-3.703c2.149-2.986,2.508-6.93,0.836-10.393C108.242,82.32,104.539,80.17,100.119,80.17z"/>
		<circle fill="#005E9C" cx="100.479" cy="111.588" r="3.703"/>
	</g>
</g>
</svg>
