<?xml version="1.0" encoding="utf-8"?>
<!-- Generator: Adobe Illustrator 16.0.0, SVG Export Plug-In . SVG Version: 6.00 Build 0)  -->
<!DOCTYPE svg PUBLIC "-//W3C//DTD SVG 1.1//EN" "http://www.w3.org/Graphics/SVG/1.1/DTD/svg11.dtd">
<svg version="1.1" id="Layer_1" xmlns="http://www.w3.org/2000/svg" xmlns:xlink="http://www.w3.org/1999/xlink" x="0px" y="0px"
	 width="200px" height="200px" viewBox="0 0 200 200" enable-background="new 0 0 200 200" xml:space="preserve">
<rect y="-14.996" fill="#005E9C" width="200" height="3.644"/>
<rect x="-22.304" fill="#005E9C" width="17.409" height="200"/>
<g>
	<circle fill="none" stroke="#005E9C" stroke-width="5" stroke-miterlimit="10" cx="100" cy="100" r="95.344"/>
	<g>
		<g>
			<g>
				<polygon fill="#005E9C" points="128.786,153.266 50.662,153.266 50.662,103.551 54.213,103.551 54.213,149.715 125.234,149.715 
					125.234,103.551 128.786,103.551 				"/>
			</g>
			<g>
				<path fill="#005E9C" d="M86.172,153.266H61.314v-26.633c0-6.924,5.504-12.428,12.43-12.428c6.924,0,12.428,5.504,12.428,12.428
					V153.266z M64.866,149.715h17.755v-23.082c0-4.973-3.905-8.879-8.877-8.879s-8.878,3.906-8.878,8.879V149.715z"/>
			</g>
			<g>
				<path fill="#005E9C" d="M118.132,135.51H89.723v-21.305h28.409V135.51z M93.274,131.959h21.308v-14.205H93.274V131.959z"/>
			</g>
			<g>
				<path fill="#005E9C" d="M142.99,92.898h-42.614c-4.97,0-8.876-3.906-8.876-8.879V62.715c0-4.973,3.906-8.879,8.876-8.879h42.614
					c4.972,0,8.878,3.906,8.878,8.879V84.02C151.868,88.992,147.962,92.898,142.99,92.898z M100.376,57.387
					c-3.019,0-5.327,2.309-5.327,5.328V84.02c0,3.018,2.309,5.326,5.327,5.326h42.614c3.018,0,5.326-2.309,5.326-5.326V62.715
					c0-3.02-2.309-5.328-5.326-5.328H100.376z"/>
			</g>
			<g>
				<path fill="#005E9C" d="M132.336,55.611h-3.55c0-3.018-2.309-5.326-5.328-5.326h-3.55c-3.02,0-5.326,2.309-5.326,5.326h-3.552
					c0-4.971,3.906-8.877,8.878-8.877h3.55C128.43,46.734,132.336,50.641,132.336,55.611z"/>
			</g>
			<path fill="#005E9C" d="M130.384,96.449c-0.889,4.084-4.44,7.102-8.701,7.102s-8.878-1.953-8.878-7.102h-3.551
				c0,5.148-4.615,7.102-8.878,7.102c-4.261,0-8.876-1.953-8.876-7.102h-3.552c0,5.148-4.617,7.102-8.878,7.102
				s-8.878-1.953-8.878-7.102h-3.552c0,5.148-4.615,7.102-8.877,7.102s-7.99-3.018-8.701-7.279c-0.178-0.711-0.178-1.6,0.179-2.486
				l6.925-22.018c0.711-2.307,2.662-3.727,5.148-3.727h26.634V64.49H61.137c-3.905,0-7.279,2.484-8.522,6.213l-6.747,22.195
				c-0.532,1.242-0.532,2.662-0.354,3.906c1.065,6.037,6.215,10.297,12.251,10.297c4.794,0,8.522-1.775,10.654-4.793
				c2.129,3.018,5.857,4.793,10.652,4.793s8.523-1.775,10.652-4.793c2.132,3.018,5.86,4.793,10.653,4.793
				c4.794,0,8.522-1.775,10.654-4.793c2.13,3.018,5.858,4.793,10.652,4.793c6.037,0,11.187-4.26,12.252-10.297
				c0-0.178,0-0.178,0-0.355H130.384z"/>
			<g>
				<rect x="125.234" y="69.816" fill="#005E9C" width="24.856" height="3.551"/>
			</g>
			<g>
				<rect x="93.274" y="69.816" fill="#005E9C" width="24.857" height="3.551"/>
			</g>
			<g>
				<path fill="#005E9C" d="M127.009,78.693h-10.652V64.49h10.652V78.693z M119.908,75.143h3.55v-7.102h-3.55V75.143z"/>
			</g>
		</g>
	</g>
</g>
</svg>
