<?xml version="1.0" encoding="utf-8"?>
<!-- Generator: Adobe Illustrator 16.0.0, SVG Export Plug-In . SVG Version: 6.00 Build 0)  -->
<!DOCTYPE svg PUBLIC "-//W3C//DTD SVG 1.1//EN" "http://www.w3.org/Graphics/SVG/1.1/DTD/svg11.dtd">
<svg version="1.1" id="Layer_1" xmlns="http://www.w3.org/2000/svg" xmlns:xlink="http://www.w3.org/1999/xlink" x="0px" y="0px"
	 width="436px" height="436px" viewBox="0 0 436 436" enable-background="new 0 0 436 436" xml:space="preserve">
<g>
	<path fill="#ECF3FF" d="M385.329,307.717L50.841,282.17c-2.193-0.168-3.965-2.48-3.965-5.162V57.042
		c0-2.685,1.771-4.997,3.965-5.164L385.329,26.33c3.285-0.25,5.955,2.221,5.955,5.521v270.347
		C391.284,305.498,388.614,307.969,385.329,307.717z"/>
	<path fill="#FFFFFF" d="M373.257,301.762L38.77,276.213c-2.193-0.166-3.967-2.479-3.967-5.162V51.085
		c0-2.685,1.773-4.997,3.967-5.165l334.487-25.547c3.285-0.25,5.956,2.22,5.956,5.52V296.24
		C379.213,299.541,376.542,302.012,373.257,301.762z"/>
	<path fill="#ECF3FF" d="M379.213,25.894c0-3.3-2.671-5.771-5.956-5.52L38.77,45.921c-2.193,0.167-3.967,2.48-3.967,5.165v20.508
		L379.213,51.1V25.894z"/>
	<g>
		<path fill="#252784" d="M373.713,302.264c-0.162,0-0.326-0.006-0.493-0.018L38.732,276.699c-2.435-0.186-4.415-2.721-4.415-5.648
			V51.085c0-2.929,1.98-5.463,4.415-5.649L373.22,19.889c3.599-0.277,6.48,2.464,6.48,6.005V296.24
			C379.7,299.619,377.069,302.264,373.713,302.264z M373.713,20.843c-0.136,0-0.278,0.004-0.42,0.015L38.805,46.406
			c-1.939,0.148-3.515,2.248-3.515,4.68v219.965c0,2.434,1.575,4.531,3.515,4.68l334.488,25.545
			c3.017,0.244,5.434-2.062,5.434-5.035V25.894C378.727,23.062,376.526,20.843,373.713,20.843z"/>
	</g>
	<linearGradient id="SVGID_1_" gradientUnits="userSpaceOnUse" x1="48.895" y1="59.3623" x2="53.8638" y2="56.4684">
		<stop  offset="0" style="stop-color:#FA902F"/>
		<stop  offset="0.1685" style="stop-color:#F7A030"/>
		<stop  offset="0.4545" style="stop-color:#F3B530"/>
		<stop  offset="0.7347" style="stop-color:#F1C231"/>
		<stop  offset="1" style="stop-color:#F0C631"/>
	</linearGradient>
	<path fill="url(#SVGID_1_)" d="M53.93,57.609c0,1.541-1.029,2.858-2.296,2.941c-1.265,0.083-2.289-1.094-2.289-2.63
		c0-1.536,1.024-2.853,2.289-2.941C52.9,54.892,53.93,56.069,53.93,57.609z"/>
	<linearGradient id="SVGID_2_" gradientUnits="userSpaceOnUse" x1="56.9434" y1="57.2471" x2="61.5723" y2="57.2471">
		<stop  offset="0" style="stop-color:#0056EC"/>
		<stop  offset="1" style="stop-color:#008BEC"/>
	</linearGradient>
	<path fill="url(#SVGID_2_)" d="M61.572,57.09c0,1.549-1.039,2.873-2.317,2.956c-1.276,0.084-2.312-1.098-2.312-2.642
		s1.035-2.867,2.312-2.957C60.533,54.359,61.572,55.542,61.572,57.09z"/>
	<linearGradient id="SVGID_3_" gradientUnits="userSpaceOnUse" x1="240.9326" y1="73.3877" x2="374.749" y2="73.3877">
		<stop  offset="0" style="stop-color:#008DEC"/>
		<stop  offset="1" style="stop-color:#008BEC"/>
	</linearGradient>
	<polygon fill="url(#SVGID_3_)" points="240.933,65.918 240.933,88.305 374.749,82.609 374.749,58.471 	"/>
	<polygon fill="#EF8122" points="333.07,293.275 240.933,286.514 240.933,94.662 333.07,91.083 	"/>
	<polygon fill="#EF8122" points="232.7,188.517 131.111,186.878 131.111,72.03 232.7,66.376 	"/>
	<linearGradient id="SVGID_4_" gradientUnits="userSpaceOnUse" x1="37.9746" y1="175.1831" x2="56.4414" y2="175.1831">
		<stop  offset="0" style="stop-color:#008DEC"/>
		<stop  offset="1" style="stop-color:#008BEC"/>
	</linearGradient>
	<polygon fill="url(#SVGID_4_)" points="56.441,274.182 37.975,272.812 37.975,77.213 56.441,76.185 	"/>
	<g>
		<path fill="#B3CDFA" d="M311.974,210.852l-2.387-0.058c-1.752-0.041-3.171-1.55-3.171-3.371v-2.469
			c0-1.821,1.419-3.271,3.171-3.235l2.387,0.043c1.76,0.034,3.189,1.544,3.189,3.374v2.482
			C315.163,209.448,313.733,210.894,311.974,210.852z"/>
		<path fill="#B3CDFA" d="M323.724,211.133l-2.418-0.057c-1.775-0.044-3.214-1.563-3.214-3.394v-2.487
			c0-1.832,1.438-3.291,3.214-3.257l2.418,0.044c1.783,0.034,3.232,1.556,3.232,3.395v2.502
			C326.956,209.719,325.507,211.178,323.724,211.133z"/>
		<path fill="#FFFFFF" d="M255.455,221.23l-2.237-0.066c-1.644-0.053-2.971-1.521-2.971-3.284v-2.394
			c0-1.762,1.327-3.158,2.971-3.114l2.237,0.059c1.652,0.04,2.991,1.512,2.991,3.28v2.405
			C258.446,219.889,257.107,221.281,255.455,221.23z"/>
		<path fill="#FFFFFF" d="M266.472,221.57l-2.267-0.07c-1.665-0.053-3.011-1.531-3.011-3.306v-2.407
			c0-1.772,1.346-3.177,3.011-3.132l2.267,0.058c1.671,0.044,3.028,1.521,3.028,3.302v2.421
			C269.5,220.217,268.143,221.621,266.472,221.57z"/>
		<path fill="#FFFFFF" d="M277.626,221.912l-2.294-0.07c-1.686-0.053-3.051-1.539-3.051-3.325v-2.425
			c0-1.784,1.365-3.197,3.051-3.154l2.294,0.059c1.694,0.045,3.068,1.534,3.068,3.327v2.435
			C280.694,220.551,279.32,221.965,277.626,221.912z"/>
		<path fill="#FFFFFF" d="M288.926,222.258l-2.322-0.068c-1.708-0.055-3.092-1.553-3.092-3.35v-2.438
			c0-1.798,1.384-3.218,3.092-3.174l2.322,0.059c1.716,0.044,3.11,1.544,3.11,3.347v2.451
			C292.036,220.891,290.642,222.312,288.926,222.258z"/>
		<path fill="#FFFFFF" d="M300.374,222.611l-2.354-0.074c-1.729-0.053-3.131-1.561-3.131-3.367v-2.456
			c0-1.808,1.401-3.238,3.131-3.194l2.354,0.061c1.738,0.043,3.15,1.553,3.15,3.371v2.466
			C303.524,221.234,302.112,222.666,300.374,222.611z"/>
		<path fill="#B3CDFA" d="M311.974,222.969l-2.387-0.074c-1.752-0.055-3.171-1.574-3.171-3.393v-2.471
			c0-1.82,1.419-3.261,3.171-3.215l2.387,0.062c1.76,0.044,3.189,1.563,3.189,3.391v2.485
			C315.163,221.584,313.733,223.021,311.974,222.969z"/>
		<path fill="#B3CDFA" d="M323.724,223.328l-2.418-0.074c-1.775-0.055-3.214-1.584-3.214-3.418v-2.485
			c0-1.831,1.438-3.281,3.214-3.235l2.418,0.062c1.783,0.047,3.232,1.574,3.232,3.417v2.499
			C326.956,221.936,325.507,223.383,323.724,223.328z"/>
		<path fill="#FFFFFF" d="M255.455,232.961l-2.237-0.084c-1.644-0.062-2.971-1.541-2.971-3.303v-2.393
			c0-1.762,1.327-3.148,2.971-3.094l2.237,0.072c1.652,0.053,2.991,1.531,2.991,3.303v2.406
			C258.446,231.637,257.107,233.023,255.455,232.961z"/>
		<path fill="#FFFFFF" d="M266.472,233.375l-2.267-0.086c-1.665-0.062-3.011-1.551-3.011-3.324v-2.408
			c0-1.773,1.346-3.168,3.011-3.113l2.267,0.074c1.671,0.055,3.028,1.543,3.028,3.322v2.42
			C269.5,232.043,268.143,233.438,266.472,233.375z"/>
		<path fill="#FFFFFF" d="M277.626,233.793l-2.294-0.086c-1.686-0.062-3.051-1.561-3.051-3.346v-2.424
			c0-1.787,1.365-3.188,3.051-3.135l2.294,0.076c1.694,0.055,3.068,1.555,3.068,3.346v2.438
			C280.694,232.453,279.32,233.857,277.626,233.793z"/>
		<path fill="#FFFFFF" d="M288.926,234.219l-2.322-0.088c-1.708-0.064-3.092-1.572-3.092-3.369v-2.439
			c0-1.797,1.384-3.209,3.092-3.152l2.322,0.076c1.716,0.057,3.11,1.562,3.11,3.367v2.453
			C292.036,232.871,290.642,234.279,288.926,234.219z"/>
		<path fill="#FFFFFF" d="M300.374,234.646l-2.354-0.088c-1.729-0.066-3.131-1.582-3.131-3.391v-2.457
			c0-1.809,1.401-3.227,3.131-3.172l2.354,0.078c1.738,0.057,3.15,1.574,3.15,3.391v2.467
			C303.524,233.291,302.112,234.713,300.374,234.646z"/>
		<path fill="#B3CDFA" d="M311.974,235.082l-2.387-0.09c-1.752-0.066-3.171-1.594-3.171-3.414v-2.473
			c0-1.818,1.419-3.248,3.171-3.191l2.387,0.076c1.76,0.059,3.189,1.588,3.189,3.416v2.482
			C315.163,233.719,313.733,235.148,311.974,235.082z"/>
		<path fill="#B3CDFA" d="M323.724,235.521l-2.418-0.09c-1.775-0.068-3.214-1.605-3.214-3.438v-2.486
			c0-1.832,1.438-3.271,3.214-3.215l2.418,0.08c1.783,0.057,3.232,1.598,3.232,3.438v2.502
			C326.956,234.152,325.507,235.592,323.724,235.521z"/>
		<path fill="#FFFFFF" d="M255.455,244.691l-2.237-0.1c-1.644-0.072-2.971-1.559-2.971-3.322v-2.395
			c0-1.762,1.327-3.139,2.971-3.074l2.237,0.09c1.652,0.064,2.991,1.551,2.991,3.322v2.404
			C258.446,243.389,257.107,244.764,255.455,244.691z"/>
		<path fill="#FFFFFF" d="M266.472,245.18l-2.267-0.102c-1.665-0.074-3.011-1.572-3.011-3.344v-2.408
			c0-1.773,1.346-3.158,3.011-3.092l2.267,0.086c1.671,0.066,3.028,1.562,3.028,3.348v2.418
			C269.5,243.871,268.143,245.254,266.472,245.18z"/>
		<path fill="#FFFFFF" d="M277.626,245.674l-2.294-0.104c-1.686-0.072-3.051-1.58-3.051-3.365v-2.424
			c0-1.785,1.365-3.178,3.051-3.113l2.294,0.09c1.694,0.068,3.068,1.574,3.068,3.369v2.436
			C280.694,244.357,279.32,245.75,277.626,245.674z"/>
		<path fill="#FFFFFF" d="M288.926,246.174l-2.322-0.102c-1.708-0.076-3.092-1.594-3.092-3.389v-2.441
			c0-1.795,1.384-3.195,3.092-3.131l2.322,0.09c1.716,0.068,3.11,1.588,3.11,3.391v2.453
			C292.036,244.85,290.642,246.25,288.926,246.174z"/>
		<path fill="#FFFFFF" d="M300.374,246.682l-2.354-0.105c-1.729-0.074-3.131-1.604-3.131-3.41v-2.455
			c0-1.809,1.401-3.219,3.131-3.15l2.354,0.09c1.738,0.068,3.15,1.596,3.15,3.416v2.465
			C303.524,245.35,302.112,246.758,300.374,246.682z"/>
		<path fill="#B3CDFA" d="M311.974,247.197l-2.387-0.105c-1.752-0.08-3.171-1.617-3.171-3.438v-2.471c0-1.82,1.419-3.24,3.171-3.17
			l2.387,0.094c1.76,0.068,3.189,1.607,3.189,3.436v2.486C315.163,245.857,313.733,247.275,311.974,247.197z"/>
		<path fill="#B3CDFA" d="M323.724,247.717l-2.418-0.105c-1.775-0.082-3.214-1.629-3.214-3.461v-2.486
			c0-1.834,1.438-3.26,3.214-3.191l2.418,0.096c1.783,0.068,3.232,1.617,3.232,3.459v2.5
			C326.956,246.367,325.507,247.797,323.724,247.717z"/>
		<path fill="#FFFFFF" d="M255.455,256.422l-2.237-0.115c-1.644-0.084-2.971-1.58-2.971-3.344v-2.393
			c0-1.762,1.327-3.129,2.971-3.053l2.237,0.102c1.652,0.078,2.991,1.572,2.991,3.346v2.404
			C258.446,255.141,257.107,256.504,255.455,256.422z"/>
		<path fill="#FFFFFF" d="M266.472,256.984l-2.267-0.115c-1.665-0.086-3.011-1.592-3.011-3.367v-2.408
			c0-1.771,1.346-3.148,3.011-3.07l2.267,0.104c1.671,0.076,3.028,1.582,3.028,3.365v2.42
			C269.5,255.695,268.143,257.07,266.472,256.984z"/>
		<path fill="#FFFFFF" d="M277.626,257.555l-2.294-0.117c-1.686-0.086-3.051-1.602-3.051-3.389v-2.422
			c0-1.785,1.365-3.168,3.051-3.09l2.294,0.102c1.694,0.08,3.068,1.596,3.068,3.391v2.434
			C280.694,256.258,279.32,257.643,277.626,257.555z"/>
		<path fill="#FFFFFF" d="M288.926,258.133l-2.322-0.119c-1.708-0.088-3.092-1.615-3.092-3.41v-2.439
			c0-1.797,1.384-3.189,3.092-3.109l2.322,0.105c1.716,0.08,3.11,1.607,3.11,3.412v2.451
			C292.036,256.828,290.642,258.219,288.926,258.133z"/>
		<path fill="#FFFFFF" d="M300.374,258.719l-2.354-0.121c-1.729-0.09-3.131-1.625-3.131-3.434v-2.455
			c0-1.809,1.401-3.209,3.131-3.127l2.354,0.107c1.738,0.078,3.15,1.617,3.15,3.432v2.469
			C303.524,257.406,302.112,258.807,300.374,258.719z"/>
		<path fill="#B3CDFA" d="M311.974,259.312l-2.387-0.123c-1.752-0.09-3.171-1.637-3.171-3.459v-2.471
			c0-1.818,1.419-3.23,3.171-3.148l2.387,0.109c1.76,0.08,3.189,1.629,3.189,3.459v2.484
			C315.163,257.99,313.733,259.402,311.974,259.312z"/>
		<path fill="#B3CDFA" d="M323.724,259.91l-2.418-0.121c-1.775-0.092-3.214-1.65-3.214-3.482v-2.486c0-1.832,1.438-3.252,3.214-3.17
			l2.418,0.111c1.783,0.084,3.232,1.643,3.232,3.48v2.502C326.956,258.584,325.507,260.002,323.724,259.91z"/>
		<path fill="#FFFFFF" d="M255.455,268.15l-2.237-0.129c-1.644-0.096-2.971-1.6-2.971-3.361v-2.395c0-1.762,1.327-3.121,2.971-3.033
			l2.237,0.117c1.652,0.086,2.991,1.594,2.991,3.363v2.406C258.446,266.891,257.107,268.248,255.455,268.15z"/>
	</g>
	<path fill="#FFFFFF" d="M329.226,83.245l-5.959,0.258c-4.362,0.188-7.882-3.042-7.882-7.214v-5.667c0-4.172,3.52-7.748,7.882-7.987
		l5.959-0.328c4.412-0.243,8.005,2.984,8.005,7.207v5.736C337.23,79.474,333.638,83.054,329.226,83.245z"/>
	<path fill="#FFFFFF" d="M360.197,81.904l-6.165,0.268c-4.513,0.194-8.155-3.088-8.155-7.331v-5.764
		c0-4.244,3.643-7.884,8.155-8.131l6.165-0.339c4.566-0.25,8.283,3.028,8.283,7.324v5.836
		C368.48,78.062,364.764,81.706,360.197,81.904z"/>
	<polygon fill="#B3CDFA" points="351.291,66.316 351.291,74.312 354.465,74.162 354.465,76.922 357.689,74.008 362.966,73.756 
		362.966,65.709 	"/>
	<path fill="#B3CDFA" d="M329.953,78.452L329.953,78.452l-0.017,0.001c-3.826,0.104-8.601-4.592-8.678-8.516
		c-0.012-0.658,0.564-1.501,1.094-1.846l0.858-0.561c0.161-0.106,0.346-0.167,0.534-0.177c0.339-0.017,0.654,0.13,0.845,0.393
		l1.562,2.161c0.312,0.433,0.209,1.042-0.238,1.387l-0.923,0.711c0.179,0.288,0.573,0.845,1.268,1.491
		c0.695,0.646,1.283,1.003,1.588,1.165l0.683-0.938c0.314-0.435,0.966-0.577,1.408-0.303l2.301,1.424
		c0.458,0.281,0.586,0.873,0.296,1.345l-0.53,0.871C331.682,77.587,330.635,78.42,329.953,78.452z"/>
	<path opacity="0.47" fill="#B3CDFA" d="M221.639,278.916c0,1.859-1.379,3.271-3.077,3.148c-1.695-0.123-3.065-1.723-3.065-3.576
		c0-1.857,1.37-3.266,3.065-3.15C220.26,275.451,221.639,277.055,221.639,278.916z"/>
	<path opacity="0.47" fill="#B3CDFA" d="M210.465,278.137c0,1.848-1.36,3.248-3.037,3.131c-1.673-0.119-3.025-1.713-3.025-3.555
		s1.353-3.244,3.025-3.129C209.104,274.697,210.465,276.287,210.465,278.137z"/>
	<path opacity="0.47" fill="#B3CDFA" d="M200.168,277.418c0,1.836-1.344,3.23-3,3.113c-1.651-0.119-2.988-1.699-2.988-3.531
		c0-1.83,1.337-3.225,2.988-3.111C198.824,274,200.168,275.582,200.168,277.418z"/>
	<path opacity="0.47" fill="#B3CDFA" d="M189.917,276.705c0,1.826-1.329,3.211-2.962,3.092c-1.633-0.117-2.953-1.686-2.953-3.506
		c0-1.818,1.32-3.207,2.953-3.094C188.588,273.309,189.917,274.879,189.917,276.705z"/>
	<path opacity="0.47" fill="#B3CDFA" d="M180.901,276.076c0,1.816-1.314,3.195-2.931,3.078c-1.613-0.115-2.92-1.676-2.92-3.486
		s1.307-3.189,2.92-3.078C179.587,272.697,180.901,274.26,180.901,276.076z"/>
	<g opacity="0.47">
		<path fill="#B3CDFA" d="M218.977,284.41c-0.115,0-0.235-0.004-0.354-0.012c-2.854-0.211-5.176-2.902-5.176-6.006
			c0-3.119,2.334-5.535,5.242-5.344c2.871,0.191,5.207,2.883,5.207,6.004C223.896,282.057,221.735,284.41,218.977,284.41z
			 M218.366,274.008c-2.215,0-3.948,1.928-3.948,4.385c0,2.604,1.917,4.863,4.273,5.035c2.353,0.188,4.232-1.811,4.232-4.375
			c0-2.619-1.929-4.877-4.299-5.035C218.538,274.014,218.45,274.008,218.366,274.008z"/>
	</g>
	<path fill="#EF8122" d="M223.552,242.824c-0.562-4.896-6.761-31.662-23.202-32.15c-13.06-0.391-19.712,17.056-23.252,17.386
		c-3.525,0.328-6.081-8.486-11.325-7.41c-5.21,1.068-6.468,9.49-10.388,11.869c-3.9,2.371-6.544,0.195-13.341-0.566
		c-4.995-0.562-9.074,4.008-10.854,6.412L223.552,242.824z"/>
	<g>
		<path fill="#EF8122" d="M233.275,250.605l-109.236-5.715v-48.326l0.497,0.012l108.739,2.457V250.605z M125.011,243.969
			l107.293,5.613v-49.598l-107.293-2.425V243.969z"/>
	</g>
	<g>
		<path fill="#FFFFFF" d="M185.268,79.716c-19.402,1.109-34.771,19.237-34.905,40.713l34.905-0.875V79.716z"/>
		<linearGradient id="SVGID_5_" gradientUnits="userSpaceOnUse" x1="155.3594" y1="137.1504" x2="185.2676" y2="137.1504">
			<stop  offset="0" style="stop-color:#008DEC"/>
			<stop  offset="1" style="stop-color:#008BEC"/>
		</linearGradient>
		<path fill="url(#SVGID_5_)" d="M155.359,120.875c0.136,18.357,13.34,33.203,29.908,33.29v-34.029L155.359,120.875z"/>
		<linearGradient id="SVGID_6_" gradientUnits="userSpaceOnUse" x1="185.7861" y1="105.4199" x2="211.4541" y2="105.4199">
			<stop  offset="0" style="stop-color:#008DEC"/>
			<stop  offset="1" style="stop-color:#008BEC"/>
		</linearGradient>
		<path fill="url(#SVGID_6_)" d="M211.454,118.897c-0.144-15.735-11.673-28.02-25.668-27.587v28.23L211.454,118.897z"/>
		<path fill="#FFFFFF" d="M185.786,142.542c11.083-0.28,20.178-10.474,20.32-22.923l-20.32,0.502V142.542z"/>
	</g>
	<g>
		<path fill="#B3CDFA" d="M138.197,160.843c-0.269,0-0.486-0.216-0.486-0.484c0-0.27,0.218-0.488,0.486-0.488h1.762l0,0
			c0.27,0,0.486,0.218,0.486,0.485c0,0.27-0.217,0.486-0.486,0.486L138.197,160.843L138.197,160.843z M146.692,160.84
			c-0.27,0-0.487-0.219-0.487-0.485c0-0.269,0.218-0.488,0.487-0.488h1.762l0,0c0.269,0,0.485,0.218,0.485,0.485
			s-0.217,0.487-0.485,0.487L146.692,160.84L146.692,160.84z M155.186,160.835c-0.27,0-0.486-0.216-0.486-0.484
			s0.217-0.487,0.486-0.487l1.763-0.001l0,0c0.267,0,0.486,0.219,0.486,0.486c0,0.269-0.22,0.486-0.486,0.486H155.186
			L155.186,160.835z M163.678,160.833c-0.268,0-0.486-0.218-0.486-0.485s0.219-0.487,0.486-0.487h1.763l0,0
			c0.27,0,0.486,0.217,0.486,0.486c0,0.268-0.217,0.485-0.486,0.485L163.678,160.833L163.678,160.833z M172.172,160.83
			c-0.268,0-0.486-0.218-0.486-0.486s0.219-0.486,0.486-0.486l1.762-0.001c0.27,0,0.487,0.217,0.487,0.484
			c0,0.271-0.218,0.488-0.487,0.488L172.172,160.83z M180.666,160.825c-0.269,0-0.486-0.218-0.486-0.486
			c0-0.268,0.218-0.485,0.486-0.485l1.763-0.002c0.269,0,0.486,0.218,0.486,0.486s-0.218,0.487-0.486,0.487H180.666z M189.16,160.82
			c-0.271,0-0.485-0.216-0.485-0.484s0.215-0.487,0.485-0.487h1.762c0.269,0,0.486,0.219,0.486,0.487
			c0,0.267-0.218,0.484-0.486,0.484H189.16z M197.652,160.817c-0.268,0-0.486-0.216-0.486-0.486c0-0.269,0.219-0.486,0.486-0.486
			h1.764c0.268,0,0.485,0.218,0.485,0.486c0,0.268-0.218,0.486-0.485,0.486H197.652z M206.146,160.814
			c-0.268,0-0.485-0.218-0.485-0.486s0.218-0.486,0.485-0.486h1.763c0.269,0,0.485,0.217,0.485,0.486
			c0,0.267-0.217,0.486-0.485,0.486H206.146z M214.641,160.812c-0.271,0-0.486-0.219-0.486-0.487c0-0.27,0.216-0.486,0.486-0.486
			h1.762l0,0c0.27,0,0.486,0.216,0.486,0.484s-0.217,0.487-0.486,0.487L214.641,160.812L214.641,160.812z M223.134,160.806
			c-0.269,0-0.485-0.216-0.485-0.483c0-0.271,0.217-0.49,0.485-0.49h1.762l0,0c0.269,0,0.487,0.219,0.487,0.487
			c0,0.268-0.219,0.486-0.487,0.486H223.134L223.134,160.806z M227.408,157.838c-0.268,0-0.485-0.216-0.485-0.485v-1.762
			c0-0.27,0.218-0.486,0.485-0.486c0.27,0,0.487,0.217,0.487,0.486v1.762C227.896,157.623,227.678,157.838,227.408,157.838z
			 M135.818,155.458c-0.269,0-0.486-0.219-0.486-0.486v-1.762c0-0.27,0.218-0.486,0.486-0.486s0.484,0.217,0.484,0.486v1.762
			C136.303,155.24,136.087,155.458,135.818,155.458z M227.408,149.345c-0.268,0-0.485-0.217-0.485-0.486v-1.762
			c0-0.269,0.218-0.485,0.485-0.485c0.27,0,0.487,0.217,0.487,0.485v1.762C227.896,149.128,227.678,149.345,227.408,149.345z
			 M135.818,146.964c-0.269,0-0.486-0.217-0.486-0.486v-1.762c0-0.27,0.218-0.486,0.486-0.486s0.484,0.217,0.484,0.486v1.762
			C136.303,146.748,136.087,146.964,135.818,146.964z M227.408,140.853c-0.268,0-0.485-0.219-0.485-0.486v-1.764
			c0-0.267,0.218-0.486,0.485-0.486c0.27,0,0.487,0.219,0.487,0.486v1.764C227.896,140.634,227.678,140.853,227.408,140.853z
			 M135.818,138.471c-0.269,0-0.486-0.217-0.486-0.487v-1.761c0-0.268,0.218-0.487,0.486-0.487s0.484,0.219,0.484,0.487v1.761
			C136.303,138.253,136.087,138.471,135.818,138.471z M227.408,132.358c-0.268,0-0.485-0.217-0.485-0.486v-1.762
			c0-0.269,0.218-0.486,0.485-0.486c0.27,0,0.487,0.217,0.487,0.486v1.762C227.896,132.141,227.678,132.358,227.408,132.358z
			 M135.818,129.977c-0.269,0-0.486-0.217-0.486-0.485v-1.763c0-0.268,0.218-0.487,0.486-0.487s0.484,0.219,0.484,0.487v1.763
			C136.303,129.76,136.087,129.977,135.818,129.977z M227.408,123.865c-0.268,0-0.485-0.216-0.485-0.487v-1.761
			c0-0.27,0.218-0.486,0.485-0.486c0.27,0,0.487,0.217,0.487,0.486v1.761C227.896,123.648,227.678,123.865,227.408,123.865z
			 M135.818,121.484c-0.269,0-0.486-0.218-0.486-0.486v-1.763c0-0.269,0.218-0.486,0.486-0.486s0.484,0.217,0.484,0.486v1.763
			C136.303,121.266,136.087,121.484,135.818,121.484z M227.408,115.371c-0.268,0-0.485-0.217-0.485-0.486v-1.762
			c0-0.269,0.218-0.487,0.485-0.487c0.27,0,0.487,0.218,0.487,0.487v1.762C227.896,115.154,227.678,115.371,227.408,115.371z
			 M135.818,112.99c-0.269,0-0.486-0.218-0.486-0.487v-1.76c0-0.27,0.218-0.487,0.486-0.487s0.484,0.217,0.484,0.487v1.76
			C136.303,112.772,136.087,112.99,135.818,112.99z M227.408,106.877c-0.268,0-0.485-0.217-0.485-0.486v-1.762
			c0-0.269,0.218-0.486,0.485-0.486c0.27,0,0.487,0.217,0.487,0.486v1.762C227.896,106.66,227.678,106.877,227.408,106.877z
			 M135.818,104.496c-0.269,0-0.486-0.216-0.486-0.486v-1.762c0-0.269,0.218-0.486,0.486-0.486s0.484,0.217,0.484,0.486v1.762
			C136.303,104.28,136.087,104.496,135.818,104.496z M227.408,98.384c-0.268,0-0.485-0.217-0.485-0.486v-1.763
			c0-0.268,0.218-0.486,0.485-0.486c0.27,0,0.487,0.218,0.487,0.486v1.763C227.896,98.167,227.678,98.384,227.408,98.384z
			 M135.818,96.002c-0.269,0-0.486-0.217-0.486-0.486v-1.762c0-0.268,0.218-0.486,0.486-0.486s0.484,0.218,0.484,0.486v1.762
			C136.303,95.785,136.087,96.002,135.818,96.002z M227.408,89.89c-0.268,0-0.485-0.218-0.485-0.486v-1.762
			c0-0.269,0.218-0.486,0.485-0.486c0.27,0,0.487,0.217,0.487,0.486v1.762C227.896,89.672,227.678,89.89,227.408,89.89z
			 M135.818,87.509c-0.269,0-0.486-0.218-0.486-0.486V85.26c0-0.269,0.218-0.485,0.486-0.485s0.484,0.217,0.484,0.485v1.763
			C136.303,87.292,136.087,87.509,135.818,87.509z M227.408,81.396c-0.268,0-0.485-0.217-0.485-0.486v-1.762
			c0-0.269,0.218-0.486,0.485-0.486c0.27,0,0.487,0.218,0.487,0.486v1.762C227.896,81.179,227.678,81.396,227.408,81.396z
			 M135.818,79.015c-0.269,0-0.486-0.216-0.486-0.486v-0.828c0-0.366,0.057-0.726,0.168-1.069c0.081-0.254,0.357-0.396,0.609-0.312
			c0.257,0.082,0.396,0.356,0.313,0.612c-0.078,0.246-0.12,0.505-0.12,0.77v0.828C136.303,78.798,136.087,79.015,135.818,79.015z
			 M141.853,75.27c-0.257,0-0.472-0.201-0.484-0.46c-0.015-0.268,0.19-0.497,0.459-0.512l1.76-0.094
			c0.277-0.011,0.498,0.192,0.51,0.459c0.016,0.268-0.19,0.498-0.46,0.512l-1.758,0.095C141.871,75.27,141.861,75.27,141.853,75.27z
			 M150.335,74.815c-0.257,0-0.474-0.2-0.487-0.46c-0.013-0.268,0.192-0.497,0.461-0.512l1.76-0.094
			c0.271-0.014,0.498,0.192,0.511,0.459c0.015,0.269-0.189,0.498-0.459,0.511l-1.76,0.095
			C150.352,74.815,150.342,74.815,150.335,74.815z M158.815,74.361c-0.257,0-0.472-0.201-0.484-0.459
			c-0.016-0.269,0.191-0.498,0.459-0.512l1.761-0.094c0.266-0.003,0.497,0.192,0.51,0.459c0.016,0.269-0.191,0.498-0.459,0.512
			l-1.761,0.094C158.833,74.361,158.824,74.361,158.815,74.361z M167.298,73.907c-0.257,0-0.474-0.201-0.485-0.46
			c-0.014-0.268,0.19-0.497,0.461-0.511l1.759-0.094c0.261-0.007,0.497,0.191,0.51,0.459c0.015,0.269-0.19,0.498-0.458,0.512
			l-1.761,0.093C167.315,73.907,167.307,73.907,167.298,73.907z M175.779,73.453c-0.257,0-0.472-0.201-0.486-0.46
			c-0.014-0.268,0.191-0.498,0.46-0.511l1.76-0.094c0.274-0.01,0.497,0.191,0.511,0.459c0.015,0.268-0.19,0.498-0.46,0.512
			l-1.759,0.094C175.796,73.453,175.788,73.453,175.779,73.453z M184.26,72.998c-0.257,0-0.471-0.201-0.484-0.46
			c-0.014-0.269,0.189-0.497,0.459-0.512l1.76-0.094c0.271-0.013,0.497,0.192,0.511,0.46c0.015,0.269-0.191,0.496-0.46,0.511
			l-1.76,0.094C184.277,72.998,184.27,72.998,184.26,72.998z M227.362,72.906c-0.231,0-0.436-0.166-0.479-0.401
			c-0.087-0.488-0.328-0.927-0.677-1.235c-0.2-0.177-0.222-0.484-0.043-0.685c0.176-0.203,0.483-0.222,0.686-0.044
			c0.514,0.451,0.864,1.088,0.991,1.792c0.049,0.265-0.128,0.518-0.392,0.565C227.419,72.903,227.391,72.906,227.362,72.906z
			 M192.74,72.543c-0.256,0-0.472-0.201-0.484-0.459c-0.014-0.268,0.191-0.497,0.461-0.512l1.76-0.095
			c0.266-0.017,0.496,0.192,0.511,0.46c0.015,0.269-0.19,0.498-0.459,0.512l-1.761,0.094
			C192.76,72.543,192.751,72.543,192.74,72.543z M201.223,72.089c-0.258,0-0.471-0.2-0.484-0.46
			c-0.015-0.268,0.191-0.497,0.46-0.512l1.76-0.094c0.276-0.006,0.497,0.191,0.51,0.459c0.015,0.269-0.19,0.498-0.459,0.512
			l-1.761,0.094C201.239,72.089,201.231,72.089,201.223,72.089z M209.705,71.635c-0.258,0-0.472-0.201-0.485-0.459
			c-0.013-0.269,0.191-0.497,0.461-0.511l1.758-0.095c0.272-0.009,0.497,0.192,0.512,0.46c0.014,0.268-0.19,0.496-0.461,0.511
			l-1.757,0.094C209.723,71.635,209.714,71.635,209.705,71.635z M218.187,71.181c-0.257,0-0.471-0.201-0.485-0.46
			c-0.015-0.268,0.191-0.497,0.459-0.511l1.76-0.094c0.269-0.013,0.498,0.192,0.511,0.46c0.014,0.268-0.189,0.497-0.459,0.511
			l-1.76,0.094C218.203,71.181,218.195,71.181,218.187,71.181z"/>
	</g>
	<polygon fill="#B3CDFA" points="53.93,82.053 40.095,82.771 40.095,80.235 53.93,79.494 	"/>
	<polygon fill="#B3CDFA" points="53.93,88.859 40.095,89.515 40.095,84.443 53.93,83.74 	"/>
	<polygon fill="#B3CDFA" points="53.93,95.664 40.095,96.258 40.095,91.187 53.93,90.546 	"/>
	<polygon fill="#ECF3FF" points="98.143,79.551 60.928,81.487 60.928,75.935 98.143,73.865 	"/>
	<polygon fill="#ECF3FF" points="98.143,90.074 60.928,91.76 60.928,86.209 98.143,84.388 	"/>
	<polygon fill="#ECF3FF" points="98.143,100.597 60.928,102.034 60.928,96.482 98.143,94.911 	"/>
	<polygon fill="#ECF3FF" points="98.143,111.121 60.928,112.308 60.928,106.755 98.143,105.435 	"/>
	<polygon fill="#ECF3FF" points="98.143,121.644 60.928,122.581 60.928,117.029 98.143,115.958 	"/>
	<polygon fill="#ECF3FF" points="98.143,132.167 60.928,132.854 60.928,127.302 98.143,126.481 	"/>
	<polygon fill="#ECF3FF" points="98.143,142.689 60.928,143.126 60.928,137.575 98.143,137.003 	"/>
	<polygon fill="#ECF3FF" points="125.703,153.075 60.928,153.4 60.928,147.847 125.703,147.289 	"/>
	<polygon fill="#ECF3FF" points="125.703,163.784 60.928,163.673 60.928,158.121 125.703,157.997 	"/>
	<polygon fill="#ECF3FF" points="125.703,174.492 60.928,173.946 60.928,168.396 125.703,168.706 	"/>
	<polygon fill="#ECF3FF" points="125.703,185.199 60.928,184.22 60.928,178.669 125.703,179.415 	"/>
	<polygon fill="#ECF3FF" points="112.008,195.61 60.928,194.494 60.928,188.941 112.008,189.871 	"/>
	<polygon fill="#ECF3FF" points="112.008,206.224 60.928,204.765 60.928,199.214 112.008,200.489 	"/>
	<polygon fill="#ECF3FF" points="112.008,216.841 60.928,215.039 60.928,209.488 112.008,211.105 	"/>
	<polygon fill="#ECF3FF" points="112.008,227.457 60.928,225.312 60.928,219.762 112.008,221.721 	"/>
	<polygon fill="#ECF3FF" points="112.008,238.074 60.928,235.588 60.928,230.035 112.008,232.338 	"/>
	<polygon fill="#ECF3FF" points="112.008,248.691 60.928,245.859 60.928,240.307 112.008,242.953 	"/>
	<polygon fill="#ECF3FF" points="112.008,259.307 60.928,256.133 60.928,250.58 112.008,253.57 	"/>
	<polygon fill="#ECF3FF" points="112.008,269.922 60.928,266.406 60.928,260.854 112.008,264.186 	"/>
	<path fill="#ECF3FF" d="M161.562,277.217l-3.767-0.271c0-10.031-7.152-18.621-15.858-19.145
		c-8.613-0.518-15.554,7.068-15.554,16.908l-3.606-0.256c0-12.121,8.538-21.492,19.16-20.881
		C152.699,254.191,161.562,264.799,161.562,277.217z"/>
	<path fill="#B3CDFA" d="M126.384,274.709l-3.606-0.256c0-8.492,4.295-16.049,10.985-19.271l1.549,3.904
		C129.875,261.686,126.384,267.814,126.384,274.709z"/>
	<path fill="#B3CDFA" d="M143.648,274.502l0.007-0.002c-2.632-4.084-4.466-6.934-5.282-8.203l-0.014,0.006
		c-0.194-0.301-0.537-0.43-0.83-0.27c-0.288,0.158-0.406,0.537-0.308,0.891l-0.011,0.006c0.417,1.486,1.358,4.818,2.702,9.586h0.007
		c0.035,0.133,0.077,0.266,0.137,0.395c0.557,1.242,1.857,1.793,2.905,1.23c1.051-0.562,1.448-2.031,0.89-3.275
		C143.793,274.736,143.724,274.619,143.648,274.502z M142.425,276.943c-0.492,0.268-1.103,0.01-1.362-0.574
		c-0.263-0.584-0.075-1.27,0.417-1.537c0.492-0.264,1.102-0.008,1.363,0.576C143.105,275.992,142.917,276.68,142.425,276.943z"/>
	<path fill="#B3CDFA" d="M213.804,83.731l-7.939,0.366c-0.068,0.002-0.125,0.067-0.125,0.143v3.907c0,0.077,0.057,0.137,0.125,0.134
		l3.02-0.131c0.044-0.003,0.086,0.021,0.108,0.064l0.723,1.351c0.05,0.09,0.171,0.085,0.22-0.01l0.726-1.413
		c0.021-0.044,0.063-0.073,0.107-0.075l3.036-0.132c0.071-0.003,0.129-0.067,0.129-0.145v-3.925
		C213.933,83.788,213.875,83.729,213.804,83.731z"/>
	<path fill="#FFFFFF" d="M217.932,138.522l-7.981,0.108c-0.067,0-0.125,0.064-0.125,0.14v3.916c0,0.077,0.058,0.138,0.125,0.138
		l3.036-0.033c0.043-0.002,0.086,0.027,0.108,0.067l0.726,1.378c0.052,0.093,0.173,0.09,0.221-0.002l0.729-1.393
		c0.022-0.043,0.063-0.07,0.109-0.07l3.052-0.033c0.069-0.001,0.126-0.064,0.126-0.143v-3.934
		C218.058,138.583,218.001,138.521,217.932,138.522z"/>
	<path fill="#B3CDFA" d="M147.78,135.169l-7.333,0.118c-0.064,0.001-0.114,0.061-0.114,0.134v3.754c0,0.074,0.05,0.132,0.114,0.132
		l2.787-0.038c0.042,0,0.081,0.023,0.102,0.066l0.669,1.317c0.044,0.088,0.156,0.086,0.201-0.002l0.67-1.336
		c0.021-0.041,0.057-0.067,0.101-0.068l2.804-0.038c0.063-0.001,0.116-0.062,0.116-0.136v-3.77
		C147.896,135.227,147.844,135.169,147.78,135.169z"/>
	<path fill="#FFFFFF" d="M149.398,89.447l-7.346,0.325c-0.065,0.002-0.115,0.064-0.115,0.137v3.759c0,0.074,0.05,0.13,0.115,0.128
		l2.793-0.117c0.041-0.002,0.079,0.022,0.102,0.062l0.67,1.301c0.043,0.086,0.155,0.083,0.201-0.008l0.671-1.358
		c0.021-0.042,0.059-0.069,0.101-0.07l2.809-0.118c0.065-0.003,0.118-0.065,0.118-0.139v-3.775
		C149.517,89.5,149.464,89.443,149.398,89.447z"/>
	<polygon fill="#ECF3FF" points="125.703,142.367 101.01,142.658 101.01,73.705 125.703,72.331 	"/>
	<polygon fill="#ECF3FF" points="374.58,95.563 335.907,96.938 335.907,91.146 374.58,89.646 	"/>
	<polygon fill="#ECF3FF" points="374.58,105.225 335.907,106.395 335.907,100.603 374.58,99.308 	"/>
	<polygon fill="#ECF3FF" points="374.58,114.885 335.907,115.853 335.907,110.06 374.58,108.968 	"/>
	<polygon fill="#ECF3FF" points="374.58,124.545 335.907,125.312 335.907,119.519 374.58,118.629 	"/>
	<polygon fill="#ECF3FF" points="374.58,134.207 335.907,134.77 335.907,128.977 374.58,128.289 	"/>
	<polygon fill="#ECF3FF" points="374.58,143.867 335.907,144.228 335.907,138.436 374.58,137.951 	"/>
	<polygon fill="#ECF3FF" points="374.58,153.529 335.907,153.686 335.907,147.893 374.58,147.611 	"/>
	<polygon fill="#ECF3FF" points="374.58,163.188 335.907,163.144 335.907,157.351 374.58,157.271 	"/>
	<polygon fill="#ECF3FF" points="374.58,172.85 335.907,172.602 335.907,166.809 374.58,166.932 	"/>
	<polygon fill="#ECF3FF" points="374.58,182.511 335.907,182.06 335.907,176.267 374.58,176.594 	"/>
	<polygon fill="#ECF3FF" points="374.58,192.171 335.907,191.519 335.907,185.726 374.58,186.253 	"/>
	<polygon fill="#ECF3FF" points="374.58,201.833 335.907,200.976 335.907,195.185 374.58,195.916 	"/>
	<polygon fill="#ECF3FF" points="374.58,211.492 335.907,210.435 335.907,204.641 374.58,205.574 	"/>
	<polygon fill="#ECF3FF" points="374.58,221.154 335.907,219.893 335.907,214.099 374.58,215.237 	"/>
	<polygon fill="#ECF3FF" points="374.58,230.814 335.907,229.352 335.907,223.557 374.58,224.9 	"/>
	<polygon fill="#ECF3FF" points="374.58,240.475 335.907,238.809 335.907,233.016 374.58,234.559 	"/>
	<polygon fill="#ECF3FF" points="374.58,250.135 335.907,248.268 335.907,242.473 374.58,244.219 	"/>
	<polygon fill="#ECF3FF" points="374.58,259.797 335.907,257.725 335.907,251.934 374.58,253.879 	"/>
	<polygon fill="#ECF3FF" points="374.58,269.457 335.907,267.186 335.907,261.391 374.58,263.541 	"/>
	<polygon fill="#ECF3FF" points="374.58,279.119 335.907,276.643 335.907,270.85 374.58,273.201 	"/>
	<polygon fill="#ECF3FF" points="374.58,288.779 335.907,286.102 335.907,280.307 374.58,282.863 	"/>
	<polygon fill="#ECF3FF" points="374.58,298.439 335.907,295.559 335.907,289.766 374.58,292.521 	"/>
	<g>
		<path fill="#FFFFFF" d="M284.893,103.707v33.323l-31.009,0.426c0.193,17.717,13.758,32.062,30.74,32.116
			c17.412,0.051,31.761-14.89,31.761-33.376C316.385,117.807,302.185,103.325,284.893,103.707z"/>
		<path fill="#B3CDFA" d="M253.873,137.068c0,0.036,0.004,0.073,0.004,0.11l30.747-0.428v-33.042
			C267.52,104.237,253.873,119.169,253.873,137.068z"/>
	</g>
	<g>
		<path fill="#B3CDFA" d="M319.284,176.464l-1.767-0.011c-0.27-0.001-0.484-0.22-0.483-0.488c0.002-0.268,0.22-0.483,0.485-0.483
			c0.003,0,0.004,0,0.005,0l1.763,0.011c0.494,0,0.976-0.145,1.39-0.417c0.224-0.147,0.526-0.086,0.674,0.141
			c0.147,0.224,0.085,0.525-0.14,0.672C320.638,176.263,319.972,176.464,319.284,176.464z M310.789,176.412c0,0-0.001,0-0.003,0
			l-1.762-0.012c-0.268-0.002-0.485-0.221-0.483-0.488c0.001-0.269,0.22-0.482,0.487-0.482c0,0,0.001,0,0.002,0l1.761,0.011
			c0.27,0.001,0.486,0.22,0.486,0.488C311.273,176.196,311.057,176.412,310.789,176.412z M302.296,176.359
			C302.295,176.359,302.295,176.359,302.296,176.359l-1.765-0.01c-0.27-0.004-0.485-0.222-0.483-0.489
			c0.001-0.271,0.241-0.486,0.489-0.484l1.762,0.01c0.269,0.001,0.484,0.222,0.483,0.49
			C302.779,176.144,302.562,176.359,302.296,176.359z M293.804,176.305c-0.002,0-0.003,0-0.003,0l-1.762-0.011
			c-0.27-0.002-0.486-0.222-0.483-0.489c0.001-0.269,0.218-0.483,0.485-0.483c0.001,0,0.001,0,0.003,0l1.761,0.01
			c0.271,0.003,0.487,0.221,0.485,0.491C294.286,176.089,294.07,176.305,293.804,176.305z M285.31,176.251c-0.002,0-0.002,0-0.003,0
			l-1.763-0.012c-0.269-0.001-0.484-0.22-0.483-0.49c0.003-0.266,0.22-0.481,0.487-0.481c0.001,0,0.002,0,0.002,0l1.763,0.012
			c0.27,0.001,0.485,0.222,0.482,0.49C285.795,176.037,285.576,176.251,285.31,176.251z M276.816,176.198c-0.002,0-0.003,0-0.004,0
			l-1.761-0.01c-0.269-0.002-0.485-0.222-0.483-0.489c0.002-0.27,0.217-0.482,0.484-0.482c0.002,0,0.003,0,0.005,0l1.763,0.01
			c0.268,0.001,0.483,0.221,0.483,0.49C277.3,175.983,277.084,176.198,276.816,176.198z M268.323,176.146c-0.001,0-0.002,0-0.004,0
			l-1.763-0.012c-0.267-0.002-0.484-0.221-0.482-0.487c0.003-0.269,0.221-0.485,0.487-0.485c0,0,0,0,0.002,0l1.762,0.012
			c0.269,0.001,0.484,0.221,0.483,0.489C268.806,175.93,268.59,176.146,268.323,176.146z M259.828,176.091c-0.001,0-0.001,0-0.003,0
			l-1.762-0.011c-0.269-0.001-0.485-0.221-0.483-0.489c0.001-0.268,0.221-0.483,0.486-0.483c0,0,0.001,0,0.002,0l1.764,0.011
			c0.27,0.003,0.484,0.222,0.483,0.49C260.312,175.876,260.095,176.091,259.828,176.091z M251.334,176.04L251.334,176.04
			l-0.171-0.002c-0.627-0.003-1.238-0.192-1.768-0.545c-0.223-0.147-0.283-0.45-0.135-0.673c0.15-0.224,0.452-0.283,0.675-0.135
			c0.371,0.247,0.796,0.379,1.231,0.381h0.172c0.268,0.002,0.484,0.22,0.481,0.491C251.819,175.823,251.603,176.04,251.334,176.04z
			 M322.361,169.718c-0.268,0-0.484-0.218-0.484-0.486v-1.763c0-0.268,0.217-0.485,0.484-0.485c0.27,0,0.486,0.218,0.486,0.485
			v1.763C322.848,169.5,322.631,169.718,322.361,169.718z M248.304,169.298c-0.269,0-0.487-0.217-0.487-0.485v-1.763
			c0-0.268,0.219-0.486,0.487-0.486c0.267,0,0.484,0.219,0.484,0.486v1.763C248.788,169.082,248.57,169.298,248.304,169.298z
			 M322.361,161.225c-0.268,0-0.484-0.218-0.484-0.485v-1.764c0-0.268,0.217-0.485,0.484-0.485c0.27,0,0.486,0.218,0.486,0.485
			v1.764C322.848,161.007,322.631,161.225,322.361,161.225z M248.304,160.806c-0.269,0-0.487-0.219-0.487-0.486v-1.763
			c0-0.269,0.219-0.485,0.487-0.485c0.267,0,0.484,0.217,0.484,0.485v1.763C248.788,160.587,248.57,160.806,248.304,160.806z
			 M322.361,152.732c-0.268,0-0.484-0.219-0.484-0.487v-1.761c0-0.271,0.217-0.486,0.484-0.486c0.27,0,0.486,0.216,0.486,0.486
			v1.761C322.848,152.513,322.631,152.732,322.361,152.732z M248.304,152.312c-0.269,0-0.487-0.219-0.487-0.486v-1.762
			c0-0.269,0.219-0.486,0.487-0.486c0.267,0,0.484,0.218,0.484,0.486v1.762C248.788,152.093,248.57,152.312,248.304,152.312z
			 M322.361,144.238c-0.268,0-0.484-0.217-0.484-0.486v-1.762c0-0.27,0.217-0.486,0.484-0.486c0.27,0,0.486,0.217,0.486,0.486v1.762
			C322.848,144.021,322.631,144.238,322.361,144.238z M248.304,143.818c-0.269,0-0.487-0.217-0.487-0.486v-1.762
			c0-0.269,0.219-0.486,0.487-0.486c0.267,0,0.484,0.218,0.484,0.486v1.762C248.788,143.601,248.57,143.818,248.304,143.818z
			 M322.361,135.744c-0.268,0-0.484-0.217-0.484-0.486v-1.763c0-0.267,0.217-0.485,0.484-0.485c0.27,0,0.486,0.218,0.486,0.485
			v1.763C322.848,135.526,322.631,135.744,322.361,135.744z M248.304,135.324c-0.269,0-0.487-0.216-0.487-0.486v-1.762
			c0-0.268,0.219-0.486,0.487-0.486c0.267,0,0.484,0.218,0.484,0.486v1.762C248.788,135.108,248.57,135.324,248.304,135.324z
			 M322.361,127.25c-0.268,0-0.484-0.218-0.484-0.487v-1.761c0-0.269,0.217-0.486,0.484-0.486c0.27,0,0.486,0.217,0.486,0.486v1.761
			C322.848,127.033,322.631,127.25,322.361,127.25z M248.304,126.833c-0.269,0-0.487-0.219-0.487-0.487v-1.763
			c0-0.268,0.219-0.485,0.487-0.485c0.267,0,0.484,0.217,0.484,0.485v1.763C248.788,126.613,248.57,126.833,248.304,126.833z
			 M322.361,118.757c-0.268,0-0.484-0.217-0.484-0.486v-1.762c0-0.269,0.217-0.486,0.484-0.486c0.27,0,0.486,0.217,0.486,0.486
			v1.762C322.848,118.54,322.631,118.757,322.361,118.757z M248.304,118.337c-0.269,0-0.487-0.217-0.487-0.486v-1.763
			c0-0.268,0.219-0.485,0.487-0.485c0.267,0,0.484,0.217,0.484,0.485v1.763C248.788,118.12,248.57,118.337,248.304,118.337z
			 M322.361,110.264c-0.268,0-0.484-0.219-0.484-0.487v-1.762c0-0.268,0.217-0.486,0.484-0.486c0.27,0,0.486,0.218,0.486,0.486
			v1.762C322.848,110.044,322.631,110.264,322.361,110.264z M248.304,109.843c-0.269,0-0.487-0.217-0.487-0.486v-1.762
			c0-0.268,0.219-0.486,0.487-0.486c0.267,0,0.484,0.218,0.484,0.486v1.762C248.788,109.626,248.57,109.843,248.304,109.843z
			 M322.361,101.77c-0.268,0-0.484-0.218-0.484-0.487v-1.642c-0.014-0.268,0.192-0.544,0.461-0.556
			c0.284-0.008,0.494,0.146,0.506,0.414c0.004,0.051,0.006,0.103,0.004,0.155v1.629C322.848,101.551,322.631,101.77,322.361,101.77z
			 M248.509,101.375c-0.056,0-0.112-0.01-0.168-0.031c-0.253-0.093-0.38-0.373-0.287-0.625c0.239-0.646,0.649-1.207,1.179-1.621
			c0.213-0.166,0.519-0.128,0.682,0.083c0.167,0.212,0.13,0.519-0.083,0.683c-0.39,0.303-0.689,0.717-0.866,1.194
			C248.892,101.254,248.707,101.375,248.509,101.375z M256.121,99.195c-0.259,0-0.477-0.207-0.486-0.47
			c-0.007-0.268,0.202-0.493,0.471-0.502l1.76-0.06c0.267-0.025,0.494,0.201,0.503,0.469c0.01,0.269-0.2,0.493-0.469,0.502
			l-1.763,0.059C256.134,99.195,256.128,99.195,256.121,99.195z M264.611,98.906c-0.26,0-0.478-0.208-0.485-0.47
			c-0.009-0.268,0.2-0.493,0.469-0.502l1.762-0.059c0.247-0.026,0.491,0.201,0.502,0.469c0.009,0.27-0.201,0.493-0.471,0.503
			l-1.761,0.059C264.62,98.906,264.617,98.906,264.611,98.906z M273.101,98.617c-0.263,0-0.476-0.207-0.487-0.469
			c-0.008-0.27,0.202-0.494,0.473-0.503l1.759-0.061c0.252-0.024,0.492,0.201,0.502,0.469c0.008,0.268-0.202,0.494-0.471,0.503
			l-1.76,0.059C273.11,98.617,273.105,98.617,273.101,98.617z M281.589,98.328c-0.261,0-0.479-0.208-0.485-0.47
			c-0.009-0.268,0.201-0.493,0.469-0.502l1.763-0.06c0.254-0.025,0.492,0.202,0.501,0.469c0.009,0.268-0.201,0.493-0.47,0.502
			l-1.762,0.061C281.6,98.328,281.595,98.328,281.589,98.328z M290.077,98.038c-0.261,0-0.477-0.208-0.484-0.47
			c-0.01-0.268,0.2-0.493,0.469-0.502l1.761-0.06c0.26-0.025,0.493,0.201,0.501,0.47c0.009,0.269-0.201,0.493-0.47,0.501
			l-1.759,0.06C290.088,98.038,290.085,98.038,290.077,98.038z M298.565,97.75c-0.261,0-0.477-0.207-0.484-0.469
			c-0.01-0.268,0.201-0.494,0.469-0.502l1.762-0.06c0.263-0.025,0.492,0.201,0.501,0.469c0.009,0.269-0.2,0.493-0.471,0.502
			l-1.761,0.061C298.576,97.75,298.57,97.75,298.565,97.75z M307.054,97.46c-0.261,0-0.476-0.208-0.486-0.47
			c-0.007-0.269,0.202-0.493,0.471-0.502l1.763-0.059c0.267-0.025,0.491,0.2,0.5,0.469c0.01,0.269-0.199,0.493-0.469,0.502
			l-1.761,0.06C307.065,97.46,307.061,97.46,307.054,97.46z M315.543,97.172c-0.26,0-0.477-0.208-0.484-0.471
			c-0.011-0.268,0.2-0.494,0.469-0.502l1.762-0.06c0.271-0.024,0.493,0.201,0.502,0.468c0.008,0.269-0.202,0.494-0.47,0.503
			l-1.761,0.06C315.554,97.172,315.55,97.172,315.543,97.172z"/>
	</g>
	<path opacity="0.3" fill="#7C96C4" d="M215.648,142.369c-0.96,0.821-3.668,4.021-3.668,4.021s3.617-6.022,3.955-6.57
		c0.338-0.547-0.198-1.233-0.657-1.061c0,0,0.213-0.573,0.345-0.721c0.464-0.528-0.512-1.372-1.646-0.193
		c-1.134,1.18-4.701,5.984-5.271,5.941c-0.567-0.044,2.284-5.933,2.68-7.023c0.397-1.094-0.915-1.297-2.858,1.767
		c-1.942,3.067-4.211,7.52-5.229,8.434c-1.017,0.911-1.674-0.426-1.939-1.311c-0.265-0.884-2.231-3.789-3.198-2.796
		c-0.967,0.995,0.611,1.993,0.577,3.031c-0.035,1.038-0.374,2.774,0.751,5.41c0.408,0.961,0.852,1.841,1.252,2.578
		c-0.25,0.226-0.492,0.474-0.701,0.758l-0.479,0.654c-0.533,0.138-0.966,0.401-1.239,0.823l0,0
		c-0.003,0.006-0.009,0.012-0.011,0.018c-0.014,0.015-0.022,0.029-0.033,0.045c-5.325,7.26-5.444,7.421-12.293,16.763
		c-11.308,0.118-13.049,0.137-30.569,0.316v0.007c-0.051,0-0.1-0.005-0.149-0.004c-0.52,0.013-1.023,0.079-1.519,0.168
		c-1.877-1.238-6.482-3.758-13.994-4.74c-0.513-1.877-1.816-3.396-3.507-4.219c-0.234-1.002-0.444-1.906-0.66-2.829
		c5.729-2.74,8.771-9.309,6.877-15.574l-2.463-8.15c-0.749-2.477-2.174-4.56-4.002-6.13l-0.155-0.435l2.004-0.712l-0.021-0.059
		c-1.131-3.173-4.619-4.829-7.791-3.699l-7.459,2.656l-4.051,1.442c-5.511,1.962-8.387,8.019-6.424,13.529l4.327,12.146
		c0.62,1.745,2.03,2.979,3.682,3.452c0.439,1.886,0.773,3.315,1.093,4.682c-1.877,0.242-3.253,1.909-3.098,3.814l0.15,1.826
		c-11.014,3.36-16.37,9.624-17.083,10.911c-0.021,0.038-0.026,0.107-0.037,0.17c-0.513,0.877-0.906,1.836-1.129,2.868
		c0,0-3.214,14.679-5.78,26.434c-0.153,0.556-0.252,1.128-0.276,1.706c0,0.016-0.003,0.03-0.004,0.043
		c-0.18,3.373,1.851,6.349,4.823,7.534c5.827,3.527,10.17,6.152,14.128,8.547c-0.208,8.4-0.451,18.5-0.549,23.678
		c-0.009,0.555,0.144,1.064,0.429,1.533c-1.351,10.232-2.577,19.582-3.689,28.133l22.325,1.705c2.101-9.604,3.83-17.51,4.797-21.938
		c0.026,5.52,0.06,13.357,0.099,22.311l21.701,1.66c1.579-16.865,2.77-29.568,2.77-29.568l0.065-0.785l0.081-0.904
		c0.035-0.379,0.059-0.762,0.059-1.146c0-0.857-0.085-1.691-0.252-2.498c0.144-0.326,0.224-0.658,0.216-0.998
		c-0.118-5.607-2.759-36.465-4.562-57.007c0.144-0.013,0.29-0.016,0.43-0.034v0.002c19.257-2.574,19.279-2.578,34.325-4.591
		c0.005,0,0.013-0.001,0.021-0.001c0.008-0.002,0.016-0.002,0.023-0.004v-0.002c2.854-0.378,5.196-2.316,6.172-4.911
		c0.529-0.557,0.984-1.191,1.333-1.902l0.006,0.004c5.413-10.98,9.59-19.709,9.95-20.547c0.217-0.502,0.109-1.06-0.223-1.618
		c0.098-0.239,0.182-0.48,0.236-0.721c0.085-0.371,0.112-0.742,0.109-1.109c0.205-0.36,0.34-0.611,0.361-0.68
		c3.297-6.174,7.466-13.967,7.591-14.146C216.933,142.251,216.609,141.548,215.648,142.369z M110.882,210.282
		c0.078-0.202,0.155-0.396,0.229-0.589c0.157,0.387,0.308,0.759,0.451,1.114C111.337,210.631,111.113,210.461,110.882,210.282z"/>
	<path opacity="0.2" fill="#7C96C4" d="M174.685,365.518c0,7.164-24.23,12.971-54.12,12.971s-54.122-5.807-54.122-12.971
		c0-7.16,24.232-12.969,54.122-12.969S174.685,358.357,174.685,365.518z"/>
	<linearGradient id="SVGID_7_" gradientUnits="userSpaceOnUse" x1="87.0288" y1="370.624" x2="112.1789" y2="355.9762">
		<stop  offset="0" style="stop-color:#D0471E"/>
		<stop  offset="0.2198" style="stop-color:#D95E13"/>
		<stop  offset="0.4881" style="stop-color:#E17308"/>
		<stop  offset="0.751" style="stop-color:#E68002"/>
		<stop  offset="1" style="stop-color:#E88400"/>
	</linearGradient>
	<path fill="url(#SVGID_7_)" d="M87.699,364.912v-4.42c0-0.824,0.668-1.492,1.493-1.492l9.617-0.039l-0.095-2.051
		c-0.075-0.594,0.573-1.004,1.079-0.686l4.923,3.117c0.883,0.588,1.937,0.873,2.999,0.811l4.988-0.246
		c1.103-0.051,2.046,0.787,2.121,1.889l0.213,3.117H87.699z"/>
	<linearGradient id="SVGID_8_" gradientUnits="userSpaceOnUse" x1="199.2236" y1="127.6475" x2="187.314" y2="152.1958">
		<stop  offset="0" style="stop-color:#EEC9C8"/>
		<stop  offset="0.2498" style="stop-color:#EDC4C2"/>
		<stop  offset="0.5696" style="stop-color:#ECB4B3"/>
		<stop  offset="0.926" style="stop-color:#E99A98"/>
		<stop  offset="1" style="stop-color:#E89492"/>
	</linearGradient>
	<path fill="url(#SVGID_8_)" d="M188.843,141.317c0.742,1.742,1.603,3.233,2.101,4.047c-0.921,1.536-3.168,5.764-2.343,4.222
		l6.324,3.584c0.341-1.01,3.455-6.104,3.561-6.455c3.297-6.172,7.464-13.963,7.591-14.144c0.211-0.3-0.112-1.003-1.072-0.183
		c-0.963,0.819-3.668,4.02-3.668,4.02s3.614-6.02,3.953-6.568c0.34-0.55-0.197-1.234-0.656-1.062c0,0,0.213-0.575,0.345-0.724
		c0.464-0.525-0.511-1.37-1.645-0.192c-1.136,1.179-4.702,5.985-5.271,5.942c-0.569-0.044,2.283-5.931,2.68-7.024
		c0.397-1.092-0.915-1.296-2.857,1.769c-1.942,3.067-4.214,7.521-5.229,8.433c-1.018,0.913-1.677-0.425-1.94-1.309
		c-0.265-0.884-2.233-3.789-3.198-2.796c-0.967,0.992,0.611,1.993,0.576,3.031S187.721,138.681,188.843,141.317z"/>
	
		<linearGradient id="SVGID_9_" gradientUnits="userSpaceOnUse" x1="611.8691" y1="141.8442" x2="611.8691" y2="165.8906" gradientTransform="matrix(-0.9976 0.0686 0.0686 0.9976 717.5327 -44.4883)">
		<stop  offset="0" style="stop-color:#E85F5A"/>
		<stop  offset="1" style="stop-color:#EEC9C8"/>
	</linearGradient>
	<path fill="url(#SVGID_9_)" d="M116.827,136.449c-3.999-0.719-7.829,1.943-8.547,5.944c-0.183,1.021-0.146,2.026,0.077,2.974l0,0
		c2.347,10.067,2.354,10.102,4.689,20.109c0.007,0.022,0.011,0.046,0.017,0.068c0.001,0.004,0.003,0.008,0.003,0.014l0,0
		c0.65,2.772,2.885,5.036,5.868,5.57c4.001,0.723,7.828-1.939,8.546-5.94c0.185-1.021,0.146-2.027-0.076-2.976l0,0
		c-2.348-10.066-2.356-10.1-4.691-20.107c-0.005-0.023-0.01-0.046-0.014-0.068c-0.003-0.006-0.004-0.008-0.005-0.015l0,0
		C122.046,139.249,119.81,136.984,116.827,136.449z"/>
	
		<linearGradient id="SVGID_10_" gradientUnits="userSpaceOnUse" x1="613.8105" y1="138.9707" x2="586.0599" y2="137.1918" gradientTransform="matrix(-0.9976 0.0686 0.0686 0.9976 717.5327 -44.4883)">
		<stop  offset="0" style="stop-color:#E89492"/>
		<stop  offset="0.074" style="stop-color:#E99A98"/>
		<stop  offset="0.4304" style="stop-color:#ECB4B3"/>
		<stop  offset="0.7502" style="stop-color:#EDC4C2"/>
		<stop  offset="1" style="stop-color:#EEC9C8"/>
	</linearGradient>
	<path fill="url(#SVGID_10_)" d="M123.073,152.396l-0.253,0.076c-6.92,2.09-14.225-1.824-16.314-8.744l-2.463-8.149
		c-2.091-6.919,1.823-14.225,8.745-16.317l0.253-0.076c6.919-2.091,14.223,1.825,16.314,8.745l2.463,8.149
		C133.908,143,129.994,150.304,123.073,152.396z"/>
	<path fill="#172B36" d="M107.88,120.994l4.052-1.443l7.458-2.657c3.175-1.13,6.662,0.526,7.792,3.699l0.021,0.059l-2.002,0.713
		l2.223,6.247c0.851,2.386-0.137,4.979-2.223,6.238l-0.093-0.261c-0.537-1.504-2.189-2.29-3.694-1.755l-0.053,0.021
		c-1.505,0.536-2.291,2.188-1.755,3.691l1.96,5.504c1.023,2.871-0.477,6.03-3.349,7.053l-5.381,1.918
		c-2.873,1.021-6.03-0.479-7.055-3.35l-4.326-12.148C99.496,129.013,102.369,122.956,107.88,120.994z"/>
	
		<linearGradient id="SVGID_11_" gradientUnits="userSpaceOnUse" x1="105.4355" y1="169.5449" x2="126.3976" y2="157.3362" gradientTransform="matrix(0.9967 -0.0816 0.0816 0.9967 -12.1699 7.3647)">
		<stop  offset="0" style="stop-color:#FA902F"/>
		<stop  offset="0.1685" style="stop-color:#F7A030"/>
		<stop  offset="0.4545" style="stop-color:#F3B530"/>
		<stop  offset="0.7347" style="stop-color:#F1C231"/>
		<stop  offset="1" style="stop-color:#F0C631"/>
	</linearGradient>
	<path fill="url(#SVGID_11_)" d="M129.549,162.641l-21.613,1.77l-0.476-5.792c-0.16-1.963,1.301-3.686,3.263-3.847l11.441-0.937
		c3.655-0.301,6.862,2.422,7.161,6.08L129.549,162.641z"/>
	<path fill="#0056EC" d="M130.416,363.621c-2.067-0.854-3.387-3.018-3.078-5.34l5.513-41.482c0.367-2.768,2.91-4.715,5.679-4.346
		c2.77,0.371,4.712,2.912,4.344,5.678l-5.512,41.482c-0.367,2.766-2.91,4.713-5.679,4.344
		C131.237,363.9,130.813,363.785,130.416,363.621z"/>
	<linearGradient id="SVGID_12_" gradientUnits="userSpaceOnUse" x1="125.3037" y1="370.624" x2="150.4538" y2="355.9762">
		<stop  offset="0" style="stop-color:#D0471E"/>
		<stop  offset="0.2198" style="stop-color:#D95E13"/>
		<stop  offset="0.4881" style="stop-color:#E17308"/>
		<stop  offset="0.751" style="stop-color:#E68002"/>
		<stop  offset="1" style="stop-color:#E88400"/>
	</linearGradient>
	<path fill="url(#SVGID_12_)" d="M125.974,364.912v-4.42c0-0.824,0.669-1.492,1.491-1.492l9.619-0.039l-0.097-2.051
		c-0.073-0.594,0.576-1.004,1.08-0.686l4.923,3.117c0.884,0.588,1.937,0.873,2.998,0.811l4.987-0.246
		c1.105-0.051,2.048,0.787,2.124,1.889l0.211,3.117H125.974z"/>
	<path fill="#0056EC" d="M122.247,217.252l0.002-0.005c-9.185-7.071-14.421-11.103-26.59-20.47l-0.003,0.006
		c-2.226-1.713-5.31-2.143-8.014-0.838c-3.82,1.841-5.424,6.43-3.583,10.251c0.672,1.394,1.713,2.487,2.945,3.231l-0.002,0.003
		c13.139,7.949,18.791,11.37,28.71,17.366h0.002c1.621,0.979,3.685,1.146,5.515,0.266c2.884-1.391,4.095-4.855,2.705-7.738
		C123.528,218.479,122.94,217.785,122.247,217.252z"/>
	<path fill="#005E9C" d="M108.08,180.016l-0.004-0.002c0.363-0.94,0.592-1.951,0.649-3.015c0.286-5.409-3.864-10.025-9.273-10.312
		c-4.871-0.257-9.088,3.087-10.09,7.704c0,0-3.311,15.115-5.896,26.955l0.008,0.002c-0.088,0.398-0.153,0.809-0.174,1.229
		c-0.225,4.234,3.024,7.849,7.261,8.073c3.401,0.18,6.401-1.885,7.566-4.899h0.001c0.011-0.023,0.018-0.044,0.027-0.065
		c0.006-0.017,0.014-0.035,0.019-0.054C102.497,194.455,102.52,194.398,108.08,180.016z"/>
	<path fill="#0056EC" d="M91.63,362.189c-2.067-0.854-3.388-3.018-3.079-5.34l5.512-41.48c0.368-2.77,2.911-4.715,5.679-4.348
		c2.77,0.371,4.713,2.912,4.345,5.678l-5.513,41.482c-0.367,2.766-2.908,4.713-5.678,4.344
		C92.449,362.467,92.026,362.352,91.63,362.189z"/>
	<path fill="#172B36" d="M139.642,358.463c0.48-5.463,10.493-112.293,10.493-112.293l0.065-0.785l0.08-0.908
		c0.035-0.375,0.059-0.758,0.059-1.146c0-6.838-5.563-12.404-12.404-12.404c-6.835,0-12.401,5.559-12.406,12.395
		c0,0,0.5,111.178,0.445,115.387C125.916,362.916,139.162,363.926,139.642,358.463z"/>
	<path fill="#172B36" d="M101.775,359.754c1.671-6.707,24.632-111.844,24.632-111.844l0.415-1.92
		c0.193-0.895,0.293-1.791,0.293-2.66c0-6.838-5.563-12.404-12.407-12.404c-6.237,0-11.523,4.666-12.297,10.852l-0.144,1.055
		c-12.102,91.561-14.19,113.389-14.521,117.295C87.381,364.43,100.623,364.379,101.775,359.754z"/>
	<linearGradient id="SVGID_13_" gradientUnits="userSpaceOnUse" x1="170.6299" y1="167.7124" x2="200.9993" y2="150.0247">
		<stop  offset="0" style="stop-color:#FA902F"/>
		<stop  offset="0.1685" style="stop-color:#F7A030"/>
		<stop  offset="0.4545" style="stop-color:#F3B530"/>
		<stop  offset="0.7347" style="stop-color:#F1C231"/>
		<stop  offset="1" style="stop-color:#F0C631"/>
	</linearGradient>
	<path fill="url(#SVGID_13_)" d="M180.648,172.407c-3.601-0.817-5.863-4.413-5.044-8.015c0.202-0.898,0.584-1.729,1.13-2.474
		l0.686-0.933l11.976-16.333c1.18-1.608,3.124-2.335,4.992-1.909c2.59,0.59,4.216,3.174,3.626,5.762
		c-0.079,0.354-0.208,0.709-0.378,1.059l-0.38,0.778l-8.645,17.534l-0.477,0.96C186.762,171.628,183.681,173.096,180.648,172.407z"
		/>
	<path fill="#005E9C" d="M187.199,170.396c-0.106-4.201-3.568-7.521-7.753-7.477l-0.002-0.006
		c-15.226,0.158-15.226,0.158-34.675,0.359l0.001,0.005c-0.051,0-0.098-0.005-0.15-0.003c-5.414,0.14-9.69,4.642-9.552,10.056
		c0.139,5.413,4.642,9.689,10.056,9.551c0.355-0.009,0.705-0.039,1.048-0.085v0.002c19.257-2.576,19.278-2.579,34.323-4.59
		c0.008,0,0.014-0.001,0.021-0.003c0.009,0,0.018-0.003,0.027-0.003v-0.002C184.382,177.693,187.302,174.356,187.199,170.396z"/>
	<path fill="#005FF0" d="M198.003,150.841c1.266-2.938-8.421-7.686-10.324-4.711h-0.002c-0.006,0.006-0.008,0.012-0.013,0.018
		c-0.011,0.016-0.021,0.028-0.032,0.044c-5.418,7.39-5.44,7.419-12.66,17.267h0.001c-0.605,0.823-1.056,1.776-1.297,2.837
		c-0.94,4.134,1.649,8.249,5.783,9.19c3.537,0.803,7.052-0.979,8.587-4.097l0.004,0.003
		C193.464,160.41,197.641,151.683,198.003,150.841z"/>
	<path fill="#005E9C" d="M90.529,171.353c0.9-1.631,9.272-11.277,27.194-12.839c17.924-1.56,26.364,5.641,26.364,5.641
		s6.034,67.142,6.216,75.683c0.182,8.539-48.786,12.328-48.601,2.496c0.187-9.832,0.894-37.407,0.894-37.407
		S89.469,173.272,90.529,171.353z"/>
	
		<linearGradient id="SVGID_14_" gradientUnits="userSpaceOnUse" x1="-288.5601" y1="260.9521" x2="-296.3746" y2="260.587" gradientTransform="matrix(-1 0 0 1 44.5781 0)">
		<stop  offset="0" style="stop-color:#E85F5A"/>
		<stop  offset="1" style="stop-color:#EEC9C8"/>
	</linearGradient>
	<path fill="url(#SVGID_14_)" d="M340.552,267.529c-0.377-0.006-7.546-6.271-7.546-6.271l1.978-7.318c0,0,6.149,2.391,6.367,4.93
		C341.568,261.404,343.218,267.568,340.552,267.529z"/>
	<g>
		<path fill="#005FF0" d="M338.011,269.35h-37.282c-1.131,0-2.324-0.916-2.67-2.045l-7.806-25.498
			c-0.347-1.131,0.29-2.047,1.418-2.047h37.283c1.129,0,2.323,0.916,2.671,2.047l7.805,25.498
			C339.775,268.434,339.143,269.35,338.011,269.35z"/>
		<path fill="#B3CDFA" d="M300.414,268.328c-0.562,0-1.161-0.459-1.334-1.023l-7.806-25.498c-0.173-0.564,0.146-1.023,0.708-1.023
			h37.284c0.563,0,1.163,0.459,1.336,1.023l7.806,25.498c0.173,0.564-0.146,1.023-0.709,1.023H300.414z"/>
		<path fill="#B3CDFA" d="M321.373,269.082h-4.171c-0.139,0-0.289-0.111-0.33-0.25l-0.003-0.008c-0.041-0.139,0.036-0.25,0.177-0.25
			h4.172c0.139,0,0.287,0.111,0.331,0.25l0.002,0.008C321.594,268.971,321.514,269.082,321.373,269.082z"/>
	</g>
	<g>
		<path fill="#FFFFFF" d="M303.705,258.797c-2.269,0-4.678-1.84-5.368-4.1c-0.357-1.168-0.21-2.314,0.403-3.145
			c0.591-0.801,1.537-1.238,2.669-1.238c2.267,0,4.676,1.838,5.367,4.098c0.357,1.17,0.211,2.316-0.403,3.146
			C305.782,258.357,304.836,258.797,303.705,258.797z M301.409,251.287c-0.815,0-1.484,0.299-1.889,0.842
			c-0.433,0.59-0.524,1.4-0.253,2.283c0.574,1.883,2.567,3.412,4.438,3.412c0.815,0,1.484-0.301,1.888-0.844
			c0.433-0.588,0.523-1.398,0.254-2.283C305.271,252.818,303.278,251.287,301.409,251.287z"/>
	</g>
	<g>
		<path fill="#005FF0" d="M297.872,254.84c-0.402-1.318-0.229-2.621,0.478-3.578c0.685-0.926,1.771-1.432,3.06-1.432v1.943
			c-0.657,0-1.188,0.229-1.497,0.645c-0.341,0.461-0.404,1.121-0.182,1.852L297.872,254.84z"/>
	</g>
	<g>
		<path fill="#FFFFFF" d="M315.99,258.797c-2.269,0-4.678-1.84-5.37-4.1c-0.356-1.168-0.21-2.314,0.405-3.146
			c0.591-0.799,1.537-1.236,2.667-1.236c2.268,0,4.676,1.838,5.369,4.098c0.358,1.17,0.211,2.316-0.404,3.146
			C318.066,258.357,317.12,258.797,315.99,258.797z M313.692,251.287c-0.814,0-1.482,0.299-1.887,0.842
			c-0.436,0.59-0.525,1.4-0.254,2.283c0.574,1.883,2.566,3.412,4.438,3.412c0.814,0,1.482-0.301,1.886-0.844
			c0.436-0.588,0.525-1.398,0.255-2.283C317.556,252.818,315.564,251.287,313.692,251.287z"/>
	</g>
	<g>
		<path fill="#005FF0" d="M310.156,254.84c-0.403-1.318-0.229-2.623,0.479-3.578c0.684-0.926,1.77-1.432,3.058-1.432v1.943
			c-0.655,0-1.186,0.229-1.494,0.645c-0.342,0.461-0.406,1.121-0.182,1.852L310.156,254.84z"/>
	</g>
	<g>
		<path fill="#FFFFFF" d="M328.275,258.797c-2.271,0-4.68-1.84-5.37-4.1c-0.357-1.168-0.211-2.314,0.403-3.145
			c0.592-0.801,1.537-1.238,2.668-1.238c2.269,0,4.676,1.838,5.369,4.098c0.356,1.17,0.21,2.316-0.404,3.146
			C330.352,258.357,329.404,258.797,328.275,258.797z M325.977,251.287c-0.814,0-1.484,0.299-1.887,0.842
			c-0.434,0.59-0.525,1.4-0.254,2.283c0.574,1.883,2.566,3.412,4.439,3.412c0.812,0,1.482-0.301,1.885-0.844
			c0.436-0.588,0.527-1.398,0.256-2.283C329.841,252.818,327.849,251.287,325.977,251.287z"/>
	</g>
	<g>
		<path fill="#005FF0" d="M322.441,254.84c-0.403-1.318-0.229-2.621,0.477-3.578c0.685-0.926,1.771-1.432,3.059-1.432v1.943
			c-0.657,0-1.186,0.229-1.495,0.645c-0.341,0.461-0.405,1.121-0.182,1.852L322.441,254.84z"/>
	</g>
	<polygon opacity="0.5" fill="#FFFFFF" points="304.487,255.332 301.101,255.332 300.625,253.779 304.014,253.779 	"/>
	<polygon opacity="0.5" fill="#FFFFFF" points="316.772,255.332 313.386,255.332 312.911,253.779 316.296,253.779 	"/>
	<polygon opacity="0.5" fill="#FFFFFF" points="329.056,255.332 325.67,255.332 325.194,253.779 328.58,253.779 	"/>
	<linearGradient id="SVGID_15_" gradientUnits="userSpaceOnUse" x1="329.416" y1="242.3389" x2="345.2948" y2="267.1815">
		<stop  offset="0" style="stop-color:#EEC9C8"/>
		<stop  offset="0.2498" style="stop-color:#EDC4C2"/>
		<stop  offset="0.5696" style="stop-color:#ECB4B3"/>
		<stop  offset="0.926" style="stop-color:#E99A98"/>
		<stop  offset="1" style="stop-color:#E89492"/>
	</linearGradient>
	<path fill="url(#SVGID_15_)" d="M353.075,270.334c-2.296-1.371-4.491-2.744-6.384-4.074l-2.197-2.012c0,0-2.623-8.598-3.274-9.344
		c-0.651-0.748-6.511-3.021-6.511-3.021l0.907,3.023c-1.023-0.445-2.447-1.254-2.538-1.299c-0.265-0.133-1.759,1.135-0.068,2.342
		c1.688,1.205,4.109,2.436,4.109,2.436s1.832,7.451,2.899,9.549c0.472,0.924,6.19,7.787,13.057,14.395V270.334z"/>
	<ellipse opacity="0.2" fill="#7C96C4" cx="289.496" cy="400.869" rx="52.206" ry="12.512"/>
	<path opacity="0.2" fill="#7C96C4" d="M402.357,408.684c0,4.119-13.929,7.457-31.11,7.457c-17.181,0-31.11-3.338-31.11-7.457
		c0-4.115,13.93-7.455,31.11-7.455C388.429,401.229,402.357,404.568,402.357,408.684z"/>
	<linearGradient id="SVGID_16_" gradientUnits="userSpaceOnUse" x1="304.7441" y1="368.4941" x2="308.709" y2="394.8211">
		<stop  offset="0" style="stop-color:#E89492"/>
		<stop  offset="0.074" style="stop-color:#E99A98"/>
		<stop  offset="0.4304" style="stop-color:#ECB4B3"/>
		<stop  offset="0.7502" style="stop-color:#EDC4C2"/>
		<stop  offset="1" style="stop-color:#EEC9C8"/>
	</linearGradient>
	<path fill="url(#SVGID_16_)" d="M310.574,387.928c-2.561,1.018-5.511-0.143-6.578-2.588c-0.103-0.238-0.188-0.5-0.26-0.805
		l-0.404-1.719h-0.004l-11.696-50.068l-0.493-2.143c-0.836-3.557,1.114-7.154,4.636-8.555c3.995-1.59,8.6,0.225,10.266,4.041
		c0.266,0.609,0.446,1.275,0.536,1.973l0.26,2.014h0.008l6.547,50.945l0.236,1.885C313.902,385.037,312.647,387.104,310.574,387.928
		z"/>
	<linearGradient id="SVGID_17_" gradientUnits="userSpaceOnUse" x1="287.1221" y1="402.749" x2="319.2114" y2="384.0596">
		<stop  offset="0" style="stop-color:#FA902F"/>
		<stop  offset="0.1685" style="stop-color:#F7A030"/>
		<stop  offset="0.4545" style="stop-color:#F3B530"/>
		<stop  offset="0.7347" style="stop-color:#F1C231"/>
		<stop  offset="1" style="stop-color:#F0C631"/>
	</linearGradient>
	<path fill="url(#SVGID_17_)" d="M315.254,380.576l-0.485-3.049l-6.727,1.898l-0.619,2.451l-1.913-1.734l-6.006,1.695l-0.124,12.812
		c-0.01,0.951-0.513,1.842-1.344,2.371l-5.448,3.469c-0.58,0.369-0.842,1.057-0.645,1.695l0.008,0.023
		c0.225,0.723,0.964,1.18,1.746,1.074l11.475-1.521c0.861-0.115,1.628-0.578,2.104-1.271l4.632-6.727l2.221,5.982l3.245-0.916
		l1.304-13.104L315.254,380.576z"/>
	<linearGradient id="SVGID_18_" gradientUnits="userSpaceOnUse" x1="314.3438" y1="394.1133" x2="320.5207" y2="394.2817">
		<stop  offset="0" style="stop-color:#172B36"/>
		<stop  offset="1" style="stop-color:#325D75"/>
	</linearGradient>
	<polygon fill="url(#SVGID_18_)" points="311.908,393.764 314.129,399.746 317.374,398.83 318.394,388.586 	"/>
	<path fill="#005E9C" d="M312.604,366.945c-0.455-3.814-5.041-42.426-5.041-42.426l-0.121-0.887l-0.165-1.268
		c-0.108-0.84-0.327-1.643-0.647-2.379c-1.467-3.363-4.872-5.539-8.68-5.539c-1.232,0-2.438,0.234-3.584,0.688
		c-4.232,1.682-6.572,6.018-5.564,10.301l0.526,2.295c0,0,8.031,34.734,9.705,41.121
		C300.705,375.236,313.056,370.76,312.604,366.945z"/>
	<linearGradient id="SVGID_19_" gradientUnits="userSpaceOnUse" x1="361.2324" y1="243.9863" x2="362.1212" y2="272.4274">
		<stop  offset="0" style="stop-color:#E89492"/>
		<stop  offset="0.074" style="stop-color:#E99A98"/>
		<stop  offset="0.4304" style="stop-color:#ECB4B3"/>
		<stop  offset="0.7502" style="stop-color:#EDC4C2"/>
		<stop  offset="1" style="stop-color:#EEC9C8"/>
	</linearGradient>
	<path fill="url(#SVGID_19_)" d="M358.935,235.486c3.818-1.477,8.165,0.287,9.709,3.934c0.395,0.932,0.563,1.891,0.542,2.836l0,0
		c-0.242,10.004-0.242,10.035-0.482,19.98c0,0.025,0,0.047,0,0.07c0,0.002,0,0.006,0,0.014h-0.002
		c-0.066,2.756-1.814,5.342-4.662,6.443c-3.819,1.473-8.166-0.289-9.71-3.939c-0.394-0.928-0.563-1.891-0.54-2.834h-0.002
		c0.24-10.002,0.242-10.035,0.481-19.982c0-0.021,0.002-0.045,0.002-0.064c0.001-0.008,0.001-0.01,0.001-0.016h0.001
		C354.34,239.172,356.086,236.584,358.935,235.486z"/>
	
		<linearGradient id="SVGID_20_" gradientUnits="userSpaceOnUse" x1="371.4814" y1="242.8789" x2="345.601" y2="241.2199" gradientTransform="matrix(0.9733 0.2294 -0.2294 0.9733 56.7524 -89.8496)">
		<stop  offset="0" style="stop-color:#E89492"/>
		<stop  offset="0.074" style="stop-color:#E99A98"/>
		<stop  offset="0.4304" style="stop-color:#ECB4B3"/>
		<stop  offset="0.7502" style="stop-color:#EDC4C2"/>
		<stop  offset="1" style="stop-color:#EEC9C8"/>
	</linearGradient>
	<path fill="url(#SVGID_20_)" d="M355.688,246.477l0.251,0.057c6.814,1.555,13.657-2.465,15.283-8.973l1.915-7.668
		c1.626-6.51-2.58-13.048-9.394-14.601l-0.25-0.056c-6.815-1.555-13.657,2.464-15.283,8.975l-1.915,7.666
		C344.668,238.389,348.875,244.924,355.688,246.477z"/>
	<linearGradient id="SVGID_21_" gradientUnits="userSpaceOnUse" x1="351.8047" y1="253.0273" x2="371.1689" y2="253.0273">
		<stop  offset="0" style="stop-color:#FFF5DC"/>
		<stop  offset="0.3425" style="stop-color:#FFF6E0"/>
		<stop  offset="0.6721" style="stop-color:#FFF9EB"/>
		<stop  offset="0.9965" style="stop-color:#FFFFFF"/>
		<stop  offset="1" style="stop-color:#FFFFFF"/>
	</linearGradient>
	<path fill="url(#SVGID_21_)" d="M351.835,256.629l19.334-0.828l-0.325-4.754c-0.071-1.027-1.067-1.777-2.115-1.592l-13.189,2.35
		c-2.351,0.42-3.953,2.484-3.71,4.781L351.835,256.629z"/>
	<linearGradient id="SVGID_22_" gradientUnits="userSpaceOnUse" x1="278.3271" y1="372.2139" x2="282.0609" y2="397.0058">
		<stop  offset="0" style="stop-color:#E89492"/>
		<stop  offset="0.074" style="stop-color:#E99A98"/>
		<stop  offset="0.4304" style="stop-color:#ECB4B3"/>
		<stop  offset="0.7502" style="stop-color:#EDC4C2"/>
		<stop  offset="1" style="stop-color:#EEC9C8"/>
	</linearGradient>
	<path fill="url(#SVGID_22_)" d="M268.8,392.848c-2.772,0-5.029-2.156-5.029-4.807c0-0.256,0.027-0.529,0.083-0.838l0.318-1.734
		l-0.003-0.002l9.348-50.514l0.409-2.162c0.658-3.59,3.906-6.193,7.721-6.193c4.328,0,7.85,3.363,7.85,7.498
		c0,0.664-0.1,1.344-0.296,2.02l-0.572,1.957h0.007l-14.455,49.436l-0.54,1.826C273.035,391.402,271.047,392.848,268.8,392.848z"/>
	<linearGradient id="SVGID_23_" gradientUnits="userSpaceOnUse" x1="244.8281" y1="407.0996" x2="278.2142" y2="387.655">
		<stop  offset="0" style="stop-color:#FA902F"/>
		<stop  offset="0.1685" style="stop-color:#F7A030"/>
		<stop  offset="0.4545" style="stop-color:#F3B530"/>
		<stop  offset="0.7347" style="stop-color:#F1C231"/>
		<stop  offset="1" style="stop-color:#F0C631"/>
	</linearGradient>
	<path fill="url(#SVGID_23_)" d="M275.462,387.357l0.356-2.678l-12.846-1.52l-6.423,11.711c-0.394,0.877-2.002,1.582-2.983,1.768
		l-6.424,1.199c-0.685,0.129-1.203,0.666-1.277,1.33l-0.002,0.023c-0.085,0.748,0.416,1.443,1.179,1.635l11.207,2.809
		c0.839,0.211,1.734,0.064,2.454-0.4l6.982-4.51l-0.359,6.34l3.364,0.346l6.478-11.619L275.462,387.357z"/>
	<linearGradient id="SVGID_24_" gradientUnits="userSpaceOnUse" x1="270.6006" y1="400.7969" x2="278.5753" y2="401.0144">
		<stop  offset="0" style="stop-color:#172B36"/>
		<stop  offset="1" style="stop-color:#325D75"/>
	</linearGradient>
	<polygon fill="url(#SVGID_24_)" points="267.686,398.725 267.326,405.064 270.69,405.41 275.756,396.326 	"/>
	<path fill="#005E9C" d="M368.627,321.934v-0.297c0-8.127-6.999-14.486-15.087-13.709l-70.706,6.771l-0.177,0.029
		c-0.249,0.029-0.497,0.066-0.74,0.113l-0.169,0.035c-0.227,0.051-0.456,0.104-0.68,0.168l-0.196,0.064
		c-0.206,0.061-0.41,0.129-0.615,0.209l-0.228,0.094c-0.179,0.07-0.357,0.15-0.543,0.24l-0.263,0.133
		c-0.151,0.08-0.303,0.164-0.452,0.252c-0.105,0.062-0.207,0.127-0.303,0.188c-0.125,0.082-0.251,0.166-0.371,0.252
		c-0.115,0.082-0.229,0.166-0.335,0.246c-0.1,0.078-0.195,0.158-0.297,0.242c-0.123,0.105-0.245,0.211-0.357,0.316l-0.217,0.211
		c-0.131,0.129-0.258,0.262-0.376,0.393l-0.145,0.17c-0.135,0.158-0.267,0.32-0.391,0.486l-0.08,0.115
		c-0.133,0.186-0.265,0.373-0.415,0.625c-0.556,0.924-0.936,1.916-1.126,2.949l-0.2,1.061c-1.228,6.648-2.729,14.822-4.21,22.895
		c-1.445,7.869-3.577,20.1-4.387,24.484c-0.808,4.385,12.222,6.967,13.375,3.471c1.153-3.494,12.162-40.822,12.162-40.822
		l63.237,2.379C362.141,335.99,368.627,329.744,368.627,321.934z"/>
	<path fill="#EF8122" d="M368.309,325.102c-2.635,6.648-43.317-10.922-39.682-15.281c4.855-5.82,8.432-9.98,8.432-9.98
		s-2.539-35.82-0.402-38.352c3.338-3.949,14.074-5.586,25.412-6.771c9.463-0.99,13.162,2.814,14.126,4.994
		c2.343,5.297-9.474,48.152-9.474,48.152S369.782,321.383,368.309,325.102z"/>
	<linearGradient id="SVGID_25_" gradientUnits="userSpaceOnUse" x1="315.0537" y1="278.6211" x2="276.6667" y2="276.1604">
		<stop  offset="0" style="stop-color:#E89492"/>
		<stop  offset="0.074" style="stop-color:#E99A98"/>
		<stop  offset="0.4304" style="stop-color:#ECB4B3"/>
		<stop  offset="0.7502" style="stop-color:#EDC4C2"/>
		<stop  offset="1" style="stop-color:#EEC9C8"/>
	</linearGradient>
	<path fill="url(#SVGID_25_)" d="M325.054,289.869c-2.897-2.16-15.47-12.469-20.153-16.795c-1.405-1.592-2.271-2.674-2.312-2.732
		c-0.177-0.242,0.193-2.775,0.057-3.449c-0.138-0.674-0.21-3.461-0.305-3.787c-0.099-0.324-2.759-3.895-3.057-4.238
		c-0.296-0.346-1.501-0.342-1.151,0.992c0.351,1.334,1.235,2.883,0.756,2.928c-0.482,0.041-2.077-1.352-2.242-1.566
		c-0.166-0.217-0.163-5.791-0.176-6.316c-0.014-0.525-1.382-1.572-1.665-0.498c-0.282,1.074-0.883,6.186-0.883,6.186
		s-1.824,3.352-1.559,4.002c0.058,0.145,0.182,0.441,0.182,0.441s-0.429,0.588-0.433,0.938c-0.008,0.352,0.405,1.111,0.405,1.111
		s-0.079,1.225-0.023,1.508c0.056,0.287,3.872,5.32,5.556,6.781c0.046,0.037,18.885,32.279,27.777,26.498
		C330.864,298.596,328.297,292.285,325.054,289.869z"/>
	<linearGradient id="SVGID_26_" gradientUnits="userSpaceOnUse" x1="303.623" y1="283.5312" x2="313.584" y2="283.5312">
		<stop  offset="0" style="stop-color:#FFF5DC"/>
		<stop  offset="0.3425" style="stop-color:#FFF6E0"/>
		<stop  offset="0.6721" style="stop-color:#FFF9EB"/>
		<stop  offset="0.9965" style="stop-color:#FFFFFF"/>
		<stop  offset="1" style="stop-color:#FFFFFF"/>
	</linearGradient>
	<path fill="url(#SVGID_26_)" d="M313.584,279.869c0,0-0.67-0.432-2.801-2.16c-2.133-1.727-8.739,5.111-6.812,7.627
		c1.449,1.891,3.424,4.293,3.424,4.293L313.584,279.869z"/>
	<path fill="#EF8122" d="M350.73,266.258c0-4.211-3.573-7.623-7.979-7.623c-3.074,0-5.735,1.662-7.067,4.092h-0.004
		c-5.405,9.879-9.171,16.758-13.076,23.9c-2.81-2.131-7.368-5.639-8.486-6.455c-2.584-1.891-9.833,6.014-7.654,8.809
		c1.407,1.801,6.722,8.012,8.748,9.904c1.878,1.754,3.742,3.139,5.504,3.928c0.89,0.463,1.913,0.727,2.999,0.727
		c0.004,0,0.007,0,0.009,0s0.004,0,0.004,0h0.002c0.021,0,0.04-0.002,0.061-0.002c2.185-0.025,4.098-1.117,5.203-2.752h0.004
		c6.789-10.09,11.834-17.586,20.465-30.406l-0.005-0.004C350.259,269.186,350.73,267.777,350.73,266.258z"/>
	<path fill="#F7EDE2" d="M387.215,271.311h-38.29c-1.956,0-3.687,1.268-4.271,3.135l-18.64,59.418h-31.458
		c-1.554,0-2.812,1.258-2.812,2.812v0.057c0,1.553,1.258,2.811,2.812,2.811h29.674h46.187h1.489l19.582-62.418
		C392.393,274.242,390.237,271.311,387.215,271.311z"/>
	<rect x="340.545" y="339.543" fill="#FFF5DC" width="6.942" height="48.064"/>
	<rect x="338.884" y="339.543" fill="#F0DAA5" width="10.372" height="7.639"/>
	<rect x="340.132" y="365.119" fill="#F7EDE2" width="7.875" height="25.801"/>
	<g>
		<path fill="#172B36" d="M310.209,402.947c0,2.383,1.934,4.316,4.316,4.316c2.387,0,4.32-1.934,4.32-4.316
			c0-2.387-1.934-4.318-4.32-4.318C312.143,398.629,310.209,400.561,310.209,402.947z"/>
		<path fill="#FFFFFF" d="M312.271,402.947c0,1.244,1.009,2.254,2.254,2.254c1.248,0,2.259-1.01,2.259-2.254
			c0-1.248-1.011-2.258-2.259-2.258C313.28,400.689,312.271,401.699,312.271,402.947z"/>
		<rect x="312.205" y="393.854" fill="#172B36" width="1.532" height="5.561"/>
	</g>
	<g>
		<path fill="#172B36" d="M377.822,402.947c0,2.383-1.934,4.316-4.318,4.316c-2.386,0-4.318-1.934-4.318-4.316
			c0-2.387,1.933-4.318,4.318-4.318C375.889,398.629,377.822,400.561,377.822,402.947z"/>
		<path fill="#FFFFFF" d="M375.76,402.947c0,1.244-1.011,2.254-2.256,2.254c-1.247,0-2.257-1.01-2.257-2.254
			c0-1.248,1.01-2.258,2.257-2.258C374.749,400.689,375.76,401.699,375.76,402.947z"/>
		<rect x="374.295" y="393.854" fill="#172B36" width="1.529" height="5.561"/>
	</g>
	<g>
		<path fill="#172B36" d="M347.015,400.014c0,2.383-1.934,4.316-4.317,4.316c-2.387,0-4.318-1.934-4.318-4.316
			c0-2.387,1.932-4.322,4.318-4.322C345.081,395.691,347.015,397.627,347.015,400.014z"/>
		<path fill="#FFFFFF" d="M344.952,400.014c0,1.244-1.01,2.254-2.255,2.254c-1.247,0-2.258-1.01-2.258-2.254
			c0-1.25,1.011-2.258,2.258-2.258C343.942,397.756,344.952,398.764,344.952,400.014z"/>
		<rect x="343.486" y="390.92" fill="#172B36" width="1.531" height="5.559"/>
	</g>
	<polygon fill="#F7EDE2" points="312.205,397.201 340.078,390.947 340.078,385.635 312.205,393.512 	"/>
	<polygon fill="#F7EDE2" points="375.878,397.201 348.007,390.947 348.007,385.635 375.878,393.512 	"/>
	<path fill="#F0DAA5" d="M328.297,326.578l0.318-1.016h47.676l-0.319,1.016H328.297z M333.529,309.906l-0.318,1.014h47.675
		l0.317-1.014H333.529z M331.072,317.734l-0.318,1.016h47.675l0.319-1.016H331.072z M340.896,286.416l-0.316,1.016h47.675
		l0.318-1.016H340.896z M343.354,278.586l-0.317,1.018h47.675l0.319-1.018H343.354z M338.44,294.246l-0.318,1.016h47.676
		l0.319-1.016H338.44z M335.984,302.074l-0.317,1.016h47.675l0.317-1.016H335.984z"/>
	<path fill="#172B36" d="M376.194,231.498c-0.055,0-0.108,0.008-0.165,0.008c0.108-0.963,0.203-1.891,0.283-2.762
		c0.757-8.365-3.271-12.519-8.675-14.02l-1.229-0.343l-0.233-0.063l-4.521-1.256c-0.55-0.3-1.142-0.552-1.779-0.729
		c-4.304-1.197-8.794,1.139-10.113,5.214l5.314,1.476c-1.119,2.67-1.119,8.352,2.773,10.691c0.222-0.055,0.45-0.092,0.687-0.092
		c1.592,0,2.882,1.291,2.882,2.883c0,1.256-0.81,2.316-1.934,2.707c0.438,1.072,5.507,36.855,16.709,36.855
		c11.204,0,20.286-9.08,20.286-20.285C396.48,240.58,387.398,231.498,376.194,231.498z"/>
</g>
</svg>
