<?xml version="1.0" encoding="utf-8"?>
<!-- Generator: Adobe Illustrator 16.0.0, SVG Export Plug-In . SVG Version: 6.00 Build 0)  -->
<!DOCTYPE svg PUBLIC "-//W3C//DTD SVG 1.1//EN" "http://www.w3.org/Graphics/SVG/1.1/DTD/svg11.dtd">
<svg version="1.1" id="Layer_1" xmlns="http://www.w3.org/2000/svg" xmlns:xlink="http://www.w3.org/1999/xlink" x="0px" y="0px"
	 width="301px" height="310px" viewBox="0 0 301 310" enable-background="new 0 0 301 310" xml:space="preserve">
<g>
	<circle fill="#EF8122" cx="151.628" cy="152.762" r="136.237"/>
	<g>
		<g>
			<ellipse fill="#E2E2E2" cx="151.305" cy="190.595" rx="31.234" ry="1.605"/>
			<g>
				<g>
					<path fill="#000556" d="M209.848,165.25H92.762V98.366c0-2.293,1.86-4.153,4.154-4.153h108.779
						c2.293,0,4.152,1.859,4.152,4.153V165.25z"/>
					<path fill="#FFF8F9" d="M209.848,164.178H92.762v8.698c0,2.294,1.86,4.153,4.154,4.153h108.779
						c2.293,0,4.152-1.859,4.152-4.153V164.178z"/>
					<rect x="100.615" y="102.78" fill="#D6F4F8" width="100.309" height="55.33"/>
					<polygon fill="#FFF8F9" points="167.369,188.632 137.025,188.632 139.295,178.189 139.584,176.851 139.703,176.314 
						164.691,176.314 164.809,176.851 165.098,178.189 					"/>
					<path fill="#FFF8F9" d="M171.83,190.595h-39.443l0,0c0-1.48,1.198-2.679,2.677-2.679h34.091
						C170.632,187.916,171.83,189.114,171.83,190.595L171.83,190.595z"/>
				</g>
				<polygon fill="#E2E2E2" points="165.098,178.189 139.295,178.189 139.525,176.984 164.824,177.029 				"/>
			</g>
		</g>
		<g>
			<path fill="#FFF8F9" d="M186.859,149.646h-63.263v-86.22h55.806c4.118,0,7.457,3.337,7.457,7.456V149.646z"/>
			<path fill="#FFF8F9" d="M109.54,69.567h15.337v-6.142h-9.195C114.061,63.795,109.54,66.174,109.54,69.567L109.54,69.567z"/>
			<path fill="#FFD707" d="M109.54,69.537h14.057l0,0c0-3.392-2.748-6.142-6.141-6.142h-1.774
				C112.289,63.395,109.54,66.145,109.54,69.537L109.54,69.537z"/>
			<rect x="109.54" y="69.11" fill="#FFD707" width="14.057" height="9.798"/>
			<path fill="#FFD707" d="M137.337,160.252h45.893c5.532,0,10.02-4.486,10.02-10.021v-4.018h-55.912V160.252z"/>
			<path fill="#FFD707" d="M131.436,160.252h7.818v-5.703h-13.1v0.423C126.154,157.888,128.52,160.252,131.436,160.252z"/>
			<path fill="#FFF8F9" d="M130.823,160.252L130.823,160.252c-3.99,0-7.227-3.234-7.227-7.226v-12.955h13.74v13.668
				C137.337,157.336,134.421,160.252,130.823,160.252z"/>
		</g>
		<g>
			<g>
				
					<rect x="123.16" y="117.33" transform="matrix(0.968 0.251 -0.251 0.968 41.3053 -26.995)" fill="#FFD707" width="6.67" height="62.246"/>
				
					<rect x="125.259" y="116.859" transform="matrix(0.9679 0.2515 -0.2515 0.9679 41.2879 -26.8363)" fill="#000556" width="0.742" height="62.489"/>
				
					<rect x="127.052" y="117.323" transform="matrix(0.9679 0.2512 -0.2512 0.9679 41.4043 -27.244)" fill="#000556" width="0.743" height="62.489"/>
				
					<rect x="115.05" y="178.297" transform="matrix(0.968 0.2511 -0.2511 0.968 48.759 -24.0066)" fill="#000556" width="6.83" height="1.587"/>
				<path fill="#000556" d="M118.817,182.902l-2.514-0.654c-1.133-0.291-1.811-1.447-1.518-2.577l0.174-0.67l6.611,1.715
					l-0.174,0.669C121.104,182.517,119.949,183.195,118.817,182.902z"/>
				<polygon fill="#EFC7B5" points="137.542,119.166 131.085,117.49 134.58,113.543 136.127,111.792 136.562,114.058 				"/>
				<polygon fill="#000556" points="136.562,114.058 134.58,113.543 136.127,111.792 				"/>
			</g>
		</g>
		<g>
			<rect x="130.154" y="87.341" fill="#000556" width="47.924" height="0.855"/>
			<rect x="130.154" y="89.336" fill="#000556" width="47.924" height="0.855"/>
			<rect x="130.154" y="91.331" fill="#000556" width="47.924" height="0.855"/>
			<rect x="130.154" y="93.326" fill="#000556" width="47.924" height="0.855"/>
			<rect x="130.154" y="95.322" fill="#000556" width="47.924" height="0.854"/>
		</g>
		<g>
			<rect x="138.455" y="125.895" fill="#000556" width="39.623" height="0.854"/>
			<rect x="138.455" y="127.89" fill="#000556" width="39.623" height="0.854"/>
			<rect x="138.455" y="129.884" fill="#000556" width="39.623" height="0.855"/>
			<rect x="138.455" y="131.879" fill="#000556" width="39.623" height="0.854"/>
			<rect x="138.455" y="133.874" fill="#000556" width="39.623" height="0.854"/>
		</g>
		<g>
			<rect x="130.243" y="99.121" fill="#000556" width="19.812" height="0.855"/>
			<rect x="130.243" y="101.116" fill="#000556" width="19.812" height="0.855"/>
			<rect x="130.243" y="103.111" fill="#000556" width="19.812" height="0.855"/>
			<rect x="130.243" y="105.106" fill="#000556" width="19.812" height="0.856"/>
			<rect x="130.243" y="107.101" fill="#000556" width="19.812" height="0.855"/>
		</g>
		<g>
			<rect x="157.732" y="99.121" fill="#000556" width="19.811" height="0.855"/>
			<rect x="157.732" y="101.116" fill="#000556" width="19.811" height="0.855"/>
			<rect x="157.732" y="103.111" fill="#000556" width="19.811" height="0.855"/>
			<rect x="157.732" y="105.106" fill="#000556" width="19.811" height="0.856"/>
			<rect x="157.732" y="107.101" fill="#000556" width="19.811" height="0.855"/>
		</g>
		<text transform="matrix(1 0 0 1 130.1504 82.7432)" fill="#FF5612" font-family="'AbhayaLibre-Bold'" font-size="15.4727">B</text>
		<rect x="157.195" y="110.366" fill="#FF5612" width="20.348" height="11.78"/>
		<rect x="157.195" y="72.17" fill="#FF5612" width="20.348" height="4.462"/>
		<rect x="157.552" y="138.567" fill="#FF5612" width="20.348" height="4.461"/>
		<g>
			<g>
				<g>
					<path fill="#005E9C" d="M150.739,49.726c-1.02-1.068-1.635-2.384-1.668-3.817c-0.081-3.706,3.76-6.795,8.579-6.9
						c4.82-0.106,8.791,2.812,8.873,6.519c0.08,3.706-3.761,6.795-8.579,6.9c-1.854,0.041-3.582-0.367-5.011-1.094l-3.191,1.042
						L150.739,49.726z"/>
				</g>
				<circle fill="#FFF8F9" cx="160.437" cy="45.655" r="0.766"/>
				<circle fill="#FFF8F9" cx="157.627" cy="45.717" r="0.766"/>
				<circle fill="#FFF8F9" cx="154.819" cy="45.778" r="0.766"/>
			</g>
			<g>
				<g>
					<path fill="#FFF8F9" d="M145.561,55.119c0.973-1.111,1.529-2.452,1.499-3.886c-0.082-3.706-4.054-6.624-8.873-6.519
						s-8.659,3.195-8.579,6.9c0.082,3.706,4.054,6.624,8.872,6.518c1.854-0.04,3.563-0.523,4.96-1.312l3.231,0.902L145.561,55.119z"
						/>
				</g>
				<circle fill="#000556" cx="135.694" cy="51.477" r="0.767"/>
				<circle fill="#000556" cx="138.504" cy="51.416" r="0.766"/>
				<circle fill="#000556" cx="141.313" cy="51.354" r="0.767"/>
			</g>
		</g>
	</g>
	<g>
		<text transform="matrix(1 0 0 1 57.9668 216.6436)"><tspan x="0" y="0" fill="#FFFFFF" font-family="'Gotham-Black'" font-size="16.1291">Let’s educate yourself!</tspan><tspan x="35.766" y="19.354" fill="#FFFFFF" font-family="'Gotham-Black'" font-size="16.1291">Read our blog</tspan></text>
	</g>
</g>
<path fill="#EF8122" d="M76.8,256.471c0,0-6.88,31.814-42.133,25.796c0,0,40.413,19.775,78.246-6.02
	C150.746,250.451,76.8,256.471,76.8,256.471z"/>
</svg>
