<?xml version="1.0" encoding="utf-8"?>
<!-- Generator: Adobe Illustrator 16.0.0, SVG Export Plug-In . SVG Version: 6.00 Build 0)  -->
<!DOCTYPE svg PUBLIC "-//W3C//DTD SVG 1.1//EN" "http://www.w3.org/Graphics/SVG/1.1/DTD/svg11.dtd">
<svg version="1.1" id="Layer_1" xmlns="http://www.w3.org/2000/svg" xmlns:xlink="http://www.w3.org/1999/xlink" x="0px" y="0px"
	 width="637px" height="464px" viewBox="0 0 637 464" enable-background="new 0 0 637 464" xml:space="preserve">
<circle fill="none" stroke="#FFFFFF" stroke-width="5" stroke-miterlimit="10" cx="674.5" cy="2102.432" r="115.092"/>
<g>
	<path fill="#FFFFFF" stroke="#FFFFFF" stroke-miterlimit="10" d="M675.898,2102.822c-25.709-11.688-31.824-38.068-33.147-46.494
		l63.629,0.092c-1.101,7.625-5.612,29.811-21.869,41.201c-1.081,0.746-1.379,2.312-0.597,3.395c0.485,0.689,1.231,1.043,2.014,1.043
		c0.485,0,0.988-0.094,1.436-0.447c20.302-14.188,23.732-42.338,24.18-47.055c0.057-0.299,0.057-0.484,0.057-0.598l0.019-7.438
		c0-1.379-1.082-2.461-2.461-2.461l-69.128-0.111c-1.379,0-2.461,1.08-2.461,2.461l-0.019,7.438c0,0.15,0,0.336,0.056,0.484
		c0.336,4.084,4.213,38.33,36.279,52.947c27.834,12.641,31.973,33.893,32.551,40.996l-63.871-0.094
		c0.895-6.842,5.053-25.727,22.596-36.186c1.174-0.689,1.584-2.219,0.895-3.395c-0.727-1.137-2.219-1.527-3.393-0.838
		c-23.732,14.188-25.205,41.293-25.262,42.711l-0.019,7.867c0,1.324,1.081,2.461,2.461,2.461l69.128,0.111
		c1.38,0,2.461-1.117,2.461-2.461l0.019-7.717C711.506,2148.74,711.655,2119.08,675.898,2102.822z M642.472,2048.908l64.206,0.092
		l0.037,2.518l-64.262-0.094L642.472,2048.908z M706.528,2156.012l-64.206-0.094v-2.797l64.206,0.094V2156.012z"/>
	<path fill="#FFFFFF" stroke="#FFFFFF" stroke-miterlimit="10" d="M743.33,2141.172l-17.115-1.566
		c-1.249-0.094-2.256-0.969-2.609-2.088c-0.094-0.316-0.131-0.652-0.112-0.969l0.578-17.189c0.075-1.641,1.436-2.928,3.114-2.871
		c1.641,0.037,2.926,1.436,2.87,3.076l-0.41,12.137c8.855-10.682,13.031-21.664,12.342-32.645
		c-1.081-17.916-14.598-29.939-14.729-30.09c-1.229-1.062-1.36-2.963-0.261-4.213c1.101-1.23,2.964-1.361,4.232-0.279
		c0.634,0.521,15.492,13.852,16.741,34.172c0.765,12.211-3.579,24.256-12.845,35.777l8.743,0.801
		c1.641,0.131,2.853,1.604,2.703,3.244C746.405,2140.109,744.971,2141.34,743.33,2141.172z"/>
	<path fill="#FFFFFF" stroke="#FFFFFF" stroke-miterlimit="10" d="M605.67,2066.34l17.115,1.564c1.248,0.094,2.255,0.971,2.609,2.09
		c0.094,0.316,0.131,0.65,0.111,0.969l-0.577,17.189c-0.075,1.639-1.436,2.926-3.114,2.869c-1.64-0.037-2.926-1.436-2.87-3.076
		l0.41-12.137c-8.856,10.684-13.032,21.664-12.343,32.645c1.082,17.916,14.598,29.941,14.729,30.09
		c1.23,1.062,1.361,2.965,0.262,4.213c-1.101,1.23-2.965,1.361-4.232,0.281c-0.634-0.523-15.492-13.854-16.741-34.174
		c-0.765-12.211,3.579-24.254,12.845-35.775l-8.743-0.803c-1.641-0.129-2.853-1.604-2.704-3.242
		C602.594,2067.402,604.029,2066.189,605.67,2066.34z"/>
</g>
<g>
	<g>
		<g>
			<path fill="#EBEBEB" d="M375.039,219.373H201.963V25.708h187.841v178.901C389.804,212.763,383.192,219.373,375.039,219.373z"/>
		</g>
		<g>
			<g>
				<g>
					<path fill="#455A64" d="M374.292,83.346c0,0.393-33.951,0.711-75.822,0.711c-41.886,0-75.829-0.318-75.829-0.711
						s33.943-0.711,75.829-0.711C340.341,82.635,374.292,82.954,374.292,83.346z"/>
				</g>
			</g>
			<g>
				<g>
					<path fill="#455A64" d="M299.367,96.465c0,0.393-16.773,0.711-37.46,0.711c-20.694,0-37.465-0.318-37.465-0.711
						s16.771-0.712,37.465-0.712C282.594,95.753,299.367,96.073,299.367,96.465z"/>
				</g>
			</g>
			<g>
				<g>
					<ellipse fill="#455A64" cx="319.415" cy="95.25" rx="9.922" ry="0.712"/>
				</g>
			</g>
			<g>
				<g>
					<ellipse fill="#455A64" cx="358.699" cy="94.44" rx="19.643" ry="0.711"/>
				</g>
			</g>
			<g>
				<g>
					<path fill="#455A64" d="M293.11,109.02c0,0.394-15.776,0.712-35.233,0.712c-19.463,0-35.236-0.318-35.236-0.712
						c0-0.393,15.773-0.711,35.236-0.711C277.334,108.309,293.11,108.627,293.11,109.02z"/>
				</g>
			</g>
			<g>
				<g>
					<path fill="#455A64" d="M378.342,108.659c0,0.393-17.228,0.711-38.474,0.711c-21.252,0-38.477-0.318-38.477-0.711
						s17.225-0.711,38.477-0.711C361.114,107.948,378.342,108.266,378.342,108.659z"/>
				</g>
			</g>
			<g>
				<g>
					<ellipse fill="#455A64" cx="361.211" cy="121.292" rx="17.131" ry="0.711"/>
				</g>
			</g>
		</g>
		<g>
			<g>
				<path fill="#E8505B" d="M307.465,69.283c0,0.394-18.587,0.712-41.51,0.712c-22.929,0-41.513-0.318-41.513-0.712
					c0-0.392,18.584-0.711,41.513-0.711C288.878,68.572,307.465,68.891,307.465,69.283z"/>
			</g>
		</g>
	</g>
	<g>
		<g>
			<g>
				<g>
					<g>
						<g>
							<g>
								<path fill="#263238" d="M422.946,392.219H59.266c-7.323,0-13.26-5.936-13.26-13.26V147.444
									c0-7.324,5.937-13.261,13.26-13.261h363.681c7.323,0,13.261,5.937,13.261,13.261v231.515
									C436.207,386.283,430.27,392.219,422.946,392.219z"/>
							</g>
						</g>
					</g>
					<g>
						<g>
							<g>
								<path fill="#263238" d="M436.786,395.713H46.435c-8.948,0-16.201-7.254-16.201-16.201v-6.377h422.753v6.377
									C452.986,388.459,445.733,395.713,436.786,395.713z"/>
							</g>
						</g>
					</g>
					<g>
						<g>
							<g>
								<rect x="57.025" y="144.435" fill="#455A64" width="368.161" height="217.909"/>
							</g>
						</g>
					</g>
					<g>
						<g>
							<g>
								<g>
									<path fill="#455A64" d="M203.186,373.135c-0.007-0.004,0.13-0.008,0.406-0.012c0.301-0.004,0.71-0.008,1.237-0.014
										c1.122-0.006,2.737-0.014,4.809-0.025c4.225-0.018,10.309-0.043,17.838-0.074c15.184-0.031,36.2-0.076,59.646-0.127
										l0.439-0.002l-0.222,0.381c-0.75,1.287-1.557,2.668-2.367,4.057c-0.85,1.455-1.695,2.902-2.504,4.289l-0.073,0.125h-0.146
										c-32.438-0.061-60.144-0.113-73.816-0.139h-0.064l-0.033-0.055c-1.683-2.734-2.978-4.842-3.865-6.285
										c-0.42-0.688-0.742-1.217-0.973-1.592C203.282,373.307,203.186,373.135,203.186,373.135s0.132,0.191,0.366,0.553
										c0.244,0.377,0.587,0.906,1.033,1.596c0.906,1.41,2.228,3.465,3.943,6.135l-0.096-0.053
										c13.673-0.025,41.378-0.078,73.816-0.139l-0.217,0.125c0.809-1.385,1.653-2.832,2.503-4.289
										c0.812-1.389,1.617-2.77,2.368-4.055l0.218,0.379c-23.349-0.051-44.28-0.094-59.4-0.127
										c-7.567-0.031-13.679-0.055-17.923-0.074c-2.104-0.01-3.743-0.02-4.883-0.025c-0.545-0.006-0.969-0.01-1.279-0.014
										C203.346,373.143,203.186,373.135,203.186,373.135z"/>
								</g>
							</g>
						</g>
					</g>
				</g>
			</g>
		</g>
		<g>
			<g>
				<line fill="#263238" x1="46.006" y1="373.135" x2="436.207" y2="373.135"/>
			</g>
			<g>
				<g>
					<path fill="#455A64" d="M436.207,373.135c0,0.131-87.356,0.238-195.092,0.238c-107.771,0-195.109-0.107-195.109-0.238
						s87.338-0.236,195.109-0.236C348.851,372.898,436.207,373.004,436.207,373.135z"/>
				</g>
			</g>
		</g>
	</g>
	<g>
		<g>
			<path fill="#263238" d="M336.623,100.917L336.623,100.917c6.02,0,10.9,4.881,10.9,10.899v22.367H314.93v-20.635
				c0-6.977,5.656-12.632,12.633-12.632H336.623z"/>
		</g>
		<g>
			<g>
				<path fill="#263238" d="M336.623,100.917c0,0.131-30.753,0.21-68.679,0.177c-37.939-0.033-68.686-0.166-68.686-0.297
					s30.746-0.21,68.686-0.178C305.871,100.652,336.623,100.786,336.623,100.917z"/>
			</g>
		</g>
		<g>
			<path fill="#FAFAFA" d="M336.337,100.89l-13.592-0.094l-19.744,0.12H157.957c-12.316,0-22.3,9.985-22.3,22.3v235.532v4.117
				h187.84V113.143C324.048,100.917,336.337,100.89,336.337,100.89z"/>
		</g>
		<g>
			<path fill="#263238" d="M336.337,100.89l-113.262,0.247l-56.631,0.043l-7.08,0.004c-1.186-0.022-2.348,0.047-3.511,0.108
				c-1.152,0.163-2.315,0.291-3.435,0.627c-4.534,1.124-8.602,3.844-11.559,7.434c-1.475,1.807-2.619,3.867-3.458,6.036
				c-0.183,0.552-0.437,1.082-0.563,1.651l-0.434,1.692c-0.178,1.149-0.396,2.297-0.405,3.465c-0.102,4.69-0.023,9.43-0.043,14.144
				l0.152,226.524l-0.452-0.451l187.84,0.121l-0.331,0.33l0.091-134.724l0.108-67.359l0.066-33.679l0.017-8.42l0.008-4.21
				c0.003-0.702-0.021-1.404,0.088-2.103c0.087-0.697,0.115-1.405,0.331-2.08c0.621-2.729,2.185-5.301,4.549-6.858
				c1.148-0.805,2.432-1.42,3.776-1.823C333.542,101.2,334.934,100.933,336.337,100.89z M336.337,100.89
				c-1.402,0.048-2.793,0.32-4.131,0.734c-1.343,0.407-2.621,1.026-3.764,1.835c-2.352,1.563-3.896,4.128-4.504,6.847
				c-0.211,0.672-0.236,1.376-0.32,2.07c-0.107,0.693-0.079,1.396-0.079,2.099l0.008,4.21l0.017,8.42l0.066,33.682l0.107,67.361
				l0.092,134.717v0.332h-0.332l-187.84,0.121h-0.454v-0.453l0.152-226.524c0.026-4.725-0.046-9.427,0.062-14.17
				c0.012-1.198,0.237-2.377,0.422-3.556l0.447-1.737c0.133-0.583,0.392-1.128,0.58-1.694c0.863-2.224,2.042-4.336,3.557-6.187
				c3.037-3.679,7.211-6.459,11.859-7.606c1.147-0.341,2.34-0.473,3.521-0.636c1.194-0.064,2.388-0.131,3.562-0.107l7.08,0.006
				l56.631,0.043L336.337,100.89z"/>
		</g>
		<g>
			<path fill="#EF8122" d="M163.952,144.035h32.778l0.052,10.979h-1.567c-0.515-3.929-1.985-6.585-4.413-7.972
				c-1.365-0.765-3.402-1.182-6.115-1.254v28.681c0,2.005,0.351,3.334,1.051,3.99c0.7,0.657,2.158,0.985,4.373,0.985v1.382h-19.406
				v-1.382c2.126,0,3.54-0.333,4.24-0.998c0.699-0.665,1.05-1.99,1.05-3.978v-28.681c-2.658,0.072-4.696,0.489-6.114,1.254
				c-2.605,1.422-4.076,4.079-4.412,7.972h-1.569L163.952,144.035z"/>
		</g>
		<g>
			<g>
				<path fill="#E8505B" d="M297.722,146.51c0,0.394-18.082,0.711-40.382,0.711c-22.308,0-40.385-0.317-40.385-0.711
					c0-0.393,18.077-0.711,40.385-0.711C279.64,145.799,297.722,146.118,297.722,146.51z"/>
			</g>
		</g>
		<g>
			<g>
				<ellipse fill="#455A64" cx="234.189" cy="159.415" rx="15.614" ry="0.711"/>
			</g>
		</g>
		<g>
			<g>
				<path fill="#455A64" d="M210.443,198.778c0,0.393-13.277,0.712-29.651,0.712c-16.38,0-29.655-0.319-29.655-0.712
					s13.275-0.711,29.655-0.711C197.166,198.067,210.443,198.385,210.443,198.778z"/>
			</g>
		</g>
		<g>
			<g>
				<path fill="#E8505B" d="M277.601,198.778c0,0.393-13.277,0.712-29.651,0.712c-16.38,0-29.654-0.319-29.654-0.712
					s13.274-0.711,29.654-0.711C264.323,198.067,277.601,198.385,277.601,198.778z"/>
			</g>
		</g>
		<g>
			<g>
				<path fill="#455A64" d="M210.443,209.29c0,0.394-13.277,0.711-29.651,0.711c-16.38,0-29.655-0.317-29.655-0.711
					c0-0.392,13.275-0.71,29.655-0.71C197.166,208.58,210.443,208.898,210.443,209.29z"/>
			</g>
		</g>
		<g>
			<g>
				<path fill="#E8505B" d="M210.443,219.802c0,0.393-13.277,0.711-29.651,0.711c-16.38,0-29.655-0.318-29.655-0.711
					s13.275-0.711,29.655-0.711C197.166,219.091,210.443,219.41,210.443,219.802z"/>
			</g>
		</g>
		<g>
			<g>
				<ellipse fill="#455A64" cx="234.189" cy="180.827" rx="15.614" ry="0.712"/>
			</g>
		</g>
		<g>
			<g>
				<ellipse fill="#455A64" cx="293.553" cy="198.778" rx="10.41" ry="0.712"/>
			</g>
		</g>
		<g>
			<g>
				<path fill="#455A64" d="M309.532,159.415c0,0.393-11.996,0.711-26.789,0.711c-14.8,0-26.794-0.318-26.794-0.711
					c0-0.394,11.994-0.712,26.794-0.712C297.536,158.703,309.532,159.021,309.532,159.415z"/>
			</g>
		</g>
		<g>
			<g>
				<path fill="#455A64" d="M307.114,169.666c0,0.393-19.822,0.711-44.268,0.711c-24.454,0-44.271-0.318-44.271-0.711
					s19.817-0.711,44.271-0.711C287.292,168.955,307.114,169.273,307.114,169.666z"/>
			</g>
		</g>
		<g>
			<g>
				<path fill="#455A64" d="M303.963,209.29c0,0.394-19.179,0.711-42.833,0.711c-23.66,0-42.835-0.317-42.835-0.711
					c0-0.392,19.175-0.71,42.835-0.71C284.784,208.58,303.963,208.898,303.963,209.29z"/>
			</g>
		</g>
		<g>
			<g>
				<path fill="#E8505B" d="M303.963,239.723c0,0.394-17.997,0.712-40.191,0.712c-22.203,0-40.195-0.318-40.195-0.712
					c0-0.393,17.992-0.711,40.195-0.711C285.966,239.012,303.963,239.331,303.963,239.723z"/>
			</g>
		</g>
		<g>
			<g>
				<path fill="#455A64" d="M303.963,249.955c0,0.393-17.997,0.711-40.191,0.711c-22.203,0-40.195-0.318-40.195-0.711
					s17.992-0.713,40.195-0.713C285.966,249.242,303.963,249.562,303.963,249.955z"/>
			</g>
		</g>
		<g>
			<g>
				<path fill="#455A64" d="M303.963,260.186c0,0.393-17.997,0.711-40.191,0.711c-22.203,0-40.195-0.318-40.195-0.711
					s17.992-0.711,40.195-0.711C285.966,259.475,303.963,259.793,303.963,260.186z"/>
			</g>
		</g>
		<g>
			<g>
				<path fill="#455A64" d="M303.963,270.416c0,0.393-17.997,0.711-40.191,0.711c-22.203,0-40.195-0.318-40.195-0.711
					s17.992-0.711,40.195-0.711C285.966,269.705,303.963,270.023,303.963,270.416z"/>
			</g>
		</g>
		<g>
			<g>
				<path fill="#455A64" d="M269.854,280.646c0,0.197-2.59,0.375-6.777,0.504s-9.972,0.209-16.361,0.209
					c-6.391,0-12.175-0.08-16.362-0.209s-6.776-0.307-6.776-0.504c0-0.195,2.589-0.373,6.776-0.502s9.972-0.207,16.362-0.207
					c6.39,0,12.174,0.078,16.361,0.207S269.854,280.451,269.854,280.646z"/>
			</g>
		</g>
		<g>
			<g>
				<path fill="#455A64" d="M289.397,220.353c0,0.393-15.5,0.711-34.618,0.711c-19.124,0-34.622-0.318-34.622-0.711
					c0-0.394,15.498-0.712,34.622-0.712C273.897,219.641,289.397,219.959,289.397,220.353z"/>
			</g>
		</g>
		<g>
			<g>
				<g>
					<g>
						<polygon fill="#E0E0E0" points="209.04,240.878 213.306,319.852 136.087,329.523 136.026,240.208 						"/>
					</g>
				</g>
			</g>
			<g>
				<g>
					<g>
						
							<rect x="119.291" y="225.231" transform="matrix(0.0064 -1 1 0.0064 -117.4765 437.0199)" fill="#F5F5F5" width="83.778" height="104.792"/>
					</g>
				</g>
			</g>
			<g>
				
					<rect x="112.396" y="241.01" transform="matrix(-1 -0.0064 0.0064 -1 320.4328 556.2834)" fill="#4E7FFF" width="97.43" height="73.231"/>
			</g>
			<g opacity="0.2">
				<polygon points="112.162,313.928 146.483,268.629 167.38,297.242 181.774,282.109 209.59,314.555 				"/>
			</g>
			<g opacity="0.2">
				<g>
					<g>
						<circle cx="168.875" cy="263.195" r="7.671"/>
					</g>
				</g>
			</g>
		</g>
		<g>
			<g>
				<circle fill="#263238" cx="221.777" cy="339.619" r="1.62"/>
			</g>
			<g>
				<circle fill="#263238" cx="231.393" cy="339.619" r="1.62"/>
			</g>
			<g>
				<circle fill="#263238" cx="241.009" cy="339.619" r="1.62"/>
			</g>
		</g>
		<g>
			<g>
				<path fill="#E8505B" d="M278.052,301.967c0,0.393-13.277,0.713-29.651,0.713c-16.38,0-29.654-0.32-29.654-0.713
					s13.274-0.711,29.654-0.711C264.774,301.256,278.052,301.574,278.052,301.967z"/>
			</g>
		</g>
		<g>
			<g>
				<path fill="#455A64" d="M304.413,312.479c0,0.395-19.179,0.711-42.831,0.711c-23.661,0-42.836-0.316-42.836-0.711
					c0-0.391,19.175-0.711,42.836-0.711C285.234,311.768,304.413,312.088,304.413,312.479z"/>
			</g>
		</g>
	</g>
	<g>
		<g>
			<g>
				<g>
					<g>
						
							<rect x="499.05" y="323.867" transform="matrix(0.0064 -1 1 0.0064 165.4946 877.4167)" fill="#F5F5F5" width="50.466" height="63.122"/>
					</g>
				</g>
			</g>
			
				<rect x="494.898" y="333.374" transform="matrix(-1 -0.0064 0.0064 -1 1046.1907 714.2173)" fill="#EF8122" width="58.688" height="44.11"/>
			<polygon opacity="0.2" points="494.757,377.295 515.431,350.008 528.019,367.244 536.688,358.129 553.443,377.672 			"/>
			<g opacity="0.2">
				<g>
					<circle cx="528.918" cy="346.735" r="4.621"/>
				</g>
			</g>
		</g>
		<g>
			<g>
				<g>
					<g>
						
							<rect x="489.793" y="318.597" transform="matrix(0.0064 -1 1 0.0064 161.5666 862.9244)" fill="#F5F5F5" width="50.466" height="63.122"/>
					</g>
				</g>
			</g>
			
				<rect x="485.641" y="328.104" transform="matrix(-1 -0.0064 0.0064 -1 1027.7109 703.6189)" fill="#EF8122" width="58.688" height="44.11"/>
			<polygon opacity="0.2" points="485.5,372.025 506.175,344.738 518.762,361.975 527.433,352.859 544.187,372.402 			"/>
			<g opacity="0.2">
				<g>
					<circle cx="519.662" cy="341.466" r="4.621"/>
				</g>
			</g>
		</g>
		<g>
			<g>
				<g>
					<g>
						
							<rect x="481.551" y="314.243" transform="matrix(0.0064 -1 1 0.0064 157.7297 850.3557)" fill="#F5F5F5" width="50.464" height="63.122"/>
					</g>
				</g>
			</g>
			
				<rect x="477.398" y="323.749" transform="matrix(-1 -0.0064 0.0064 -1 1011.2518 694.8551)" fill="#EF8122" width="58.688" height="44.11"/>
			<polygon opacity="0.2" points="477.257,367.67 497.931,340.385 510.518,357.619 519.188,348.504 535.943,368.047 			"/>
			<g opacity="0.2">
				<g>
					<circle cx="511.419" cy="337.111" r="4.621"/>
				</g>
			</g>
		</g>
		<g>
			<g>
				<g>
					<g>
						
							<rect x="472.294" y="319.663" transform="matrix(0.0064 -1 1 0.0064 143.1125 846.4841)" fill="#F5F5F5" width="50.464" height="63.122"/>
					</g>
				</g>
			</g>
			
				<rect x="468.141" y="329.168" transform="matrix(-1 -0.0064 0.0064 -1 992.7035 705.6354)" fill="#455A64" width="58.688" height="44.11"/>
			<polygon opacity="0.2" points="468,373.09 488.674,345.803 501.261,363.041 509.932,353.926 526.687,373.467 			"/>
			<g opacity="0.2">
				<g>
					<circle cx="502.162" cy="342.532" r="4.621"/>
				</g>
			</g>
		</g>
		<g>
			<rect x="529.249" y="344.555" fill="#263238" width="36.442" height="48.725"/>
			<path fill="#EF8122" d="M459.455,344.555v48.725h72.885v-48.725H459.455z M503.646,356.086H488.15
				c-1.853,0-3.354-1.502-3.354-3.354s1.502-3.354,3.354-3.354h15.496c1.852,0,3.353,1.502,3.353,3.354
				S505.498,356.086,503.646,356.086z"/>
		</g>
	</g>
	<g>
		<g>
			<g>
				<g>
					<path fill="#455A64" d="M412.197,388.186l-67.776-4.148c-0.428-0.971-0.712-1.535-0.712-1.535l-18.369,0.365l-5.978-0.365
						c0,0-0.092,0.182-0.236,0.49l-61.662,1.229c-12.294,0-25.219,7.5-25.219,17.084c-0.154,9.121,4.262,19.021,15.277,18.797
						l84.014-0.281l84.013,0.281c11.016,0.225,13.928-6.418,13.945-14.297C430.781,391.127,421.589,388.309,412.197,388.186z"/>
				</g>
				<g>
					<g>
						<path fill="#263238" d="M255.233,420.107c0,0,0.137-0.016,0.404-0.023c0.287-0.006,0.682-0.012,1.188-0.021
							c1.066-0.01,2.603-0.025,4.576-0.043c4-0.018,9.762-0.043,16.903-0.074c14.334-0.02,34.197-0.045,56.412-0.074l-0.235,0.252
							c-0.115-1.842-0.238-3.812-0.362-5.801c-0.254-4.064-0.502-8.061-0.739-11.863l0.209,0.219
							c-20.635-2.297-38.868-4.326-51.967-5.783c-6.522-0.746-11.765-1.346-15.399-1.762c-1.788-0.215-3.181-0.381-4.148-0.498
							c-0.457-0.059-0.812-0.105-1.074-0.139c-0.24-0.033-0.363-0.055-0.363-0.062c0.001-0.008,0.126,0,0.368,0.018
							c0.263,0.025,0.62,0.057,1.079,0.098c0.969,0.096,2.364,0.236,4.157,0.414c3.639,0.383,8.887,0.936,15.414,1.621
							c13.104,1.418,31.344,3.393,51.985,5.627l0.195,0.021l0.013,0.197c0.238,3.803,0.489,7.799,0.743,11.863
							c0.124,1.988,0.247,3.959,0.361,5.801l0.017,0.25h-0.253c-22.215-0.029-42.078-0.055-56.412-0.074
							c-7.142-0.031-12.903-0.055-16.903-0.074c-1.974-0.018-3.51-0.031-4.576-0.041c-0.507-0.01-0.901-0.018-1.188-0.023
							C255.37,420.123,255.233,420.107,255.233,420.107z"/>
					</g>
				</g>
				<g>
					<g>
						<path fill="#263238" d="M272.555,396.006c-0.052,0.064-0.895-0.615-2.374-1.518c-1.477-0.904-3.633-1.977-6.17-2.711
							c-2.542-0.727-4.938-0.965-6.67-0.982c-1.733-0.021-2.809,0.105-2.819,0.025c-0.003-0.033,0.261-0.092,0.745-0.172
							c0.483-0.088,1.193-0.156,2.071-0.188c1.755-0.068,4.21,0.119,6.803,0.859c2.59,0.75,4.77,1.895,6.22,2.885
							c0.728,0.494,1.292,0.928,1.656,1.26C272.384,395.791,272.576,395.982,272.555,396.006z"/>
					</g>
				</g>
				<g>
					<g>
						<path fill="#263238" d="M406.936,392.4c0.029,0.127-13.339,3.361-29.854,7.219c-16.522,3.861-29.936,6.887-29.965,6.76
							c-0.03-0.127,13.335-3.359,29.856-7.221C393.489,395.299,406.905,392.273,406.936,392.4z"/>
					</g>
				</g>
				<g>
					<g>
						<path fill="#263238" d="M395.632,391.096c0.044,0.146-2.583,0.676-5.238,2.508c-2.678,1.797-4.135,4.047-4.256,3.951
							c-0.047-0.029,0.25-0.631,0.911-1.482c0.658-0.852,1.714-1.93,3.078-2.861c1.368-0.928,2.759-1.514,3.792-1.812
							C394.954,391.098,395.622,391.039,395.632,391.096z"/>
					</g>
				</g>
			</g>
			<g>
				<path fill="#FFBE9D" d="M370.403,314.148l21.469,37.369c2.651,4.615,2.813,10.25,0.434,15.012l0,0
					c-2.763,5.523-8.477,8.945-14.65,8.77l-32.964-0.93l-0.869-11.988l29.033-5.559l-19.574-33.879L370.403,314.148z"/>
			</g>
			<g>
				<path fill="#FFBE9D" d="M290.394,378.098l30.312,8.029l0.659-9.09l-27.934-16.225l20.401-37.869l-17.123-8.795l-21.468,37.369
					l0,0c-5.197,9.652-0.342,21.652,10.104,24.975L290.394,378.098z"/>
			</g>
			<g>
				<path fill="#EF8122" d="M361.288,338.141l20.719-10.91c0,0-3.448-7.297-8.876-14.803c-6.419-8.873-16.369-15.078-27.668-17.439
					h-0.002l-23.831,0.281c-3.398,0.365-6.178,1.014-8.499,1.955l0.018-0.092c-12.933,2.852-27.284,31.061-27.284,31.061
					l18.854,9.924l0.416,2.967c0.549,3.902,2.255,7.572,4.914,10.566l-5.491,36.109l61.189,1.268l-7.79-25.861L361.288,338.141z"/>
			</g>
			<g>
				<g>
					<path fill="#263238" d="M310.603,351.848c-0.016,0.02-0.355-0.207-0.91-0.689c-0.56-0.48-1.312-1.248-2.082-2.326
						c-1.535-2.139-2.908-5.758-2.553-9.846c0.287-2.014,0.86-3.84,1.399-5.488c0.549-1.646,1.104-3.105,1.589-4.322
						c0.486-1.217,0.905-2.191,1.209-2.857s0.491-1.027,0.521-1.014c0.03,0.012-0.1,0.396-0.351,1.082
						c-0.285,0.779-0.642,1.752-1.064,2.908c-0.443,1.229-0.966,2.693-1.488,4.338c-0.513,1.641-1.067,3.469-1.344,5.412
						c-0.186,1.93,0.073,3.846,0.516,5.479c0.438,1.65,1.147,3.035,1.844,4.119C309.333,350.801,310.681,351.77,310.603,351.848z"/>
				</g>
			</g>
			<g>
				<g>
					<polygon fill="#263238" points="301.431,396.48 297.977,356.205 372.511,356.205 367.572,396.982 					"/>
				</g>
				<g>
					<circle fill="#FAFAFA" cx="335.244" cy="377.684" r="4.746"/>
				</g>
			</g>
			<g>
				<g>
					<polygon fill="#FFBE9D" points="333.939,404.348 346.595,406.115 346.595,419.871 334.956,419.57 					"/>
				</g>
				<g>
					<g>
						<path fill="#EF8122" d="M346.595,406.115h5.688c1.108,0,2.196,0.291,3.154,0.846l3,1.732c0.983,0.566,4.162,2.152,5.243,2.5
							c3.46,1.111,9.28,2.607,10.505,3.553c3.5,2.699,2.437,5.891,0.515,6.225c-1.689,0.293-28.105-1.1-28.105-1.1V406.115z"/>
					</g>
					<g>
						<g>
							<path fill="#263238" d="M355.94,418.734c-0.121,0.027-0.557-1.559-0.613-3.574c-0.064-2.018,0.275-3.627,0.398-3.607
								c0.136,0.018,0.012,1.621,0.076,3.592C355.856,417.115,356.075,418.709,355.94,418.734z"/>
						</g>
					</g>
					<g>
						<g>
							
								<ellipse transform="matrix(-0.0077 1 -1 -0.0077 776.8041 59.9339)" fill="#263238" cx="358.666" cy="415.376" rx="3.282" ry="0.237"/>
						</g>
					</g>
					<g>
						<g>
							
								<ellipse transform="matrix(0.0778 0.997 -0.997 0.0778 747.9904 22.9958)" fill="#263238" cx="361.565" cy="415.818" rx="3.395" ry="0.238"/>
						</g>
					</g>
					<g>
						<g>
							<path fill="#263238" d="M353.479,415.072c-0.009,0.023-0.438-0.062-1.167-0.367c-0.725-0.307-1.758-0.834-2.843-1.756
								c-0.269-0.232-0.542-0.484-0.812-0.764c-0.267-0.279-0.554-0.598-0.726-1.027c-0.172-0.424-0.176-0.979,0.16-1.412
								c0.167-0.215,0.438-0.357,0.706-0.389c0.27-0.033,0.528,0.014,0.768,0.088c1.845,0.627,3.429,2.441,3.719,4.674
								c0.278,2.254-0.933,4.354-2.528,5.404c-0.398,0.26-0.82,0.496-1.305,0.584c-0.237,0.043-0.493,0.047-0.742-0.035
								c-0.25-0.084-0.462-0.273-0.574-0.504c-0.221-0.498-0.023-0.969,0.167-1.312c0.204-0.359,0.482-0.631,0.731-0.877
								c1.028-0.996,2.068-1.539,2.797-1.832c0.737-0.293,1.172-0.359,1.178-0.334c0.012,0.037-0.404,0.164-1.102,0.502
								c-0.693,0.338-1.676,0.912-2.637,1.9c-0.238,0.25-0.483,0.508-0.648,0.82c-0.168,0.303-0.274,0.684-0.133,0.957
								c0.137,0.293,0.501,0.389,0.888,0.307c0.383-0.074,0.767-0.289,1.136-0.539c1.457-0.982,2.56-2.938,2.302-4.984
								c-0.254-2.035-1.732-3.734-3.381-4.314c-0.4-0.139-0.81-0.119-1.019,0.148c-0.217,0.266-0.245,0.68-0.115,1.01
								c0.282,0.68,0.911,1.207,1.393,1.676C351.774,414.537,353.53,414.979,353.479,415.072z"/>
						</g>
					</g>
				</g>
				<g>
					<g>
						<path fill="#263238" d="M374.7,420.971c-0.039-0.043,0.377-0.225,0.692-0.865c0.321-0.631,0.259-1.756-0.373-2.869
							c-0.619-1.117-1.906-2.086-3.515-2.65c-1.608-0.578-3.527-0.857-5.463-1.461c-3.887-1.16-7.172-2.859-9.4-4.283
							c-1.117-0.713-1.979-1.35-2.562-1.805c-0.578-0.463-0.882-0.736-0.862-0.762c0.021-0.025,0.362,0.197,0.971,0.613
							c0.613,0.406,1.499,0.998,2.629,1.666c2.254,1.34,5.521,2.971,9.36,4.115c1.905,0.598,3.806,0.883,5.479,1.506
							c1.666,0.609,3.025,1.67,3.656,2.898c0.637,1.205,0.653,2.441,0.243,3.115c-0.19,0.338-0.424,0.535-0.586,0.648
							C374.803,420.943,374.707,420.982,374.7,420.971z"/>
					</g>
				</g>
			</g>
			<g>
				<g>
					<path fill="#F5F5F5" d="M366.083,304.875c0.007,0,0.007,0.066-0.001,0.193c-0.011,0.15-0.024,0.338-0.041,0.568
						c-0.049,0.531-0.116,1.264-0.201,2.199c-0.196,1.955-0.477,4.752-0.829,8.264l-0.021,0.213l-0.191-0.102
						c-3.049-1.604-6.775-3.566-10.988-5.783l0.261-0.072c-1.811,3.055-3.827,6.457-5.969,10.068l-0.127,0.217l-0.2-0.152
						c-3.141-2.41-6.531-5.01-10.051-7.709h0.289c-1.397,1.094-2.879,2.256-4.378,3.432c-2.027,1.586-4.021,3.146-5.969,4.672
						l-0.219,0.172l-0.132-0.244c-1.981-3.666-3.887-7.191-5.686-10.518l0.284,0.096c-4.382,1.953-8.431,3.756-12.057,5.373
						l-0.222,0.098l-0.041-0.236c-0.7-4.135-1.311-7.73-1.819-10.725l0.186,0.104c-2.938,1.121-5.272,2.012-6.903,2.633
						c-0.779,0.289-1.392,0.516-1.837,0.682c-0.191,0.066-0.349,0.121-0.476,0.166c-0.107,0.035-0.163,0.051-0.166,0.043
						c-0.003-0.004,0.049-0.031,0.152-0.08c0.124-0.053,0.275-0.119,0.462-0.199c0.439-0.182,1.042-0.43,1.81-0.748
						c1.622-0.648,3.938-1.58,6.857-2.752l0.156-0.062l0.029,0.168c0.536,2.99,1.18,6.58,1.919,10.707l-0.262-0.139
						c3.618-1.635,7.658-3.459,12.03-5.434l0.186-0.086l0.099,0.182c1.807,3.324,3.721,6.844,5.71,10.506l-0.352-0.074
						c1.948-1.527,3.94-3.088,5.966-4.678c1.501-1.174,2.982-2.334,4.38-3.428l0.145-0.113l0.145,0.111
						c3.514,2.705,6.898,5.312,10.036,7.729l-0.327,0.062c2.157-3.604,4.188-6.996,6.014-10.043l0.097-0.162l0.164,0.088
						c4.194,2.254,7.904,4.246,10.939,5.877l-0.211,0.111c0.408-3.506,0.735-6.297,0.962-8.248c0.118-0.934,0.21-1.664,0.277-2.193
						c0.032-0.229,0.06-0.412,0.08-0.562C366.062,304.938,366.076,304.875,366.083,304.875z"/>
				</g>
			</g>
			<g>
				<g>
					<path fill="#F5F5F5" d="M374.929,315.008c0.007,0.004-0.01,0.094-0.051,0.268c-0.049,0.195-0.111,0.451-0.191,0.773
						c-0.184,0.705-0.445,1.701-0.779,2.977c-0.704,2.619-1.717,6.381-2.98,11.076l-0.05,0.18l-0.169-0.08
						c-3.65-1.754-8.003-3.842-12.84-6.164l0.252-0.066c-3.28,4.678-6.927,9.879-10.815,15.426l-0.159,0.227l-0.193-0.197
						c-3.303-3.348-6.799-6.891-10.396-10.535c-0.731-0.742-1.46-1.48-2.182-2.213l0.294,0.035
						c-4.874,3.055-9.573,6.002-14.008,8.783l-0.2,0.125l-0.115-0.205c-2.706-4.779-5.24-9.254-7.553-13.338l0.237,0.09
						c-5.539,1.906-10.406,3.582-14.403,4.957l-0.137,0.047l-0.047-0.135c-1.364-3.957-2.445-7.092-3.196-9.27
						c-0.355-1.057-0.632-1.879-0.828-2.465c-0.084-0.262-0.151-0.473-0.203-0.637c-0.044-0.143-0.063-0.217-0.057-0.219
						s0.038,0.066,0.095,0.207c0.062,0.16,0.141,0.365,0.239,0.623c0.215,0.578,0.516,1.393,0.9,2.439
						c0.78,2.166,1.904,5.287,3.321,9.225l-0.183-0.088c3.986-1.404,8.843-3.113,14.368-5.059l0.155-0.055l0.082,0.143
						c2.327,4.076,4.877,8.543,7.6,13.311l-0.315-0.08c4.43-2.785,9.125-5.74,13.996-8.803l0.16-0.102l0.135,0.137
						c0.722,0.732,1.45,1.469,2.182,2.213c3.593,3.646,7.086,7.193,10.385,10.543l-0.352,0.029
						c3.907-5.535,7.569-10.725,10.863-15.391l0.099-0.139l0.154,0.074c4.821,2.352,9.159,4.469,12.8,6.246l-0.217,0.098
						c1.321-4.68,2.381-8.43,3.118-11.039c0.368-1.266,0.655-2.256,0.857-2.955c0.098-0.318,0.174-0.568,0.232-0.762
						C374.89,315.092,374.921,315.006,374.929,315.008z"/>
				</g>
			</g>
		</g>
		<g>
			<g>
				<path fill="#263238" d="M365.746,251.508c-3.638,0.404-7.427-0.791-10.175-3.211c3.316,1.674,7.735-0.623,8.901-4.15
					c1.166-3.527,0.21-10.089-2.686-12.417c-2.755-2.213-6.574-3.062-9.988-2.147c-3.413,0.914-7.031,6.104-8.147,9.456l0.063,0.103
					c-0.524-0.209-1.054-0.404-1.587-0.584c-3.78-1.27-7.82-1.884-11.781-1.425c-3.963,0.459-7.842,2.033-10.77,4.741l23.146,37.203
					c4.204-0.371,7.929-3.205,10.131-6.805c2.203-3.602,3.049-7.883,3.257-12.1c0.052-1.057,0.049-2.125,0.005-3.193
					c2.481,0.398,4.963,0.797,7.444,1.197c-1.329-1.789-3.023-3.303-4.948-4.426C361.125,254.709,364.234,253.73,365.746,251.508z"
					/>
			</g>
			<g>
				<g>
					<g>
						<g>
							<g>
								<g>
									<g>
										<g>
											<g>
												<g>
													<g>
														<g>
															<g>
																<path fill="#FFBE9D" d="M336.489,309.248c6.278-0.137,11.317-5.225,11.391-11.504l0.537-46.285l0,0
																	c0.038-1.914-1.395-3.535-3.296-3.738l-19.55-4.94c-6.261-0.662-10.425,7.045-10.82,13.331
																	c-0.44,6.98-0.701,15.52,0.125,20.73c1.663,10.473,9.691,11.807,9.691,11.807c0.002-0.027,0.006,4.053,0.03,9.016
																	C324.629,304.168,329.986,309.387,336.489,309.248L336.489,309.248z"/>
															</g>
														</g>
													</g>
												</g>
											</g>
											<g>
												<g>
													<g>
														<g>
															<g>
																<g>
																	<path fill="#263238" d="M318.812,262.891c-0.025,0.709,0.555,1.314,1.295,1.355
																		c0.739,0.039,1.36-0.502,1.385-1.211c0.025-0.709-0.555-1.316-1.293-1.357
																		C319.459,261.639,318.837,262.182,318.812,262.891z"/>
																</g>
															</g>
														</g>
													</g>
												</g>
												<g>
													<g>
														<g>
															<g>
																<g>
																	<g>
																		<path fill="#263238" d="M316.604,260.553c0.166,0.176,1.184-0.578,2.629-0.572
																			c1.445-0.018,2.505,0.725,2.662,0.549c0.077-0.078-0.093-0.395-0.554-0.73c-0.455-0.336-1.23-0.66-2.131-0.658
																			c-0.9,0.006-1.658,0.338-2.094,0.676C316.672,260.158,316.521,260.475,316.604,260.553z"/>
																	</g>
																</g>
															</g>
														</g>
													</g>
												</g>
											</g>
											<g>
												<g>
													<g>
														<g>
															<g>
																<g>
																	<path fill="#263238" d="M332.563,262.891c-0.025,0.709,0.555,1.314,1.295,1.355
																		c0.738,0.039,1.359-0.502,1.385-1.211s-0.556-1.316-1.294-1.357C333.209,261.639,332.588,262.182,332.563,262.891z
																		"/>
																</g>
															</g>
														</g>
													</g>
												</g>
												<g>
													<g>
														<g>
															<g>
																<g>
																	<g>
																		<path fill="#263238" d="M330.812,260.822c0.167,0.176,1.186-0.576,2.63-0.574
																			c1.443-0.016,2.505,0.729,2.661,0.551c0.078-0.078-0.09-0.395-0.555-0.73c-0.454-0.336-1.229-0.662-2.129-0.658
																			c-0.901,0.006-1.658,0.338-2.094,0.678C330.882,260.428,330.73,260.744,330.812,260.822z"/>
																	</g>
																</g>
															</g>
														</g>
													</g>
												</g>
											</g>
											<g>
												<g>
													<g>
														<g>
															<g>
																<g>
																	<path fill="#263238" d="M325.565,271.543c0.007-0.082-0.892-0.238-2.348-0.424
																		c-0.369-0.039-0.718-0.111-0.78-0.363c-0.087-0.268,0.067-0.664,0.246-1.094c0.348-0.895,0.71-1.83,1.092-2.811
																		c1.516-4.002,2.613-7.293,2.451-7.352c-0.161-0.061-1.521,3.135-3.037,7.137c-0.364,0.986-0.714,1.928-1.046,2.828
																		c-0.139,0.418-0.38,0.895-0.191,1.447c0.1,0.275,0.371,0.477,0.607,0.541c0.236,0.07,0.444,0.076,0.626,0.086
																		C324.651,271.619,325.561,271.625,325.565,271.543z"/>
																</g>
															</g>
														</g>
													</g>
												</g>
											</g>
											<g>
												<g>
													<g>
														<g>
															<g>
																<path fill="#EB996E" d="M324.567,288.648c0,0,7.047,0.453,14.027-3.742c0,0-3.404,7.193-13.886,6.215
																	L324.567,288.648z"/>
															</g>
														</g>
													</g>
												</g>
											</g>
											<g>
												<g>
													<g>
														<g>
															<g>
																<path fill="#EB996E" d="M326.177,275.027c0.521-0.689,1.431-1.066,2.336-0.969c0.627,0.068,1.26,0.371,1.642,0.881
																	c0.381,0.512,0.46,1.236,0.114,1.723c-0.39,0.549-1.205,0.676-1.895,0.479c-0.69-0.195-1.284-0.648-1.848-1.102
																	c-0.156-0.125-0.315-0.256-0.413-0.428c-0.097-0.172-0.118-0.395,0.003-0.537"/>
															</g>
														</g>
													</g>
												</g>
											</g>
											<g>
												<g>
													<g>
														<g>
															<g>
																<g>
																	<path fill="#263238" d="M329.82,272.543c-0.235-0.014-0.238,1.555-1.582,2.668c-1.34,1.117-3.013,0.941-3.024,1.16
																		c-0.022,0.1,0.372,0.305,1.078,0.324c0.692,0.023,1.703-0.199,2.525-0.879c0.819-0.684,1.172-1.594,1.225-2.238
																		C330.102,272.922,329.927,272.533,329.82,272.543z"/>
																</g>
															</g>
														</g>
													</g>
												</g>
											</g>
										</g>
									</g>
								</g>
								<g>
									<g>
										<g>
											<g>
												<g>
													<path fill="#263238" d="M330.161,258.293c0.143,0.393,1.586,0.207,3.281,0.41c1.7,0.17,3.067,0.668,3.293,0.314
														c0.1-0.168-0.138-0.537-0.691-0.92c-0.547-0.379-1.422-0.74-2.439-0.854c-1.02-0.111-1.95,0.051-2.568,0.303
														C330.414,257.797,330.101,258.105,330.161,258.293z"/>
												</g>
											</g>
										</g>
									</g>
								</g>
								<g>
									<g>
										<g>
											<g>
												<g>
													<path fill="#263238" d="M316.805,257.887c0.255,0.328,1.25-0.014,2.447-0.029c1.197-0.057,2.212,0.221,2.445-0.123
														c0.102-0.166-0.058-0.494-0.501-0.805c-0.437-0.311-1.166-0.564-1.989-0.539c-0.822,0.025-1.536,0.324-1.952,0.66
														C316.832,257.389,316.693,257.727,316.805,257.887z"/>
												</g>
											</g>
										</g>
									</g>
								</g>
							</g>
						</g>
						<g>
							<g>
								<path fill="#FFBE9D" d="M347.258,264.475c0.792-0.551,1.903-0.346,2.738,0.137c1.925,1.113,2.881,3.658,2.167,5.764
									c-0.715,2.105-3.023,3.543-5.228,3.254"/>
							</g>
						</g>
						<g>
							<g>
								<g>
									<path fill="#EB996E" d="M347.989,270.504c0.03-0.072,0.407,0.09,0.912-0.141c0.498-0.199,0.951-0.934,0.898-1.791
										c-0.028-0.867-0.59-1.49-1.117-1.68c-0.523-0.215-0.91-0.109-0.932-0.189c-0.037-0.053,0.356-0.33,1.048-0.176
										c0.332,0.078,0.721,0.277,1.023,0.639c0.3,0.355,0.495,0.852,0.52,1.379c0.077,1.055-0.587,2.014-1.31,2.178
										C348.318,270.91,347.933,270.547,347.989,270.504z"/>
								</g>
							</g>
						</g>
					</g>
				</g>
			</g>
			<g>
				<g>
					<path fill="#455A64" d="M350.852,272.625c0.013-0.016,0.181,0.104,0.479,0.34c0.351,0.285,0.775,0.631,1.284,1.047
						c1.158,0.984,2.696,2.291,4.52,3.84l0.151,0.129l-0.129,0.154c-1.683,2.02-3.558,4.551-5.665,7.195
						c-0.478,0.596-0.954,1.18-1.417,1.725l-0.388,0.457l-0.026-0.598c-0.19-4.266-0.337-8.041-0.421-10.75
						c-0.03-1.289-0.057-2.359-0.076-3.193c-0.009-0.75,0.001-1.162,0.031-1.164c0.03,0,0.078,0.408,0.14,1.156
						c0.057,0.832,0.131,1.9,0.22,3.186c0.167,2.707,0.37,6.479,0.577,10.744l-0.415-0.143c0.45-0.549,0.924-1.129,1.405-1.717
						c2.101-2.635,3.999-5.152,5.729-7.158l0.023,0.283c-1.779-1.602-3.28-2.951-4.411-3.969c-0.48-0.447-0.88-0.822-1.212-1.131
						C350.978,272.791,350.838,272.641,350.852,272.625z"/>
				</g>
			</g>
			<g>
				<path fill="#263238" d="M329.671,238.202c-2.562,0.106-5.147,0.216-7.637,0.835c-2.489,0.618-4.91,1.79-6.604,3.717
					c-1.693,1.928-2.557,4.686-1.824,7.143c0.731,2.459,3.257,4.385,5.799,4.045c1.931-0.26,3.782-1.688,5.646-1.121
					c1.761,0.537,2.729,2.686,4.54,3.02c1.787,0.33,3.377-1.273,5.187-1.43c1.998-0.174,3.731,1.465,4.62,3.262
					s1.226,3.826,2.118,5.621c0.571,1.146,1.458,2.248,2.698,2.568c1.139,0.293,2.378-0.146,3.265-0.918
					c0.888-0.773,1.469-1.838,1.913-2.928c1.886-4.629,1.478-10.131-1.071-14.43c-2.548-4.301-7.179-7.301-12.146-7.868"/>
			</g>
			<g>
				<g>
					<path fill="#E8505B" d="M355.191,249.326c-0.082,0.023-0.325-0.846-0.968-2.127c-0.638-1.281-1.753-2.945-3.37-4.415
						c-1.625-1.461-3.394-2.401-4.733-2.906c-1.34-0.511-2.229-0.665-2.213-0.749c0.005-0.032,0.23-0.018,0.637,0.036
						c0.406,0.044,0.988,0.177,1.688,0.396c1.401,0.435,3.261,1.36,4.939,2.872c1.672,1.517,2.782,3.273,3.355,4.623
						c0.29,0.674,0.479,1.238,0.566,1.641C355.187,249.094,355.224,249.318,355.191,249.326z"/>
				</g>
			</g>
			<g>
				<g>
					<path fill="#455A64" d="M363.203,233.984c-0.041,0.083-0.918-0.493-2.522-0.783c-1.581-0.302-3.924-0.18-6.143,0.925
						c-2.221,1.113-3.785,2.824-4.748,4.131c-0.972,1.319-1.425,2.242-1.497,2.205c-0.027-0.014,0.056-0.258,0.249-0.681
						c0.194-0.424,0.512-1.021,0.974-1.717c0.911-1.382,2.488-3.197,4.811-4.362c2.328-1.161,4.795-1.229,6.422-0.828
						c0.82,0.193,1.452,0.462,1.859,0.693C363.017,233.796,363.218,233.96,363.203,233.984z"/>
				</g>
			</g>
			<g>
				<g>
					<path fill="#455A64" d="M353.134,246.289c0.053,0,0.139,0.822,0.016,2.154c-0.119,1.328-0.502,3.156-1.309,5.037
						c-0.813,1.879-1.882,3.412-2.765,4.41c-0.884,1.004-1.542,1.508-1.578,1.469c-0.123-0.102,2.339-2.363,3.907-6.066
						C353.02,249.613,352.974,246.27,353.134,246.289z"/>
				</g>
			</g>
			<g>
				<g>
					<path fill="#455A64" d="M353.436,246.512c0.031-0.01,0.12,0.203,0.256,0.6c0.144,0.395,0.288,0.986,0.41,1.727
						c0.249,1.479,0.277,3.6-0.283,5.838c-0.569,2.236-1.603,4.09-2.524,5.273c-0.459,0.594-0.867,1.045-1.181,1.324
						c-0.308,0.283-0.487,0.43-0.51,0.406c-0.06-0.061,0.589-0.715,1.419-1.928c0.832-1.207,1.783-3.021,2.337-5.191
						c0.543-2.172,0.568-4.221,0.409-5.678C353.615,247.42,353.354,246.535,353.436,246.512z"/>
				</g>
			</g>
		</g>
	</g>
	<g>
		<g>
			<path fill="#EBEBEB" d="M380.98,248.898c-2.646,0.836-3.793,4.605-2.06,6.771c1.734,2.166,5.665,1.873,7.058-0.525
				c1.394-2.398-0.299-5.959-3.038-6.393"/>
		</g>
		<g>
			<path fill="#EBEBEB" d="M393.286,231.015c-3.035,0.957-4.351,5.284-2.362,7.769c1.989,2.484,6.498,2.148,8.097-0.604
				c1.599-2.751-0.343-6.835-3.486-7.332"/>
		</g>
		<g>
			<g>
				<path fill="#F5F5F5" d="M419.567,152.182c-8.234-0.695-16.564,1.143-22.21,7.177c-5.646,6.034-8.339,14.712-7.099,22.883
					c-8.759,3.64-13.534,14.777-10.131,23.63c3.401,8.854,14.407,13.927,23.35,10.765c4.018,10.184,13.668,17.93,24.479,19.65
					c10.812,1.722,22.391-2.646,29.372-11.078c8.591,1.941,18.231,1.814,25.448-3.232c7.218-5.048,10.482-16.154,4.983-23.033
					c9.896-2.408,14.925-14.767,11.989-24.52c-2.935-9.753-11.719-16.752-21.101-20.715c-6.201-2.618-13.933-3.986-19.223,0.176
					c-4.234-6.516-11.728-10.791-19.49-11.123C432.173,142.43,424.343,146.051,419.567,152.182"/>
			</g>
			<g>
				<g>
					<path fill="#263238" d="M419.567,152.182c0,0,0.163-0.219,0.499-0.636c0.326-0.424,0.861-1.018,1.598-1.763
						c1.487-1.459,3.907-3.501,7.605-5.103c1.842-0.793,3.994-1.474,6.427-1.819c2.429-0.323,5.143-0.348,7.965,0.244
						c2.824,0.553,5.746,1.697,8.521,3.447c2.754,1.771,5.367,4.175,7.379,7.243l-0.233-0.037c2.128-1.654,4.903-2.603,7.791-2.675
						c2.889-0.104,5.866,0.438,8.776,1.399c2.913,0.971,5.792,2.305,8.597,3.943c2.8,1.642,5.53,3.605,7.97,6.013
						c2.462,2.377,4.598,5.23,6.157,8.468c0.746,1.635,1.367,3.345,1.753,5.147c0.324,1.805,0.518,3.666,0.368,5.535
						c-0.24,3.727-1.388,7.503-3.557,10.733c-1.1,1.592-2.39,3.11-4.001,4.273c-1.595,1.173-3.417,2.057-5.367,2.568l0.123-0.364
						c1.186,1.508,2.025,3.299,2.444,5.197c0.426,1.899,0.449,3.894,0.144,5.843c-0.619,3.902-2.562,7.627-5.439,10.492
						c-2.916,2.871-6.801,4.646-10.835,5.536c-4.059,0.888-8.303,0.905-12.476,0.368c-1.522-0.187-3.024-0.483-4.5-0.798l0.234-0.08
						c-7.559,9.063-19.924,13.133-30.758,10.928c-5.423-1.088-10.396-3.648-14.433-7.082c-4.044-3.437-7.174-7.772-9.046-12.49
						l0.275,0.126c-5.182,1.787-10.84,0.873-15.28-1.599c-4.487-2.446-7.849-6.652-8.941-11.331
						c-1.114-4.675-0.207-9.486,1.851-13.356c2.062-3.892,5.321-6.907,9.018-8.464l-0.1,0.175c-0.559-3.79-0.256-7.48,0.567-10.811
						c0.861-3.325,2.236-6.303,3.928-8.804c0.83-1.265,1.775-2.378,2.719-3.414c0.986-0.997,1.981-1.916,3.047-2.65
						c2.089-1.527,4.274-2.489,6.276-3.154c4.039-1.307,7.367-1.418,9.567-1.432C418.417,152.024,419.567,152.182,419.567,152.182
						s-0.29-0.003-0.854-0.032c-0.564-0.037-1.406-0.058-2.512-0.056c-2.194,0.043-5.509,0.186-9.511,1.509
						c-1.983,0.674-4.145,1.641-6.204,3.162c-1.051,0.732-2.03,1.646-3.001,2.637c-0.93,1.031-1.862,2.139-2.679,3.394
						c-1.665,2.485-3.016,5.438-3.857,8.733c-0.803,3.298-1.091,6.947-0.527,10.688l0.019,0.126l-0.118,0.05
						c-3.616,1.537-6.809,4.502-8.825,8.329c-2.013,3.807-2.89,8.534-1.791,13.098c1.075,4.562,4.362,8.669,8.764,11.062
						c4.357,2.416,9.898,3.297,14.935,1.549l0.197-0.067l0.077,0.193c1.851,4.646,4.941,8.919,8.934,12.307
						c3.984,3.384,8.892,5.904,14.231,6.972c10.662,2.169,22.867-1.854,30.303-10.776l0.092-0.111l0.144,0.031
						c1.461,0.311,2.948,0.605,4.456,0.789c4.13,0.532,8.322,0.513,12.312-0.359c3.964-0.869,7.78-2.623,10.608-5.408
						c2.803-2.789,4.708-6.433,5.311-10.232c0.628-3.781-0.167-7.773-2.485-10.681l-0.219-0.274l0.343-0.089
						c1.89-0.496,3.655-1.35,5.206-2.487c1.566-1.127,2.824-2.607,3.9-4.16c2.123-3.154,3.256-6.859,3.495-10.512
						c0.149-1.834-0.04-3.656-0.354-5.424c-0.374-1.758-0.982-3.447-1.715-5.055c-1.528-3.186-3.629-6.004-6.059-8.358
						c-2.408-2.383-5.11-4.333-7.883-5.968c-2.776-1.63-5.639-2.963-8.517-3.929c-2.877-0.959-5.815-1.499-8.648-1.402
						c-2.834,0.063-5.531,0.981-7.606,2.581l-0.139,0.106l-0.095-0.145c-1.976-3.032-4.549-5.415-7.266-7.177
						c-2.737-1.738-5.624-2.883-8.416-3.441c-2.792-0.6-5.477-0.587-7.886-0.278c-2.413,0.328-4.553,0.992-6.388,1.767
						c-3.683,1.566-6.108,3.574-7.61,5.006c-0.744,0.732-1.288,1.314-1.626,1.729C419.755,151.982,419.567,152.182,419.567,152.182z
						"/>
				</g>
			</g>
		</g>
		<g>
			<g>
				<path fill="#455A64" d="M475.855,180.556c0,0.394-16.143,0.712-36.05,0.712c-19.915,0-36.054-0.318-36.054-0.712
					c0-0.392,16.139-0.711,36.054-0.711C459.713,179.845,475.855,180.165,475.855,180.556z"/>
			</g>
		</g>
		<g>
			<g>
				<path fill="#455A64" d="M475.855,188.379c0,0.393-16.143,0.711-36.05,0.711c-19.915,0-36.054-0.318-36.054-0.711
					c0-0.394,16.139-0.711,36.054-0.711C459.713,187.668,475.855,187.986,475.855,188.379z"/>
			</g>
		</g>
		<g>
			<g>
				<path fill="#455A64" d="M475.855,196.202c0,0.394-16.143,0.712-36.05,0.712c-19.915,0-36.054-0.318-36.054-0.712
					c0-0.393,16.139-0.711,36.054-0.711C459.713,195.491,475.855,195.809,475.855,196.202z"/>
			</g>
		</g>
		<g>
			<g>
				<path fill="#455A64" d="M475.855,204.025c0,0.393-16.143,0.711-36.05,0.711c-19.915,0-36.054-0.318-36.054-0.711
					c0-0.394,16.139-0.711,36.054-0.711C459.713,203.314,475.855,203.631,475.855,204.025z"/>
			</g>
		</g>
	</g>
</g>
</svg>
