<?xml version="1.0" encoding="utf-8"?>
<!-- Generator: Adobe Illustrator 16.0.0, SVG Export Plug-In . SVG Version: 6.00 Build 0)  -->
<!DOCTYPE svg PUBLIC "-//W3C//DTD SVG 1.1//EN" "http://www.w3.org/Graphics/SVG/1.1/DTD/svg11.dtd">
<svg version="1.1" id="Layer_1" xmlns="http://www.w3.org/2000/svg" xmlns:xlink="http://www.w3.org/1999/xlink" x="0px" y="0px"
	 width="67.5px" height="61.75px" viewBox="0 0 67.5 61.75" enable-background="new 0 0 67.5 61.75" xml:space="preserve">
<g>
	<g>
		<g>
			<path fill="#005E9C" d="M33.783,37.861c-0.231,0.002-0.464-0.083-0.646-0.252l-22.078-20.7l1.281-1.365l21.432,20.093
				l21.252-20.285l1.293,1.354L34.425,37.603C34.245,37.775,34.015,37.861,33.783,37.861z"/>
			<path fill="#005E9C" d="M33.784,38.173c-0.32,0.002-0.625-0.118-0.859-0.337L10.847,17.137c-0.127-0.118-0.133-0.315-0.014-0.441
				l1.279-1.366c0.057-0.061,0.135-0.097,0.218-0.099c0.087,0,0.163,0.028,0.224,0.084l21.217,19.893l21.037-20.082
				c0.061-0.057,0.146-0.087,0.223-0.087c0.084,0.002,0.162,0.038,0.22,0.097l1.292,1.354c0.119,0.126,0.115,0.322-0.01,0.441
				L34.641,37.829C34.409,38.05,34.104,38.172,33.784,38.173z M11.501,16.894L33.353,37.38c0.232,0.219,0.627,0.218,0.857-0.003
				l21.666-20.683l-0.862-0.902l-21.024,20.07c-0.121,0.113-0.309,0.114-0.43,0.003L12.354,15.984L11.501,16.894z"/>
		</g>
	</g>
	<g>
		<g>
			<path fill="#005E9C" d="M55.805,45.869l-43.97,0.197c-0.518,0.002-0.939-0.414-0.941-0.932l-0.13-28.903
				c-0.003-0.518,0.415-0.938,0.933-0.94l43.97-0.199c0.517-0.002,0.938,0.415,0.94,0.932l0.131,28.905
				C56.739,45.446,56.322,45.867,55.805,45.869z M12.763,44.19L54.86,44l-0.123-27.032l-42.098,0.19L12.763,44.19z"/>
			<path fill="#005E9C" d="M55.806,46.18l-43.97,0.198c-0.688,0.003-1.251-0.555-1.255-1.242l-0.129-28.904
				c-0.004-0.688,0.555-1.25,1.242-1.254l43.971-0.197c0.688-0.004,1.25,0.554,1.254,1.242l0.13,28.904
				C57.052,45.615,56.494,46.179,55.806,46.18z M11.697,15.602c-0.345,0.001-0.622,0.282-0.622,0.627l0.131,28.904
				c0.002,0.345,0.283,0.623,0.627,0.621l43.97-0.198c0.345-0.001,0.624-0.282,0.622-0.627l-0.131-28.904
				c-0.001-0.346-0.282-0.622-0.627-0.62L11.697,15.602z M54.861,44.313l-42.098,0.188c-0.173,0.001-0.313-0.139-0.313-0.311
				L12.328,17.16c-0.001-0.173,0.138-0.313,0.312-0.314l42.098-0.188c0.172,0,0.312,0.139,0.312,0.311L55.172,44
				C55.173,44.171,55.034,44.311,54.861,44.313z M13.073,43.876l41.473-0.188l-0.118-26.406l-41.474,0.186L13.073,43.876z"/>
		</g>
	</g>
	<g>
		<g>
			<path fill="#005E9C" d="M54.979,45.535L43.466,31.777l-3.326,0.017l-0.008-1.873l3.767-0.017
				c0.278-0.002,0.543,0.121,0.722,0.334l11.795,14.094L54.979,45.535z"/>
			<path fill="#005E9C" d="M54.98,45.846c-0.01,0-0.019,0-0.028,0c-0.083-0.009-0.159-0.048-0.212-0.112L43.321,32.09l-3.18,0.015
				c-0.172,0-0.312-0.139-0.313-0.312l-0.009-1.872c0-0.172,0.139-0.312,0.311-0.312l3.768-0.018
				c0.371-0.002,0.723,0.162,0.962,0.446l11.796,14.094c0.109,0.133,0.092,0.329-0.039,0.44l-1.437,1.201
				C55.124,45.821,55.054,45.846,54.98,45.846z M40.451,31.48l3.015-0.014c0.093,0,0.181,0.04,0.24,0.111l11.312,13.518l0.957-0.803
				L44.382,30.439c-0.121-0.143-0.297-0.224-0.482-0.223l-3.454,0.016L40.451,31.48z"/>
		</g>
	</g>
	<g>
		<g>
			<path fill="#005E9C" d="M12.554,45.724l-1.447-1.188l11.668-14.199c0.178-0.214,0.441-0.34,0.719-0.341l3.768-0.018l0.008,1.873
				l-3.326,0.015L12.554,45.724z"/>
			<path fill="#005E9C" d="M12.555,46.038c-0.072,0-0.143-0.024-0.199-0.071l-1.447-1.189c-0.133-0.109-0.151-0.307-0.042-0.44
				l11.668-14.197c0.236-0.288,0.586-0.454,0.959-0.455l3.766-0.019c0.172,0,0.312,0.139,0.313,0.312l0.009,1.873
				c0,0.172-0.139,0.312-0.311,0.312l-3.18,0.016L12.794,45.924c-0.052,0.062-0.127,0.103-0.21,0.111
				C12.574,46.038,12.564,46.038,12.555,46.038z M11.546,44.493l0.965,0.794l11.19-13.619c0.058-0.071,0.146-0.113,0.239-0.113
				l3.015-0.015l-0.005-1.248l-3.455,0.017c-0.186,0-0.361,0.083-0.48,0.227L11.546,44.493z"/>
		</g>
	</g>
	<g>
		<g>
			<rect x="37.46" y="19.23" transform="matrix(1 -0.0045 0.0045 1 -0.0906 0.1815)" fill="#005E9C" width="5.407" height="1.872"/>
			<path fill="#005E9C" d="M42.874,21.403l-5.408,0.023c-0.173,0.001-0.312-0.137-0.313-0.312l-0.009-1.871
				c-0.001-0.172,0.139-0.312,0.311-0.312l5.408-0.025c0.174,0,0.312,0.139,0.314,0.311l0.008,1.872
				C43.186,21.261,43.046,21.402,42.874,21.403z M37.774,20.801l4.785-0.022l-0.006-1.248l-4.784,0.021L37.774,20.801z"/>
		</g>
	</g>
	<g>
		<g>
			
				<rect x="36.135" y="19.245" transform="matrix(1 -0.0052 0.0052 1 -0.1036 0.1901)" fill="#005E9C" width="1.325" height="1.873"/>
			<path fill="#005E9C" d="M37.466,21.426l-1.326,0.006c-0.172,0.001-0.312-0.138-0.312-0.31l-0.008-1.873
				c-0.002-0.172,0.137-0.312,0.311-0.313l1.324-0.005c0.172-0.001,0.312,0.138,0.314,0.31l0.008,1.872
				C37.776,21.286,37.638,21.425,37.466,21.426z M36.45,20.807l0.7-0.003l-0.005-1.248l-0.701,0.003L36.45,20.807z"/>
		</g>
	</g>
	<g>
		<g>
			
				<rect x="24.624" y="19.274" transform="matrix(1 -0.0044 0.0044 1 -0.0889 0.1342)" fill="#005E9C" width="11.512" height="1.873"/>
			<path fill="#005E9C" d="M36.14,21.432l-11.51,0.052c-0.172,0.002-0.312-0.138-0.314-0.309l-0.008-1.873
				c0-0.174,0.139-0.314,0.311-0.314l11.512-0.052c0.172,0,0.312,0.139,0.312,0.311l0.01,1.872
				C36.452,21.292,36.313,21.432,36.14,21.432z M24.938,20.859l10.887-0.049l-0.005-1.248l-10.888,0.049L24.938,20.859z"/>
		</g>
	</g>
</g>
<rect y="-4" fill="#005E9C" width="67.5" height="1"/>
<rect x="69" y="-0.295" fill="#005E9C" width="2.25" height="61.75"/>
</svg>
