<?xml version="1.0" encoding="utf-8"?>
<!-- Generator: Adobe Illustrator 16.0.0, SVG Export Plug-In . SVG Version: 6.00 Build 0)  -->
<!DOCTYPE svg PUBLIC "-//W3C//DTD SVG 1.1//EN" "http://www.w3.org/Graphics/SVG/1.1/DTD/svg11.dtd">
<svg version="1.1" id="Layer_1" xmlns="http://www.w3.org/2000/svg" xmlns:xlink="http://www.w3.org/1999/xlink" x="0px" y="0px"
	 width="300px" height="300px" viewBox="0 0 300 300" enable-background="new 0 0 300 300" xml:space="preserve">
<circle fill="none" stroke="#FFFFFF" stroke-width="5" stroke-miterlimit="10" cx="629.5" cy="2009.432" r="115.092"/>
<g>
	<path fill="#FFFFFF" stroke="#FFFFFF" stroke-miterlimit="10" d="M630.898,2009.822c-25.709-11.688-31.824-38.068-33.147-46.494
		l63.629,0.092c-1.101,7.625-5.612,29.811-21.869,41.201c-1.081,0.746-1.379,2.312-0.597,3.395c0.485,0.689,1.231,1.043,2.014,1.043
		c0.485,0,0.988-0.094,1.436-0.447c20.302-14.188,23.732-42.338,24.18-47.055c0.057-0.299,0.057-0.484,0.057-0.598l0.019-7.438
		c0-1.379-1.082-2.461-2.461-2.461l-69.128-0.111c-1.379,0-2.461,1.08-2.461,2.461l-0.019,7.438c0,0.15,0,0.336,0.056,0.484
		c0.336,4.084,4.213,38.33,36.279,52.947c27.834,12.641,31.973,33.893,32.551,40.996l-63.871-0.094
		c0.895-6.842,5.053-25.727,22.596-36.186c1.174-0.689,1.584-2.219,0.895-3.395c-0.727-1.137-2.219-1.527-3.393-0.838
		c-23.732,14.188-25.205,41.293-25.262,42.711l-0.019,7.867c0,1.324,1.081,2.461,2.461,2.461l69.128,0.111
		c1.38,0,2.461-1.117,2.461-2.461l0.019-7.717C666.506,2055.74,666.655,2026.08,630.898,2009.822z M597.472,1955.908l64.206,0.092
		l0.037,2.518l-64.262-0.094L597.472,1955.908z M661.528,2063.012l-64.206-0.094v-2.797l64.206,0.094V2063.012z"/>
	<path fill="#FFFFFF" stroke="#FFFFFF" stroke-miterlimit="10" d="M698.33,2048.172l-17.115-1.566
		c-1.249-0.094-2.256-0.969-2.609-2.088c-0.094-0.316-0.131-0.652-0.112-0.969l0.578-17.189c0.075-1.641,1.436-2.928,3.114-2.871
		c1.641,0.037,2.926,1.436,2.87,3.076l-0.41,12.137c8.855-10.682,13.031-21.664,12.342-32.645
		c-1.081-17.916-14.598-29.939-14.729-30.09c-1.229-1.062-1.36-2.963-0.261-4.213c1.101-1.23,2.964-1.361,4.232-0.279
		c0.634,0.521,15.492,13.852,16.741,34.172c0.765,12.211-3.579,24.256-12.845,35.777l8.743,0.801
		c1.641,0.131,2.853,1.604,2.703,3.244C701.405,2047.109,699.971,2048.34,698.33,2048.172z"/>
	<path fill="#FFFFFF" stroke="#FFFFFF" stroke-miterlimit="10" d="M560.67,1973.34l17.115,1.564c1.248,0.094,2.255,0.971,2.609,2.09
		c0.094,0.316,0.131,0.65,0.111,0.969l-0.577,17.189c-0.075,1.639-1.436,2.926-3.114,2.869c-1.64-0.037-2.926-1.436-2.87-3.076
		l0.41-12.137c-8.856,10.684-13.032,21.664-12.343,32.645c1.082,17.916,14.598,29.941,14.729,30.09
		c1.23,1.062,1.361,2.965,0.262,4.213c-1.101,1.23-2.965,1.361-4.232,0.281c-0.634-0.523-15.492-13.854-16.741-34.174
		c-0.765-12.211,3.579-24.254,12.845-35.775l-8.743-0.803c-1.641-0.129-2.853-1.604-2.704-3.242
		C557.594,1974.402,559.029,1973.189,560.67,1973.34z"/>
</g>
<rect y="-31" fill="#FFFFFF" stroke="#FFFFFF" stroke-miterlimit="10" width="300" height="9"/>
<rect x="313" fill="#FFFFFF" stroke="#FFFFFF" stroke-miterlimit="10" width="19" height="300"/>
<g>
	<circle fill="none" stroke="#FFFFFF" stroke-width="5" stroke-miterlimit="10" cx="150" cy="150" r="115.092"/>
	<path fill="#FFFFFF" d="M228.192,114.156h-21.316c-2.246,0-4.176,1.365-5.01,3.309c-2.706-0.579-6.392-1.703-10.249-2.884
		c-6.098-1.87-13.108-4.009-20.266-5.397c-2.466-5.188-9.929-10.475-30.11-10.475c-8.96,0-19.755,4.46-29.276,8.393
		c-5.312,2.194-10.376,4.275-14.001,5.099c-0.899-1.772-2.722-2.999-4.843-2.999H71.806c-3.006,0-5.451,2.442-5.451,5.449v53.038
		c0,3.007,2.445,5.451,5.451,5.451h21.315c0.207,0,0.402-0.038,0.603-0.062l12.505,13.259c4.998,5.297,10.833,9.652,17.348,12.938
		l15.835,7.986c1.284,0.65,2.663,0.967,4.032,0.967c2.13,0,4.231-0.766,5.906-2.254c1.521-1.345,2.483-3.168,2.834-5.125
		l7.074,3.413c1.296,0.628,2.683,0.928,4.055,0.928c2.666,0,5.282-1.137,7.105-3.251c1.583-1.837,2.322-4.193,2.197-6.587
		c0.621,0.101,1.245,0.188,1.865,0.188c3.93,0,7.704-1.992,9.916-5.537c0.971-1.563,1.5-3.299,1.668-5.077
		c1.804,0.951,3.742,1.44,5.668,1.44c3.488,0,6.917-1.52,9.314-4.397c1.233-1.48,2.037-3.228,2.46-5.068
		c0.931,0.739,2.092,1.2,3.369,1.2h21.316c3.006,0,5.453-2.447,5.453-5.454v-53.039
		C233.646,116.602,231.198,114.156,228.192,114.156z M91.881,166.446H73.047v-50.556h18.834V166.446z M195.904,177.684
		c-1.748,2.095-4.706,2.581-7.035,1.176l-28.214-17.126c-1.578-0.961-3.636-0.458-4.594,1.124c-0.96,1.578-0.456,3.635,1.124,4.592
		l10.97,6.662c0,0,0.001,0,0.003,0.002l8.896,5.4c1.154,0.703,1.964,1.812,2.277,3.13c0.316,1.317,0.095,2.673-0.618,3.818
		c-1.319,2.122-3.938,2.961-6.243,1.966l-11.633-4.975l-11.108-6.619c-1.588-0.946-3.64-0.425-4.588,1.164
		c-0.943,1.587-0.424,3.639,1.164,4.587l18.382,10.952c0.932,0.555,1.196,1.411,1.271,1.868c0.075,0.458,0.095,1.351-0.611,2.164
		c-0.788,0.915-2.088,1.188-3.183,0.667l-16.67-8.044l-5.244-2.984c-1.595-0.915-3.646-0.356-4.562,1.255
		c-0.915,1.605-0.353,3.646,1.254,4.561l7.595,4.324c0.634,0.359,1.042,0.984,1.117,1.711c0.075,0.726-0.193,1.422-0.742,1.905
		c-0.688,0.611-1.662,0.729-2.489,0.323l-15.835-7.984c-5.815-2.939-11.03-6.826-15.493-11.561l-12.594-13.354
		c0.03-0.231,0.069-0.459,0.069-0.699v-48.793c4.385-0.849,9.83-3.084,15.949-5.611c8.946-3.696,19.088-7.886,26.721-7.886
		c7.699,0,13.835,0.859,18.074,2.379c-0.544-0.017-1.093-0.064-1.633-0.064c-18.552,0-50.984,13.562-52.353,14.138
		c-1.243,0.523-2.05,1.737-2.05,3.084c0,6.729,4.541,12.707,11.047,14.536c7.881,2.216,19.458,3.455,30.838-2.672l49.561,32.834
		c1.313,0.869,2.162,2.203,2.388,3.761C197.341,174.953,196.913,176.476,195.904,177.684z M201.426,166.984
		c-0.834-1.126-1.813-2.145-3.003-2.934l-51.284-33.973c-1.092-0.719-2.494-0.744-3.598-0.062
		c-9.91,6.078-20.368,4.994-27.403,3.014c-2.918-0.82-5.13-3.135-5.885-5.957c7.741-3.087,32.915-12.668,47.43-12.668
		c10.523,0,22.418,3.646,31.975,6.574c4.688,1.436,8.633,2.63,11.769,3.207V166.984z M226.955,171.408h-18.837v-50.561h18.837
		V171.408z"/>
</g>
</svg>
