<?xml version="1.0" encoding="utf-8"?>
<!-- Generator: Adobe Illustrator 16.0.0, SVG Export Plug-In . SVG Version: 6.00 Build 0)  -->
<!DOCTYPE svg PUBLIC "-//W3C//DTD SVG 1.1//EN" "http://www.w3.org/Graphics/SVG/1.1/DTD/svg11.dtd">
<svg version="1.1" id="Layer_1" xmlns="http://www.w3.org/2000/svg" xmlns:xlink="http://www.w3.org/1999/xlink" x="0px" y="0px"
	 width="300px" height="300px" viewBox="0 0 300 300" enable-background="new 0 0 300 300" xml:space="preserve">
<circle fill="none" stroke="#FFFFFF" stroke-width="5" stroke-miterlimit="10" cx="629.5" cy="2009.432" r="115.092"/>
<g>
	<path fill="#FFFFFF" stroke="#FFFFFF" stroke-miterlimit="10" d="M630.898,2009.822c-25.709-11.688-31.824-38.068-33.147-46.494
		l63.629,0.092c-1.101,7.625-5.612,29.811-21.869,41.201c-1.081,0.746-1.379,2.312-0.597,3.395c0.485,0.689,1.231,1.043,2.014,1.043
		c0.485,0,0.988-0.094,1.436-0.447c20.302-14.188,23.732-42.338,24.18-47.055c0.057-0.299,0.057-0.484,0.057-0.598l0.019-7.438
		c0-1.379-1.082-2.461-2.461-2.461l-69.128-0.111c-1.379,0-2.461,1.08-2.461,2.461l-0.019,7.438c0,0.15,0,0.336,0.056,0.484
		c0.336,4.084,4.213,38.33,36.279,52.947c27.834,12.641,31.973,33.893,32.551,40.996l-63.871-0.094
		c0.895-6.842,5.053-25.727,22.596-36.186c1.174-0.689,1.584-2.219,0.895-3.395c-0.727-1.137-2.219-1.527-3.393-0.838
		c-23.732,14.188-25.205,41.293-25.262,42.711l-0.019,7.867c0,1.324,1.081,2.461,2.461,2.461l69.128,0.111
		c1.38,0,2.461-1.117,2.461-2.461l0.019-7.717C666.506,2055.74,666.655,2026.08,630.898,2009.822z M597.472,1955.908l64.206,0.092
		l0.037,2.518l-64.262-0.094L597.472,1955.908z M661.528,2063.012l-64.206-0.094v-2.797l64.206,0.094V2063.012z"/>
	<path fill="#FFFFFF" stroke="#FFFFFF" stroke-miterlimit="10" d="M698.33,2048.172l-17.115-1.566
		c-1.249-0.094-2.256-0.969-2.609-2.088c-0.094-0.316-0.131-0.652-0.112-0.969l0.578-17.189c0.075-1.641,1.436-2.928,3.114-2.871
		c1.641,0.037,2.926,1.436,2.87,3.076l-0.41,12.137c8.855-10.682,13.031-21.664,12.342-32.645
		c-1.081-17.916-14.598-29.939-14.729-30.09c-1.229-1.062-1.36-2.963-0.261-4.213c1.101-1.23,2.964-1.361,4.232-0.279
		c0.634,0.521,15.492,13.852,16.741,34.172c0.765,12.211-3.579,24.256-12.845,35.777l8.743,0.801
		c1.641,0.131,2.853,1.604,2.703,3.244C701.405,2047.109,699.971,2048.34,698.33,2048.172z"/>
	<path fill="#FFFFFF" stroke="#FFFFFF" stroke-miterlimit="10" d="M560.67,1973.34l17.115,1.564c1.248,0.094,2.255,0.971,2.609,2.09
		c0.094,0.316,0.131,0.65,0.111,0.969l-0.577,17.189c-0.075,1.639-1.436,2.926-3.114,2.869c-1.64-0.037-2.926-1.436-2.87-3.076
		l0.41-12.137c-8.856,10.684-13.032,21.664-12.343,32.645c1.082,17.916,14.598,29.941,14.729,30.09
		c1.23,1.062,1.361,2.965,0.262,4.213c-1.101,1.23-2.965,1.361-4.232,0.281c-0.634-0.523-15.492-13.854-16.741-34.174
		c-0.765-12.211,3.579-24.254,12.845-35.775l-8.743-0.803c-1.641-0.129-2.853-1.604-2.704-3.242
		C557.594,1974.402,559.029,1973.189,560.67,1973.34z"/>
</g>
<rect y="-31" fill="#FFFFFF" stroke="#FFFFFF" stroke-miterlimit="10" width="300" height="9"/>
<rect x="313" fill="#FFFFFF" stroke="#FFFFFF" stroke-miterlimit="10" width="19" height="300"/>
<g>
	<circle fill="none" stroke="#FFFFFF" stroke-width="5" stroke-miterlimit="10" cx="150" cy="150" r="115.092"/>
	<g>
		<g>
			<rect x="174.277" y="113.584" fill="#FFFFFF" stroke="#FFFFFF" stroke-miterlimit="10" width="4.047" height="4.046"/>
			<rect x="174.277" y="121.676" fill="#FFFFFF" stroke="#FFFFFF" stroke-miterlimit="10" width="4.047" height="4.046"/>
			<rect x="178.324" y="117.63" fill="#FFFFFF" stroke="#FFFFFF" stroke-miterlimit="10" width="4.046" height="4.046"/>
			<rect x="186.417" y="129.77" fill="#FFFFFF" stroke="#FFFFFF" stroke-miterlimit="10" width="4.046" height="4.045"/>
			<rect x="170.23" y="117.63" fill="#FFFFFF" stroke="#FFFFFF" stroke-miterlimit="10" width="4.047" height="4.046"/>
			<path fill="#FFFFFF" stroke="#FFFFFF" stroke-miterlimit="10" d="M210.694,85.26H89.306c-2.232,0-4.047,1.814-4.047,4.046
				v109.249c0,2.233,1.814,4.046,4.047,4.046h12.138v-4.046H89.306V105.49h121.389v93.064h-12.139v4.046h12.139
				c2.231,0,4.047-1.812,4.047-4.046V89.306C214.741,87.074,212.926,85.26,210.694,85.26z M89.306,101.445v-12.14h121.389v12.14
				H89.306z"/>
			<rect x="97.397" y="93.352" fill="#FFFFFF" stroke="#FFFFFF" stroke-miterlimit="10" width="4.046" height="4.047"/>
			<rect x="105.49" y="93.352" fill="#FFFFFF" stroke="#FFFFFF" stroke-miterlimit="10" width="4.046" height="4.047"/>
			<rect x="113.583" y="93.352" fill="#FFFFFF" stroke="#FFFFFF" stroke-miterlimit="10" width="4.047" height="4.047"/>
			<rect x="125.722" y="93.352" fill="#FFFFFF" stroke="#FFFFFF" stroke-miterlimit="10" width="64.741" height="4.047"/>
			<rect x="198.556" y="93.352" fill="#FFFFFF" stroke="#FFFFFF" stroke-miterlimit="10" width="4.046" height="4.047"/>
			<rect x="154.046" y="198.555" fill="#FFFFFF" stroke="#FFFFFF" stroke-miterlimit="10" width="12.14" height="4.046"/>
			<rect x="141.906" y="198.555" fill="#FFFFFF" stroke="#FFFFFF" stroke-miterlimit="10" width="8.094" height="4.046"/>
			<rect x="182.37" y="190.463" fill="#FFFFFF" stroke="#FFFFFF" stroke-miterlimit="10" width="4.047" height="4.047"/>
			<rect x="170.23" y="190.463" fill="#FFFFFF" stroke="#FFFFFF" stroke-miterlimit="10" width="8.094" height="4.047"/>
			<path fill="#FFFFFF" stroke="#FFFFFF" stroke-miterlimit="10" d="M129.72,190.463c-1.423,0-2.802,0.396-4.026,1.111
				c-1.189-0.688-2.549-1.111-4.018-1.111c-4.464,0-8.093,3.629-8.093,8.092c0,4.464,3.629,8.094,8.093,8.094
				c1.469,0,2.828-0.423,4.018-1.111c1.225,0.713,2.604,1.111,4.026,1.111c4.462,0,8.092-3.63,8.092-8.094
				C137.812,194.092,134.182,190.463,129.72,190.463z M117.63,198.555c0-2.23,1.814-4.045,4.046-4.045
				c0.975,0,1.857,0.359,2.558,0.936c0.033,0.034,0.048,0.083,0.084,0.115c0.875,0.791,1.355,1.852,1.355,2.992
				c0,1.143-0.48,2.206-1.355,2.993c-0.036,0.032-0.051,0.081-0.084,0.115c-0.7,0.581-1.583,0.939-2.558,0.939
				C119.444,202.601,117.63,200.788,117.63,198.555z M129.72,202.601c-0.34,0-0.677-0.047-1.001-0.135
				c0.646-1.163,1.049-2.484,1.049-3.911c0-1.426-0.402-2.747-1.051-3.91c0.326-0.087,0.663-0.135,1.003-0.135
				c2.231,0,4.046,1.814,4.046,4.045C133.766,200.788,131.949,202.601,129.72,202.601z"/>
			<path fill="#FFFFFF" stroke="#FFFFFF" stroke-miterlimit="10" d="M190.463,158.094h-4.104l-45.94-45.941
				c-0.791-0.79-2.069-0.79-2.86,0l-31.475,31.476c-0.785,0.785-0.791,2.053-0.016,2.845l11.378,11.621h-7.909
				c-2.23,0-4.046,1.814-4.046,4.045v48.556c0,2.231,1.815,4.046,4.046,4.046h80.927c2.231,0,4.046-1.814,4.046-4.046v-48.556
				C194.509,159.908,192.694,158.094,190.463,158.094z M110.36,145.072l28.626-28.627l41.65,41.648h-12.025
				c-0.535-2.757-1.863-5.307-3.875-7.314c-5.521-5.521-14.51-5.521-20.027,0c-2.009,2.012-3.34,4.56-3.875,7.314h-5.978
				l-10.417-10.418c0.386-0.807,0.591-1.698,0.591-2.618c0-0.922-0.205-1.813-0.591-2.618l11.931-11.931
				c1.61,0.774,3.617,0.774,5.235,0l14.549,14.549l2.861-2.861l-15.736-15.735c-0.791-0.792-2.069-0.792-2.861,0
				c-0.769,0.764-2.099,0.766-2.859,0c-0.38-0.381-0.894-0.594-1.432-0.594c-0.539,0-1.053,0.213-1.43,0.594l-14.307,14.306
				c-0.38,0.38-0.592,0.894-0.592,1.43c0,0.538,0.212,1.056,0.592,1.434c0.383,0.38,0.594,0.886,0.594,1.428
				c0,0.54-0.211,1.048-0.594,1.43c-0.791,0.792-0.791,2.07,0,2.86l8.743,8.746h-6.024L110.36,145.072z M164.449,158.094h-19.45
				c0.463-1.668,1.327-3.211,2.571-4.455c3.941-3.941,10.36-3.941,14.305,0C163.12,154.883,163.986,156.424,164.449,158.094z
				 M190.463,162.139v8.092h-80.927v-8.092H190.463z M109.536,210.694v-24.278h68.788v-4.046h-68.788v-8.092h80.927v8.092h-8.093
				v4.046h8.095l0.002,24.278H109.536z"/>
		</g>
	</g>
</g>
</svg>
