<?xml version="1.0" encoding="utf-8"?>
<!-- Generator: Adobe Illustrator 16.0.0, SVG Export Plug-In . SVG Version: 6.00 Build 0)  -->
<!DOCTYPE svg PUBLIC "-//W3C//DTD SVG 1.1//EN" "http://www.w3.org/Graphics/SVG/1.1/DTD/svg11.dtd">
<svg version="1.1" id="Layer_1" xmlns="http://www.w3.org/2000/svg" xmlns:xlink="http://www.w3.org/1999/xlink" x="0px" y="0px"
	 width="300px" height="300px" viewBox="0 0 300 300" enable-background="new 0 0 300 300" xml:space="preserve">
<g>
	<circle fill="none" stroke="#FFFFFF" stroke-width="5" stroke-miterlimit="10" cx="150" cy="144.894" r="115.092"/>
	<g transform="translate(0,-284.29999)">
		<g>
			<path fill="#FFFFFF" d="M149.722,351.061c-0.134,0.014-0.267,0.033-0.397,0.059c-0.752,0.115-1.455,0.447-2.021,0.955
				c-0.021,0.02-0.041,0.039-0.061,0.059c-0.37,0.266-7.381,5.287-18.049,10.643c-10.945,5.492-25.195,10.869-37.792,10.869
				c-2.146,0.006-3.888,1.74-3.898,3.887v52.043c0,28.561,15.542,48.217,30.766,60.348c15.225,12.133,30.507,17.211,30.507,17.211
				c0.795,0.262,1.653,0.262,2.449,0c0,0,15.283-5.078,30.506-17.211c15.225-12.131,30.766-31.787,30.766-60.348v-52.043
				c-0.008-2.156-1.764-3.898-3.92-3.891c-12.598,0-26.832-5.377-37.777-10.869c-10.74-5.391-17.889-10.529-18.162-10.727
				c-0.582-0.518-1.305-0.85-2.076-0.953c-0.019,0-0.035,0-0.054,0c-0.116-0.016-0.233-0.025-0.351-0.031c-0.018,0-0.036,0-0.054,0
				c-0.124-0.004-0.249-0.004-0.374,0H149.722z M149.981,359.514c1.603,1.125,7.13,5.133,17.302,10.236
				c10.428,5.234,24.02,9.645,37.395,10.605v49.219c0,25.754-13.752,43.02-27.822,54.23c-13.461,10.727-25.74,14.836-26.875,15.227
				c-1.153-0.398-13.387-4.508-26.837-15.227c-14.069-11.211-27.821-28.477-27.821-54.23v-49.242
				c13.363-0.967,26.976-5.352,37.395-10.582C142.877,364.653,148.365,360.649,149.981,359.514L149.981,359.514z M149.981,386.237
				c-23.682,0-42.956,19.281-42.956,42.963s19.274,42.957,42.956,42.957c23.681,0,42.994-19.275,42.994-42.957
				S173.662,386.237,149.981,386.237L149.981,386.237z M149.981,394.055c19.46,0,35.183,15.686,35.183,35.145
				c0,19.461-15.723,35.145-35.183,35.145c-19.46,0-35.145-15.684-35.145-35.145C114.836,409.74,130.521,394.055,149.981,394.055z
				 M169.318,407.047c-2.508,0-5.021,0.949-6.91,2.838l-17.927,17.934l-6.919-6.896c-3.777-3.777-10.038-3.777-13.815,0
				s-3.777,10.039,0,13.816l13.815,13.807c3.777,3.777,10.03,3.777,13.807,0l24.854-24.854c3.777-3.777,3.777-10.031,0-13.809
				c-1.889-1.889-4.395-2.838-6.904-2.838V407.047z M169.334,414.781c0.49,0,0.975,0.203,1.383,0.609
				c0.811,0.814,0.811,1.949,0,2.762l-24.855,24.854c-0.812,0.814-1.956,0.814-2.769,0l-13.808-13.807
				c-0.813-0.814-0.813-1.957,0-2.77c0.812-0.814,1.956-0.814,2.769,0l12.427,12.457l23.466-23.496
				C168.354,414.985,168.846,414.781,169.334,414.781L169.334,414.781z"/>
		</g>
	</g>
</g>
</svg>
