<?xml version="1.0" encoding="utf-8"?>
<!-- Generator: Adobe Illustrator 16.0.0, SVG Export Plug-In . SVG Version: 6.00 Build 0)  -->
<!DOCTYPE svg PUBLIC "-//W3C//DTD SVG 1.1//EN" "http://www.w3.org/Graphics/SVG/1.1/DTD/svg11.dtd">
<svg version="1.1" id="Layer_1" xmlns="http://www.w3.org/2000/svg" xmlns:xlink="http://www.w3.org/1999/xlink" x="0px" y="0px"
	 width="300px" height="300px" viewBox="0 0 300 300" enable-background="new 0 0 300 300" xml:space="preserve">
<circle fill="none" stroke="#FFFFFF" stroke-width="5" stroke-miterlimit="10" cx="629.5" cy="2009.432" r="115.092"/>
<g>
	<path fill="#FFFFFF" stroke="#FFFFFF" stroke-miterlimit="10" d="M630.898,2009.822c-25.709-11.688-31.824-38.068-33.147-46.494
		l63.629,0.092c-1.101,7.625-5.612,29.811-21.869,41.201c-1.081,0.746-1.379,2.312-0.597,3.395c0.485,0.689,1.231,1.043,2.014,1.043
		c0.485,0,0.988-0.094,1.436-0.447c20.302-14.188,23.732-42.338,24.18-47.055c0.057-0.299,0.057-0.484,0.057-0.598l0.019-7.438
		c0-1.379-1.082-2.461-2.461-2.461l-69.128-0.111c-1.379,0-2.461,1.08-2.461,2.461l-0.019,7.438c0,0.15,0,0.336,0.056,0.484
		c0.336,4.084,4.213,38.33,36.279,52.947c27.834,12.641,31.973,33.893,32.551,40.996l-63.871-0.094
		c0.895-6.842,5.053-25.727,22.596-36.186c1.174-0.689,1.584-2.219,0.895-3.395c-0.727-1.137-2.219-1.527-3.393-0.838
		c-23.732,14.188-25.205,41.293-25.262,42.711l-0.019,7.867c0,1.324,1.081,2.461,2.461,2.461l69.128,0.111
		c1.38,0,2.461-1.117,2.461-2.461l0.019-7.717C666.506,2055.74,666.655,2026.08,630.898,2009.822z M597.472,1955.908l64.206,0.092
		l0.037,2.518l-64.262-0.094L597.472,1955.908z M661.528,2063.012l-64.206-0.094v-2.797l64.206,0.094V2063.012z"/>
	<path fill="#FFFFFF" stroke="#FFFFFF" stroke-miterlimit="10" d="M698.33,2048.172l-17.115-1.566
		c-1.249-0.094-2.256-0.969-2.609-2.088c-0.094-0.316-0.131-0.652-0.112-0.969l0.578-17.189c0.075-1.641,1.436-2.928,3.114-2.871
		c1.641,0.037,2.926,1.436,2.87,3.076l-0.41,12.137c8.855-10.682,13.031-21.664,12.342-32.645
		c-1.081-17.916-14.598-29.939-14.729-30.09c-1.229-1.062-1.36-2.963-0.261-4.213c1.101-1.23,2.964-1.361,4.232-0.279
		c0.634,0.521,15.492,13.852,16.741,34.172c0.765,12.211-3.579,24.256-12.845,35.777l8.743,0.801
		c1.641,0.131,2.853,1.604,2.703,3.244C701.405,2047.109,699.971,2048.34,698.33,2048.172z"/>
	<path fill="#FFFFFF" stroke="#FFFFFF" stroke-miterlimit="10" d="M560.67,1973.34l17.115,1.564c1.248,0.094,2.255,0.971,2.609,2.09
		c0.094,0.316,0.131,0.65,0.111,0.969l-0.577,17.189c-0.075,1.639-1.436,2.926-3.114,2.869c-1.64-0.037-2.926-1.436-2.87-3.076
		l0.41-12.137c-8.856,10.684-13.032,21.664-12.343,32.645c1.082,17.916,14.598,29.941,14.729,30.09
		c1.23,1.062,1.361,2.965,0.262,4.213c-1.101,1.23-2.965,1.361-4.232,0.281c-0.634-0.523-15.492-13.854-16.741-34.174
		c-0.765-12.211,3.579-24.254,12.845-35.775l-8.743-0.803c-1.641-0.129-2.853-1.604-2.704-3.242
		C557.594,1974.402,559.029,1973.189,560.67,1973.34z"/>
</g>
<rect y="-31" fill="#FFFFFF" stroke="#FFFFFF" stroke-miterlimit="10" width="300" height="9"/>
<rect x="313" fill="#FFFFFF" stroke="#FFFFFF" stroke-miterlimit="10" width="19" height="300"/>
<g>
	<circle fill="none" stroke="#FFFFFF" stroke-width="5" stroke-miterlimit="10" cx="150" cy="150" r="115.092"/>
	<g>
		<path fill="#FFFFFF" d="M221.467,150c0,36.211-29.359,65.572-65.57,65.572S90.324,186.211,90.324,150
			c0-0.588,0.195-1.174,0.393-1.566l-6.459,6.461c-0.588,0.586-1.566,0.979-2.35,0.979s-1.762-0.393-2.35-0.979
			c-1.369-1.371-1.369-3.523,0-4.699l11.939-11.939c0.197-0.195,0.393-0.391,0.783-0.588c0.783-0.391,1.762-0.586,2.74-0.195
			c0.393,0.195,0.979,0.393,1.371,0.783l11.939,11.939c1.371,1.371,1.371,3.523,0,4.699c-0.588,0.586-1.566,0.979-2.348,0.979
			c-0.783,0-1.762-0.393-2.35-0.979l-6.459-6.461c0.195,0.393,0.391,0.979,0.391,1.566c0,32.492,26.424,58.916,58.916,58.916
			S215.4,182.492,215.4,150s-26.426-58.916-58.918-58.916c-16.049,0-30.926,6.264-42.082,17.812c-1.371,1.369-3.523,1.369-4.697,0
			c-1.371-1.371-1.371-3.523,0-4.699c12.527-12.723,29.164-19.77,46.977-19.77C192.107,84.428,221.467,113.789,221.467,150z
			 M174.883,126.121l-43.648,43.648c-1.371,1.371-1.371,3.523,0,4.697c0.586,0.588,1.564,0.979,2.348,0.979s1.762-0.391,2.348-0.979
			l43.65-43.648c1.369-1.371,1.369-3.523,0-4.697C178.404,124.75,176.252,124.75,174.883,126.121z M148.459,126.709
			c4.893,4.893,4.893,12.918,0,17.811c-2.547,2.545-5.678,3.719-8.809,3.719c-3.133,0-6.459-1.174-8.809-3.719
			c-4.895-4.893-4.895-12.918,0-17.811C135.539,121.814,143.564,121.814,148.459,126.709z M143.564,131.406
			c-1.174-1.176-2.545-1.762-4.111-1.762c-1.564,0-2.936,0.586-4.109,1.762c-2.348,2.348-2.348,5.871,0,8.221
			c2.35,2.348,5.871,2.348,8.221,0C145.912,137.473,145.912,133.754,143.564,131.406z M172.338,151.957
			c3.328,0,6.459,1.371,8.809,3.721c4.893,4.893,4.893,12.918,0,17.811c-2.35,2.35-5.48,3.719-8.809,3.719s-6.459-1.369-8.809-3.719
			c-4.893-4.893-4.893-12.918,0-17.811C165.879,153.133,169.01,151.957,172.338,151.957z M176.449,160.375
			c-1.176-1.176-2.545-1.762-4.111-1.762s-2.936,0.586-4.111,1.762c-2.348,2.348-2.348,5.871,0,8.221
			c1.176,1.174,2.545,1.762,4.111,1.762s2.936-0.588,4.111-1.762C178.797,166.246,178.797,162.527,176.449,160.375z"/>
	</g>
</g>
</svg>
