<?xml version="1.0" encoding="utf-8"?>
<!-- Generator: Adobe Illustrator 16.0.0, SVG Export Plug-In . SVG Version: 6.00 Build 0)  -->
<!DOCTYPE svg PUBLIC "-//W3C//DTD SVG 1.1//EN" "http://www.w3.org/Graphics/SVG/1.1/DTD/svg11.dtd">
<svg version="1.1" id="Layer_1" xmlns="http://www.w3.org/2000/svg" xmlns:xlink="http://www.w3.org/1999/xlink" x="0px" y="0px"
	 width="300px" height="300px" viewBox="0 0 300 300" enable-background="new 0 0 300 300" xml:space="preserve">
<circle fill="none" stroke="#FFFFFF" stroke-width="5" stroke-miterlimit="10" cx="629.5" cy="2009.432" r="115.092"/>
<g>
	<path fill="#FFFFFF" stroke="#FFFFFF" stroke-miterlimit="10" d="M630.898,2009.822c-25.709-11.688-31.824-38.068-33.147-46.494
		l63.629,0.092c-1.101,7.625-5.612,29.811-21.869,41.201c-1.081,0.746-1.379,2.312-0.597,3.395c0.485,0.689,1.231,1.043,2.014,1.043
		c0.485,0,0.988-0.094,1.436-0.447c20.302-14.188,23.732-42.338,24.18-47.055c0.057-0.299,0.057-0.484,0.057-0.598l0.019-7.438
		c0-1.379-1.082-2.461-2.461-2.461l-69.128-0.111c-1.379,0-2.461,1.08-2.461,2.461l-0.019,7.438c0,0.15,0,0.336,0.056,0.484
		c0.336,4.084,4.213,38.33,36.279,52.947c27.834,12.641,31.973,33.893,32.551,40.996l-63.871-0.094
		c0.895-6.842,5.053-25.727,22.596-36.186c1.174-0.689,1.584-2.219,0.895-3.395c-0.727-1.137-2.219-1.527-3.393-0.838
		c-23.732,14.188-25.205,41.293-25.262,42.711l-0.019,7.867c0,1.324,1.081,2.461,2.461,2.461l69.128,0.111
		c1.38,0,2.461-1.117,2.461-2.461l0.019-7.717C666.506,2055.74,666.655,2026.08,630.898,2009.822z M597.472,1955.908l64.206,0.092
		l0.037,2.518l-64.262-0.094L597.472,1955.908z M661.528,2063.012l-64.206-0.094v-2.797l64.206,0.094V2063.012z"/>
	<path fill="#FFFFFF" stroke="#FFFFFF" stroke-miterlimit="10" d="M698.33,2048.172l-17.115-1.566
		c-1.249-0.094-2.256-0.969-2.609-2.088c-0.094-0.316-0.131-0.652-0.112-0.969l0.578-17.189c0.075-1.641,1.436-2.928,3.114-2.871
		c1.641,0.037,2.926,1.436,2.87,3.076l-0.41,12.137c8.855-10.682,13.031-21.664,12.342-32.645
		c-1.081-17.916-14.598-29.939-14.729-30.09c-1.229-1.062-1.36-2.963-0.261-4.213c1.101-1.23,2.964-1.361,4.232-0.279
		c0.634,0.521,15.492,13.852,16.741,34.172c0.765,12.211-3.579,24.256-12.845,35.777l8.743,0.801
		c1.641,0.131,2.853,1.604,2.703,3.244C701.405,2047.109,699.971,2048.34,698.33,2048.172z"/>
	<path fill="#FFFFFF" stroke="#FFFFFF" stroke-miterlimit="10" d="M560.67,1973.34l17.115,1.564c1.248,0.094,2.255,0.971,2.609,2.09
		c0.094,0.316,0.131,0.65,0.111,0.969l-0.577,17.189c-0.075,1.639-1.436,2.926-3.114,2.869c-1.64-0.037-2.926-1.436-2.87-3.076
		l0.41-12.137c-8.856,10.684-13.032,21.664-12.343,32.645c1.082,17.916,14.598,29.941,14.729,30.09
		c1.23,1.062,1.361,2.965,0.262,4.213c-1.101,1.23-2.965,1.361-4.232,0.281c-0.634-0.523-15.492-13.854-16.741-34.174
		c-0.765-12.211,3.579-24.254,12.845-35.775l-8.743-0.803c-1.641-0.129-2.853-1.604-2.704-3.242
		C557.594,1974.402,559.029,1973.189,560.67,1973.34z"/>
</g>
<rect y="-31" fill="#FFFFFF" stroke="#FFFFFF" stroke-miterlimit="10" width="300" height="9"/>
<rect x="313" fill="#FFFFFF" stroke="#FFFFFF" stroke-miterlimit="10" width="19" height="300"/>
<g>
	<circle fill="none" stroke="#FFFFFF" stroke-width="5" stroke-miterlimit="10" cx="150" cy="150" r="115.092"/>
	<g transform="translate(0,-952.36218)">
		<g>
			<path fill="#FFFFFF" stroke="#FFFFFF" stroke-miterlimit="10" d="M92.534,1048.891c-1.477,0-2.674,1.197-2.674,2.674
				s1.197,2.674,2.674,2.674h16.542l14.078,66.504c0.342,1.644,1.438,3.024,2.799,3.008h66.838c1.412,0.021,2.711-1.261,2.711-2.674
				s-1.299-2.693-2.711-2.673h-64.666l-2.257-10.695h72.27c1.197-0.013,2.328-0.92,2.59-2.088l9.357-40.104
				c0.348-1.551-1-3.246-2.592-3.258h-91.233l-2.381-11.279c-0.265-1.182-1.421-2.099-2.632-2.088L92.534,1048.891z
				 M117.389,1067.606h23.686l2.465,14.704h-23.018L117.389,1067.606z M146.463,1067.606h28.49l-2.465,14.704h-23.56
				L146.463,1067.606z M180.342,1067.606h23.812l-3.426,14.704h-22.852L180.342,1067.606z M121.65,1087.658h22.767l2.465,14.704
				h-22.141L121.65,1087.658z M149.847,1087.658h21.723l-2.424,14.704h-16.875L149.847,1087.658z M177,1087.658h22.475
				l-3.467,14.704h-21.473L177,1087.658z M140.657,1131.771c-6.612,0-12.031,5.418-12.031,12.03c0,6.613,5.419,12.031,12.031,12.031
				c6.613,0,12.031-5.418,12.031-12.031C152.688,1137.189,147.27,1131.771,140.657,1131.771z M178.086,1131.771
				c-6.611,0-12.031,5.418-12.031,12.03c0,6.613,5.42,12.031,12.031,12.031c6.613,0,12.031-5.418,12.031-12.031
				C190.117,1137.189,184.699,1131.771,178.086,1131.771z M140.657,1137.118c3.724,0,6.684,2.961,6.684,6.684
				c0,3.724-2.96,6.685-6.684,6.685c-3.723,0-6.684-2.961-6.684-6.685C133.973,1140.079,136.934,1137.118,140.657,1137.118z
				 M178.086,1137.118c3.725,0,6.684,2.961,6.684,6.684c0,3.724-2.959,6.685-6.684,6.685c-3.723,0-6.684-2.961-6.684-6.685
				C171.402,1140.079,174.363,1137.118,178.086,1137.118z"/>
		</g>
	</g>
</g>
</svg>
