<?xml version="1.0" encoding="utf-8"?>
<!-- Generator: Adobe Illustrator 16.0.0, SVG Export Plug-In . SVG Version: 6.00 Build 0)  -->
<!DOCTYPE svg PUBLIC "-//W3C//DTD SVG 1.1//EN" "http://www.w3.org/Graphics/SVG/1.1/DTD/svg11.dtd">
<svg version="1.1" id="Layer_1" xmlns="http://www.w3.org/2000/svg" xmlns:xlink="http://www.w3.org/1999/xlink" x="0px" y="0px"
	 width="67.5px" height="61.75px" viewBox="0 0 67.5 61.75" enable-background="new 0 0 67.5 61.75" xml:space="preserve">
<g>
	<path fill="#005E9C" d="M34.501,13.431c5.885,0,6.582,0.022,8.906,0.128c2.148,0.098,3.316,0.458,4.092,0.758
		c1.029,0.401,1.764,0.879,2.535,1.65s1.249,1.505,1.648,2.534c0.303,0.776,0.661,1.943,0.76,4.092
		c0.105,2.325,0.127,3.021,0.127,8.907s-0.021,6.582-0.127,8.907c-0.099,2.148-0.457,3.315-0.76,4.092
		c-0.399,1.029-0.877,1.763-1.648,2.534s-1.506,1.249-2.535,1.649c-0.775,0.302-1.943,0.661-4.092,0.759
		c-2.324,0.105-3.021,0.128-8.906,0.128c-5.887,0-6.584-0.022-8.907-0.128c-2.149-0.098-3.315-0.457-4.093-0.759
		c-1.029-0.4-1.764-0.878-2.534-1.649c-0.771-0.771-1.249-1.505-1.649-2.534c-0.301-0.776-0.66-1.943-0.758-4.092
		c-0.107-2.325-0.129-3.021-0.129-8.907s0.021-6.582,0.129-8.907c0.098-2.148,0.457-3.315,0.758-4.092
		c0.4-1.029,0.878-1.763,1.649-2.534c0.771-0.771,1.505-1.249,2.534-1.65c0.777-0.3,1.943-0.66,4.093-0.758
		C27.918,13.453,28.614,13.431,34.501,13.431 M34.501,9.459c-5.986,0-6.736,0.024-9.088,0.131c-2.346,0.107-3.949,0.481-5.351,1.026
		c-1.449,0.562-2.679,1.317-3.903,2.541c-1.227,1.227-1.98,2.455-2.543,3.905c-0.545,1.401-0.918,3.004-1.024,5.35
		c-0.107,2.352-0.133,3.102-0.133,9.088s0.025,6.736,0.133,9.088c0.106,2.346,0.479,3.948,1.024,5.35
		c0.562,1.449,1.316,2.679,2.543,3.904c1.225,1.225,2.454,1.979,3.903,2.543c1.401,0.544,3.005,0.918,5.351,1.024
		c2.352,0.107,3.102,0.132,9.088,0.132s6.736-0.024,9.087-0.132c2.347-0.106,3.948-0.48,5.351-1.024
		c1.449-0.563,2.678-1.318,3.903-2.543c1.226-1.226,1.979-2.455,2.543-3.904c0.544-1.401,0.917-3.004,1.024-5.35
		c0.107-2.352,0.133-3.102,0.133-9.088s-0.025-6.736-0.133-9.088c-0.107-2.346-0.48-3.948-1.024-5.35
		c-0.563-1.45-1.317-2.679-2.543-3.905c-1.226-1.224-2.454-1.979-3.903-2.541c-1.402-0.545-3.004-0.919-5.351-1.026
		C41.237,9.483,40.487,9.459,34.501,9.459z M34.501,20.182c-6.252,0-11.318,5.067-11.318,11.318s5.066,11.318,11.318,11.318
		c6.25,0,11.318-5.067,11.318-11.318S40.751,20.182,34.501,20.182z M34.501,38.847c-4.059,0-7.348-3.289-7.348-7.347
		s3.289-7.348,7.348-7.348c4.057,0,7.347,3.29,7.347,7.348S38.558,38.847,34.501,38.847z M48.911,19.734
		c0,1.46-1.185,2.644-2.645,2.644c-1.461,0-2.646-1.184-2.646-2.644c0-1.461,1.185-2.646,2.646-2.646
		C47.727,17.088,48.911,18.273,48.911,19.734z"/>
</g>
</svg>
