<?xml version="1.0" encoding="utf-8"?>
<!-- Generator: Adobe Illustrator 16.0.0, SVG Export Plug-In . SVG Version: 6.00 Build 0)  -->
<!DOCTYPE svg PUBLIC "-//W3C//DTD SVG 1.1//EN" "http://www.w3.org/Graphics/SVG/1.1/DTD/svg11.dtd">
<svg version="1.1" id="Layer_1" xmlns="http://www.w3.org/2000/svg" xmlns:xlink="http://www.w3.org/1999/xlink" x="0px" y="0px"
	 width="120px" height="30.5px" viewBox="0 0 120 30.5" enable-background="new 0 0 120 30.5" xml:space="preserve">
<g>
	<g>
		<path fill="#FFFFFF" d="M36.724,12.252c-0.097-0.105-0.236-0.218-0.418-0.338s-0.396-0.232-0.642-0.338
			c-0.245-0.105-0.516-0.192-0.813-0.259c-0.298-0.067-0.615-0.101-0.951-0.101c-0.634,0-1.114,0.125-1.44,0.375
			c-0.328,0.25-0.49,0.6-0.49,1.052c0,0.25,0.052,0.453,0.158,0.612c0.106,0.159,0.265,0.295,0.476,0.411
			c0.211,0.115,0.475,0.219,0.792,0.309c0.317,0.092,0.688,0.19,1.11,0.295c0.499,0.135,0.958,0.274,1.375,0.417
			c0.418,0.145,0.773,0.325,1.067,0.541c0.292,0.217,0.521,0.483,0.685,0.8c0.164,0.317,0.245,0.711,0.245,1.181
			c0,0.538-0.101,0.994-0.303,1.369s-0.473,0.68-0.813,0.914c-0.341,0.236-0.738,0.409-1.189,0.519s-0.931,0.165-1.441,0.165
			c-0.777,0-1.531-0.116-2.261-0.352c-0.73-0.236-1.388-0.579-1.973-1.03l0.749-1.382c0.125,0.125,0.303,0.265,0.533,0.418
			c0.231,0.153,0.502,0.294,0.814,0.424c0.312,0.13,0.655,0.241,1.03,0.333c0.374,0.09,0.763,0.136,1.167,0.136
			c0.614,0,1.092-0.112,1.433-0.338c0.341-0.225,0.511-0.554,0.511-0.986c0-0.26-0.062-0.476-0.187-0.649
			c-0.125-0.173-0.308-0.324-0.548-0.454c-0.24-0.129-0.533-0.245-0.878-0.346c-0.346-0.1-0.74-0.209-1.181-0.324
			c-0.51-0.134-0.954-0.275-1.333-0.425c-0.378-0.149-0.694-0.328-0.943-0.541c-0.25-0.211-0.439-0.458-0.569-0.742
			c-0.129-0.283-0.194-0.627-0.194-1.029c0-0.5,0.093-0.944,0.282-1.333c0.187-0.389,0.447-0.715,0.777-0.979
			c0.331-0.264,0.723-0.463,1.174-0.598c0.452-0.135,0.936-0.202,1.455-0.202c0.71,0,1.356,0.11,1.938,0.331
			c0.58,0.222,1.091,0.496,1.534,0.822L36.724,12.252z"/>
		<path fill="#FFFFFF" d="M39.504,20.075V9.861h1.614v10.214H39.504z"/>
		<path fill="#FFFFFF" d="M45.037,12.871v7.204h-1.615V9.846h1.268l5.848,7.375v-7.36h1.629v10.214h-1.34L45.037,12.871z"/>
		<path fill="#FFFFFF" d="M61.486,18.648v1.427H54.47V9.846h6.886v1.427h-5.272v2.91h4.566v1.339h-4.566v3.126H61.486z"/>
		<path fill="#FFFFFF" d="M63.215,20.075V9.846h4.45c0.461,0,0.887,0.097,1.275,0.289c0.389,0.192,0.723,0.445,1.001,0.756
			c0.279,0.312,0.498,0.667,0.655,1.066c0.159,0.398,0.239,0.804,0.239,1.217c0,0.346-0.049,0.678-0.146,0.994
			c-0.095,0.317-0.229,0.61-0.402,0.879c-0.174,0.27-0.385,0.502-0.634,0.699c-0.25,0.197-0.524,0.344-0.822,0.439l2.436,3.89
			h-1.829l-2.248-3.559h-2.362v3.559H63.215z M64.828,15.09h2.823c0.229,0,0.439-0.05,0.626-0.151
			c0.188-0.101,0.348-0.241,0.484-0.418c0.133-0.178,0.238-0.381,0.316-0.612c0.077-0.231,0.115-0.475,0.115-0.735
			c0-0.259-0.046-0.504-0.138-0.735c-0.091-0.23-0.212-0.432-0.36-0.605c-0.148-0.172-0.321-0.309-0.519-0.41
			c-0.196-0.101-0.401-0.151-0.611-0.151h-2.737V15.09z"/>
		<path fill="#FFFFFF" d="M79.909,18.806c-0.834,0.895-1.81,1.34-2.924,1.34c-0.661,0-1.284-0.146-1.864-0.438
			c-0.582-0.294-1.086-0.683-1.515-1.167c-0.427-0.485-0.762-1.042-1.007-1.672c-0.245-0.629-0.367-1.28-0.367-1.952
			c0-0.692,0.122-1.35,0.367-1.974c0.245-0.624,0.58-1.171,1.007-1.642c0.429-0.47,0.936-0.842,1.521-1.116
			c0.586-0.274,1.225-0.411,1.917-0.411c0.96,0,1.767,0.204,2.42,0.612c0.654,0.409,1.146,0.949,1.483,1.621L79.709,12.9
			c-0.278-0.557-0.655-0.975-1.131-1.253c-0.477-0.279-1.002-0.418-1.577-0.418c-0.472,0-0.898,0.103-1.283,0.309
			c-0.384,0.207-0.712,0.481-0.985,0.821c-0.274,0.341-0.485,0.738-0.634,1.189C73.949,14,73.875,14.47,73.875,14.96
			c0,0.519,0.081,1.004,0.244,1.455c0.163,0.452,0.391,0.846,0.685,1.181c0.293,0.336,0.636,0.603,1.03,0.799
			c0.394,0.198,0.821,0.295,1.281,0.295c1.038,0,1.969-0.503,2.794-1.512v-1.08h-2.146v-1.196h3.501v5.172h-1.355V18.806z"/>
		<path fill="#FFFFFF" d="M83.137,20.075V9.861h1.613v10.214H83.137z"/>
		<path fill="#FFFFFF" d="M93.12,12.252c-0.097-0.105-0.236-0.218-0.418-0.338c-0.183-0.12-0.396-0.232-0.642-0.338
			c-0.245-0.105-0.516-0.192-0.813-0.259s-0.615-0.101-0.95-0.101c-0.634,0-1.114,0.125-1.44,0.375s-0.49,0.6-0.49,1.052
			c0,0.25,0.052,0.453,0.158,0.612c0.105,0.159,0.265,0.295,0.476,0.411c0.211,0.115,0.475,0.219,0.792,0.309
			c0.316,0.092,0.687,0.19,1.109,0.295c0.499,0.135,0.959,0.274,1.375,0.417c0.419,0.145,0.774,0.325,1.067,0.541
			c0.292,0.217,0.521,0.483,0.684,0.8c0.164,0.317,0.245,0.711,0.245,1.181c0,0.538-0.101,0.994-0.303,1.369
			s-0.474,0.68-0.814,0.914c-0.34,0.236-0.736,0.409-1.188,0.519c-0.451,0.11-0.932,0.165-1.44,0.165
			c-0.777,0-1.531-0.116-2.261-0.352c-0.73-0.236-1.388-0.579-1.974-1.03l0.749-1.382c0.124,0.125,0.303,0.265,0.532,0.418
			c0.231,0.153,0.502,0.294,0.814,0.424c0.312,0.13,0.655,0.241,1.03,0.333c0.374,0.09,0.763,0.136,1.167,0.136
			c0.613,0,1.091-0.112,1.433-0.338c0.342-0.225,0.512-0.554,0.512-0.986c0-0.26-0.063-0.476-0.188-0.649
			c-0.125-0.173-0.308-0.324-0.548-0.454c-0.24-0.129-0.532-0.245-0.879-0.346c-0.346-0.1-0.739-0.209-1.18-0.324
			c-0.51-0.134-0.954-0.275-1.334-0.425c-0.378-0.149-0.693-0.328-0.943-0.541c-0.249-0.211-0.438-0.458-0.569-0.742
			c-0.128-0.283-0.194-0.627-0.194-1.029c0-0.5,0.094-0.944,0.282-1.333c0.187-0.389,0.445-0.715,0.777-0.979
			c0.331-0.264,0.723-0.463,1.174-0.598c0.452-0.135,0.936-0.202,1.455-0.202c0.71,0,1.356,0.11,1.938,0.331
			c0.581,0.222,1.092,0.496,1.534,0.822L93.12,12.252z"/>
		<path fill="#FFFFFF" d="M104.499,20.075v-7.362l-3.039,5.576h-0.894l-3.053-5.576v7.362H95.9V9.846h1.728l3.386,6.252l3.385-6.252
			h1.729v10.229H104.499z"/>
		<path fill="#FFFFFF" d="M115.448,18.648v1.427h-7.017V9.846h6.887v1.427h-5.272v2.91h4.566v1.339h-4.566v3.126H115.448z"/>
	</g>
	<path fill="#FFFFFF" d="M15.333,22.264c-3.561-2.045-7.099-4.077-10.639-6.11c-0.026-0.089-0.08-0.178-0.078-0.266
		c0.119-5.861-1.037-4.026,4.118-7.101c1.093-0.651,2.185-1.311,3.316-1.888c1.085-0.555,1.998-1.433,3.238-1.743
		c0.767,0.11,1.39,0.508,2.114,1.134c-2.767,1.608-5.464,3.177-8.175,4.753c0.438,0.818,1.268,0.807,1.736,1.375
		c2.93-1.692,5.771-3.334,8.645-4.996c2.077,1.215,4.124,2.411,6.43,3.76c-3.768,2.172-7.244,4.178-10.732,6.191
		c-0.698-0.424-1.341-0.813-2.137-1.295c2.832-1.638,5.568-3.22,8.464-4.896c-0.792-0.472-1.382-0.824-2.01-1.197
		c-2.858,1.638-5.707,3.271-8.562,4.907c-1.384-0.792-2.716-1.554-4.158-2.379c0,0.842,0,1.532,0,2.342
		c2.754,1.606,5.554,3.238,8.408,4.904c3.475-2.006,6.929-4,10.557-6.094c0,2.507,0,4.828,0,7.45
		c-3.368,1.942-6.891,3.976-10.537,6.081c-3.414-1.972-6.816-3.884-10.156-5.897c-0.977-0.589-0.491-1.718-0.571-2.795
		c3.603,2.068,7.098,4.075,10.732,6.162c2.809-1.624,5.681-3.285,8.553-4.946c0-0.77,0-1.471,0-2.353
		C21.032,19,18.264,20.585,15.333,22.264z"/>
</g>
</svg>
