<?xml version="1.0" encoding="utf-8"?>
<!-- Generator: Adobe Illustrator 16.0.0, SVG Export Plug-In . SVG Version: 6.00 Build 0)  -->
<!DOCTYPE svg PUBLIC "-//W3C//DTD SVG 1.1//EN" "http://www.w3.org/Graphics/SVG/1.1/DTD/svg11.dtd">
<svg version="1.1" id="Layer_1" xmlns="http://www.w3.org/2000/svg" xmlns:xlink="http://www.w3.org/1999/xlink" x="0px" y="0px"
	 width="321.367px" height="79.487px" viewBox="0 0 321.367 79.487" enable-background="new 0 0 321.367 79.487"
	 xml:space="preserve">
<g>
	<g>
		<path fill="#0162A0" d="M108.847,31.204c-0.23-0.252-0.564-0.523-1.001-0.811c-0.438-0.288-0.95-0.558-1.536-0.812
			c-0.587-0.253-1.237-0.461-1.951-0.621c-0.713-0.161-1.473-0.242-2.278-0.242c-1.519,0-2.67,0.3-3.452,0.898
			c-0.782,0.598-1.173,1.438-1.173,2.519c0,0.598,0.126,1.087,0.379,1.467c0.253,0.379,0.633,0.707,1.139,0.983
			c0.507,0.276,1.139,0.524,1.899,0.742c0.76,0.219,1.645,0.454,2.658,0.708c1.197,0.322,2.295,0.655,3.296,1.001
			c1.001,0.345,1.853,0.776,2.555,1.294c0.701,0.518,1.248,1.156,1.639,1.916c0.391,0.759,0.587,1.703,0.587,2.83
			c0,1.289-0.242,2.382-0.726,3.279s-1.134,1.628-1.95,2.191c-0.817,0.564-1.766,0.979-2.848,1.243
			c-1.081,0.264-2.232,0.396-3.451,0.396c-1.865,0-3.671-0.281-5.419-0.845c-1.75-0.564-3.326-1.387-4.729-2.469l1.795-3.313
			c0.298,0.3,0.724,0.634,1.276,1.001c0.553,0.368,1.202,0.708,1.951,1.019c0.748,0.311,1.57,0.575,2.468,0.794
			c0.897,0.219,1.829,0.327,2.796,0.327c1.472,0,2.617-0.27,3.434-0.811c0.816-0.54,1.225-1.329,1.225-2.364
			c0-0.621-0.15-1.139-0.449-1.554c-0.299-0.414-0.737-0.776-1.312-1.087c-0.575-0.311-1.276-0.587-2.105-0.829
			c-0.828-0.241-1.772-0.501-2.83-0.776c-1.22-0.321-2.284-0.661-3.193-1.019c-0.909-0.355-1.662-0.787-2.26-1.294
			c-0.6-0.506-1.053-1.099-1.364-1.778c-0.311-0.678-0.466-1.501-0.466-2.467c0-1.196,0.224-2.262,0.673-3.193
			c0.449-0.932,1.07-1.714,1.864-2.347c0.793-0.633,1.731-1.11,2.812-1.433c1.082-0.322,2.244-0.483,3.487-0.483
			c1.702,0,3.25,0.265,4.643,0.794c1.391,0.529,2.617,1.186,3.676,1.968L108.847,31.204z"/>
		<path fill="#0162A0" d="M115.509,49.947V25.474h3.866v24.473H115.509z"/>
		<path fill="#0162A0" d="M128.763,32.688v17.259h-3.866V25.439h3.037l14.014,17.672V25.474h3.901v24.473h-3.21L128.763,32.688z"/>
		<path fill="#0162A0" d="M168.18,46.529v3.418h-16.809V25.439h16.499v3.417h-12.632v6.973h10.941v3.209h-10.941v7.49H168.18z"/>
		<path fill="#0162A0" d="M172.322,49.947V25.439h10.665c1.104,0,2.124,0.23,3.055,0.69c0.933,0.461,1.731,1.065,2.399,1.812
			c0.667,0.748,1.19,1.6,1.57,2.555s0.57,1.928,0.57,2.916c0,0.829-0.116,1.623-0.346,2.382c-0.23,0.76-0.553,1.461-0.967,2.105
			c-0.414,0.645-0.92,1.203-1.52,1.674c-0.598,0.472-1.254,0.823-1.967,1.053l5.834,9.32h-4.385l-5.384-8.526h-5.66v8.526H172.322z
			 M176.188,38.003h6.765c0.552,0,1.053-0.12,1.502-0.362c0.447-0.241,0.833-0.575,1.156-1.001c0.321-0.426,0.574-0.914,0.76-1.466
			c0.184-0.553,0.275-1.139,0.275-1.761c0-0.621-0.109-1.208-0.328-1.76c-0.219-0.552-0.506-1.035-0.862-1.45
			c-0.357-0.414-0.772-0.742-1.243-0.983c-0.473-0.242-0.961-0.362-1.467-0.362h-6.558V38.003z"/>
		<path fill="#0162A0" d="M212.326,46.909c-2.002,2.142-4.337,3.21-7.007,3.21c-1.587,0-3.077-0.35-4.47-1.053
			c-1.393-0.701-2.601-1.633-3.625-2.795c-1.023-1.162-1.828-2.496-2.415-4.004c-0.587-1.507-0.88-3.067-0.88-4.678
			c0-1.656,0.293-3.232,0.88-4.729c0.587-1.495,1.392-2.807,2.415-3.935c1.024-1.127,2.238-2.019,3.643-2.674
			c1.403-0.656,2.934-0.984,4.59-0.984c2.302,0,4.234,0.488,5.8,1.468c1.565,0.978,2.749,2.272,3.556,3.883l-2.969,2.14
			c-0.668-1.335-1.571-2.336-2.71-3.004c-1.14-0.667-2.399-1-3.779-1c-1.128,0-2.151,0.248-3.072,0.742
			c-0.921,0.496-1.708,1.151-2.364,1.968c-0.656,0.817-1.162,1.767-1.519,2.848c-0.356,1.083-0.535,2.21-0.535,3.383
			c0,1.243,0.194,2.406,0.586,3.486c0.392,1.082,0.938,2.025,1.64,2.831c0.702,0.805,1.524,1.443,2.469,1.915
			c0.943,0.473,1.968,0.708,3.071,0.708c2.486,0,4.718-1.209,6.696-3.624V40.42h-5.143v-2.865h8.388v12.392h-3.245V46.909z"/>
		<path fill="#0162A0" d="M220.059,49.947V25.474h3.866v24.473H220.059z"/>
		<path fill="#0162A0" d="M243.979,31.204c-0.23-0.252-0.563-0.523-1-0.811c-0.438-0.288-0.951-0.558-1.537-0.812
			c-0.587-0.253-1.237-0.461-1.95-0.621c-0.714-0.161-1.474-0.242-2.278-0.242c-1.519,0-2.67,0.3-3.451,0.898
			c-0.782,0.598-1.174,1.438-1.174,2.519c0,0.598,0.126,1.087,0.379,1.467c0.254,0.379,0.633,0.707,1.14,0.983
			s1.139,0.524,1.898,0.742c0.76,0.219,1.646,0.454,2.657,0.708c1.197,0.322,2.297,0.655,3.297,1.001
			c1.001,0.345,1.854,0.776,2.555,1.294c0.701,0.518,1.248,1.156,1.639,1.916c0.393,0.759,0.588,1.703,0.588,2.83
			c0,1.289-0.242,2.382-0.726,3.279s-1.134,1.628-1.95,2.191c-0.816,0.564-1.766,0.979-2.848,1.243
			c-1.081,0.264-2.232,0.396-3.451,0.396c-1.864,0-3.67-0.281-5.419-0.845c-1.749-0.564-3.325-1.387-4.729-2.469l1.794-3.313
			c0.299,0.3,0.725,0.634,1.277,1.001c0.553,0.368,1.201,0.708,1.95,1.019c0.748,0.311,1.57,0.575,2.469,0.794
			c0.896,0.219,1.829,0.327,2.796,0.327c1.472,0,2.616-0.27,3.434-0.811c0.816-0.54,1.225-1.329,1.225-2.364
			c0-0.621-0.149-1.139-0.448-1.554c-0.299-0.414-0.736-0.776-1.312-1.087s-1.276-0.587-2.105-0.829
			c-0.828-0.241-1.771-0.501-2.83-0.776c-1.22-0.321-2.284-0.661-3.193-1.019c-0.908-0.355-1.662-0.787-2.26-1.294
			c-0.6-0.506-1.053-1.099-1.364-1.778c-0.311-0.678-0.466-1.501-0.466-2.467c0-1.196,0.224-2.262,0.673-3.193
			s1.07-1.714,1.864-2.347c0.793-0.633,1.731-1.11,2.812-1.433c1.082-0.322,2.244-0.483,3.487-0.483
			c1.702,0,3.249,0.265,4.643,0.794c1.392,0.529,2.616,1.186,3.676,1.968L243.979,31.204z"/>
		<path fill="#0162A0" d="M271.246,49.947V32.309l-7.283,13.358h-2.141l-7.316-13.358v17.638h-3.866V25.439h4.142l8.112,14.981
			l8.11-14.981h4.143v24.507H271.246z"/>
		<path fill="#0162A0" d="M297.479,46.529v3.418h-16.81V25.439h16.499v3.417h-12.633v6.973h10.94v3.209h-10.94v7.49H297.479z"/>
	</g>
	<path fill="#EC8023" d="M57.591,55.193c-8.534-4.899-17.013-9.767-25.491-14.639c-0.065-0.215-0.193-0.428-0.188-0.637
		c0.285-14.044-2.484-9.648,9.868-17.014c2.618-1.562,5.234-3.141,7.946-4.526c2.601-1.329,4.787-3.434,7.757-4.176
		c1.84,0.263,3.333,1.218,5.065,2.716c-6.627,3.854-13.09,7.613-19.586,11.39c1.047,1.961,3.036,1.933,4.159,3.295
		c7.02-4.057,13.828-7.991,20.715-11.972c4.978,2.91,9.88,5.776,15.406,9.007c-9.027,5.208-17.358,10.013-25.715,14.834
		c-1.673-1.014-3.213-1.946-5.12-3.102c6.787-3.926,13.339-7.717,20.283-11.733c-1.897-1.13-3.313-1.974-4.818-2.869
		c-6.848,3.925-13.675,7.839-20.516,11.76c-3.318-1.899-6.509-3.725-9.962-5.701c0,2.019,0,3.671,0,5.61
		c6.599,3.85,13.306,7.762,20.145,11.752c8.327-4.806,16.602-9.583,25.297-14.602c0,6.009,0,11.567,0,17.851
		c-8.071,4.657-16.512,9.528-25.25,14.571c-8.182-4.726-16.332-9.306-24.334-14.131c-2.342-1.412-1.18-4.115-1.369-6.697
		c8.63,4.955,17.006,9.766,25.714,14.766c6.73-3.894,13.612-7.874,20.494-11.854c0-1.843,0-3.521,0-5.638
		C71.246,47.375,64.616,51.17,57.591,55.193z"/>
</g>
</svg>
