<svg id="Layer_1" data-name="Layer 1" xmlns="http://www.w3.org/2000/svg" viewBox="0 0 885.69 534.03"><defs><style>.cls-1{fill:#f8ebdb;}.cls-2{fill:#e0613d;}.cls-3{fill:#393e75;}.cls-4{fill:#fff;}.cls-5{fill:#ffcb39;}.cls-6{fill:#005e9c;}</style></defs><title>new-newsletter</title><path class="cls-1" d="M-170.46-47.86V439c0,13-12.15,23.61-27.14,23.61H-1029a28.9,28.9,0,0,1-3-.15l-.19,0a28.83,28.83,0,0,1-15.33-6.16,26.42,26.42,0,0,1-2.51-2.33,21.7,21.7,0,0,1-6.15-15V-47.86c0-13,12.16-23.6,27.14-23.6H-197.6a30.07,30.07,0,0,1,13,2.91,25.79,25.79,0,0,1,3.05,1.69,24.08,24.08,0,0,1,9.73,11.72,20.47,20.47,0,0,1,1.18,4.82A22.4,22.4,0,0,1-170.46-47.86Z" transform="translate(1056.15 71.46)"/><polygon class="cls-2" points="83.37 0 0 71.23 0 47.3 55.38 0 83.37 0"/><polygon class="cls-3" points="140.85 0 0 120.33 0 96.41 112.85 0 140.85 0"/><polygon class="cls-2" points="197.31 0 0 168.57 0 144.66 169.32 0 197.31 0"/><polygon class="cls-3" points="253.79 0 0 216.82 0 192.91 225.8 0 253.79 0"/><polygon class="cls-2" points="310.27 0 0 265.07 0 241.15 282.26 0 310.27 0"/><polygon class="cls-3" points="366.73 0 0 313.31 0 289.4 338.75 0 366.73 0"/><polygon class="cls-2" points="423.21 0 0 361.56 0 337.64 395.21 0 423.21 0"/><polygon class="cls-3" points="479.67 0 0 409.81 0 385.89 451.68 0 479.67 0"/><polygon class="cls-2" points="536.15 0 0 458.05 0 434.13 508.16 0 536.15 0"/><polygon class="cls-3" points="592.63 0 0 506.3 0 482.38 564.63 0 592.63 0"/><path class="cls-2" d="M-407-71.46-1032,462.42h-.19a29,29,0,0,1-15.33-6.16,26.52,26.52,0,0,1-2.51-2.34L-435-71.46Z" transform="translate(1056.15 71.46)"/><polygon class="cls-3" points="705.57 0 80.48 534.03 52.49 534.03 677.58 0 705.57 0"/><polygon class="cls-2" points="762.04 0 136.95 534.03 108.95 534.03 734.04 0 762.04 0"/><polygon class="cls-3" points="818.5 0 193.42 534.03 165.44 534.03 790.53 0 818.5 0"/><path class="cls-2" d="M-184.56-68.55-806.25,462.57h-28l625.08-534h11.56A30.07,30.07,0,0,1-184.56-68.55Z" transform="translate(1056.15 71.46)"/><path class="cls-3" d="M-170.46-47.86v15.49L-749.78,462.57h-28l606-517.71a20.47,20.47,0,0,1,1.18,4.82A22.4,22.4,0,0,1-170.46-47.86Z" transform="translate(1056.15 71.46)"/><polygon class="cls-2" points="885.69 63.44 885.69 87.35 362.84 534.03 334.85 534.03 885.69 63.44"/><polygon class="cls-3" points="885.69 111.67 885.69 135.59 419.31 534.03 391.31 534.03 885.69 111.67"/><polygon class="cls-2" points="885.69 159.92 885.69 183.83 475.78 534.03 447.8 534.03 885.69 159.92"/><polygon class="cls-3" points="885.69 208.16 885.69 232.08 532.26 534.03 504.26 534.03 885.69 208.16"/><polygon class="cls-2" points="885.69 256.41 885.69 280.33 588.73 534.03 560.74 534.03 885.69 256.41"/><polygon class="cls-3" points="885.69 304.66 885.69 328.57 645.2 534.03 617.21 534.03 885.69 304.66"/><polygon class="cls-2" points="885.69 352.9 885.69 376.83 701.67 534.03 673.68 534.03 885.69 352.9"/><polygon class="cls-3" points="885.69 401.15 885.69 425.07 758.15 534.03 730.15 534.03 885.69 401.15"/><polygon class="cls-2" points="885.69 449.41 885.69 473.31 814.62 534.03 786.64 534.03 885.69 449.41"/><path class="cls-3" d="M-170.46,426.18V439c0,13-12.15,23.6-27.14,23.6H-213Z" transform="translate(1056.15 71.46)"/><path class="cls-4" d="M-1029,441.24h-.18l-.17,0a2.71,2.71,0,0,1-1.42-.58,2.15,2.15,0,0,1-.85-1.68V-47.86a2.48,2.48,0,0,1,2.62-2.28H-197.6a2.7,2.7,0,0,1,1.52.43A2.31,2.31,0,0,1-195-48.2v.12a1.22,1.22,0,0,1,0,.22V439a2.46,2.46,0,0,1-2.62,2.27Z" transform="translate(1056.15 71.46)"/><path class="cls-5" d="M-231.08-7.14A4.07,4.07,0,0,0-227-3.08V1.85a4.07,4.07,0,0,0-4.07,4.07A4.07,4.07,0,0,0-227,10V14.9A4.07,4.07,0,0,0-231.08,19,4.07,4.07,0,0,0-227,23V28A4.07,4.07,0,0,0-231.08,32,4.07,4.07,0,0,0-227,36.1V41a4.07,4.07,0,0,0-4.07,4.07A4.07,4.07,0,0,0-227,49.16v4.92a4.07,4.07,0,0,0-4.07,4.07A4.07,4.07,0,0,0-227,62.22v4.92a4.07,4.07,0,0,0-4.07,4.06A4.07,4.07,0,0,0-227,75.27V80.2a4.07,4.07,0,0,0-4.07,4.06A4.07,4.07,0,0,0-227,88.33v4.92a4.07,4.07,0,0,0-4.07,4.07,4.07,4.07,0,0,0,4.07,4.07v4.92a4.07,4.07,0,0,0-4.07,4.07H-236a4.06,4.06,0,0,0-4.06-4.07,4.07,4.07,0,0,0-4.07,4.07h-4.93a4.06,4.06,0,0,0-4.06-4.07,4.07,4.07,0,0,0-4.07,4.07h-4.93a4.07,4.07,0,0,0-4.06-4.07,4.07,4.07,0,0,0-4.07,4.07h-4.93a4.07,4.07,0,0,0-4.06-4.07,4.07,4.07,0,0,0-4.07,4.07h-4.93a4.07,4.07,0,0,0-4.06-4.07,4.07,4.07,0,0,0-4.07,4.07h-4.93a4.07,4.07,0,0,0-4.06-4.07,4.07,4.07,0,0,0-4.07,4.07h-4.93a4.07,4.07,0,0,0-4.07-4.07,4.07,4.07,0,0,0-4.06,4.07h-4.93a4.07,4.07,0,0,0-4.07-4.07v-4.92a4.07,4.07,0,0,0,4.07-4.07,4.07,4.07,0,0,0-4.07-4.07V88.33a4.07,4.07,0,0,0,4.07-4.07,4.07,4.07,0,0,0-4.07-4.06V75.27a4.07,4.07,0,0,0,4.07-4.07,4.07,4.07,0,0,0-4.07-4.06V62.22a4.07,4.07,0,0,0,4.07-4.07,4.07,4.07,0,0,0-4.07-4.07V49.16a4.07,4.07,0,0,0,4.07-4.07A4.07,4.07,0,0,0-331.5,41V36.1A4.07,4.07,0,0,0-327.43,32,4.07,4.07,0,0,0-331.5,28V23A4.07,4.07,0,0,0-327.43,19a4.07,4.07,0,0,0-4.07-4.07V10a4.07,4.07,0,0,0,4.07-4.06,4.07,4.07,0,0,0-4.07-4.07V-3.08a4.07,4.07,0,0,0,4.07-4.06,4.07,4.07,0,0,0-4.07-4.07v-4.92a4.07,4.07,0,0,0,4.07-4.07h4.93a4.07,4.07,0,0,0,4.06,4.07,4.07,4.07,0,0,0,4.07-4.07h4.93a4.07,4.07,0,0,0,4.07,4.07,4.07,4.07,0,0,0,4.06-4.07h4.93a4.07,4.07,0,0,0,4.07,4.07,4.07,4.07,0,0,0,4.06-4.07h4.93a4.07,4.07,0,0,0,4.07,4.07,4.07,4.07,0,0,0,4.06-4.07h4.93a4.07,4.07,0,0,0,4.07,4.07,4.07,4.07,0,0,0,4.06-4.07h4.93a4.07,4.07,0,0,0,4.07,4.07,4.07,4.07,0,0,0,4.06-4.07h4.93a4.07,4.07,0,0,0,4.07,4.07A4.07,4.07,0,0,0-236-20.2h4.93A4.07,4.07,0,0,0-227-16.13v4.92A4.07,4.07,0,0,0-231.08-7.14Z" transform="translate(1056.15 71.46)"/><rect class="cls-6" x="733.21" y="59.82" width="87.36" height="113.46"/><path class="cls-5" d="M-279.26,55.22a1.28,1.28,0,0,1-.89-.36L-310.72,26l1.79-1.9,29.67,28.08,29.68-28.08,1.79,1.9-30.57,28.91A1.3,1.3,0,0,1-279.26,55.22Z" transform="translate(1056.15 71.46)"/><path class="cls-5" d="M-279.26,55.65a1.75,1.75,0,0,1-1.19-.47L-311,26.26a.43.43,0,0,1,0-.61l1.79-1.9a.42.42,0,0,1,.3-.13.43.43,0,0,1,.31.12l29.37,27.79,29.38-27.79a.47.47,0,0,1,.31-.12.42.42,0,0,1,.3.13l1.79,1.9a.42.42,0,0,1,0,.61l-30.56,28.92A1.77,1.77,0,0,1-279.26,55.65Zm-30.85-29.72,30.26,28.62a.9.9,0,0,0,1.19,0l30.25-28.62-1.19-1.26L-279,52.44a.43.43,0,0,1-.6,0l-29.35-27.77Z" transform="translate(1056.15 71.46)"/><path class="cls-5" d="M-248.69,66.49h-61.14a1.31,1.31,0,0,1-1.3-1.3V25a1.3,1.3,0,0,1,1.3-1.3h61.14a1.3,1.3,0,0,1,1.3,1.3V65.19A1.3,1.3,0,0,1-248.69,66.49Zm-59.83-2.61H-250V26.3h-58.53Z" transform="translate(1056.15 71.46)"/><path class="cls-5" d="M-248.69,66.92h-61.14a1.74,1.74,0,0,1-1.73-1.73V25a1.74,1.74,0,0,1,1.73-1.74h61.14A1.74,1.74,0,0,1-246.95,25V65.19A1.74,1.74,0,0,1-248.69,66.92Zm-61.13-42.79a.87.87,0,0,0-.87.87V65.19a.86.86,0,0,0,.87.86h61.13a.86.86,0,0,0,.87-.86V25a.87.87,0,0,0-.87-.87ZM-250,64.32h-58.53a.44.44,0,0,1-.44-.44V26.3a.44.44,0,0,1,.44-.43H-250a.43.43,0,0,1,.43.43V63.88A.43.43,0,0,1-250,64.32Zm-58.1-.87h57.67V26.74h-57.67Z" transform="translate(1056.15 71.46)"/><path class="cls-5" d="M-249.83,66l-15.92-19.2h-4.63v-2.6h5.24a1.31,1.31,0,0,1,1,.47l16.31,19.66Z" transform="translate(1056.15 71.46)"/><path class="cls-5" d="M-249.83,66.45h0a.48.48,0,0,1-.3-.15l-15.79-19h-4.42a.44.44,0,0,1-.44-.43v-2.6a.44.44,0,0,1,.44-.44h5.24a1.73,1.73,0,0,1,1.33.63l16.31,19.67a.44.44,0,0,1-.05.61l-2,1.66A.39.39,0,0,1-249.83,66.45Zm-20.12-20.06h4.2a.43.43,0,0,1,.33.15l15.64,18.87,1.34-1.11-16-19.33a.88.88,0,0,0-.67-.32h-4.81Z" transform="translate(1056.15 71.46)"/><path class="cls-5" d="M-308.82,66l-2-1.67,16.32-19.66a1.28,1.28,0,0,1,1-.47h5.23v2.6h-4.62Z" transform="translate(1056.15 71.46)"/><path class="cls-5" d="M-308.82,66.45a.42.42,0,0,1-.28-.1l-2-1.66a.43.43,0,0,1-.06-.61l16.31-19.67a1.73,1.73,0,0,1,1.34-.63h5.23a.44.44,0,0,1,.44.44v2.6a.44.44,0,0,1-.44.43h-4.42l-15.79,19a.43.43,0,0,1-.29.16Zm-1.39-2.15,1.33,1.11,15.64-18.87a.45.45,0,0,1,.34-.15h4.19V44.65h-4.8a.86.86,0,0,0-.67.32Z" transform="translate(1056.15 71.46)"/><rect class="cls-5" x="782.11" y="100.81" width="7.52" height="2.6"/><path class="cls-5" d="M-266.51,32.39H-274a.43.43,0,0,1-.43-.43V29.35a.43.43,0,0,1,.43-.43h7.53a.43.43,0,0,1,.43.43V32A.43.43,0,0,1-266.51,32.39Zm-7.09-.87h6.65V29.79h-6.65Z" transform="translate(1056.15 71.46)"/><rect class="cls-5" x="780.27" y="100.81" width="1.84" height="2.6"/><path class="cls-5" d="M-274,32.39h-1.83a.43.43,0,0,1-.44-.43V29.35a.43.43,0,0,1,.44-.43H-274a.43.43,0,0,1,.44.43V32A.43.43,0,0,1-274,32.39Zm-1.4-.87h1V29.79h-1Z" transform="translate(1056.15 71.46)"/><rect class="cls-5" x="764.27" y="100.81" width="16.01" height="2.6"/><path class="cls-5" d="M-275.87,32.39h-16a.43.43,0,0,1-.43-.43V29.35a.43.43,0,0,1,.43-.43h16a.43.43,0,0,1,.43.43V32A.43.43,0,0,1-275.87,32.39Zm-15.58-.87h15.14V29.79h-15.14Z" transform="translate(1056.15 71.46)"/></svg>