<?xml version="1.0" encoding="utf-8"?>
<!-- Generator: Adobe Illustrator 16.0.0, SVG Export Plug-In . SVG Version: 6.00 Build 0)  -->
<!DOCTYPE svg PUBLIC "-//W3C//DTD SVG 1.1//EN" "http://www.w3.org/Graphics/SVG/1.1/DTD/svg11.dtd">
<svg version="1.1" id="Layer_1" xmlns="http://www.w3.org/2000/svg" xmlns:xlink="http://www.w3.org/1999/xlink" x="0px" y="0px"
	 width="928.454px" height="581.971px" viewBox="0 0 928.454 581.971" enable-background="new 0 0 928.454 581.971"
	 xml:space="preserve">
<g>
	<g>
		<path fill="#F8EBDB" d="M907.238,50.587v486.823c0,13.035-12.154,23.604-27.141,23.604H48.686c-1.001,0-1.992-0.044-2.962-0.146
			c-0.057,0-0.128-0.008-0.187-0.017c-5.894-0.588-11.21-2.824-15.33-6.16c-0.893-0.725-1.736-1.51-2.511-2.338
			c-3.845-4.068-6.149-9.271-6.149-14.944V50.587c0-13.035,12.152-23.604,27.139-23.604h831.411c4.727,0,9.17,1.05,13.035,2.908
			c1.061,0.505,2.08,1.067,3.049,1.69c4.512,2.893,7.967,6.977,9.73,11.721c0.58,1.536,0.98,3.156,1.178,4.819
			C907.187,48.942,907.238,49.751,907.238,50.587z"/>
		<g>
			<g>
				<polygon fill="#E0613D" points="104.918,26.983 21.547,98.216 21.547,74.287 76.925,26.983 				"/>
			</g>
			<g>
				<polygon fill="#393E75" points="162.394,26.983 21.547,147.31 21.547,123.39 134.4,26.983 				"/>
			</g>
			<g>
				<polygon fill="#E0613D" points="218.861,26.983 21.547,195.553 21.547,171.642 190.867,26.983 				"/>
			</g>
			<g>
				<polygon fill="#393E75" points="275.337,26.983 21.547,243.804 21.547,219.891 247.343,26.983 				"/>
			</g>
			<g>
				<polygon fill="#E0613D" points="331.814,26.983 21.547,292.054 21.547,268.132 303.811,26.983 				"/>
			</g>
			<g>
				<polygon fill="#393E75" points="388.28,26.983 21.547,340.295 21.547,316.383 360.294,26.983 				"/>
			</g>
			<g>
				<polygon fill="#E0613D" points="444.755,26.983 21.547,388.547 21.547,364.625 416.753,26.983 				"/>
			</g>
			<g>
				<polygon fill="#393E75" points="501.22,26.983 21.547,436.789 21.547,412.876 473.228,26.983 				"/>
			</g>
			<g>
				<polygon fill="#E0613D" points="557.697,26.983 21.547,485.031 21.547,461.118 529.705,26.983 				"/>
			</g>
			<g>
				<polygon fill="#393E75" points="614.175,26.983 21.547,533.282 21.547,509.361 586.181,26.983 				"/>
			</g>
			<g>
				<path fill="#E0613D" d="M670.64,26.983L45.724,560.87c-0.057,0-0.128-0.008-0.187-0.017c-5.894-0.588-11.21-2.824-15.33-6.16
					c-0.893-0.725-1.736-1.51-2.511-2.338L642.648,26.983H670.64z"/>
			</g>
			<g>
				<polygon fill="#393E75" points="727.119,26.983 102.023,561.015 74.039,561.015 699.125,26.983 				"/>
			</g>
			<g>
				<polygon fill="#E0613D" points="783.583,26.983 158.501,561.015 130.498,561.015 755.589,26.983 				"/>
			</g>
			<g>
				<polygon fill="#393E75" points="840.05,26.983 214.966,561.015 186.982,561.015 812.076,26.983 				"/>
			</g>
			<g>
				<path fill="#E0613D" d="M893.132,29.891l-621.69,531.124h-27.993L868.533,26.983h11.564
					C884.824,26.983,889.267,28.033,893.132,29.891z"/>
			</g>
			<g>
				<path fill="#393E75" d="M907.238,50.587v15.493l-579.32,494.935h-28.002L905.912,43.302c0.58,1.536,0.98,3.156,1.178,4.819
					C907.187,48.942,907.238,49.751,907.238,50.587z"/>
			</g>
			<g>
				<polygon fill="#E0613D" points="907.238,90.418 907.238,114.331 384.385,561.015 356.392,561.015 				"/>
			</g>
			<g>
				<polygon fill="#393E75" points="907.238,138.653 907.238,162.572 440.861,561.015 412.859,561.015 				"/>
			</g>
			<g>
				<polygon fill="#E0613D" points="907.238,186.903 907.238,210.815 497.328,561.015 469.345,561.015 				"/>
			</g>
			<g>
				<polygon fill="#393E75" points="907.238,235.144 907.238,259.065 553.804,561.015 525.812,561.015 				"/>
			</g>
			<g>
				<polygon fill="#E0613D" points="907.238,283.394 907.238,307.316 610.279,561.015 582.287,561.015 				"/>
			</g>
			<g>
				<polygon fill="#393E75" points="907.238,331.646 907.238,355.556 666.748,561.015 638.753,561.015 				"/>
			</g>
			<g>
				<polygon fill="#E0613D" points="907.238,379.888 907.238,403.809 723.222,561.015 695.23,561.015 				"/>
			</g>
			<g>
				<polygon fill="#393E75" points="907.238,428.137 907.238,452.058 779.699,561.015 751.697,561.015 				"/>
			</g>
			<g>
				<polygon fill="#E0613D" points="907.238,476.389 907.238,500.292 836.166,561.015 808.183,561.015 				"/>
			</g>
			<g>
				<path fill="#393E75" d="M907.238,524.623v12.788c0,13.035-12.154,23.604-27.141,23.604H864.64L907.238,524.623z"/>
			</g>
		</g>
		<path fill="#FFFFFF" d="M48.686,539.689c-0.122,0-0.177-0.006-0.18-0.006l-0.17-0.019c-0.531-0.054-1.01-0.247-1.421-0.58
			c-0.392-0.318-0.848-0.858-0.848-1.674V50.587c0-1.255,1.175-2.279,2.619-2.279h831.411c0.574,0,1.07,0.141,1.518,0.429
			c0.307,0.195,0.947,0.689,1.076,1.513l0.014,0.113c0.006,0.053,0.01,0.115,0.01,0.225v486.823c0,1.255-1.174,2.278-2.617,2.278
			H48.686z"/>
	</g>
	<g>
		<g>
			<path fill="#FFCB39" d="M846.613,91.302c0,2.247,1.818,4.066,4.066,4.066v4.926c-2.248,0-4.066,1.82-4.066,4.067
				c0,2.243,1.818,4.068,4.066,4.068v4.92c-2.248,0-4.066,1.825-4.066,4.068c0,2.249,1.818,4.067,4.066,4.067v4.926
				c-2.248,0-4.066,1.82-4.066,4.068c0,2.243,1.818,4.067,4.066,4.067v4.92c-2.248,0-4.066,1.824-4.066,4.069
				c0,2.248,1.818,4.067,4.066,4.067v4.925c-2.248,0-4.066,1.82-4.066,4.067c0,2.249,1.818,4.069,4.066,4.069v4.919
				c-2.248,0-4.066,1.826-4.066,4.068c0,2.249,1.818,4.069,4.066,4.069v4.926c-2.248,0-4.066,1.818-4.066,4.066
				s1.818,4.069,4.066,4.069v4.92c-2.248,0-4.066,1.824-4.066,4.068c0,2.246,1.818,4.067,4.066,4.067v4.926
				c-2.248,0-4.066,1.818-4.066,4.068h-4.926c0-2.25-1.818-4.068-4.068-4.068c-2.246,0-4.066,1.818-4.066,4.068h-4.926
				c0-2.25-1.818-4.068-4.068-4.068c-2.248,0-4.068,1.818-4.068,4.068h-4.924c0-2.25-1.82-4.068-4.068-4.068
				s-4.068,1.818-4.068,4.068h-4.924c0-2.25-1.82-4.068-4.068-4.068s-4.068,1.818-4.068,4.068h-4.924c0-2.25-1.82-4.068-4.068-4.068
				c-2.25,0-4.068,1.818-4.068,4.068h-4.924c0-2.25-1.82-4.068-4.068-4.068c-2.25,0-4.07,1.818-4.07,4.068h-4.924
				c0-2.25-1.818-4.068-4.068-4.068c-2.248,0-4.068,1.818-4.068,4.068h-4.924c0-2.25-1.82-4.068-4.068-4.068v-4.926
				c2.248,0,4.068-1.821,4.068-4.067c0-2.244-1.82-4.068-4.068-4.068v-4.92c2.248,0,4.068-1.821,4.068-4.069
				s-1.82-4.066-4.068-4.066v-4.926c2.248,0,4.068-1.82,4.068-4.069c0-2.242-1.82-4.068-4.068-4.068v-4.919
				c2.248,0,4.068-1.82,4.068-4.069c0-2.247-1.82-4.067-4.068-4.067v-4.925c2.248,0,4.068-1.819,4.068-4.067
				c0-2.245-1.82-4.069-4.068-4.069v-4.92c2.248,0,4.068-1.824,4.068-4.067c0-2.248-1.82-4.068-4.068-4.068v-4.926
				c2.248,0,4.068-1.818,4.068-4.067c0-2.243-1.82-4.068-4.068-4.068v-4.92c2.248,0,4.068-1.825,4.068-4.068
				c0-2.247-1.82-4.067-4.068-4.067v-4.926c2.248,0,4.068-1.819,4.068-4.066c0-2.245-1.82-4.068-4.068-4.068v-4.921
				c2.248,0,4.068-1.824,4.068-4.068h4.924c0,2.244,1.82,4.068,4.068,4.068c2.25,0,4.068-1.824,4.068-4.068h4.924
				c0,2.244,1.82,4.068,4.07,4.068c2.248,0,4.068-1.824,4.068-4.068h4.924c0,2.244,1.818,4.068,4.068,4.068
				c2.248,0,4.068-1.824,4.068-4.068h4.924c0,2.244,1.82,4.068,4.068,4.068s4.068-1.824,4.068-4.068h4.924
				c0,2.244,1.82,4.068,4.068,4.068s4.068-1.824,4.068-4.068h4.924c0,2.244,1.82,4.068,4.068,4.068c2.25,0,4.068-1.824,4.068-4.068
				h4.926c0,2.244,1.82,4.068,4.066,4.068c2.25,0,4.068-1.824,4.068-4.068h4.926c0,2.244,1.818,4.068,4.066,4.068v4.921
				C848.431,87.234,846.613,89.057,846.613,91.302z"/>
			<rect x="754.757" y="86.807" fill="#005E9C" width="87.359" height="113.461"/>
		</g>
	</g>
	<g>
		<g>
			<g>
				<path fill="#FFCB39" d="M798.437,153.664c-0.324,0-0.645-0.119-0.896-0.355l-30.566-28.918l1.789-1.892l29.674,28.073
					l29.672-28.073l1.791,1.892l-30.568,28.918C799.08,153.544,798.757,153.664,798.437,153.664z"/>
				<path fill="#FFCB39" d="M798.437,154.097c-0.445,0-0.869-0.168-1.191-0.475l-30.57-28.918c-0.172-0.162-0.182-0.438-0.016-0.612
					l1.789-1.891c0.08-0.083,0.188-0.133,0.301-0.137c0.121,0.002,0.23,0.04,0.311,0.118l29.377,27.791l29.375-27.791
					c0.086-0.078,0.201-0.119,0.309-0.118c0.117,0.004,0.225,0.054,0.305,0.137l1.791,1.891c0.162,0.174,0.154,0.45-0.02,0.612
					l-30.568,28.918C799.306,153.929,798.884,154.097,798.437,154.097z M767.587,124.374l30.254,28.62
					c0.32,0.306,0.867,0.306,1.191,0l30.252-28.62l-1.191-1.26l-29.355,27.772c-0.172,0.158-0.432,0.158-0.6,0l-29.357-27.772
					L767.587,124.374z"/>
			</g>
		</g>
		<g>
			<g>
				<path fill="#FFCB39" d="M829.005,164.934h-61.137c-0.719,0-1.301-0.584-1.301-1.302v-40.188c0-0.717,0.582-1.301,1.301-1.301
					h61.137c0.719,0,1.301,0.584,1.301,1.301v40.188C830.306,164.35,829.724,164.934,829.005,164.934z M769.169,162.33h58.535
					v-37.583h-58.535V162.33z"/>
				<path fill="#FFCB39" d="M829.005,165.369h-61.137c-0.955,0-1.734-0.779-1.734-1.736v-40.188c0-0.958,0.779-1.736,1.734-1.736
					h61.137c0.959,0,1.734,0.778,1.734,1.736v40.188C830.74,164.589,829.964,165.369,829.005,165.369z M767.869,122.578
					c-0.48,0-0.869,0.388-0.869,0.867v40.188c0,0.479,0.389,0.867,0.869,0.867h61.137c0.477,0,0.869-0.388,0.869-0.867v-40.188
					c0-0.479-0.393-0.867-0.869-0.867H767.869z M827.705,162.765h-58.535c-0.24,0-0.434-0.193-0.434-0.436v-37.583
					c0-0.24,0.193-0.434,0.434-0.434h58.535c0.238,0,0.432,0.193,0.432,0.434v37.583
					C828.136,162.572,827.943,162.765,827.705,162.765z M769.605,161.898h57.666v-36.717h-57.666V161.898z"/>
			</g>
		</g>
		<g>
			<g>
				<path fill="#FFCB39" d="M827.859,164.464l-15.92-19.197h-4.625v-2.604h5.236c0.387,0,0.756,0.174,1.002,0.471l16.311,19.667
					L827.859,164.464z"/>
				<path fill="#FFCB39" d="M827.859,164.898c-0.014,0-0.025,0-0.039-0.002c-0.115-0.011-0.221-0.066-0.297-0.155L811.734,145.7
					h-4.42c-0.242,0-0.436-0.193-0.436-0.433v-2.604c0-0.239,0.193-0.435,0.436-0.435h5.236c0.518,0,1.004,0.23,1.334,0.628
					l16.312,19.668c0.152,0.185,0.127,0.46-0.055,0.612l-2.006,1.662C828.056,164.864,827.962,164.898,827.859,164.898z
					 M807.748,144.833h4.191c0.129,0,0.25,0.058,0.332,0.156l15.645,18.862l1.338-1.107l-16.035-19.332
					c-0.166-0.2-0.408-0.314-0.668-0.314h-4.803V144.833z"/>
			</g>
		</g>
		<g>
			<g>
				<path fill="#FFCB39" d="M768.871,164.464l-2.006-1.664l16.314-19.667c0.248-0.297,0.613-0.471,1.002-0.471h5.236v2.604h-4.625
					L768.871,164.464z"/>
				<path fill="#FFCB39" d="M768.871,164.898c-0.1,0-0.199-0.034-0.275-0.1l-2.004-1.662c-0.188-0.152-0.213-0.428-0.061-0.612
					l16.316-19.668c0.328-0.397,0.816-0.628,1.334-0.628h5.236c0.238,0,0.436,0.195,0.436,0.435v2.604
					c0,0.239-0.197,0.433-0.436,0.433h-4.422l-15.789,19.041c-0.076,0.089-0.182,0.145-0.295,0.155
					C768.9,164.898,768.884,164.898,768.871,164.898z M767.48,162.744l1.334,1.107l15.643-18.862
					c0.082-0.099,0.207-0.156,0.336-0.156h4.191v-1.735h-4.803c-0.26,0-0.506,0.114-0.67,0.314L767.48,162.744z"/>
			</g>
		</g>
		<g>
			<g>
				<rect x="803.658" y="127.798" fill="#FFCB39" width="7.521" height="2.604"/>
				<path fill="#FFCB39" d="M811.179,130.837h-7.521c-0.236,0-0.432-0.196-0.432-0.435v-2.604c0-0.238,0.195-0.432,0.432-0.432
					h7.521c0.24,0,0.436,0.193,0.436,0.432v2.604C811.615,130.641,811.419,130.837,811.179,130.837z M804.093,129.968h6.654v-1.734
					h-6.654V129.968z"/>
			</g>
		</g>
		<g>
			<g>
				<rect x="801.82" y="127.798" fill="#FFCB39" width="1.838" height="2.604"/>
				<path fill="#FFCB39" d="M803.658,130.837h-1.838c-0.244,0-0.436-0.196-0.436-0.435v-2.604c0-0.238,0.191-0.432,0.436-0.432
					h1.838c0.242,0,0.436,0.193,0.436,0.432v2.604C804.093,130.641,803.9,130.837,803.658,130.837z M802.251,129.968h0.975v-1.734
					h-0.975V129.968z"/>
			</g>
		</g>
		<g>
			<g>
				<rect x="785.812" y="127.798" fill="#FFCB39" width="16.008" height="2.604"/>
				<path fill="#FFCB39" d="M801.82,130.837h-16.008c-0.238,0-0.432-0.196-0.432-0.435v-2.604c0-0.238,0.193-0.432,0.432-0.432
					h16.008c0.238,0,0.432,0.193,0.432,0.432v2.604C802.251,130.641,802.058,130.837,801.82,130.837z M786.246,129.968h15.139
					v-1.734h-15.139V129.968z"/>
			</g>
		</g>
	</g>
</g>
</svg>
