<?xml version="1.0" encoding="utf-8"?>
<!-- Generator: Adobe Illustrator 16.0.0, SVG Export Plug-In . SVG Version: 6.00 Build 0)  -->
<!DOCTYPE svg PUBLIC "-//W3C//DTD SVG 1.1//EN" "http://www.w3.org/Graphics/SVG/1.1/DTD/svg11.dtd">
<svg version="1.1" id="Layer_1" xmlns="http://www.w3.org/2000/svg" xmlns:xlink="http://www.w3.org/1999/xlink" x="0px" y="0px"
	 width="478px" height="376px" viewBox="0 0 478 376" enable-background="new 0 0 478 376" xml:space="preserve">
<g>
	<g>
		<path fill="#455A64" d="M419.484,344.968l-110.738,0.498l-0.474-105.228c-0.033-7.475,5.998-13.561,13.471-13.594l83.675-0.377
			c7.474-0.033,13.561,5.997,13.594,13.472L419.484,344.968z"/>
		<g>
			<path fill="#263238" d="M409.643,226.854c0.129,0,0.352,26.438,0.498,59.044c0.146,32.617,0.162,59.052,0.034,59.052
				c-0.129,0.001-0.352-26.433-0.499-59.05C409.529,253.294,409.514,226.855,409.643,226.854z"/>
		</g>
	</g>
	<g>
		<g>
			<path fill="#263238" d="M354.505,97.564c10.211,14.417,16.203,31.785,17.054,49.432c0.575,11.898-0.969,24.585,4.725,35.047
				c8.169,15.008,25.698,14.418,31.137,30.616c2.367,7.046-1.866,22.593-2.993,29.938c-1.281,8.348,3.854,15.332,2.573,23.682
				c-1.175,7.653-6.873,13.138-13.734,16.729c-6.101,3.195-11.755,3.305-18.131,0.7c-12.148-4.966-22.264-10.219-30.947-20.059
				c-12.191-13.812-15.942-32.999-18.097-51.297c-4.75-40.34-4.009-81.323,2.2-121.466"/>
			<g>
				<path fill="#455A64" d="M381.282,285.388c0,0,0.13-0.044,0.39-0.101c0.259-0.062,0.649-0.124,1.145-0.277
					c0.997-0.27,2.458-0.751,4.182-1.692c1.714-0.938,3.742-2.315,5.515-4.464c0.876-1.07,1.677-2.352,2.146-3.846
					c0.448-1.496,0.646-3.176,0.735-4.92c0.154-3.508-0.396-7.342-1.211-11.395c-0.8-4.056-1.877-8.385-2.153-13.073
					c-0.133-2.337-0.042-4.767,0.474-7.177c0.487-2.415,1.348-4.775,2.243-7.147c0.899-2.373,1.848-4.771,2.53-7.28
					c0.645-2.506,1.035-5.164,0.585-7.785c-0.394-2.625-1.481-5.077-2.936-7.219c-1.452-2.153-3.253-4.008-5.1-5.726
					c-3.712-3.433-7.726-6.265-11.157-9.448c-6.925-6.32-11.601-13.525-14.564-19.919c-1.478-3.208-2.613-6.206-3.373-8.907
					c-0.436-1.334-0.687-2.619-0.998-3.777c-0.235-1.177-0.451-2.253-0.645-3.223c-0.295-1.952-0.508-3.47-0.569-4.508
					c-0.04-0.501-0.072-0.892-0.097-1.176c-0.02-0.266-0.017-0.402-0.017-0.402s0.028,0.133,0.064,0.396
					c0.034,0.285,0.082,0.674,0.142,1.172c0.092,1.033,0.334,2.544,0.655,4.486c0.205,0.963,0.433,2.034,0.682,3.203
					c0.325,1.151,0.586,2.428,1.031,3.754c0.78,2.683,1.933,5.659,3.423,8.842c2.984,6.344,7.663,13.484,14.555,19.741
					c3.412,3.151,7.433,5.976,11.178,9.431c1.863,1.729,3.689,3.604,5.174,5.8c1.484,2.183,2.607,4.706,3.012,7.409
					c0.465,2.704,0.059,5.433-0.598,7.976c-0.695,2.545-1.65,4.956-2.552,7.321c-0.895,2.367-1.75,4.705-2.232,7.077
					c-0.511,2.365-0.606,4.752-0.481,7.063c0.26,4.635,1.317,8.953,2.103,13.021c0.8,4.064,1.34,7.936,1.16,11.484
					c-0.101,1.77-0.307,3.449-0.78,4.994c-0.497,1.538-1.326,2.84-2.228,3.922c-1.823,2.168-3.888,3.535-5.63,4.457
					c-1.752,0.925-3.234,1.384-4.244,1.625C381.827,285.346,381.282,285.388,381.282,285.388z"/>
			</g>
		</g>
		<g>
			<g>
				<g>
					<path fill="#005E9C" d="M214.853,318.105l42.843-20.585c0,0,16.355-81.262,19.488-87.373
						c3.134-6.111,16.327-11.438,16.327-11.438l-1.719,109.947l-3.808,25.375l-60.524,6.011L214.853,318.105z"/>
					<g>
						<g>
							<path fill="#FFBE9D" d="M178.295,337.502c-0.236-0.008-1.428,0.746-0.418,2.627c1.009,1.879,8.307,8.08,10.436,5.899
								c2.131-2.18-1.149-4.815-1.149-4.815L178.295,337.502z"/>
						</g>
						<g>
							<g>
								<g>
									<path fill="#FFBE9D" d="M187.472,341.297c0,0,8.783,1.066,12.171,2.337c3.678,1.379,8.145,0.407,11.143-1.646
										c3-2.052,4.746-3.902,4.746-3.902l11.2-0.228c0,0,5.353-5.597,2.123-13.888c-0.563-1.445-1.169-2.59-2.587-4.36
										c-1.336-1.432-3.441-2.589-7.075-3.2l-13.294,2.934c0,0-20.621-1.379-24.277,0.369c0,0-4.594,2.753-6.016,3.905
										c-0.535,0.433-2.144,5.687,1.222,8.398c0,0-2.908,2.336-1.317,4.409l0.76,0.922c0,0-1.95,2.549-0.939,3.65
										c1.015,1.1,9.858,6.23,13.008,4.984S188.863,341.825,187.472,341.297"/>
								</g>
							</g>
						</g>
						<g>
							<g>
								<path fill="#EB996E" d="M179.013,327.473c0.011-0.024,0.396,0.124,1.093,0.385c0.695,0.263,1.707,0.633,2.976,1.03
									c0.633,0.199,1.331,0.401,2.087,0.597c0.752,0.203,1.577,0.361,2.429,0.633c0.843,0.276,1.755,0.67,2.425,1.447
									c0.634,0.75,1.068,1.873,0.658,2.941c-0.199,0.524-0.622,0.924-1.084,1.176c-0.469,0.244-0.973,0.361-1.464,0.414
									c-0.988,0.099-1.917-0.022-2.798-0.136c-1.76-0.26-3.295-0.724-4.555-1.164c-1.263-0.439-2.259-0.857-2.945-1.146
									c-0.688-0.294-1.061-0.47-1.051-0.492c0.01-0.024,0.401,0.107,1.103,0.358c0.702,0.249,1.711,0.628,2.977,1.034
									c1.262,0.405,2.788,0.838,4.519,1.076c0.863,0.102,1.787,0.211,2.711,0.112c0.461-0.052,0.922-0.165,1.333-0.38
									c0.4-0.22,0.751-0.557,0.914-0.99c0.348-0.875-0.017-1.892-0.591-2.572c-0.587-0.695-1.445-1.086-2.257-1.358
									c-0.821-0.273-1.646-0.444-2.401-0.66c-0.758-0.21-1.457-0.427-2.09-0.644c-1.265-0.431-2.266-0.842-2.948-1.144
									C179.369,327.688,179.002,327.496,179.013,327.473z"/>
							</g>
						</g>
						<g>
							<g>
								<path fill="#EB996E" d="M179.774,321.124c0.01-0.024,0.394,0.123,1.086,0.388c0.692,0.264,1.695,0.645,2.953,1.057
									c1.257,0.414,2.77,0.86,4.472,1.261c0.838,0.21,1.808,0.377,2.608,1.04c0.392,0.329,0.689,0.812,0.77,1.345
									c0.087,0.528-0.006,1.075-0.22,1.566c-0.437,1.005-1.362,1.649-2.288,1.966c-0.938,0.326-1.915,0.354-2.799,0.234
									c-1.778-0.259-3.242-0.889-4.505-1.282c-1.209-0.418-2.21-0.763-2.973-1.026c-0.697-0.249-1.081-0.399-1.073-0.422
									c0.008-0.024,0.406,0.078,1.119,0.287c0.77,0.234,1.782,0.541,3.006,0.914c1.274,0.364,2.759,0.968,4.469,1.195
									c0.851,0.104,1.766,0.068,2.638-0.239c0.858-0.297,1.689-0.895,2.07-1.774c0.4-0.867,0.263-1.93-0.448-2.492
									c-0.685-0.581-1.613-0.77-2.452-0.984c-1.711-0.422-3.226-0.896-4.478-1.344c-1.253-0.446-2.246-0.864-2.924-1.169
									C180.128,321.337,179.764,321.145,179.774,321.124z"/>
							</g>
						</g>
						<g>
							<g>
								<path fill="#EB996E" d="M184.013,322.917c-0.105-0.001-0.167-0.807-0.405-1.762c-0.23-0.958-0.549-1.702-0.455-1.751
									c0.083-0.049,0.566,0.653,0.811,1.664C184.214,322.076,184.109,322.923,184.013,322.917z"/>
							</g>
						</g>
						<g>
							<g>
								<path fill="#FFBE9D" d="M214.995,323.041l-7.84-2.98c0,0-21.777-10.045-22.142-9.494c-0.366,0.551-1.545,0.497-1.275,3.145
									c0.27,2.649,12.959,7.935,13.363,8.851c0.404,0.917-0.242,5.561,4.45,8.864c4.691,3.303,8.067,3.359,8.067,3.359"/>
							</g>
							<g>
								<g>
									<path fill="#EB996E" d="M209.619,334.785c0,0-0.062,0.011-0.186,0.007c-0.122-0.005-0.305-0.018-0.542-0.051
										c-0.473-0.064-1.168-0.201-2.034-0.479c-0.865-0.274-1.9-0.695-3.039-1.308c-1.126-0.623-2.407-1.366-3.614-2.482
										c-1.21-1.103-2.202-2.695-2.689-4.562c-0.255-0.928-0.35-1.938-0.476-2.92c-0.016-0.125-0.043-0.236-0.077-0.336
										c-0.028-0.068-0.106-0.13-0.207-0.208c-0.195-0.146-0.417-0.279-0.637-0.408c-0.445-0.261-0.911-0.509-1.382-0.759
										c-1.889-0.997-3.9-2.002-5.93-3.156c-1.013-0.576-2.034-1.189-3.026-1.89c-0.49-0.355-0.978-0.73-1.421-1.176
										c-0.224-0.219-0.428-0.47-0.6-0.752c-0.076-0.152-0.153-0.302-0.183-0.486c-0.04-0.177-0.032-0.32-0.049-0.481
										c-0.028-0.625-0.011-1.296,0.326-1.893c0.165-0.297,0.443-0.521,0.687-0.695c0.125-0.088,0.234-0.17,0.3-0.261
										c0.022-0.022-0.019,0.009,0.075-0.076c0.1-0.062,0.119-0.041,0.153-0.048c0.076-0.006,0.101,0.007,0.152,0.011
										c0.084,0.017,0.163,0.033,0.238,0.056c1.179,0.356,2.258,0.825,3.341,1.265c2.151,0.896,4.207,1.801,6.165,2.67
										c3.909,1.739,7.411,3.347,10.348,4.707c0.735,0.333,1.43,0.681,2.095,0.96c0.678,0.263,1.318,0.511,1.917,0.743
										c1.189,0.466,2.218,0.867,3.069,1.2c0.818,0.328,1.467,0.586,1.936,0.771c0.203,0.086,0.366,0.155,0.499,0.21
										c0.112,0.051,0.168,0.077,0.166,0.083c-0.002,0.007-0.062-0.01-0.179-0.048c-0.136-0.046-0.305-0.104-0.514-0.175
										c-0.475-0.172-1.13-0.408-1.961-0.709c-0.857-0.317-1.896-0.7-3.093-1.144c-0.604-0.225-1.248-0.466-1.931-0.719
										c-0.684-0.276-1.37-0.611-2.113-0.938c-2.961-1.323-6.477-2.894-10.377-4.634c-1.958-0.859-4.015-1.758-6.164-2.647
										c-1.075-0.434-2.176-0.907-3.299-1.245c-0.069-0.019-0.139-0.035-0.202-0.047c-0.022-0.002-0.073-0.012-0.071-0.006
										c-0.004-0.014,0.002,0.025-0.012-0.029c-0.023-0.068,0.005-0.059-0.015-0.09c-0.005-0.011-0.014-0.02-0.024-0.027
										c0.246,0.167,0.062,0.054,0.114,0.095l-0.022,0.028c-0.113,0.153-0.256,0.25-0.377,0.338
										c-0.244,0.176-0.452,0.347-0.585,0.587c-0.273,0.475-0.309,1.093-0.276,1.687c0.02,0.32,0.034,0.567,0.184,0.807
										c0.148,0.24,0.331,0.47,0.542,0.676c0.417,0.42,0.891,0.788,1.373,1.137c0.973,0.688,1.984,1.298,2.991,1.873
										c2.017,1.152,4.021,2.162,5.91,3.17c0.473,0.254,0.938,0.505,1.391,0.773c0.227,0.135,0.451,0.269,0.668,0.433
										c0.098,0.079,0.236,0.177,0.309,0.345c0.05,0.144,0.08,0.278,0.096,0.406c0.126,1.023,0.207,1.984,0.451,2.896
										c0.462,1.818,1.406,3.364,2.574,4.453c1.16,1.095,2.429,1.855,3.533,2.489c1.119,0.622,2.135,1.059,2.986,1.352
										c0.852,0.295,1.534,0.452,2.002,0.54c0.232,0.045,0.412,0.069,0.533,0.087
										C209.559,334.771,209.619,334.779,209.619,334.785z"/>
								</g>
							</g>
						</g>
						<g>
							<g>
								<path fill="#EB996E" d="M185.656,335.914c0.005-0.02,0.312,0.037,0.833,0.238c0.52,0.202,1.258,0.559,2.054,1.176
									c0.395,0.315,0.811,0.673,1.188,1.144c0.363,0.462,0.733,1.085,0.641,1.826c-0.089,0.747-0.726,1.34-1.439,1.573
									c-0.74,0.252-1.542,0.138-2.279-0.062c-2.916-0.874-5.456-1.932-7.218-2.859c-0.881-0.464-1.57-0.881-2.031-1.189
									c-0.464-0.307-0.706-0.497-0.692-0.517c0.013-0.024,0.281,0.126,0.765,0.395c0.484,0.271,1.187,0.649,2.076,1.079
									c1.771,0.86,4.319,1.877,7.197,2.738c0.707,0.194,1.439,0.288,2.067,0.074c0.627-0.201,1.145-0.693,1.221-1.277
									c0.088-0.588-0.211-1.154-0.546-1.594c-0.341-0.445-0.742-0.812-1.111-1.128
									C186.858,336.286,185.621,335.985,185.656,335.914z"/>
							</g>
						</g>
					</g>
					<g opacity="0.3">
						<path d="M287.675,334.06c-7.138-23.685-13.478-54.206-20.617-77.892c-2.47,21.909,0.876,50.801,5.004,72.458
							c0.485,2.536,0.712,5.026,2.69,6.688L287.675,334.06"/>
					</g>
				</g>
				<g>
					<path fill="#263238" d="M276.086,317.83c-0.095,0.023-0.398-1.548-1.362-3.91c-0.473-1.186-1.163-2.541-2.035-3.98
						c-0.901-1.422-2.004-2.914-3.325-4.34c-1.339-1.412-2.755-2.609-4.115-3.602c-1.379-0.967-2.688-1.742-3.84-2.29
						c-2.296-1.116-3.842-1.522-3.813-1.614c0.01-0.031,0.396,0.06,1.091,0.253c0.35,0.09,0.773,0.216,1.25,0.406
						c0.477,0.187,1.035,0.366,1.612,0.656c1.186,0.518,2.533,1.275,3.946,2.237c1.396,0.988,2.849,2.198,4.209,3.634
						c1.343,1.45,2.456,2.978,3.351,4.435c0.868,1.475,1.537,2.869,1.977,4.084c0.251,0.596,0.396,1.165,0.55,1.653
						c0.159,0.487,0.256,0.918,0.324,1.272C276.051,317.432,276.117,317.822,276.086,317.83z"/>
				</g>
			</g>
			<path fill="#005E9C" d="M288.954,197.621c0,0-22.265,50.339-22.223,59.562c0.042,9.224,17.182,73.229,17.182,73.229
				c-0.148,2.544-0.747,15.319-0.747,15.319l94.469-0.101l0,0l1.347-20.313l-7.46-19.318l7.121-54.737
				c0,0,4.813-31.783,5.215-40.669c0.502-11.118-37.205-23.831-36.186-25.374l-6.54-8.673l-37.112,30.409l-7.454-21.223
				l-8.781,8.375L288.954,197.621z"/>
			<path fill="#005E9C" d="M350.877,210.708c-10.145,17.346-28.717,48.957-28.717,48.957l-33.36,38.383
				c0,0-2.105,19.439,2.308,25.375c4.416,5.935,11.955,9.975,11.955,9.975s8.853-0.04,20.053-9.492
				c11.201-9.452,42.051-48.45,42.051-48.45l10.597-12.896c0,0,12.56-31.267,10.118-47.14c-0.942-6.118-3.561-8.655-7.053-11.447
				C370.056,196.957,356.549,201.012,350.877,210.708z"/>
			<g>
				<path fill="#263238" d="M379.651,251.694c0.007,0.004-0.045,0.124-0.153,0.354c-0.12,0.25-0.282,0.588-0.491,1.021
					c-0.441,0.893-1.117,2.199-2.042,3.85c-1.835,3.31-4.689,7.988-8.429,13.627c-1.87,2.819-3.965,5.877-6.261,9.125
					c-2.273,3.27-4.919,6.6-7.068,10.51c-2.207,3.874-4.097,8.18-6.451,12.453c-2.355,4.269-5.137,8.512-8.466,12.481
					c-3.337,3.958-7.114,7.415-11.251,10.035c-4.122,2.643-8.623,4.36-13.056,5.124c-4.433,0.787-8.806,0.557-12.673-0.479
					c-1.941-0.501-3.734-1.274-5.368-2.149c-1.641-0.868-3.133-1.864-4.429-2.969c-1.31-1.086-2.437-2.27-3.345-3.506
					c-0.945-1.213-1.638-2.491-2.22-3.711c-1.112-2.469-1.585-4.772-1.832-6.65c-0.199-1.887-0.217-3.36-0.173-4.356
					c0.025-0.48,0.046-0.854,0.06-1.132c0.018-0.255,0.03-0.386,0.037-0.385c0.008,0,0.013,0.131,0.012,0.387
					c-0.005,0.276-0.009,0.651-0.014,1.132c-0.015,0.993,0.033,2.461,0.258,4.332c0.271,1.86,0.768,4.136,1.89,6.563
					c0.584,1.198,1.278,2.453,2.218,3.641c0.904,1.212,2.022,2.369,3.321,3.432c1.282,1.082,2.761,2.056,4.386,2.904
					c1.619,0.857,3.385,1.609,5.3,2.095c3.812,1.003,8.125,1.218,12.5,0.43c4.376-0.767,8.811-2.468,12.883-5.086
					c4.087-2.598,7.828-6.022,11.14-9.95c3.305-3.939,6.076-8.159,8.422-12.402c2.348-4.246,4.248-8.55,6.477-12.445
					c2.178-3.934,4.852-7.275,7.129-10.52c2.308-3.237,4.415-6.28,6.302-9.086c3.77-5.609,6.663-10.254,8.545-13.533
					c0.948-1.635,1.648-2.925,2.116-3.803c0.227-0.424,0.402-0.756,0.531-1C379.578,251.805,379.644,251.689,379.651,251.694z"/>
			</g>
			<g>
				<path fill="#263238" d="M287.113,296.33c0.042,0.067-0.475,0.362-1.088,1.051c-0.61,0.674-1.288,1.813-1.414,3.198
					c-0.117,1.386,0.352,2.624,0.834,3.396c0.484,0.785,0.94,1.166,0.889,1.224c-0.026,0.042-0.572-0.252-1.16-1.04
					c-0.584-0.768-1.156-2.098-1.025-3.621c0.137-1.521,0.931-2.73,1.64-3.386C286.506,296.48,287.096,296.285,287.113,296.33z"/>
			</g>
			<g>
				<path fill="#263238" d="M293.325,306.453c0.007-0.016,0.188,0.025,0.526,0.118c0.171,0.044,0.376,0.113,0.626,0.169
					c0.26,0.046,0.549,0.098,0.867,0.154c1.306,0.208,3.267,0.175,5.528-0.538c2.247-0.73,4.762-2.129,7.101-4.218
					c2.341-2.086,4.442-4.865,6.637-7.772c2.188-2.914,4.396-5.656,6.84-7.716c1.211-1.026,2.402-1.937,3.392-2.914
					c0.99-0.969,1.783-2.019,2.224-3.093c0.83-2.208,0.256-4.274-0.538-5.276c-0.832-1.039-1.665-1.138-1.623-1.201
					c0.003-0.015,0.184,0.031,0.522,0.147c0.317,0.151,0.8,0.409,1.241,0.938c0.879,1.025,1.54,3.161,0.705,5.51
					c-0.449,1.15-1.256,2.241-2.258,3.248c-1.002,1.012-2.194,1.941-3.385,2.966c-2.39,2.044-4.561,4.759-6.748,7.672
					c-2.195,2.905-4.32,5.701-6.725,7.813c-2.396,2.107-4.978,3.504-7.287,4.209c-2.324,0.689-4.335,0.67-5.654,0.404
					c-0.32-0.074-0.611-0.141-0.873-0.199c-0.249-0.071-0.452-0.156-0.62-0.213C293.492,306.539,293.32,306.469,293.325,306.453z"/>
			</g>
			<g>
				<path fill="#263238" d="M355.402,205.375c0.013,0.009-0.115,0.195-0.373,0.541c-0.287,0.378-0.666,0.875-1.139,1.496
					c-1.014,1.276-2.41,3.181-4.109,5.549c-3.368,4.759-7.688,11.571-11.845,19.441c-4.183,7.857-7.644,15.146-10.292,20.35
					c-1.317,2.605-2.4,4.705-3.181,6.14c-0.376,0.685-0.675,1.232-0.904,1.649c-0.211,0.375-0.328,0.567-0.343,0.56
					c-0.015-0.007,0.075-0.215,0.259-0.604c0.209-0.427,0.484-0.987,0.827-1.688c0.742-1.512,1.776-3.618,3.047-6.203
					c2.57-5.238,5.985-12.549,10.176-20.424c4.164-7.883,8.544-14.693,11.987-19.413c1.739-2.349,3.178-4.226,4.235-5.472
					c0.502-0.598,0.903-1.076,1.208-1.44C355.238,205.529,355.391,205.364,355.402,205.375z"/>
			</g>
			<g opacity="0.3">
				<path d="M286.041,304.938c4.373,2.345,9.16,2.072,14.023,1.094c4.864-0.978,9.36-3.695,12.487-7.547
					c-0.827,4.254-2.629,8.418-5.716,11.459c-3.089,3.043-7.568,4.824-11.836,4.062
					C290.732,313.244,286.413,309.257,286.041,304.938"/>
			</g>
			<g opacity="0.3">
				<path d="M327.173,278.935c2.761,4.19,3.765,9.5,2.722,14.409c3.668-5.673,4.504-12.838,3.479-19.516
					c-1.024-6.679-3.767-12.969-6.818-18.996c0,0-3.312,5.646-3.339,6.269c-0.146,3.253,1.079,9.37,1.722,12.562
					c1.686,1.575,2.491,4.039,2.061,6.307"/>
			</g>
			<g opacity="0.3">
				<path d="M300.932,328.276c8.921,6.89,22.116,7.158,31.817,1.419c9.347-5.525,15.067-15.425,20.38-24.894
					c8.223-14.656,18.254-32.78,24.104-48.534c0,0-16.496,22.721-21.455,32.504c-3.74,7.381-6.615,12.247-11.232,19.115
					c-9.277,13.797-26.155,22.113-42.748,21.061"/>
			</g>
			<g>
				<path fill="#263238" d="M283.166,345.731c-0.01-0.001-0.016-0.096-0.015-0.278c0.002-0.22,0.006-0.488,0.011-0.818
					c0.023-0.76,0.056-1.798,0.098-3.1c0.112-2.723,0.271-6.538,0.46-11.13l0.009,0.063c-1.633-5.359-3.54-11.86-5.517-18.885
					c-2.62-9.309-4.834-17.78-6.325-23.939c-0.743-3.08-1.324-5.578-1.689-7.312c-0.174-0.834-0.312-1.498-0.417-1.998
					c-0.09-0.458-0.13-0.698-0.113-0.703c0.015-0.004,0.087,0.231,0.205,0.683c0.125,0.494,0.292,1.151,0.501,1.977
					c0.444,1.765,1.068,4.238,1.834,7.273c1.572,6.135,3.835,14.589,6.453,23.894c1.976,7.021,3.855,13.528,5.437,18.899l0.01,0.033
					l-0.001,0.029c-0.257,4.59-0.472,8.405-0.625,11.127c-0.084,1.299-0.152,2.336-0.202,3.096
					c-0.028,0.327-0.051,0.595-0.069,0.812C283.19,345.639,283.176,345.731,283.166,345.731z"/>
			</g>
			<g>
				<path fill="#263238" d="M377.035,203.441c-0.026,0.071-0.968-0.256-2.521-0.634c-1.552-0.38-3.734-0.76-6.169-0.825
					c-2.436-0.06-4.636,0.209-6.204,0.511c-1.572,0.297-2.528,0.578-2.552,0.505c-0.009-0.03,0.22-0.131,0.646-0.286
					c0.423-0.161,1.05-0.349,1.836-0.542c1.571-0.386,3.807-0.713,6.287-0.653c2.478,0.065,4.693,0.505,6.242,0.973
					c0.775,0.231,1.393,0.451,1.807,0.633C376.823,203.299,377.047,203.412,377.035,203.441z"/>
			</g>
			<g>
				<path fill="#263238" d="M347.038,187.082c0.015,0.008-0.068,0.168-0.236,0.465c-0.199,0.338-0.448,0.764-0.755,1.285
					c-0.668,1.111-1.656,2.703-2.909,4.652c-2.515,3.89-6.11,9.188-10.368,14.834c-3.426,4.55-6.744,8.631-9.465,11.832l-0.19,0.225
					l-0.122-0.264c-1.312-2.845-2.397-5.199-3.186-6.906c-0.352-0.788-0.635-1.426-0.854-1.918
					c-0.189-0.443-0.283-0.684-0.265-0.691c0.017-0.008,0.144,0.214,0.366,0.642c0.242,0.481,0.557,1.105,0.945,1.877
					c0.823,1.69,1.96,4.021,3.332,6.836l-0.313-0.04c2.673-3.233,5.961-7.33,9.38-11.872c4.25-5.636,7.884-10.896,10.465-14.734
					c1.254-1.889,2.28-3.436,3.03-4.567c0.337-0.503,0.611-0.914,0.831-1.239C346.916,187.216,347.025,187.073,347.038,187.082z"/>
			</g>
			<g>
				
					<ellipse transform="matrix(-0.1057 0.9944 -0.9944 -0.1057 728.8073 -13.6339)" fill="#263238" cx="370.534" cy="320.894" rx="10.409" ry="0.233"/>
			</g>
			<g>
				
					<ellipse transform="matrix(-0.1106 -0.9939 0.9939 -0.1106 3.2921 679.2164)" fill="#263238" cx="305.545" cy="338.135" rx="7.864" ry="0.233"/>
			</g>
			<path fill="#FFFFFF" d="M352.001,227.92c-0.121-0.739-1.147-1.141-1.738-0.682l-0.061,0.05c-0.556,0.503-0.34,1.583,0.368,1.831
				C351.275,229.366,352.121,228.659,352.001,227.92z"/>
			<path fill="#FFFFFF" d="M342.569,205.225c-0.121-0.738-1.147-1.141-1.738-0.682l-0.06,0.051c-0.556,0.501-0.339,1.58,0.367,1.83
				C341.845,206.672,342.69,205.964,342.569,205.225z"/>
			<path fill="#FFFFFF" d="M321.243,223.629c-0.12-0.738-1.146-1.141-1.737-0.682l-0.062,0.052
				c-0.555,0.501-0.338,1.581,0.369,1.829C320.52,225.077,321.364,224.369,321.243,223.629z"/>
			<path fill="#FFFFFF" d="M298.059,214.541c-0.121-0.741-1.147-1.142-1.737-0.682l-0.062,0.049
				c-0.556,0.502-0.339,1.582,0.369,1.83C297.335,215.986,298.18,215.278,298.059,214.541z"/>
			<path fill="#FFFFFF" d="M293.923,205.495c-0.119-0.738-1.146-1.142-1.737-0.681l-0.061,0.05
				c-0.556,0.501-0.338,1.582,0.368,1.829C293.199,206.941,294.045,206.235,293.923,205.495z"/>
			<path fill="#FFFFFF" d="M295.654,195.015c-0.12-0.739-1.147-1.141-1.737-0.681l-0.061,0.05c-0.556,0.502-0.34,1.582,0.366,1.831
				C294.93,196.462,295.774,195.754,295.654,195.015z"/>
			<path fill="#FFFFFF" d="M282.902,209.477c-0.121-0.739-1.147-1.141-1.737-0.681l-0.062,0.05c-0.556,0.501-0.338,1.582,0.368,1.83
				C282.179,210.924,283.023,210.216,282.902,209.477z"/>
			<path fill="#FFFFFF" d="M312.61,213.497c-0.121-0.739-1.147-1.142-1.737-0.681l-0.061,0.05c-0.557,0.501-0.34,1.581,0.367,1.83
				C311.887,214.944,312.73,214.236,312.61,213.497z"/>
			<path fill="#FFFFFF" d="M287.559,232.278c-0.121-0.739-1.146-1.142-1.738-0.682l-0.06,0.05c-0.556,0.502-0.34,1.582,0.366,1.83
				C286.834,233.725,287.679,233.017,287.559,232.278z"/>
			<path fill="#FFFFFF" d="M264.791,286.08c-0.121-0.739-1.147-1.142-1.739-0.682l-0.058,0.051c-0.558,0.502-0.341,1.582,0.366,1.83
				C264.066,287.527,264.911,286.819,264.791,286.08z"/>
			<path fill="#FFFFFF" d="M272.86,255.073c-0.12-0.738-1.146-1.142-1.737-0.682l-0.06,0.052c-0.556,0.5-0.34,1.581,0.367,1.828
				C272.137,256.521,272.981,255.812,272.86,255.073z"/>
			<path fill="#FFFFFF" d="M333.13,200.419c-0.122-0.739-1.146-1.142-1.739-0.681l-0.058,0.05c-0.557,0.501-0.34,1.582,0.365,1.83
				C332.406,201.865,333.25,201.158,333.13,200.419z"/>
			<path fill="#FFFFFF" d="M362.288,261.957c-0.122-0.739-1.148-1.142-1.738-0.682l-0.06,0.051c-0.558,0.502-0.34,1.582,0.366,1.829
				C361.563,263.404,362.408,262.696,362.288,261.957z"/>
			<path fill="#FFFFFF" d="M373.303,208.837c-0.122-0.74-1.148-1.142-1.738-0.682l-0.061,0.05c-0.557,0.502-0.34,1.582,0.367,1.831
				C372.578,210.283,373.422,209.575,373.303,208.837z"/>
			<path fill="#FFFFFF" d="M369.04,243.61c-0.121-0.739-1.147-1.142-1.738-0.682l-0.06,0.052c-0.558,0.502-0.341,1.58,0.367,1.83
				C368.316,245.058,369.16,244.35,369.04,243.61z"/>
			<path fill="#FFFFFF" d="M343.917,268.818c-0.121-0.738-1.146-1.141-1.737-0.68l-0.06,0.049c-0.557,0.502-0.341,1.581,0.367,1.83
				C343.193,270.265,344.038,269.559,343.917,268.818z"/>
			<path fill="#FFFFFF" d="M344.885,247.925c-0.12-0.74-1.146-1.142-1.738-0.682l-0.059,0.05c-0.557,0.501-0.34,1.582,0.366,1.83
				C344.162,249.371,345.006,248.663,344.885,247.925z"/>
			<path fill="#FFFFFF" d="M359.937,209.077c-0.122-0.737-1.146-1.14-1.737-0.681l-0.061,0.051c-0.556,0.501-0.339,1.582,0.367,1.83
				C359.213,210.526,360.057,209.818,359.937,209.077z"/>
			<path fill="#FFFFFF" d="M339.349,188.931c-0.12-0.739-1.146-1.142-1.737-0.682l-0.061,0.05c-0.555,0.501-0.338,1.582,0.368,1.83
				C338.625,190.378,339.471,189.67,339.349,188.931z"/>
			<path fill="#FFFFFF" d="M338.752,221.561c-0.12-0.738-1.146-1.141-1.737-0.682l-0.06,0.052c-0.556,0.501-0.339,1.58,0.366,1.828
				C338.027,223.009,338.873,222.301,338.752,221.561z"/>
			<path fill="#FFFFFF" d="M313.034,321.209c-0.119-0.738-1.146-1.141-1.737-0.68l-0.061,0.05c-0.555,0.501-0.339,1.582,0.368,1.83
				C312.311,322.656,313.155,321.949,313.034,321.209z"/>
			<path fill="#FFFFFF" d="M282.947,304.978c-0.12-0.738-1.147-1.142-1.737-0.681l-0.062,0.051c-0.555,0.501-0.339,1.581,0.369,1.83
				C282.223,306.424,283.067,305.717,282.947,304.978z"/>
			<path fill="#FFFFFF" d="M258.714,313.109c-0.12-0.74-1.146-1.141-1.737-0.682l-0.061,0.05c-0.556,0.502-0.339,1.582,0.367,1.831
				C257.99,314.556,258.835,313.848,258.714,313.109z"/>
			<path fill="#FFFFFF" d="M256.18,326.943c-0.122-0.739-1.148-1.142-1.737-0.682l-0.061,0.05c-0.557,0.502-0.341,1.582,0.367,1.83
				C255.455,328.39,256.299,327.682,256.18,326.943z"/>
			<path fill="#FFFFFF" d="M278.953,331.471c-0.12-0.739-1.146-1.14-1.737-0.682l-0.061,0.051c-0.556,0.502-0.339,1.581,0.366,1.83
				C278.229,332.918,279.073,332.21,278.953,331.471z"/>
			<path fill="#FFFFFF" d="M271.205,300.552c-0.12-0.74-1.146-1.142-1.737-0.682l-0.06,0.05c-0.557,0.502-0.339,1.582,0.367,1.83
				C270.482,301.998,271.327,301.291,271.205,300.552z"/>
			<path fill="#FFFFFF" d="M299.158,308.291c-0.121-0.739-1.147-1.141-1.738-0.681l-0.06,0.05c-0.558,0.501-0.341,1.582,0.366,1.83
				C298.435,309.738,299.278,309.03,299.158,308.291z"/>
			<path fill="#FFFFFF" d="M365.482,300.075c-0.122-0.738-1.146-1.142-1.737-0.682l-0.061,0.05c-0.556,0.502-0.34,1.583,0.368,1.83
				C364.758,301.521,365.603,300.814,365.482,300.075z"/>
			<path fill="#FFFFFF" d="M324.599,339.604c-0.12-0.74-1.146-1.141-1.737-0.681l-0.061,0.049c-0.556,0.502-0.338,1.582,0.367,1.83
				C323.876,341.051,324.72,340.343,324.599,339.604z"/>
			<path fill="#FFFFFF" d="M342.014,317.624c-0.121-0.738-1.147-1.142-1.738-0.681l-0.061,0.049
				c-0.556,0.502-0.34,1.584,0.368,1.831C341.288,319.07,342.134,318.363,342.014,317.624z"/>
			<path fill="#FFFFFF" d="M352.496,335.389c-0.122-0.738-1.148-1.141-1.739-0.68l-0.06,0.049c-0.557,0.503-0.34,1.583,0.367,1.83
				C351.771,336.837,352.615,336.129,352.496,335.389z"/>
			<path fill="#FFFFFF" d="M323.133,242.24c-0.12-0.739-1.147-1.141-1.737-0.682l-0.061,0.051c-0.557,0.502-0.34,1.581,0.368,1.83
				C322.409,243.687,323.253,242.979,323.133,242.24z"/>
			<path fill="#FFFFFF" d="M346.889,287.606c-0.121-0.739-1.146-1.142-1.738-0.682l-0.06,0.051c-0.556,0.501-0.34,1.582,0.367,1.829
				C346.164,289.054,347.008,288.346,346.889,287.606z"/>
			<path fill="#FFFFFF" d="M339.328,304.865c-0.12-0.739-1.146-1.141-1.737-0.681l-0.061,0.05c-0.556,0.502-0.339,1.582,0.368,1.83
				C338.604,306.312,339.45,305.604,339.328,304.865z"/>
			<path fill="#FFFFFF" d="M364.502,318.586c-0.12-0.739-1.146-1.141-1.736-0.682l-0.061,0.051c-0.555,0.501-0.338,1.582,0.367,1.83
				C363.779,320.032,364.624,319.326,364.502,318.586z"/>
			<path fill="#FFFFFF" d="M295.877,338.867c-0.122-0.738-1.147-1.141-1.738-0.682l-0.062,0.051
				c-0.555,0.501-0.338,1.582,0.368,1.83C295.151,340.315,295.996,339.607,295.877,338.867z"/>
			<path fill="#FFFFFF" d="M238.59,333.9c-0.119-0.738-1.145-1.143-1.737-0.682l-0.06,0.052c-0.555,0.501-0.338,1.581,0.367,1.829
				C237.867,335.348,238.712,334.639,238.59,333.9z"/>
			<path fill="#FFFFFF" d="M288.974,324.27c-0.12-0.74-1.146-1.142-1.737-0.682l-0.061,0.05c-0.556,0.502-0.338,1.581,0.368,1.831
				C288.25,325.715,289.096,325.008,288.974,324.27z"/>
			<path fill="#FFFFFF" d="M240.627,314.253c-0.121-0.738-1.146-1.14-1.738-0.681l-0.06,0.051c-0.556,0.5-0.339,1.581,0.367,1.829
				S240.748,314.992,240.627,314.253z"/>
			<path fill="#FFFFFF" d="M321.185,281.417c-0.12-0.739-1.146-1.142-1.737-0.682l-0.061,0.051
				c-0.555,0.501-0.339,1.582,0.368,1.831C320.46,282.865,321.306,282.156,321.185,281.417z"/>
			<path fill="#FFFFFF" d="M304.073,232.204c-0.121-0.739-1.147-1.142-1.738-0.682l-0.06,0.05c-0.556,0.502-0.339,1.582,0.367,1.83
				S304.194,232.942,304.073,232.204z"/>
			<path fill="#FFFFFF" d="M300.046,274.967c-0.121-0.739-1.146-1.142-1.738-0.682l-0.059,0.051c-0.557,0.502-0.34,1.581,0.366,1.83
				C299.321,276.413,300.167,275.706,300.046,274.967z"/>
			<path fill="#FFFFFF" d="M293.112,261.055c-0.122-0.739-1.148-1.141-1.738-0.682l-0.06,0.052c-0.557,0.501-0.34,1.581,0.366,1.829
				S293.231,261.795,293.112,261.055z"/>
			<path fill="#FFFFFF" d="M323.697,304.742c-0.121-0.738-1.146-1.141-1.738-0.68l-0.06,0.049c-0.556,0.501-0.339,1.582,0.366,1.83
				C322.974,306.189,323.817,305.482,323.697,304.742z"/>
			<path fill="#FFFFFF" d="M302.237,296.24c-0.121-0.739-1.146-1.143-1.737-0.682l-0.061,0.051
				c-0.556,0.502-0.338,1.582,0.368,1.829C301.514,297.688,302.358,296.979,302.237,296.24z"/>
			<path fill="#FFFFFF" d="M311.194,249c-0.121-0.738-1.146-1.141-1.737-0.681l-0.06,0.05c-0.557,0.502-0.34,1.583,0.367,1.83
				C310.471,250.448,311.315,249.74,311.194,249z"/>
			<path fill="#FFFFFF" d="M278.732,282.568c-0.119-0.74-1.146-1.142-1.736-0.682l-0.061,0.049c-0.556,0.502-0.339,1.584,0.366,1.83
				C278.01,284.014,278.854,283.307,278.732,282.568z"/>
			<path fill="#FFFFFF" d="M329.001,267.002c-0.12-0.74-1.147-1.142-1.737-0.682l-0.061,0.051c-0.556,0.5-0.34,1.582,0.368,1.829
				C328.276,268.448,329.122,267.74,329.001,267.002z"/>
			<path fill="#FFFFFF" d="M375.506,226.752c-0.121-0.739-1.146-1.142-1.738-0.682l-0.059,0.05c-0.557,0.502-0.34,1.582,0.366,1.83
				C374.782,228.198,375.627,227.49,375.506,226.752z"/>
			<path fill="#FFFFFF" d="M356.414,196.518c-0.121-0.74-1.146-1.142-1.737-0.682l-0.061,0.05c-0.555,0.502-0.339,1.582,0.368,1.83
				C355.69,197.964,356.534,197.256,356.414,196.518z"/>
			<path fill="#FFFFFF" d="M319.693,200.479c-0.122-0.738-1.148-1.14-1.739-0.68l-0.06,0.05c-0.557,0.501-0.34,1.581,0.367,1.829
				C318.968,201.927,319.813,201.219,319.693,200.479z"/>
		</g>
		<g>
			<g>
				<g>
					<g>
						<g>
							<path fill="#263238" d="M281.73,91.814c-7.026,4.516-9.797,13.925-8.428,19.473c0.689,2.793,1.973,5.604,1.43,8.433
								c-0.467,2.443-2.214,4.404-3.519,6.523c-4.35,7.067-3.53,16.926,1.93,23.178c5.457,6.25,15.116,8.393,22.705,5.035"/>
						</g>
					</g>
					<g>
						<g>
							<g>
								<g>
									<path fill="#263238" d="M277.726,128.504c-17.312-37.625,23.377-56.749,45.653-50.566
										c20.937,5.813,29.901,16.178,33.404,30.146c3.506,13.977,3.408,29.129-2.014,42.479
										c-2.675,6.582-7.514,13.278-14.566,14.132"/>
								</g>
							</g>
						</g>
						<g>
							<g>
								<g>
									<g>
										<g>
											<g>
												<g>
													<g>
														<g>
															<g>
																<g>
																	<g>
																		<g>
																			<g>
																				<g>
																					<g>
																						<path fill="#FFBE9D" d="M298.223,220.485c-0.377-18.013-0.697-42.755-0.703-42.652
																							c0,0-15.495-2.501-18.794-22.688c-1.642-10.039-1.209-26.514-0.422-39.982
																							c0.709-12.123,8.672-27.027,20.753-25.805l37.751,9.359c3.67,0.372,6.446,3.49,6.39,7.18l0,0l-2.105,78.005"
																							/>
																					</g>
																				</g>
																			</g>
																		</g>
																	</g>
																</g>
															</g>
														</g>
													</g>
													<g>
														<g>
															<g>
																<g>
																	<g>
																		<g>
																			<g>
																				<g>
																					<g>
																						<g>
																							<g>
																								<g>
																									<g>
																										<g>
																											<path fill="#263238" d="M285.1,127.468c-0.057,1.359,1.047,2.53,2.466,2.617
																												c1.415,0.087,2.613-0.942,2.671-2.303s-1.045-2.531-2.461-2.618
																												C286.356,125.077,285.159,126.108,285.1,127.468z"/>
																										</g>
																									</g>
																								</g>
																							</g>
																						</g>
																					</g>
																				</g>
																			</g>
																		</g>
																	</g>
																</g>
															</g>
														</g>
													</g>
													<g>
														<g>
															<g>
																<g>
																	<g>
																		<g>
																			<g>
																				<g>
																					<g>
																						<g>
																							<g>
																								<g>
																									<g>
																										<g>
																											<path fill="#263238" d="M311.868,127.348c-0.058,1.359,1.047,2.529,2.466,2.616
																												c1.416,0.087,2.614-0.942,2.671-2.303c0.058-1.359-1.045-2.53-2.462-2.616
																												C313.125,124.956,311.928,125.988,311.868,127.348z"/>
																										</g>
																									</g>
																								</g>
																							</g>
																						</g>
																					</g>
																				</g>
																			</g>
																		</g>
																	</g>
																</g>
															</g>
														</g>
													</g>
													<g>
														<g>
															<g>
																<g>
																	<g>
																		<g>
																			<g>
																				<g>
																					<g>
																						<g>
																							<g>
																								<path fill="#263238" d="M282.291,122.775c0.312,0.346,2.314-1.051,5.103-0.962
																									c2.784,0.047,4.789,1.54,5.1,1.207c0.154-0.146-0.155-0.767-1.028-1.438
																									c-0.857-0.672-2.336-1.343-4.071-1.386c-1.735-0.041-3.215,0.558-4.072,1.187
																									C282.445,122.017,282.137,122.618,282.291,122.775z"/>
																							</g>
																						</g>
																					</g>
																				</g>
																			</g>
																		</g>
																	</g>
																</g>
															</g>
														</g>
													</g>
													<g>
														<g>
															<g>
																<g>
																	<g>
																		<g>
																			<g>
																				<g>
																					<g>
																						<g>
																							<g>
																								<path fill="#263238" d="M308.753,123.321c0.324,0.335,2.276-1.136,5.062-1.152
																									c2.784-0.058,4.843,1.357,5.143,1.015c0.146-0.153-0.182-0.76-1.082-1.4
																									c-0.883-0.639-2.384-1.253-4.121-1.231c-1.736,0.026-3.191,0.679-4.025,1.341
																									C308.881,122.557,308.594,123.172,308.753,123.321z"/>
																							</g>
																						</g>
																					</g>
																				</g>
																			</g>
																		</g>
																	</g>
																</g>
															</g>
														</g>
													</g>
													<g>
														<g>
															<g>
																<g>
																	<g>
																		<g>
																			<g>
																				<g>
																					<g>
																						<g>
																							<path fill="#263238" d="M299.297,144.832c0.012-0.158-1.723-0.449-4.531-0.797
																								c-0.713-0.07-1.387-0.208-1.51-0.692c-0.169-0.515,0.125-1.282,0.466-2.113
																								c0.661-1.726,1.355-3.533,2.081-5.43c2.89-7.731,4.977-14.087,4.665-14.201
																								c-0.312-0.113-2.908,6.062-5.796,13.793c-0.695,1.905-1.361,3.723-1.993,5.461
																								c-0.267,0.812-0.725,1.731-0.356,2.797c0.193,0.531,0.719,0.915,1.176,1.036
																								c0.456,0.137,0.856,0.142,1.21,0.162C297.534,144.986,299.287,144.992,299.297,144.832z"/>
																						</g>
																					</g>
																				</g>
																			</g>
																		</g>
																	</g>
																</g>
															</g>
														</g>
													</g>
													<g>
														<g>
															<g>
																<g>
																	<g>
																		<g>
																			<g>
																				<g>
																					<g>
																						<path fill="#EB996E" d="M297.52,177.833c0,0,13.594,0.813,27.022-7.339c0,0-6.771,14.085-27,12.286
																							L297.52,177.833z"/>
																					</g>
																				</g>
																			</g>
																		</g>
																	</g>
																</g>
															</g>
														</g>
													</g>
												</g>
											</g>
										</g>
										<g>
											<g>
												<g>
													<g>
														<g>
															<g>
																<g>
																	<g>
																		<g>
																			<path fill="#263238" d="M308.046,119.359c0.279,0.757,3.062,0.385,6.333,0.765
																				c3.281,0.314,5.923,1.261,6.354,0.579c0.192-0.328-0.271-1.038-1.341-1.768c-1.06-0.728-2.75-1.416-4.715-1.627
																				c-1.963-0.206-3.761,0.115-4.95,0.604C308.529,118.402,307.926,119.001,308.046,119.359z"/>
																		</g>
																	</g>
																</g>
															</g>
														</g>
													</g>
												</g>
											</g>
										</g>
										<g>
											<g>
												<g>
													<g>
														<g>
															<g>
																<g>
																	<g>
																		<g>
																			<path fill="#263238" d="M282.904,115.765c0.494,0.631,2.412-0.033,4.721-0.075
																				c2.308-0.122,4.267,0.406,4.713-0.258c0.197-0.323-0.113-0.956-0.972-1.552
																				c-0.845-0.595-2.255-1.075-3.843-1.021c-1.587,0.058-2.957,0.638-3.759,1.291
																				C282.951,114.804,282.686,115.456,282.904,115.765z"/>
																		</g>
																	</g>
																</g>
															</g>
														</g>
													</g>
												</g>
											</g>
										</g>
									</g>
								</g>
							</g>
						</g>
					</g>
					<g>
						<g>
							<g>
								<g>
									<g>
										<g>
											<g>
												<g>
													<g>
														<path fill="#FFBE9D" d="M339.853,132.506c0.295-0.145,10.792-4.844,10.97,7.251
															c0.177,12.095-12.002,9.778-12.028,9.431C338.769,148.843,339.853,132.506,339.853,132.506z"/>
													</g>
												</g>
											</g>
										</g>
									</g>
								</g>
							</g>
						</g>
						<g>
							<g>
								<g>
									<g>
										<g>
											<g>
												<g>
													<g>
														<g>
															<path fill="#EB996E" d="M342.423,144.552c0.051-0.039,0.212,0.145,0.57,0.303c0.35,0.153,0.948,0.255,1.575,0.009
																c1.271-0.487,2.316-2.532,2.344-4.712c0.015-1.102-0.23-2.146-0.635-3.009c-0.382-0.879-0.963-1.487-1.608-1.594
																c-0.643-0.139-1.092,0.254-1.234,0.597c-0.158,0.34-0.076,0.581-0.14,0.602c-0.033,0.031-0.263-0.198-0.174-0.699
																c0.046-0.24,0.184-0.528,0.466-0.764c0.285-0.242,0.711-0.367,1.159-0.325c0.934,0.05,1.787,0.896,2.229,1.842
																c0.494,0.949,0.796,2.123,0.779,3.359c-0.042,2.438-1.255,4.738-2.996,5.269c-0.849,0.233-1.562-0.011-1.933-0.292
																C342.448,144.844,342.381,144.574,342.423,144.552z"/>
														</g>
													</g>
												</g>
											</g>
										</g>
									</g>
								</g>
							</g>
						</g>
					</g>
					<g>
						<g>
							<path fill="#263238" d="M295.003,83.409c-6.712,3.507-9.42,17.286-6.604,24.317s10.334,10.438,17.739,12.025
								c7.406,1.587,14.66,1.747,21.948-0.315c0.53,4.905,3.494,9.929,8.261,11.201c6.312,1.687,12.638-4.114,14.011-10.5
								c1.375-6.386-0.757-12.947-2.861-19.13"/>
						</g>
					</g>
					<g>
						<g>
							<g>
								<path fill="#263238" d="M348.565,127.055c0.028,0.038-0.301,0.354-0.929,0.887c-0.63,0.529-1.554,1.285-2.78,2.117
									c-1.227,0.819-2.777,1.732-4.692,2.296c-1.89,0.557-4.207,0.765-6.419-0.065c-2.206-0.828-3.841-2.488-4.877-4.178
									c-1.049-1.709-1.524-3.466-1.763-4.931c-0.234-1.471-0.236-2.676-0.205-3.5c0.035-0.827,0.106-1.278,0.152-1.275
									c0.132-0.005-0.003,1.838,0.538,4.688c0.294,1.413,0.803,3.083,1.823,4.677c1.008,1.581,2.555,3.111,4.576,3.866
									c2.021,0.761,4.186,0.599,5.998,0.1c1.832-0.501,3.361-1.339,4.601-2.093C347.053,128.086,348.493,126.955,348.565,127.055z
									"/>
							</g>
						</g>
					</g>
				</g>
			</g>
			<g>
				<g>
					<g>
						<path fill="#EB996E" d="M300.155,152.597c0.411,1.026,0.832,2.07,1.517,2.939c0.685,0.868,1.683,1.554,2.788,1.602
							c1.179,0.051,2.311-0.651,2.962-1.632c0.652-0.982,0.872-2.203,0.813-3.381c-0.053-1.064-0.546-2.334-1.606-2.454
							c-0.439-0.05-0.871,0.122-1.282,0.292c-1.851,0.76-3.7,1.519-5.552,2.28"/>
					</g>
				</g>
				<g>
					<g>
						<g>
							<path fill="#263238" d="M302.398,157.162c0.027-0.175,1.25,0.317,2.964-0.379c0.829-0.338,1.737-1.005,2.233-2.048
								c0.496-1.03,0.59-2.424,0.057-3.638c-0.123-0.305-0.309-0.583-0.489-0.83c-0.221-0.23-0.181-0.22-0.42-0.184
								c-0.227,0.062-0.592,0.237-0.889,0.354c-0.31,0.128-0.615,0.253-0.912,0.375c-1.188,0.487-2.265,0.914-3.174,1.257
								c-1.817,0.689-2.97,1.053-3.024,0.927s0.999-0.717,2.746-1.569c0.873-0.428,1.92-0.92,3.089-1.453
								c0.294-0.133,0.593-0.27,0.898-0.407c0.323-0.136,0.571-0.282,1.014-0.423c0.218-0.062,0.524-0.098,0.826,0.021
								c0.294,0.118,0.477,0.316,0.615,0.481c0.249,0.329,0.47,0.669,0.629,1.052c0.661,1.518,0.511,3.201-0.149,4.451
								c-0.675,1.276-1.83,1.998-2.812,2.294c-0.999,0.314-1.861,0.243-2.41,0.105C302.636,157.405,302.376,157.22,302.398,157.162z
								"/>
						</g>
					</g>
				</g>
			</g>
			<path fill="#455A64" d="M353.377,124.166c-1.238-0.081-11.222,1.256-10.351,19.821c0.812,17.341,12.963,13.467,16.816,6.921
				C363.492,144.705,365.527,124.965,353.377,124.166z"/>
			<g>
				<path fill="#455A64" d="M359.564,126.332c-0.014,0-0.03-0.167-0.05-0.488c-0.016-0.362-0.039-0.83-0.065-1.413
					c-0.041-1.282-0.1-3.068-0.171-5.289c-0.111-4.561-0.268-10.895-0.446-18.21l0.225,0.219c-1.648,0.011-3.379,0.021-5.15,0.031
					l0.23-0.238c0.044,1.382,0.09,2.84,0.136,4.32c0.205,6.967,0.396,13.456,0.554,18.887l0.006,0.159l-0.155,0.037
					c-2.314,0.554-4.142,1.909-5.289,3.439c-1.169,1.532-1.748,3.155-2.099,4.489c-0.351,1.344-0.467,2.434-0.531,3.174
					c-0.031,0.371-0.048,0.655-0.057,0.848c-0.012,0.192-0.017,0.291-0.027,0.291c-0.01,0-0.024-0.099-0.033-0.291
					c-0.011-0.194-0.015-0.48-0.001-0.854c0.027-0.747,0.107-1.851,0.429-3.222c0.326-1.359,0.881-3.025,2.065-4.625
					c1.158-1.596,3.054-3.037,5.45-3.63l-0.149,0.197c-0.18-5.431-0.396-11.919-0.627-18.886c-0.046-1.479-0.091-2.938-0.134-4.318
					l-0.006-0.238h0.236c1.771-0.007,3.501-0.013,5.15-0.018l0.221-0.001l0.005,0.222c0.112,7.315,0.21,13.65,0.282,18.212
					c0.016,2.222,0.029,4.009,0.04,5.292c-0.005,0.584-0.007,1.053-0.01,1.414C359.587,126.164,359.578,126.332,359.564,126.332z"/>
			</g>
			<path fill="#455A64" d="M353.271,100.953c0,0-5.278-12.203-17.754-18.18c-6.043-2.895-10.562-4.382-14.938-5.462
				c0,0,7.255-1.757,19.03,3.419c5.351,2.352,10.744,5.421,14.322,10.042c2.272,2.935,5.121,8.679,5.124,10.154L353.271,100.953z"/>
			<g>
				<path fill="#FFFFFF" d="M321.712,249.135c-0.004-0.005,0.07-0.088,0.222-0.246c0.147-0.16,0.385-0.384,0.672-0.697
					c0.586-0.623,1.423-1.57,2.403-2.877c0.982-1.305,2.085-2.985,3.24-5.023c1.157-2.036,2.357-4.434,3.664-7.114
					c2.614-5.36,5.64-11.856,8.766-19.298c1.565-3.719,3.159-7.674,4.743-11.835c0.393-1.042,0.788-2.097,1.189-3.159
					c0.396-1.064,0.804-2.16,1.423-3.178c0.609-1.02,1.494-1.922,2.588-2.48c0.541-0.283,1.15-0.497,1.816-0.473
					c0.333,0.027,0.672,0.135,0.952,0.341c0.288,0.206,0.463,0.508,0.607,0.802l0.03,0.061l-0.016,0.07
					c-0.087,0.408-0.214,0.827-0.476,1.194c-0.256,0.369-0.673,0.642-1.113,0.736c-0.892,0.187-1.744-0.093-2.498-0.447
					c-1.619-0.666-2.587-2.577-2.229-4.323c0.164-0.881,0.707-1.684,1.442-2.192c0.731-0.513,1.633-0.784,2.538-0.735
					c0.887,0.052,1.858,0.409,2.354,1.283c0.256,0.428,0.23,1.061-0.086,1.459c-0.296,0.407-0.703,0.652-1.129,0.835
					c-1.511,0.606-3.331,0.085-4.294-1.196c-0.482-0.643-0.686-1.477-0.591-2.254c0.08-0.784,0.414-1.523,0.92-2.113
					c0.507-0.59,1.215-1.021,2.01-1.122c0.778-0.082,1.611,0.132,2.179,0.737c0.284,0.297,0.443,0.722,0.433,1.14
					c0,0.428-0.216,0.834-0.511,1.106c-0.595,0.547-1.416,0.745-2.186,0.599c-0.799-0.165-1.373-0.762-1.747-1.393
					c-0.373-0.646-0.56-1.358-0.665-2.062c-0.184-1.395-0.172-2.866,0.457-4.175c0.337-0.633,0.807-1.222,1.518-1.513
					c0.696-0.281,1.465-0.213,2.126,0.057c0.64,0.277,1.281,0.854,1.316,1.651c0.062,0.775-0.48,1.469-1.126,1.752
					c-0.64,0.31-1.426,0.326-2.058-0.021c-0.628-0.334-1.058-0.933-1.279-1.564c-0.241-0.627-0.227-1.352-0.131-1.956
					c0.078-0.629,0.189-1.256,0.406-1.859c0.204-0.598,0.564-1.193,1.077-1.586c0.498-0.4,1.064-0.692,1.681-0.845
					c0.299-0.065,0.645-0.128,0.986-0.016c0.323,0.105,0.594,0.296,0.82,0.518c0.225,0.226,0.408,0.49,0.529,0.79
					c0.124,0.294,0.171,0.665,0.035,0.988c-0.261,0.682-1.016,0.905-1.595,0.894c-0.614,0.011-1.204-0.23-1.684-0.557
					c-0.963-0.676-1.585-1.724-1.809-2.809c-0.245-1.081-0.127-2.229,0.361-3.188c0.255-0.469,0.567-0.911,0.999-1.234
					c0.424-0.324,0.917-0.528,1.428-0.623c0.508-0.082,1.057-0.053,1.522,0.208c0.458,0.257,0.798,0.738,0.827,1.265
					c0.04,1.062-0.779,1.901-1.676,2.154c-0.962,0.259-1.886-0.258-2.438-0.902c-0.571-0.658-0.87-1.482-0.928-2.286
					c-0.084-1.629,0.551-3.001,0.856-4.286c0.359-1.288,0.687-2.467,0.98-3.527c0.592-2.102,1.054-3.74,1.373-4.874
					c0.157-0.541,0.279-0.961,0.368-1.265c0.086-0.283,0.141-0.427,0.141-0.427s-0.024,0.151-0.095,0.44
					c-0.077,0.307-0.184,0.729-0.324,1.276c-0.299,1.14-0.732,2.787-1.288,4.896c-0.283,1.065-0.598,2.245-0.941,3.535
					c-0.299,1.298-0.906,2.682-0.811,4.212c0.059,0.748,0.347,1.52,0.878,2.121c0.505,0.59,1.354,1.029,2.149,0.801
					c0.774-0.213,1.494-0.997,1.44-1.844c-0.021-0.414-0.299-0.804-0.671-1.01c-0.378-0.21-0.854-0.24-1.31-0.162
					c-0.454,0.086-0.903,0.273-1.277,0.565c-0.378,0.281-0.669,0.694-0.898,1.123c-0.442,0.877-0.551,1.948-0.317,2.954
					c0.211,1.01,0.797,1.97,1.669,2.576c0.442,0.295,0.937,0.493,1.473,0.485c0.515,0.006,1.073-0.196,1.235-0.651
					c0.18-0.435-0.113-0.991-0.481-1.361c-0.192-0.188-0.421-0.342-0.662-0.42c-0.229-0.078-0.498-0.034-0.775,0.025
					c-1.091,0.287-2.128,1.036-2.466,2.181c-0.197,0.56-0.305,1.161-0.38,1.771c-0.093,0.625-0.095,1.196,0.114,1.767
					c0.197,0.556,0.568,1.061,1.086,1.33c0.498,0.276,1.145,0.266,1.672,0.009c0.534-0.241,0.925-0.769,0.88-1.341
					c-0.02-0.568-0.507-1.033-1.059-1.272c-0.562-0.229-1.229-0.282-1.788-0.052c-0.551,0.216-0.998,0.749-1.285,1.305
					c-0.563,1.166-0.59,2.577-0.408,3.908c0.102,0.667,0.279,1.329,0.611,1.9c0.326,0.557,0.838,1.056,1.446,1.174
					c0.614,0.121,1.323-0.059,1.776-0.483c0.481-0.409,0.482-1.156,0.053-1.606c-0.419-0.459-1.14-0.663-1.783-0.587
					c-0.65,0.083-1.271,0.45-1.713,0.966c-0.896,1.018-1.15,2.681-0.305,3.787c0.812,1.102,2.458,1.572,3.741,1.042
					c0.361-0.151,0.719-0.377,0.928-0.673c0.217-0.292,0.23-0.651,0.056-0.97c-0.363-0.66-1.189-1-1.969-1.038
					c-1.585-0.104-3.232,0.994-3.503,2.553c-0.308,1.536,0.529,3.232,1.974,3.819c0.701,0.336,1.494,0.569,2.197,0.417
					c0.724-0.134,1.116-0.839,1.246-1.568l0.016,0.129c-0.212-0.506-0.638-0.842-1.171-0.869c-0.532-0.022-1.085,0.157-1.583,0.419
					c-1.015,0.521-1.836,1.347-2.416,2.315c-0.591,0.965-0.994,2.036-1.392,3.099c-0.403,1.063-0.803,2.116-1.197,3.159
					c-1.596,4.162-3.202,8.117-4.782,11.836c-3.154,7.438-6.214,13.926-8.866,19.271c-1.324,2.674-2.547,5.067-3.729,7.1
					c-1.18,2.034-2.305,3.709-3.312,5.004C323.119,248.006,321.712,249.135,321.712,249.135z"/>
			</g>
			<g>
				<path fill="#455A64" d="M364.181,115.409c-0.081,0.018,0.031-1.266-0.83-3.304c-0.835-2-2.88-4.71-6.451-6.404
					c-1.771-0.826-3.893-1.344-6.196-1.485c-2.306-0.141-4.785,0.091-7.339,0.593c-5.125,0.967-10.5,3.205-16.527,4.143
					c-3.02,0.407-6.012,0.402-8.859,0.028c-2.848-0.386-5.515-1.182-7.972-2.123c-4.887-1.99-8.832-4.781-11.63-7.605
					c-2.813-2.817-4.636-5.518-5.652-7.489c-0.287-0.476-0.498-0.922-0.664-1.316c-0.17-0.383-0.314-0.71-0.438-0.987
					c-0.106-0.248-0.191-0.448-0.262-0.61c-0.055-0.139-0.08-0.211-0.073-0.215s0.048,0.063,0.118,0.195
					c0.08,0.157,0.18,0.352,0.302,0.592c0.135,0.271,0.293,0.592,0.478,0.964c0.179,0.387,0.401,0.822,0.699,1.29
					c1.058,1.934,2.908,4.58,5.724,7.341c2.801,2.769,6.723,5.497,11.558,7.443c2.432,0.919,5.066,1.694,7.876,2.07
					c2.808,0.361,5.754,0.362,8.729-0.039c5.946-0.92,11.331-3.146,16.514-4.101c2.581-0.498,5.099-0.719,7.446-0.56
					c2.343,0.161,4.504,0.708,6.314,1.575c3.633,1.771,5.676,4.574,6.476,6.631c0.433,1.034,0.548,1.906,0.633,2.481
					c0.014,0.271,0.024,0.489,0.034,0.666C364.189,115.333,364.188,115.409,364.181,115.409z"/>
			</g>
			<g>
				<path fill="#455A64" d="M350.591,96.189c0.002,0.016-0.219,0.057-0.64,0.117c-0.423,0.059-1.044,0.154-1.839,0.296
					c-1.595,0.272-3.876,0.792-6.683,1.503c-2.805,0.709-6.166,1.568-9.996,1.984c-3.82,0.422-8.082,0.406-12.478-0.216
					c-4.397-0.616-8.495-1.771-12.067-3.187c-3.573-1.422-6.637-3.069-9.068-4.657c-1.205-0.811-2.287-1.559-3.195-2.267
					c-0.893-0.733-1.691-1.324-2.283-1.881c-0.565-0.527-1.021-0.951-1.366-1.274c-0.309-0.295-0.465-0.455-0.454-0.466
					c0.011-0.012,0.188,0.125,0.519,0.396c0.358,0.307,0.831,0.706,1.419,1.205c0.607,0.534,1.42,1.102,2.322,1.812
					c0.918,0.685,2.008,1.41,3.216,2.196c4.858,3.077,12.271,6.459,21.024,7.66c4.356,0.617,8.577,0.645,12.367,0.25
					c3.796-0.389,7.146-1.208,9.964-1.876c2.816-0.673,5.121-1.146,6.73-1.362c0.804-0.114,1.431-0.181,1.856-0.211
					C350.366,96.182,350.59,96.174,350.591,96.189z"/>
			</g>
			<g>
				<path fill="#263238" d="M352.192,156.128c-0.006,0.015-0.126-0.021-0.351-0.101c-0.222-0.089-0.546-0.23-0.93-0.476
					c-0.771-0.476-1.797-1.37-2.632-2.781c-0.845-1.405-1.408-3.308-1.629-5.439c-0.217-2.13-0.228-4.481-0.041-6.938
					c0.196-2.457,0.601-4.775,1.119-6.847c0.511-2.065,1.125-3.92,1.974-5.319c0.834-1.408,1.85-2.316,2.62-2.791
					c0.386-0.242,0.707-0.389,0.931-0.474c0.225-0.083,0.347-0.114,0.352-0.101c0.019,0.04-0.457,0.211-1.182,0.726
					c-0.721,0.509-1.663,1.419-2.437,2.804c-0.785,1.378-1.357,3.201-1.841,5.257c-0.49,2.055-0.878,4.353-1.071,6.782
					c-0.186,2.428-0.188,4.763,0.002,6.857c0.193,2.094,0.71,3.943,1.49,5.318c0.77,1.387,1.726,2.286,2.445,2.796
					C351.734,155.92,352.211,156.084,352.192,156.128z"/>
			</g>
			<g>
				<path fill="#455A64" d="M313.02,158.874l-9.168,1.844c-1.382,0.276-2.728-0.618-3.005-2l-0.067-0.338
					c-0.277-1.381,0.617-2.728,1.998-3.004l9.168-1.842c1.382-0.278,2.728,0.616,3.005,1.999l0.068,0.338
					C315.295,157.252,314.4,158.598,313.02,158.874z"/>
				<path fill="#455A64" d="M313.704,154.902l42.388-13.507c1.049-0.333,2.171,0.241,2.512,1.288l0,0
					c0.353,1.085-0.272,2.246-1.373,2.549l-43.354,11.923L313.704,154.902z"/>
				<g>
					<path fill="#263238" d="M345.052,148.908c-0.009-0.031,0.491-0.208,1.404-0.501c0.991-0.307,2.298-0.711,3.875-1.2
						c1.627-0.511,3.624-1.049,5.736-1.752c0.509-0.199,1.005-0.469,1.387-0.862c0.366-0.384,0.603-0.935,0.59-1.479
						c-0.003-0.545-0.353-1.033-0.882-1.212c-0.532-0.174-1.166-0.092-1.774,0.063c-4.927,1.608-9.384,3.064-12.708,4.15
						c-1.576,0.496-2.881,0.906-3.87,1.216c-0.918,0.277-1.431,0.416-1.441,0.385c-0.01-0.029,0.483-0.228,1.383-0.556
						c0.979-0.348,2.268-0.804,3.824-1.355c3.245-1.119,7.694-2.666,12.695-4.292c0.649-0.16,1.351-0.271,2.043-0.047
						c0.699,0.219,1.198,0.935,1.188,1.636c0.008,0.692-0.277,1.332-0.729,1.803c-0.45,0.457-1.008,0.744-1.549,0.951
						c-2.191,0.704-4.146,1.194-5.8,1.67c-1.595,0.43-2.916,0.785-3.917,1.057C345.579,148.821,345.062,148.939,345.052,148.908z"/>
				</g>
			</g>
			<path fill="#263238" d="M275.496,116.707c1.476,5.094-3.689,9.492-5.492,14.48c-1.744,4.824-0.216,10.214,1.979,14.851
				c2.192,4.637,5.073,9.03,6.208,14.033c2.8,12.333-8.304,25.683-6.123,38.14c0.797,4.539,2.646,9.271,4.251,13.587
				c1.605,4.317,1.512,8.274,0.058,12.645c-2.382,7.152-6.463,10.537-9.315,17.512c-1.459,3.569-1.325,7.557-1.233,11.409
				c0.091,3.853,0.081,7.871-1.617,11.33s-5.612,6.146-9.339,5.161c3.916,4.563,11.113,5.899,16.406,3.048
				c4.885-2.632,7.6-7.944,9.918-12.984c11.238-24.396,17.229-26.478,16.797-53.334c-0.028-1.729-0.472-28.627-0.472-28.627
				s-4.254-1.115-6.71-2.794c-12.714-8.688-13.244-24.275-13.198-36.356"/>
		</g>
		<g>
			<path fill="#FFBE9D" d="M301.221,198.081l0.046,10.136c0,0-7.617,39.799-9.858,61.9c-2.238,22.101-2.608,27.931-2.608,27.931
				s5.634,8.701,17.262-6.165s13.697-17.216,18.374-17.495c0,0-5.996-62.09-5.748-64.43c0.25-2.341,2.061-4.429,2.061-4.429
				L301.221,198.081z"/>
			<g>
				<path fill="#FFBE9D" d="M316.453,175.141c0,0-12.66,16.951-13.688,19.295c-1.03,2.344-1.544,3.646-1.544,3.646l19.527,7.448
					l18.878-20.876l6.935-18.483l-2.178-21.822c0,0-4.16-0.241-4.923,3.4c-0.763,3.643-0.488,7.021-0.488,7.021l-5.845-4.653
					l-9.394-2.815c0,0-2.191,3.647,1.455,5.452c3.646,1.803,4.687,1.798,4.687,1.798l3.298,5.702l-1.402,6.412l-6.661-6.19
					c-1.336-1.241-3.368-1.36-4.839-0.281l-4.271,3.137l-4.026-1.776l-7.766,6.887l-3.106,2.873c0,0,2.097,3.889,6.246,2.051
					c4.151-1.838,4.151-1.838,4.151-1.838L316.453,175.141z"/>
				<g>
					<path fill="#EB996E" d="M301.235,201.502c0,0-0.016-0.183-0.005-0.542c0.01-0.357,0.039-0.891,0.119-1.585
						c0.085-0.696,0.218-1.555,0.477-2.551c0.285-0.982,0.607-2.147,1.354-3.279c2.892-4.49,7.455-10.737,13.141-18.5l0.035,0.229
						c-1.548-1.125-3.224-2.344-4.961-3.606l0.173,0.019c-0.839,0.373-1.693,0.754-2.563,1.142c-0.875,0.369-1.73,0.841-2.734,1.079
						c-0.987,0.23-2.1,0.163-3.044-0.331c-0.957-0.468-1.729-1.238-2.296-2.171l-0.077-0.126l0.116-0.109
						c3.338-3.161,7.049-6.361,10.862-9.775l0.114-0.102l0.136,0.077c1.073,0.629,2.265,1.325,3.469,2.028l-0.229,0.008
						c1.327-0.883,2.674-1.777,4.039-2.685c0.697-0.453,1.336-0.914,2.095-1.367c0.813-0.418,1.862-0.335,2.607,0.216
						c2.583,2.163,5.228,4.376,7.92,6.631l-0.371,0.126c0.42-1.928,0.876-4.017,1.335-6.124l0.026,0.165
						c-1.043-1.803-2.167-3.744-3.3-5.702l0.203,0.117c-0.618-0.065-1.087-0.249-1.618-0.429c-0.515-0.186-1.023-0.398-1.532-0.623
						c-0.51-0.225-1.015-0.466-1.521-0.713c-0.253-0.123-0.508-0.287-0.762-0.431c-0.225-0.197-0.487-0.346-0.676-0.587
						c-0.602-0.63-0.953-1.521-0.913-2.384c0.016-0.868,0.271-1.682,0.682-2.438l0.086-0.157l0.18,0.055
						c3.174,0.952,6.307,1.893,9.394,2.818l0.042,0.014l0.035,0.026c1.972,1.573,3.92,3.124,5.842,4.655l-0.369,0.197
						c-0.132-2.357,0.021-4.674,0.464-6.923c0.191-1.147,0.868-2.281,1.884-2.886c1.004-0.627,2.155-0.865,3.303-0.85l0.188,0.002
						l0.019,0.195c0.766,7.757,1.487,15.066,2.155,21.823l0.004,0.047l-0.017,0.043c-2.57,6.813-4.899,12.991-6.967,18.471
						l-0.012,0.028l-0.019,0.023c-6.209,6.818-11.204,12.306-14.659,16.102c-1.724,1.877-3.059,3.333-3.978,4.335
						c-0.449,0.481-0.794,0.853-1.039,1.115c-0.237,0.251-0.365,0.369-0.365,0.369s0.105-0.14,0.33-0.399
						c0.237-0.271,0.572-0.65,1.007-1.146c0.903-1.015,2.22-2.49,3.913-4.392c3.431-3.818,8.39-9.339,14.552-16.2l-0.031,0.053
						c2.047-5.487,4.355-11.674,6.9-18.496l-0.012,0.088c-0.681-6.758-1.418-14.064-2.2-21.82l0.206,0.198
						c-1.038-0.015-2.147,0.22-3.039,0.786c-0.912,0.553-1.499,1.524-1.683,2.601c-0.433,2.196-0.581,4.503-0.45,6.794l0.03,0.516
						l-0.398-0.318c-1.925-1.529-3.872-3.079-5.846-4.648l0.076,0.041c-3.087-0.926-6.22-1.864-9.394-2.815l0.267-0.103
						c-0.36,0.66-0.606,1.44-0.614,2.201c-0.033,0.768,0.267,1.508,0.787,2.061c0.159,0.21,0.402,0.344,0.598,0.52
						c0.237,0.132,0.456,0.276,0.705,0.398c0.503,0.244,1.003,0.484,1.505,0.704c0.985,0.427,2.044,0.877,2.96,1.014l0.147,0.022
						l0.054,0.094c1.132,1.957,2.257,3.898,3.298,5.702l0.045,0.079l-0.02,0.087c-0.462,2.106-0.918,4.194-1.34,6.122l-0.081,0.37
						l-0.29-0.243c-2.681-2.251-5.315-4.46-7.889-6.62c-0.611-0.454-1.475-0.525-2.145-0.181c-0.666,0.399-1.374,0.898-2.052,1.338
						c-1.366,0.905-2.715,1.798-4.042,2.676l-0.114,0.076l-0.114-0.069c-1.203-0.705-2.394-1.403-3.468-2.034l0.249-0.024
						c-3.818,3.405-7.537,6.596-10.881,9.743l0.039-0.236c0.51,0.842,1.251,1.593,2.124,2.015c0.865,0.456,1.872,0.521,2.794,0.311
						c0.918-0.212,1.789-0.68,2.668-1.047c0.871-0.385,1.729-0.763,2.569-1.133l0.094-0.04l0.08,0.059
						c1.733,1.271,3.404,2.495,4.947,3.627l0.134,0.098l-0.1,0.131c-5.716,7.734-10.323,13.958-13.251,18.401
						c-0.741,1.098-1.078,2.253-1.372,3.222c-0.273,0.981-0.418,1.835-0.517,2.523c-0.097,0.691-0.14,1.223-0.166,1.578
						C301.251,201.319,301.235,201.502,301.235,201.502z"/>
				</g>
				<g>
					<path fill="#EB996E" d="M325.256,179.015c-0.093-0.016,0.246-1.38,0.378-3.595c0.041-1.099-0.027-2.446-0.631-3.753
						c-0.601-1.31-1.778-2.447-3.12-3.474c-2.707-2.07-5.317-3.733-7.236-4.881c-0.898-0.522-1.662-0.968-2.291-1.334
						c-0.542-0.313-0.839-0.494-0.825-0.524c0.015-0.028,0.34,0.099,0.909,0.364c0.57,0.263,1.383,0.669,2.37,1.209
						c1.973,1.078,4.626,2.709,7.357,4.799c1.361,1.04,2.602,2.24,3.226,3.662c0.625,1.415,0.653,2.83,0.57,3.95
						c-0.089,1.133-0.289,2.024-0.427,2.637C325.39,178.688,325.287,179.021,325.256,179.015z"/>
				</g>
				<g>
					<path fill="#EB996E" d="M338.86,170.844c-0.07-0.018,0.114-0.902,0.321-2.339c0.207-1.438,0.4-3.436,0.374-5.647
						c-0.03-2.213-0.277-4.206-0.521-5.636c-0.243-1.432-0.451-2.312-0.381-2.331c0.054-0.016,0.375,0.835,0.703,2.268
						c0.331,1.429,0.633,3.447,0.665,5.693c0.028,2.245-0.224,4.271-0.517,5.707C339.213,169.998,338.915,170.857,338.86,170.844z"
						/>
				</g>
			</g>
		</g>
	</g>
	<g>
		<g>
			<g>
				<g>
					<path fill="#FFFFFF" d="M251.684,104.946l-9.4-16.395c4.097-6.717,6.445-14.61,6.407-23.054
						c-0.109-24.279-19.88-43.873-44.159-43.764c-24.28,0.108-43.874,19.88-43.765,44.16c0.109,24.279,19.88,43.873,44.159,43.765
						c10.139-0.046,19.452-3.528,26.863-9.328l-0.015,0.021L251.684,104.946z"/>
					<g>
						<path fill="#263238" d="M251.684,104.946c-0.814-0.185-7.2-1.619-19.936-4.481l-0.175-0.04l0.108-0.144l0.016-0.02
							l0.164,0.161c-2.5,1.952-5.494,3.878-9.017,5.486c-3.527,1.582-7.57,2.879-12.038,3.493c-2.23,0.295-4.561,0.486-6.956,0.381
							c-1.197-0.062-2.418-0.087-3.646-0.185c-1.223-0.179-2.461-0.359-3.717-0.544c-4.979-0.962-10.074-2.828-14.833-5.752
							c-4.755-2.913-9.163-6.878-12.704-11.758c-3.537-4.871-6.227-10.652-7.501-16.942c-1.265-6.282-1.192-13.021,0.431-19.55
							c1.635-6.506,4.711-12.869,9.337-18.113l1.786-1.982c0.587-0.667,1.287-1.217,1.924-1.829
							c0.666-0.579,1.266-1.234,1.984-1.747c0.701-0.53,1.402-1.059,2.102-1.586c0.681-0.556,1.431-1.003,2.177-1.454
							c0.742-0.456,1.484-0.91,2.223-1.364c0.777-0.382,1.556-0.762,2.329-1.143c0.781-0.365,1.532-0.795,2.353-1.059
							c6.37-2.562,13.172-3.558,19.683-3.116c6.51,0.44,12.746,2.278,18.104,5.262c5.372,2.957,9.91,6.92,13.42,11.353
							c3.52,4.437,6.007,9.335,7.557,14.217c1.54,4.905,1.974,9.776,1.977,14.286c-0.109,4.521-0.91,8.691-2.093,12.353
							c-1.183,3.666-2.745,6.824-4.361,9.479v-0.114C248.346,99.043,251.29,104.25,251.684,104.946
							c-0.4-0.69-3.407-5.863-9.496-16.341l-0.032-0.056l0.032-0.058c1.594-2.652,3.132-5.799,4.292-9.447
							c1.158-3.645,1.94-7.787,2.034-12.277c-0.02-4.478-0.464-9.309-2.003-14.168c-1.55-4.838-4.027-9.688-7.523-14.077
							c-3.485-4.388-7.987-8.305-13.312-11.227c-5.308-2.948-11.484-4.761-17.929-5.189c-6.445-0.432-13.175,0.558-19.479,3.096
							c-0.81,0.26-1.552,0.688-2.325,1.05c-0.766,0.375-1.534,0.754-2.304,1.131c-0.731,0.449-1.464,0.898-2.2,1.35
							c-0.736,0.447-1.479,0.89-2.152,1.439c-0.691,0.521-1.385,1.047-2.079,1.57c-0.711,0.507-1.305,1.156-1.963,1.729
							c-0.63,0.606-1.324,1.149-1.905,1.811l-1.767,1.961c-4.578,5.188-7.623,11.485-9.243,17.92
							c-1.606,6.46-1.685,13.132-0.438,19.35c1.257,6.227,3.913,11.953,7.407,16.781c3.502,4.837,7.862,8.771,12.567,11.668
							c4.711,2.905,9.757,4.768,14.692,5.731c1.244,0.187,2.473,0.368,3.685,0.552c1.219,0.099,2.428,0.125,3.615,0.191
							c2.379,0.113,4.69-0.072,6.905-0.358c4.437-0.595,8.455-1.867,11.965-3.424c3.508-1.585,6.494-3.485,8.991-5.413l0.699-0.541
							l-0.535,0.702l-0.015,0.021l-0.067-0.184C244.502,103.245,250.873,104.752,251.684,104.946z"/>
					</g>
				</g>
			</g>
		</g>
		<g>
			<g>
				<g>
					<g>
						<g>
							<circle fill="#263238" cx="191.631" cy="65.755" r="3.569"/>
						</g>
					</g>
				</g>
			</g>
			<g>
				<g>
					<g>
						<g>
							<circle fill="#263238" cx="205.916" cy="65.692" r="3.569"/>
						</g>
					</g>
				</g>
			</g>
			<g>
				<g>
					<g>
						<g>
							<circle fill="#263238" cx="220.641" cy="65.625" r="3.57"/>
						</g>
					</g>
				</g>
			</g>
		</g>
	</g>
	<g>
		<path fill="#263238" d="M428.697,344.183c0,0.129-90.949,0.644-203.119,1.147c-112.206,0.505-203.138,0.81-203.139,0.681
			c0-0.128,90.931-0.643,203.137-1.147C337.746,344.359,428.696,344.055,428.697,344.183z"/>
	</g>
	<g>
		<g>
			<path fill="#455A64" d="M313.743,345.918c0,0,6.021-10.39,19.086-10.892c13.066-0.503,19.65,10.718,19.65,10.718L313.743,345.918
				z"/>
		</g>
		<g>
			<g>
				<path fill="#263238" d="M338.783,345.481c-0.096,0.001-0.121-0.766-0.391-1.948c-0.265-1.181-0.844-2.771-1.884-4.297
					c-1.048-1.519-2.323-2.633-3.33-3.305c-1.007-0.676-1.712-0.977-1.677-1.066c0.019-0.057,0.787,0.111,1.889,0.725
					c1.1,0.606,2.49,1.729,3.588,3.325c1.093,1.599,1.641,3.3,1.811,4.544C338.965,344.708,338.845,345.485,338.783,345.481z"/>
			</g>
		</g>
	</g>
	<g>
		<path fill="#455A64" d="M305.65,315.48l-0.002-0.083c-0.056-2.737-2.299-4.925-5.038-4.912l-111.246,0.501
			c-2.771,0.013-5.008,2.269-4.995,5.039l0,0L305.65,315.48z"/>
	</g>
	<g>
		<path fill="#263238" d="M91.809,151.571c0.011,2.341,2.393,142.046,2.393,142.046l103.88,24.501l8.583-0.038l-6.341-195.029
			l-7.801,0.035L91.809,151.571z"/>
		<path fill="#263238" d="M114.367,287.679L82.472,346.77l29.395-0.133c-5.259-0.502,46.548-0.209,46.548-0.209l-46.604-12.135
			l14.406-33.124l-1.303-13.538L114.367,287.679z"/>
		<polygon fill="#263238" points="115.133,298.555 111.156,188.711 142.74,185.539 147.165,302.823 135.878,303.447 		"/>
		<g>
			<path fill="#455A64" d="M151.599,307.154c0,0-0.014-0.172-0.021-0.51c-0.006-0.352-0.015-0.852-0.026-1.506
				c-0.014-1.34-0.035-3.299-0.063-5.838c-0.036-5.105-0.093-12.527-0.163-21.85c-0.104-18.674-0.251-44.951-0.421-75.425
				l0.223,0.222c-11.693,0.056-24.273,0.115-37.283,0.178l0.232-0.233c0.006,1.603,0.014,3.333,0.021,5.069
				c0.12,29.715,0.231,57.375,0.325,80.415v0.051l-0.023,0.044c-9.599,17.787-17.56,32.541-23.13,42.863
				c-2.789,5.141-4.979,9.176-6.477,11.938c-0.748,1.364-1.322,2.412-1.715,3.132c-0.393,0.707-0.606,1.064-0.606,1.064
				s0.18-0.377,0.551-1.094c0.384-0.725,0.941-1.782,1.666-3.159c1.478-2.773,3.635-6.825,6.384-11.989
				c5.533-10.339,13.444-25.122,22.982-42.941l-0.022,0.093c-0.115-23.041-0.253-50.7-0.399-80.415
				c-0.009-1.736-0.016-3.467-0.022-5.069l-0.002-0.233l0.232-0.001c13.011-0.056,25.591-0.108,37.284-0.158l0.224-0.001
				l0.001,0.225c0.104,30.473,0.191,56.751,0.257,75.424c0.015,9.322,0.025,16.745,0.033,21.852
				c-0.005,2.539-0.009,4.498-0.01,5.838c-0.006,0.654-0.011,1.154-0.013,1.506C151.612,306.982,151.599,307.154,151.599,307.154z"
				/>
		</g>
		<g>
			
				<ellipse transform="matrix(0.4014 -0.9159 0.9159 0.4014 -227.4576 300.4466)" fill="#455A64" cx="116.112" cy="324.228" rx="25.176" ry="0.234"/>
		</g>
		<g>
			<path fill="#455A64" d="M198.081,318.118c0,0-0.017-0.171-0.027-0.503c-0.009-0.351-0.021-0.841-0.036-1.476
				c-0.022-1.313-0.054-3.22-0.095-5.667c-0.058-4.925-0.202-12.049-0.414-20.85c-0.415-17.605-1.317-41.912-2.414-68.758
				c-1.097-26.854-1.947-51.17-2.277-68.779c-0.171-8.803-0.265-15.928-0.267-20.854c-0.003-2.447-0.006-4.354-0.007-5.669
				c0.004-0.634,0.008-1.125,0.01-1.475c0.005-0.332,0.02-0.503,0.02-0.503s0.019,0.171,0.028,0.503
				c0.009,0.35,0.021,0.841,0.036,1.475c0.021,1.314,0.053,3.221,0.094,5.667c0.059,4.924,0.202,12.048,0.415,20.849
				c0.414,17.604,1.318,41.915,2.414,68.768c1.096,26.846,1.947,51.159,2.276,68.769c0.172,8.804,0.264,15.93,0.268,20.854
				c0.003,2.449,0.005,4.356,0.006,5.671c-0.004,0.635-0.008,1.125-0.01,1.476C198.096,317.947,198.081,318.118,198.081,318.118z"/>
		</g>
		<g>
			<path fill="#455A64" d="M145.462,201.238c0.129-0.001,0.34,23.365,0.469,52.184c0.13,28.826,0.131,52.189,0.001,52.189
				c-0.127,0-0.338-23.361-0.467-52.188C145.335,224.606,145.334,201.238,145.462,201.238z"/>
		</g>
		<g>
			<path fill="#455A64" d="M90.161,337.533c-0.014,0.01-0.168-0.204-0.449-0.62c-0.146-0.22-0.319-0.477-0.517-0.772
				c-0.213-0.301-0.434-0.664-0.649-1.09c-0.974-1.643-2.088-4.214-2.871-7.547c-0.778-3.335-1.058-7.455-0.608-11.959
				c0.495-4.494,1.68-9.382,3.814-14.156c1.076-2.392,2.47-4.561,4.026-6.472c0.375-0.491,0.762-0.962,1.181-1.402
				c0.408-0.445,0.801-0.898,1.213-1.323c0.858-0.819,1.663-1.658,2.547-2.368c1.697-1.503,3.49-2.702,5.182-3.791
				c0.879-0.487,1.707-0.998,2.545-1.412c0.85-0.39,1.632-0.833,2.437-1.125c3.164-1.303,5.89-1.942,7.794-2.114
				c0.943-0.162,1.693-0.107,2.192-0.144c0.502-0.012,0.766-0.01,0.766,0.006c0,0.017-0.264,0.046-0.763,0.087
				c-0.496,0.067-1.238,0.041-2.172,0.232c-1.883,0.223-4.571,0.905-7.688,2.234c-0.793,0.301-1.563,0.75-2.399,1.143
				c-0.826,0.418-1.643,0.932-2.51,1.423c-1.665,1.092-3.433,2.29-5.102,3.786c-0.871,0.708-1.663,1.541-2.51,2.352
				c-0.403,0.423-0.792,0.872-1.194,1.314c-0.41,0.435-0.791,0.902-1.159,1.387c-1.533,1.891-2.904,4.03-3.961,6.379
				c-2.11,4.718-3.301,9.566-3.811,14.011c-0.469,4.456-0.228,8.533,0.502,11.841c0.734,3.309,1.789,5.875,2.709,7.531
				c0.203,0.43,0.409,0.799,0.608,1.105c0.183,0.304,0.341,0.567,0.477,0.793C90.046,337.292,90.174,337.525,90.161,337.533z"/>
		</g>
	</g>
</g>
</svg>
