<?xml version="1.0" encoding="utf-8"?>
<!-- Generator: Adobe Illustrator 16.0.0, SVG Export Plug-In . SVG Version: 6.00 Build 0)  -->
<!DOCTYPE svg PUBLIC "-//W3C//DTD SVG 1.1//EN" "http://www.w3.org/Graphics/SVG/1.1/DTD/svg11.dtd">
<svg version="1.1" id="Layer_1" xmlns="http://www.w3.org/2000/svg" xmlns:xlink="http://www.w3.org/1999/xlink" x="0px" y="0px"
	 width="40.5px" height="31.5px" viewBox="0 0 40.5 31.5" enable-background="new 0 0 40.5 31.5" xml:space="preserve">
<path fill="#EF8122" d="M23.902,24.451c-2.925,0-6.191-1.891-8.646-4.348c-1.979-1.98-3.403-4.261-4.011-6.418
	c-0.713-2.536-0.26-4.708,1.315-6.284c0.33-0.33,0.805-0.493,1.302-0.449c0.467,0.041,0.92,0.26,1.271,0.612L17.6,10.03
	c0.445,0.445,0.672,1.053,0.609,1.627c-0.057,0.489-0.309,0.901-0.713,1.157l-1.071,0.675c0.923,1.171,4.278,4.523,5.446,5.447
	l0.675-1.072c0.256-0.405,0.663-0.656,1.157-0.712c0.578-0.063,1.182,0.163,1.627,0.607l2.465,2.465
	c0.354,0.354,0.572,0.805,0.612,1.271c0.044,0.498-0.118,0.973-0.448,1.303C26.799,23.959,25.396,24.451,23.902,24.451z
	 M13.699,8.054c-0.137,0-0.263,0.044-0.352,0.133c-2.899,2.899-0.635,7.8,2.695,11.129c3.329,3.33,8.23,5.591,11.13,2.695
	c0.226-0.226,0.151-0.686-0.159-1l-2.466-2.467c-0.208-0.207-0.475-0.318-0.72-0.289c-0.104,0.012-0.248,0.057-0.337,0.201
	l-1.03,1.609c-0.471,0.471-1.046-0.037-1.913-0.809c-0.616-0.549-1.421-1.312-2.259-2.15c-0.845-0.845-1.619-1.658-2.172-2.28
	c-0.779-0.875-1.291-1.454-0.819-1.928l0.097-0.078l1.512-0.953c0.145-0.089,0.189-0.234,0.201-0.337
	c0.025-0.241-0.082-0.512-0.289-0.719l-2.466-2.465C14.16,8.158,13.915,8.054,13.699,8.054z"/>
</svg>
