<?xml version="1.0" encoding="utf-8"?>
<!-- Generator: Adobe Illustrator 16.0.0, SVG Export Plug-In . SVG Version: 6.00 Build 0)  -->
<!DOCTYPE svg PUBLIC "-//W3C//DTD SVG 1.1//EN" "http://www.w3.org/Graphics/SVG/1.1/DTD/svg11.dtd">
<svg version="1.1" id="Layer_1" xmlns="http://www.w3.org/2000/svg" xmlns:xlink="http://www.w3.org/1999/xlink" x="0px" y="0px"
	 width="67.5px" height="61.75px" viewBox="0 0 67.5 61.75" enable-background="new 0 0 67.5 61.75" xml:space="preserve">
<g>
	<g>
		<g>
			<path fill="#005E9C" stroke="#005E9C" stroke-linecap="round" stroke-linejoin="round" stroke-miterlimit="10" d="M52.442,42.424
				l-2.797,0.014c-1.183,0.006-2.149-0.953-2.153-2.137l-0.076-16.68c-0.004-1.184,0.953-2.148,2.135-2.154l2.797-0.012
				c2.725-0.012,4.951,2.193,4.963,4.918l0.051,11.086C57.373,40.186,55.167,42.412,52.442,42.424z M49.557,22.875
				c-0.406,0-0.734,0.334-0.733,0.738l0.075,16.682c0.002,0.408,0.334,0.736,0.74,0.734l2.797-0.012
				c1.949-0.01,3.527-1.602,3.52-3.551l-0.051-11.088c-0.009-1.947-1.602-3.527-3.55-3.518L49.557,22.875z"/>
		</g>
		<g>
			<path fill="#005E9C" stroke="#005E9C" stroke-linecap="round" stroke-linejoin="round" stroke-miterlimit="10" d="M18.476,42.576
				l-2.612,0.012c-2.725,0.014-4.951-2.193-4.964-4.918l-0.05-11.088c-0.012-2.725,2.195-4.951,4.918-4.965l2.613-0.01
				c1.285-0.006,2.334,1.035,2.34,2.318l0.072,16.311C20.799,41.523,19.76,42.57,18.476,42.576z M15.775,23.025
				c-1.949,0.01-3.527,1.602-3.519,3.551l0.05,11.088c0.009,1.949,1.602,3.525,3.551,3.518l2.611-0.012
				c0.509-0.002,0.92-0.418,0.918-0.926l-0.073-16.312c-0.001-0.508-0.417-0.92-0.926-0.918L15.775,23.025z"/>
		</g>
		<g>
			<path fill="#005E9C" stroke="#005E9C" stroke-linecap="round" stroke-linejoin="round" stroke-miterlimit="10" d="M53.055,22.154
				l-1.407,0.008C51.596,10.445,42.455,5.15,33.984,5.189c-8.469,0.039-17.562,5.414-17.509,17.131l-1.407,0.004
				c-0.025-5.693,2.014-10.492,5.896-13.873c3.432-2.988,8.054-4.645,13.014-4.668c4.961-0.021,9.596,1.594,13.055,4.551
				C50.947,11.68,53.029,16.459,53.055,22.154z"/>
		</g>
		<g>
			<path fill="#005E9C" stroke="#005E9C" stroke-linecap="round" stroke-linejoin="round" stroke-miterlimit="10" d="M46.623,13.576
				c-1.187,0.006-2.365-0.463-3.273-1.361c-4.764-4.723-14.058-4.67-19.125,0.109c-1.488,1.406-3.83,1.576-5.566,0.406l-0.264-0.18
				l0.787-1.166l0.264,0.178c1.193,0.805,2.799,0.695,3.814-0.26c5.676-5.357,15.723-5.398,21.081-0.088
				c1.017,1.01,2.517,1.24,3.731,0.578l0.896-0.488l0.674,1.236l-0.896,0.486C48.076,13.393,47.349,13.572,46.623,13.576z"/>
		</g>
		<g>
			<path fill="#005E9C" stroke="#005E9C" stroke-linecap="round" stroke-linejoin="round" stroke-miterlimit="10" d="M56.658,38.219
				L56.658,38.219c-3.471,0.012-6.307-2.799-6.323-6.271c-0.016-3.469,2.796-6.307,6.267-6.326l0,0c0.381,0,0.694,0.303,0.707,0.684
				c0.001,0.016,0.002,0.041,0.002,0.068l0.051,11.086c0,0.02-0.002,0.068-0.004,0.084C57.35,37.924,57.039,38.217,56.658,38.219z
				 M55.908,27.082c-2.363,0.354-4.176,2.402-4.166,4.861c0.012,2.457,1.844,4.488,4.209,4.82L55.908,27.082z"/>
		</g>
		<g>
			<path fill="#005E9C" stroke="#005E9C" stroke-linecap="round" stroke-linejoin="round" stroke-miterlimit="10" d="M11.609,38.42
				c-0.377,0.002-0.688-0.295-0.705-0.67c-0.002-0.021-0.005-0.064-0.005-0.08l-0.05-11.088c0-0.016,0.002-0.062,0.004-0.082
				c0.008-0.381,0.318-0.672,0.699-0.674l0,0c3.471-0.014,6.307,2.797,6.323,6.27C17.892,35.566,15.08,38.404,11.609,38.42
				L11.609,38.42z M12.26,27.279l0.043,9.68c2.363-0.352,4.178-2.4,4.166-4.857C16.458,29.643,14.626,27.609,12.26,27.279z"/>
		</g>
		<g>
			<path fill="#005E9C" stroke="#005E9C" stroke-linecap="round" stroke-linejoin="round" stroke-miterlimit="10" d="M43.024,53.453
				l-1.536,0.006l-0.006-1.406l1.535-0.006c4.375-0.02,7.92-3.596,7.9-7.971l-0.011-2.35l1.406-0.006l0.011,2.35
				C52.348,49.221,48.176,53.43,43.024,53.453z"/>
		</g>
		<g>
			<path fill="#005E9C" stroke="#005E9C" stroke-linecap="round" stroke-linejoin="round" stroke-miterlimit="10" d="M39.287,55.682
				l-6.934,0.031c-1.607,0.008-2.921-1.293-2.928-2.902c-0.008-1.605,1.294-2.92,2.901-2.928l6.934-0.029
				c1.606-0.01,2.921,1.293,2.927,2.9C42.195,54.361,40.895,55.674,39.287,55.682z M32.334,51.293
				c-0.832,0.002-1.506,0.68-1.502,1.512s0.684,1.504,1.515,1.502l6.935-0.033c0.83-0.004,1.504-0.682,1.5-1.514
				c-0.004-0.83-0.684-1.502-1.514-1.5L32.334,51.293z"/>
		</g>
		<g>
			<path fill="#005E9C" stroke="#005E9C" stroke-linecap="round" stroke-linejoin="round" stroke-miterlimit="10" d="M36.64,24.016
				l-4.439,0.02c-0.389,0.002-0.704-0.314-0.706-0.701l-0.021-4.439c-0.002-0.389,0.312-0.705,0.7-0.707l4.439-0.02
				c0.389-0.002,0.705,0.311,0.707,0.699l0.02,4.439C37.342,23.695,37.028,24.014,36.64,24.016z M32.896,22.623l3.033-0.012
				l-0.014-3.033l-3.033,0.014L32.896,22.623z"/>
		</g>
		<g>
			<path fill="#005E9C" stroke="#005E9C" stroke-linecap="round" stroke-linejoin="round" stroke-miterlimit="10" d="M36.827,41.295
				l-4.456,0.021c-0.389,0-0.705-0.312-0.706-0.701l-0.043-9.521l-2.345,0.01c-0.389,0.002-0.705-0.311-0.707-0.699l-0.02-4.238
				c-0.002-0.389,0.312-0.703,0.7-0.705l7.505-0.035c0.389,0,0.705,0.312,0.706,0.701l0.065,14.463
				C37.529,40.979,37.216,41.293,36.827,41.295z M33.068,39.904l3.049-0.014l-0.059-13.055l-6.098,0.027l0.013,2.83l2.346-0.012
				c0.388,0,0.704,0.314,0.706,0.701L33.068,39.904z"/>
		</g>
	</g>
</g>
</svg>
