<?xml version="1.0" encoding="utf-8"?>
<!-- Generator: Adobe Illustrator 16.0.0, SVG Export Plug-In . SVG Version: 6.00 Build 0)  -->
<!DOCTYPE svg PUBLIC "-//W3C//DTD SVG 1.1//EN" "http://www.w3.org/Graphics/SVG/1.1/DTD/svg11.dtd">
<svg version="1.1" id="Layer_1" xmlns="http://www.w3.org/2000/svg" xmlns:xlink="http://www.w3.org/1999/xlink" x="0px" y="0px"
	 width="82px" height="82px" viewBox="0 0 82 82" enable-background="new 0 0 82 82" xml:space="preserve">
<g>
	<circle fill="#EF8122" cx="41" cy="41" r="39.055"/>
	<g>
		<g>
			<g>
				<path fill="#005E9C" stroke="#005E9C" stroke-linecap="round" stroke-linejoin="round" stroke-miterlimit="10" d="
					M59.337,53.676l-2.797,0.014c-1.183,0.006-2.149-0.953-2.153-2.137l-0.076-16.68c-0.004-1.184,0.953-2.148,2.135-2.154
					l2.797-0.012c2.725-0.012,4.951,2.193,4.963,4.918l0.051,11.086C64.268,51.438,62.062,53.664,59.337,53.676z M56.451,34.126
					c-0.406,0-0.734,0.334-0.733,0.738l0.075,16.682c0.002,0.408,0.334,0.736,0.74,0.734l2.797-0.012
					c1.949-0.01,3.527-1.602,3.52-3.551L62.799,37.63c-0.009-1.947-1.602-3.527-3.55-3.518L56.451,34.126z"/>
			</g>
			<g>
				<path fill="#005E9C" stroke="#005E9C" stroke-linecap="round" stroke-linejoin="round" stroke-miterlimit="10" d="M25.37,53.828
					l-2.612,0.012c-2.725,0.014-4.952-2.193-4.964-4.918l-0.05-11.088c-0.012-2.725,2.195-4.951,4.918-4.965l2.613-0.01
					c1.284-0.006,2.333,1.035,2.339,2.318l0.073,16.311C27.693,52.775,26.654,53.822,25.37,53.828z M22.669,34.277
					c-1.949,0.01-3.527,1.602-3.518,3.551l0.05,11.088c0.009,1.949,1.602,3.525,3.55,3.518l2.612-0.012
					c0.508-0.002,0.92-0.418,0.918-0.926l-0.074-16.313c-0.001-0.508-0.417-0.92-0.926-0.918L22.669,34.277z"/>
			</g>
			<g>
				<path fill="#005E9C" stroke="#005E9C" stroke-linecap="round" stroke-linejoin="round" stroke-miterlimit="10" d="
					M59.949,33.406l-1.407,0.008C58.49,21.697,49.35,16.402,40.879,16.441C32.41,16.48,23.317,21.855,23.37,33.572l-1.407,0.004
					c-0.025-5.693,2.013-10.492,5.897-13.873c3.432-2.988,8.053-4.645,13.013-4.668c4.961-0.021,9.596,1.594,13.055,4.551
					C57.842,22.931,59.924,27.71,59.949,33.406z"/>
			</g>
			<g>
				<path fill="#005E9C" stroke="#005E9C" stroke-linecap="round" stroke-linejoin="round" stroke-miterlimit="10" d="
					M53.518,24.828c-1.187,0.006-2.365-0.463-3.273-1.361c-4.764-4.723-14.058-4.67-19.125,0.109
					c-1.489,1.406-3.831,1.576-5.567,0.406l-0.264-0.18l0.787-1.166l0.265,0.178c1.193,0.805,2.799,0.695,3.814-0.26
					c5.676-5.357,15.723-5.398,21.081-0.088c1.017,1.01,2.517,1.24,3.731,0.578l0.896-0.488l0.674,1.236l-0.896,0.486
					C54.971,24.644,54.243,24.824,53.518,24.828z"/>
			</g>
			<g>
				<path fill="#005E9C" stroke="#005E9C" stroke-linecap="round" stroke-linejoin="round" stroke-miterlimit="10" d="
					M63.553,49.471L63.553,49.471c-3.471,0.012-6.307-2.799-6.323-6.271c-0.016-3.469,2.796-6.307,6.267-6.327l0,0
					c0.381,0,0.694,0.303,0.707,0.684c0.001,0.016,0.002,0.041,0.002,0.068l0.051,11.086c0,0.02-0.002,0.068-0.004,0.084
					C64.244,49.176,63.934,49.469,63.553,49.471z M62.803,38.333c-2.363,0.354-4.176,2.402-4.166,4.862
					c0.012,2.457,1.844,4.488,4.209,4.82L62.803,38.333z"/>
			</g>
			<g>
				<path fill="#005E9C" stroke="#005E9C" stroke-linecap="round" stroke-linejoin="round" stroke-miterlimit="10" d="
					M18.503,49.672c-0.377,0.002-0.688-0.295-0.705-0.67c-0.001-0.021-0.004-0.064-0.004-0.08l-0.05-11.088
					c0-0.016,0.002-0.062,0.003-0.082c0.008-0.381,0.319-0.672,0.699-0.674h0.001c3.47-0.014,6.307,2.797,6.323,6.27
					C24.786,46.818,21.975,49.656,18.503,49.672L18.503,49.672z M19.154,38.531l0.044,9.68c2.363-0.352,4.177-2.4,4.166-4.857
					C23.353,40.894,21.521,38.861,19.154,38.531z"/>
			</g>
			<g>
				<path fill="#005E9C" stroke="#005E9C" stroke-linecap="round" stroke-linejoin="round" stroke-miterlimit="10" d="
					M49.919,64.705l-1.536,0.006l-0.006-1.406l1.535-0.006c4.375-0.02,7.92-3.596,7.9-7.971l-0.011-2.35l1.406-0.006l0.011,2.35
					C59.242,60.473,55.07,64.682,49.919,64.705z"/>
			</g>
			<g>
				<path fill="#005E9C" stroke="#005E9C" stroke-linecap="round" stroke-linejoin="round" stroke-miterlimit="10" d="
					M46.182,66.934l-6.934,0.031c-1.607,0.008-2.92-1.293-2.927-2.902c-0.007-1.605,1.294-2.92,2.901-2.928l6.934-0.029
					c1.606-0.01,2.921,1.293,2.927,2.9C49.09,65.613,47.789,66.926,46.182,66.934z M39.228,62.545
					c-0.831,0.002-1.505,0.68-1.501,1.512c0.003,0.832,0.683,1.504,1.514,1.502l6.935-0.033c0.83-0.004,1.504-0.682,1.5-1.514
					c-0.004-0.83-0.684-1.502-1.514-1.5L39.228,62.545z"/>
			</g>
			<g>
				<path fill="#005E9C" stroke="#005E9C" stroke-linecap="round" stroke-linejoin="round" stroke-miterlimit="10" d="
					M43.534,35.267l-4.439,0.02c-0.389,0.002-0.705-0.314-0.707-0.701l-0.02-4.439c-0.002-0.389,0.312-0.705,0.7-0.707l4.439-0.02
					c0.389-0.002,0.705,0.311,0.707,0.699l0.02,4.439C44.236,34.947,43.923,35.265,43.534,35.267z M39.792,33.875l3.033-0.012
					l-0.014-3.033l-3.033,0.014L39.792,33.875z"/>
			</g>
			<g>
				<path fill="#005E9C" stroke="#005E9C" stroke-linecap="round" stroke-linejoin="round" stroke-miterlimit="10" d="
					M43.722,52.547l-4.456,0.021c-0.389,0-0.705-0.312-0.706-0.701l-0.043-9.521l-2.345,0.01c-0.389,0.002-0.705-0.311-0.707-0.7
					l-0.019-4.238c-0.002-0.389,0.312-0.703,0.7-0.705l7.505-0.035c0.389,0,0.705,0.312,0.706,0.701l0.065,14.463
					C44.424,52.23,44.11,52.545,43.722,52.547z M39.963,51.156l3.049-0.014l-0.059-13.055l-6.098,0.027l0.013,2.83l2.346-0.012
					c0.388,0,0.705,0.314,0.706,0.701L39.963,51.156z"/>
			</g>
		</g>
	</g>
</g>
<rect y="-6.25" fill="#FFFFFF" width="82" height="2"/>
<rect x="84.5" fill="#FFFFFF" width="5.75" height="82"/>
</svg>
