<?xml version="1.0" encoding="utf-8"?>
<!-- Generator: Adobe Illustrator 16.0.0, SVG Export Plug-In . SVG Version: 6.00 Build 0)  -->
<!DOCTYPE svg PUBLIC "-//W3C//DTD SVG 1.1//EN" "http://www.w3.org/Graphics/SVG/1.1/DTD/svg11.dtd">
<svg version="1.1" id="Layer_1" xmlns="http://www.w3.org/2000/svg" xmlns:xlink="http://www.w3.org/1999/xlink" x="0px" y="0px"
	 width="348px" height="348px" viewBox="0 0 348 348" enable-background="new 0 0 348 348" xml:space="preserve">
<rect y="-24.5" fill="#FFFFFF" width="348" height="8"/>
<rect x="354.5" fill="#FFFFFF" width="29" height="348"/>
<g>
	<circle fill="#EF8122" cx="174" cy="174" r="170.219"/>
	<text transform="matrix(1 0 0 1 113.916 259.8447)"><tspan x="0" y="0" fill="#005E9C" font-family="'GothamRounded-Bold'" font-size="25.6608">ANALISA</tspan><tspan x="-17.334" y="30.793" fill="#005E9C" font-family="'GothamRounded-Bold'" font-size="25.6608">KEUANGAN</tspan></text>
	<g>
		<path fill="#005E9C" d="M107.349,142.501h2.895v63.749c0,4.792,3.902,8.695,8.697,8.695h60.854h69.555
			c4.789,0,8.69-3.903,8.69-8.695v-28.976c0-4.794-3.901-8.695-8.69-8.695h-57.961V136.7c0-4.791-3.902-8.689-8.693-8.689H118.94
			c-4.795,0-8.697,3.898-8.697,8.689h-2.895c-7.989,0-14.49-6.498-14.49-14.49c0-7.986,6.501-14.49,14.49-14.49h8.694
			c1.598,0,2.897-1.297,2.897-2.896V94.68c0-15.178,12.35-27.528,27.529-27.528c7.405,0,14.361,2.908,19.575,8.181
			c0.665,0.676,1.63,0.98,2.56,0.821c0.938-0.168,1.735-0.778,2.131-1.645c4.492-9.752,14.303-16.053,25-16.053
			c11.618,0,22.037,7.375,25.926,18.357c0.409,1.156,1.503,1.932,2.734,1.932h1.767c15.979,0,28.979,12.999,28.979,28.975
			c0,15.982-13,28.98-28.979,28.98h-17.388v5.801h17.388c19.179,0,34.774-15.603,34.774-34.781
			c0-19.105-15.482-34.658-34.562-34.773c-5.201-12.212-17.26-20.284-30.639-20.284c-11.656,0-22.438,6.171-28.44,16.002
			c-5.892-4.737-13.155-7.307-20.825-7.307c-18.375,0-33.328,14.948-33.328,33.322v7.247h-5.793
			c-11.188,0-20.285,9.098-20.285,20.283C87.063,133.397,96.161,142.501,107.349,142.501z M249.349,174.376
			c1.596,0,2.896,1.302,2.896,2.898v28.976c0,1.598-1.301,2.902-2.896,2.902h-23.187h-46.368c-1.597,0-2.898-1.305-2.898-2.902
			v-28.976c0-1.597,1.302-2.898,2.898-2.898h23.187H249.349z M116.043,136.7c0-1.595,1.3-2.895,2.897-2.895h63.754
			c1.596,0,2.898,1.3,2.898,2.895v31.879h-5.799c-4.789,0-8.691,3.901-8.691,8.695v28.976c0,1.021,0.207,1.989,0.533,2.902H118.94
			c-1.598,0-2.897-1.305-2.897-2.902V136.7z"/>
		<path fill="#005E9C" d="M226.162,87.436v5.796c6.396,0,11.593,5.201,11.593,11.592h5.795
			C243.55,95.235,235.749,87.436,226.162,87.436z"/>
		<rect x="237.755" y="110.624" fill="#005E9C" width="5.795" height="5.791"/>
		
			<rect x="194.078" y="188.865" transform="matrix(-0.7071 0.7072 -0.7072 -0.7071 501.8869 175.6153)" fill="#005E9C" width="40.982" height="5.793"/>
		<path fill="#005E9C" d="M234.857,200.457c0-4.795-3.901-8.693-8.695-8.693c-4.791,0-8.692,3.898-8.692,8.693
			c0,4.794,3.901,8.695,8.692,8.695C230.956,209.152,234.857,205.251,234.857,200.457z M226.162,203.354
			c-1.597,0-2.896-1.3-2.896-2.896c0-1.598,1.3-2.899,2.896-2.899c1.598,0,2.896,1.302,2.896,2.899
			C229.058,202.054,227.76,203.354,226.162,203.354z"/>
		<path fill="#005E9C" d="M194.284,183.068c0,4.795,3.9,8.695,8.696,8.695c4.789,0,8.69-3.9,8.69-8.695
			c0-4.794-3.901-8.692-8.69-8.692C198.185,174.376,194.284,178.274,194.284,183.068z M202.98,180.172
			c1.597,0,2.896,1.299,2.896,2.896c0,1.6-1.299,2.897-2.896,2.897c-1.599,0-2.896-1.298-2.896-2.897
			C200.084,181.471,201.382,180.172,202.98,180.172z"/>
		<path fill="#005E9C" d="M127.633,159.888h37.671v-5.8h-37.671v-8.69h46.368v8.69h-2.898v5.8h2.898c3.197,0,5.793-2.6,5.793-5.8
			v-8.69c0-3.199-2.596-5.801-5.793-5.801h-46.368c-3.194,0-5.794,2.602-5.794,5.801v8.69
			C121.839,157.288,124.438,159.888,127.633,159.888z"/>
		<polygon fill="#005E9C" points="136.328,165.681 130.532,165.681 130.532,171.477 124.735,171.477 124.735,177.274 
			130.532,177.274 130.532,183.068 136.328,183.068 136.328,177.274 142.122,177.274 142.122,171.477 136.328,171.477 		"/>
		<polygon fill="#005E9C" points="137.528,186.466 133.431,190.563 129.334,186.466 125.235,190.563 129.334,194.661 
			125.235,198.76 129.334,202.855 133.431,198.76 137.528,202.855 141.626,198.76 137.528,194.661 141.626,190.563 		"/>
		<rect x="147.917" y="171.477" fill="#005E9C" width="17.387" height="5.798"/>
		<rect x="147.917" y="191.764" fill="#005E9C" width="17.387" height="5.794"/>
		<rect x="153.716" y="185.966" fill="#005E9C" width="5.794" height="2.896"/>
		<rect x="153.716" y="200.457" fill="#005E9C" width="5.794" height="2.896"/>
		<rect x="197.18" y="136.7" fill="#005E9C" width="5.801" height="5.801"/>
	</g>
</g>
</svg>
