<?xml version="1.0" encoding="utf-8"?>
<!-- Generator: Adobe Illustrator 16.0.0, SVG Export Plug-In . SVG Version: 6.00 Build 0)  -->
<!DOCTYPE svg PUBLIC "-//W3C//DTD SVG 1.1//EN" "http://www.w3.org/Graphics/SVG/1.1/DTD/svg11.dtd">
<svg version="1.1" id="Layer_1" xmlns="http://www.w3.org/2000/svg" xmlns:xlink="http://www.w3.org/1999/xlink" x="0px" y="0px"
	 width="120px" height="120px" viewBox="0 0 120 120" enable-background="new 0 0 120 120" xml:space="preserve">
<rect y="-2.246" fill="#FFFFFF" width="120" height="0.195"/>
<rect x="121.702" fill="#FFFFFF" width="1.755" height="120"/>
<rect x="141.273" y="62.666" fill="#005E9C" width="20.226" height="20.226"/>
<g>
	<path fill="#FFFFFF" d="M27.927,28.178c-2.705,0.003-5.295,1.095-7.185,3.032c-1.78,1.816-2.726,4.292-2.612,6.833l0.185,4.505
		c0.296,5.195,4.664,9.214,9.863,9.078l0,0c5.169,0.089,9.485-3.917,9.781-9.078l0.268-4.505c0.118-2.538-0.821-5.013-2.597-6.833
		c-1.893-1.939-4.489-3.033-7.2-3.032H27.927z M28.178,48.275L28.178,48.275c-3.369,0.088-6.207-2.498-6.431-5.86v-1.374
		c3.199-0.163,6.267-1.336,8.759-3.349c1.033,1.522,2.589,2.611,4.371,3.064v1.591c-0.185,3.464-3.145,6.121-6.608,5.935
		C28.24,48.28,28.209,48.278,28.178,48.275z M34.877,37.291c-1.153-0.526-1.998-1.561-2.277-2.798
		c-0.13-0.916-0.978-1.554-1.894-1.423c-0.503,0.071-0.947,0.366-1.205,0.802c0,0-2.109,3.351-7.972,3.82
		c-0.01-1.551,0.593-3.044,1.675-4.154c1.245-1.271,2.943-1.993,4.723-2.01h0.503c1.796,0.003,3.515,0.728,4.772,2.01
		C34.19,34.551,34.783,35.88,34.877,37.291z"/>
	<path fill="#FFFFFF" d="M93.244,68.375c-2.705,0-5.295,1.093-7.184,3.03c-1.781,1.816-2.727,4.291-2.613,6.832l0.186,4.506
		c0.295,5.193,4.662,9.214,9.863,9.078l0,0c5.168,0.089,9.484-3.917,9.779-9.078l0.27-4.506c0.119-2.537-0.822-5.013-2.598-6.832
		c-1.891-1.939-4.488-3.033-7.199-3.03H93.244z M100.193,78.088l-0.197,4.522c-0.227,3.39-3.105,5.985-6.5,5.861l0,0
		c-3.369,0.089-6.207-2.499-6.432-5.861l-0.268-4.522c-0.061-1.62,0.545-3.192,1.674-4.354c1.258-1.283,2.979-2.007,4.773-2.01
		h0.504c1.795,0.003,3.516,0.727,4.771,2.01C99.65,74.896,100.256,76.468,100.193,78.088z"/>
	<path fill="#FFFFFF" d="M14.78,90.146c0.571,0.001,1.138-0.095,1.676-0.284v1.959c0,0.925,0.75,1.676,1.675,1.676h20.097
		c0.926,0,1.675-0.751,1.675-1.676V64.672c-0.002-0.428,0.158-0.843,0.451-1.155l21.323-22.844c1.812-1.85,1.781-4.819-0.068-6.633
		c-1.849-1.812-4.819-1.782-6.631,0.067L36.352,52.815c-0.316,0.312-0.743,0.487-1.188,0.485H18.13c-4.625,0-8.374,3.75-8.374,8.374
		v23.447C9.756,87.896,12.004,90.146,14.78,90.146z M13.105,61.675c0-2.774,2.25-5.024,5.025-5.024h17.033
		c1.331-0.001,2.608-0.531,3.55-1.474L57.42,36.553c0.475-0.532,1.288-0.581,1.82-0.106c0.533,0.473,0.581,1.287,0.107,1.819
		c-0.046,0.053-0.097,0.103-0.152,0.146L37.892,61.239c-0.847,0.912-1.323,2.105-1.339,3.35v25.558H19.805V65.024
		c0-0.925-0.75-1.675-1.675-1.675s-1.675,0.75-1.675,1.675v20.098c0,0.924-0.749,1.676-1.676,1.676
		c-0.923,0-1.675-0.752-1.675-1.676V61.675z"/>
	<path fill="#FFFFFF" d="M28.178,81.773c0.927,0,1.676-0.752,1.676-1.675V60c0-0.925-0.749-1.675-1.676-1.675
		c-0.925,0-1.675,0.75-1.675,1.675v20.099C26.503,81.021,27.253,81.773,28.178,81.773z"/>
	<path fill="#FFFFFF" d="M56.651,91.821L56.651,91.821c5.167,0.089,9.484-3.917,9.779-9.078l0.27-4.506
		c0.117-2.537-0.822-5.013-2.596-6.832c-1.893-1.939-4.491-3.033-7.203-3.03h-0.503c-2.705,0-5.295,1.093-7.184,3.03
		c-1.78,1.816-2.727,4.291-2.613,6.832l0.186,4.506C47.083,87.937,51.45,91.957,56.651,91.821z M51.625,73.733
		c1.258-1.283,2.978-2.007,4.772-2.01h0.503c1.797,0.003,3.516,0.727,4.775,2.01c1.129,1.162,1.734,2.734,1.674,4.354l-0.201,4.522
		c-0.225,3.39-3.102,5.985-6.498,5.861l0,0c-3.37,0.089-6.208-2.499-6.431-5.861l-0.27-4.522
		C49.892,76.468,50.496,74.896,51.625,73.733z"/>
	<path fill="#FFFFFF" d="M65.309,93.497H47.991c-4.463,0.007-8.079,3.624-8.089,8.089v6.983c0,0.925,0.75,1.675,1.675,1.675
		c0.927,0,1.676-0.75,1.676-1.675v-6.983c0-2.618,2.121-4.74,4.738-4.74l0,0h17.318c2.617,0,4.74,2.122,4.74,4.74l0,0v6.983
		c0,0.925,0.75,1.675,1.674,1.675c0.926,0,1.676-0.75,1.676-1.675v-6.983C73.391,97.121,69.773,93.504,65.309,93.497z"/>
	<path fill="#FFFFFF" d="M110.244,101.586c-0.01-4.465-3.625-8.082-8.09-8.089H84.836c-4.463,0.007-8.078,3.624-8.088,8.089v6.983
		c0,0.925,0.75,1.675,1.674,1.675c0.926,0,1.676-0.75,1.676-1.675v-6.983c0-2.618,2.121-4.74,4.738-4.74l0,0h17.318
		c2.619,0,4.74,2.122,4.74,4.74l0,0v6.983c0,0.925,0.75,1.675,1.674,1.675c0.926,0,1.676-0.75,1.676-1.675V101.586z"/>
	<path fill="#FFFFFF" d="M110.244,60V14.779c0-2.774-2.25-5.023-5.025-5.023H46.601c-2.774,0-5.024,2.249-5.024,5.023v25.122
		c0,0.926,0.751,1.675,1.676,1.675s1.675-0.749,1.675-1.675V19.805h61.967V60c0,0.924-0.75,1.675-1.676,1.675H48.142
		c-0.925,0-1.674,0.75-1.674,1.675s0.749,1.675,1.674,1.675h57.161C108.045,64.979,110.244,62.742,110.244,60z M44.927,16.455
		v-1.676c0-0.923,0.75-1.675,1.674-1.675h58.788c0.922,0,1.674,0.752,1.674,1.675v1.676H44.927z"/>
	<path fill="#FFFFFF" d="M101.869,31.108c-0.924,0-1.676,0.752-1.676,1.676V56.65c0,0.925,0.752,1.675,1.676,1.675
		c0.926,0,1.676-0.75,1.676-1.675V32.784C103.545,31.86,102.795,31.108,101.869,31.108z"/>
	<path fill="#FFFFFF" d="M95.172,41.576c-0.926,0-1.676,0.751-1.676,1.676V56.65c0,0.925,0.75,1.675,1.676,1.675
		c0.924,0,1.674-0.75,1.674-1.675V43.252C96.846,42.327,96.096,41.576,95.172,41.576z"/>
	<path fill="#FFFFFF" d="M86.797,39.901V56.65c0,0.925,0.75,1.675,1.674,1.675c0.926,0,1.676-0.75,1.676-1.675V39.901
		c0-0.924-0.75-1.675-1.676-1.675C87.547,38.227,86.797,38.978,86.797,39.901z"/>
	<path fill="#FFFFFF" d="M81.773,48.275c-0.926,0-1.676,0.751-1.676,1.676v6.699c0,0.925,0.75,1.675,1.676,1.675
		c0.924,0,1.674-0.75,1.674-1.675v-6.699C83.447,49.026,82.697,48.275,81.773,48.275z"/>
	<path fill="#FFFFFF" d="M73.732,49.281c0.316,0.422,0.814,0.67,1.34,0.67c0.363,0,0.717-0.117,1.006-0.336l6.699-5.023
		c0.209-0.15,0.377-0.354,0.486-0.586l5.811-11.606l5.025,3.817c0.371,0.27,0.834,0.385,1.289,0.318
		c0.455-0.081,0.854-0.349,1.105-0.736l6.699-10.049c0.436-0.814,0.131-1.83-0.684-2.267c-0.711-0.382-1.592-0.204-2.098,0.425
		l-5.727,8.574l-5.209-3.969c-0.398-0.297-0.906-0.401-1.391-0.284c-0.479,0.113-0.883,0.432-1.105,0.87l-6.531,13.047l-6.381,4.79
		C73.328,47.491,73.178,48.541,73.732,49.281z"/>
	<path fill="#FFFFFF" d="M70.049,23.154H49.951c-0.924,0-1.675,0.75-1.675,1.674c0,0.926,0.751,1.675,1.675,1.675h20.098
		c0.926,0,1.674-0.749,1.674-1.675C71.723,23.904,70.975,23.154,70.049,23.154z"/>
	<path fill="#FFFFFF" d="M80.098,26.503c0.924,0,1.676-0.749,1.676-1.675c0-0.924-0.752-1.674-1.676-1.674h-3.35
		c-0.924,0-1.676,0.75-1.676,1.674c0,0.926,0.752,1.675,1.676,1.675H80.098z"/>
</g>
</svg>
