<?xml version="1.0" encoding="utf-8"?>
<!-- Generator: Adobe Illustrator 16.0.0, SVG Export Plug-In . SVG Version: 6.00 Build 0)  -->
<!DOCTYPE svg PUBLIC "-//W3C//DTD SVG 1.1//EN" "http://www.w3.org/Graphics/SVG/1.1/DTD/svg11.dtd">
<svg version="1.1" id="Layer_1" xmlns="http://www.w3.org/2000/svg" xmlns:xlink="http://www.w3.org/1999/xlink" x="0px" y="0px"
	 width="120px" height="120px" viewBox="0 0 120 120" enable-background="new 0 0 120 120" xml:space="preserve">
<rect y="-2.246" fill="#FFFFFF" width="120" height="0.195"/>
<rect x="121.702" fill="#FFFFFF" width="1.755" height="120"/>
<rect x="141.273" y="62.666" fill="#005E9C" width="20.226" height="20.226"/>
<g>
	<path fill="#FFFFFF" d="M76.022,100.787c-0.803,0-1.457,0.652-1.457,1.457s-0.65,1.457-1.455,1.457H17.756
		c-0.805,0-1.457-0.652-1.457-1.457V32.323c0-0.806,0.652-1.457,1.457-1.457h4.369v64.095c0,2.414,1.955,4.369,4.369,4.369h29.135
		c0.805,0,1.457-0.652,1.457-1.455c0-0.805-0.652-1.457-1.457-1.457H26.494c-0.803,0-1.455-0.652-1.455-1.457V17.755
		c0-0.805,0.652-1.457,1.455-1.457h42.244v18.938c0,0.804,0.653,1.457,1.458,1.457h18.938v13.11c0,0.804,0.652,1.457,1.457,1.457
		s1.457-0.653,1.457-1.457V36.605c0.002-1.157-0.453-2.267-1.268-3.088L72.089,14.681c-0.818-0.829-1.936-1.295-3.102-1.296H26.494
		c-2.414,0-4.369,1.955-4.369,4.37v10.197h-4.369c-2.414,0-4.371,1.955-4.371,4.37v69.921c0,2.414,1.957,4.371,4.371,4.371H73.11
		c2.414,0,4.369-1.957,4.369-4.371C77.479,101.439,76.829,100.787,76.022,100.787z M86.935,33.779H71.653V18.381L86.935,33.779z"/>
	<path fill="#FFFFFF" d="M52.715,70.195H32.32c-0.803,0-1.455,0.654-1.455,1.457c0,0.805,0.652,1.457,1.455,1.457h20.395
		c0.805,0,1.457-0.652,1.457-1.457C54.172,70.85,53.52,70.195,52.715,70.195z"/>
	<path fill="#FFFFFF" d="M78.937,46.89c0-0.806-0.652-1.457-1.457-1.457H57.086c-0.803,0-1.457,0.651-1.457,1.457
		c0,0.804,0.654,1.456,1.457,1.456h20.394C78.284,48.346,78.937,47.694,78.937,46.89z"/>
	<path fill="#FFFFFF" d="M57.086,55.63c-0.803,0-1.457,0.651-1.457,1.456s0.654,1.457,1.457,1.457h8.74
		c0.805,0,1.457-0.652,1.457-1.457s-0.652-1.456-1.457-1.456H57.086z"/>
	<path fill="#FFFFFF" d="M52.715,77.48H32.32c-0.803,0-1.455,0.652-1.455,1.457c0,0.803,0.652,1.455,1.455,1.455h20.395
		c0.805,0,1.457-0.652,1.457-1.455C54.172,78.133,53.52,77.48,52.715,77.48z"/>
	<path fill="#FFFFFF" d="M52.715,84.764H32.32c-0.803,0-1.455,0.652-1.455,1.457c0,0.803,0.652,1.457,1.455,1.457h20.395
		c0.805,0,1.457-0.654,1.457-1.457C54.172,85.416,53.52,84.764,52.715,84.764z"/>
	<path fill="#FFFFFF" d="M64.369,32.323V22.125c0-0.804-0.652-1.457-1.457-1.457H30.865c-0.805,0-1.457,0.653-1.457,1.457v10.197
		c0,0.804,0.652,1.456,1.457,1.456h32.047C63.717,33.779,64.369,33.126,64.369,32.323z M61.455,30.866H32.32v-7.283h29.135V30.866z"
		/>
	<path fill="#FFFFFF" d="M32.32,61.455h17.48c0.807,0,1.457-0.651,1.457-1.456V42.52c0-0.806-0.65-1.457-1.457-1.457H32.32
		c-0.803,0-1.455,0.651-1.455,1.457V60C30.865,60.804,31.518,61.455,32.32,61.455z M33.777,43.976h14.568v14.567H33.777V43.976z"/>
	<path fill="#FFFFFF" d="M44.398,47.312l-4.793,4.807l-1.879-1.894c-0.572-0.57-1.496-0.57-2.068,0
		c-0.572,0.571-0.572,1.497,0,2.069l2.912,2.914c0.568,0.569,1.49,0.574,2.062,0.007c0-0.003,0.004-0.006,0.008-0.007l5.826-5.827
		c0.57-0.572,0.57-1.498,0-2.069C45.895,46.741,44.971,46.741,44.398,47.312L44.398,47.312z"/>
	<path fill="#FFFFFF" d="M102.245,62.912H92.048v-4.369c0-2.414-1.957-4.37-4.371-4.37H76.022c-2.412,0-4.369,1.956-4.369,4.37
		v4.369H61.455c-2.412,0-4.369,1.957-4.369,4.371V77.48c-0.02,0.686,0.441,1.291,1.107,1.457l1.805,0.451v17.029
		c0,0.803,0.654,1.457,1.457,1.457h40.79c0.803,0,1.455-0.654,1.455-1.457V79.344l1.807-0.406c0.666-0.166,1.127-0.771,1.107-1.457
		V67.283C106.614,64.869,104.657,62.912,102.245,62.912z M74.565,58.543c0-0.805,0.654-1.457,1.457-1.457h11.654
		c0.805,0,1.457,0.652,1.457,1.457v4.369H74.565V58.543z M100.788,94.961H62.912V80.072l13.11,3.234v4.371
		c0,0.803,0.652,1.455,1.457,1.455h8.74c0.805,0,1.457-0.652,1.457-1.455v-4.371l13.111-3.277V94.961z M78.937,86.221v-5.828h5.826
		v5.828H78.937z M103.7,76.344l-16.023,4.049v-1.455c0-0.805-0.652-1.457-1.457-1.457h-8.74c-0.805,0-1.457,0.652-1.457,1.457v1.455
		l-16.024-4.049v-9.061c0-0.805,0.654-1.457,1.457-1.457h40.79c0.803,0,1.455,0.652,1.455,1.457V76.344z"/>
</g>
</svg>
