<?xml version="1.0" encoding="utf-8"?>
<!-- Generator: Adobe Illustrator 16.0.0, SVG Export Plug-In . SVG Version: 6.00 Build 0)  -->
<!DOCTYPE svg PUBLIC "-//W3C//DTD SVG 1.1//EN" "http://www.w3.org/Graphics/SVG/1.1/DTD/svg11.dtd">
<svg version="1.1" id="Layer_1" xmlns="http://www.w3.org/2000/svg" xmlns:xlink="http://www.w3.org/1999/xlink" x="0px" y="0px"
	 width="348px" height="348px" viewBox="0 0 348 348" enable-background="new 0 0 348 348" xml:space="preserve">
<rect y="-24.5" fill="#FFFFFF" width="348" height="8"/>
<rect x="354.5" fill="#FFFFFF" width="29" height="348"/>
<g>
	<g>
		<circle fill="#EF8122" cx="174" cy="174" r="170.219"/>
		<text transform="matrix(1 0 0 1 87.3057 259.8447)" fill="#005E9C" font-family="'GothamRounded-Bold'" font-size="25.6608">KONSULTASI</text>
	</g>
	<g>
		<g>
			<g>
				<path fill="#005E9C" d="M249.909,189.423c-0.471-0.471-1.172-0.942-1.878-0.942h-6.343v-81.265c0-4.696-3.756-8.688-8.689-8.688
					h-16.442c-4.694-19.026-22.078-33.118-42.509-33.118c-20.436,0-37.817,14.092-42.515,33.351h-16.439
					c-4.697,0-8.692,3.759-8.692,8.688v81.268h-6.34c-0.707,0-1.409,0.235-1.88,0.938c-0.469,0.47-0.704,1.41-0.469,2.113
					l5.401,20.199c0.234,0.939,1.174,1.646,2.349,1.646H242.63c1.172,0,1.878-0.706,2.346-1.646l5.404-20.199
					C250.38,190.83,250.38,190.125,249.909,189.423z M212.092,138.218v-18.083c4.937,0.938,8.459,4.696,8.459,9.161
					C220.551,133.522,217.028,137.28,212.092,138.218z M207.397,141.274h-5.166v-24.195h5.166
					C207.397,140.098,207.397,118.257,207.397,141.274z M140.693,117.079h5.168v24.195h-5.168
					C140.693,118.257,140.693,139.863,140.693,117.079z M135.998,138.218c-4.933-0.938-8.456-4.695-8.456-9.159
					c0-4.465,3.758-8.219,8.456-9.158V138.218z M111.1,107.216c0-2.113,1.646-3.994,3.994-3.994h15.5
					c-0.235,1.881-0.468,3.994-0.468,5.872v7.985c-4.462,2.584-7.282,6.813-7.282,11.744c0,7.047,5.637,12.684,13.154,13.857v0.704
					c0,1.411,0.938,2.35,2.349,2.35h9.865c1.408,0,2.348-0.938,2.348-2.35V114.73c0-1.408-0.939-2.346-2.348-2.346h-9.865
					c-1.41,0-2.349,0.938-2.349,2.346v0.705c-0.471,0-0.706,0.236-1.174,0.236v-6.342c0-21.608,17.612-39.223,39.224-39.223
					c21.607,0,39.221,17.614,39.221,39.223v6.342c-0.471,0-0.706-0.236-1.177-0.236v-0.705c0-1.408-0.936-2.346-2.346-2.346h-9.863
					c-1.411,0-2.35,0.938-2.35,2.346v28.89c0,1.413,0.938,2.349,2.35,2.349h9.863c1.41,0,2.346-0.936,2.346-2.349v-0.702
					c0.942-0.237,1.884-0.237,2.82-0.706v14.562c0,3.054-2.582,5.638-5.634,5.638h-17.617v-1.646c0-2.582-2.113-4.931-4.933-4.931
					H166.06c-2.581,0-4.934,2.113-4.934,4.931v8.221c0,2.586,2.116,4.934,4.934,4.934h20.669c2.584,0,4.933-2.115,4.933-4.934
					v-1.643h17.617c5.634,0,10.334-4.697,10.334-10.337v-16.909c3.523-2.582,5.872-6.575,5.872-10.802
					c0-4.935-3.056-9.396-7.282-11.746v-7.986c0-2.114-0.235-3.991-0.469-5.871h15.5c2.111,0,3.992,1.644,3.992,3.994v81.03H111.1
					V107.216z M186.964,168.986C186.964,168.986,186.729,169.221,186.964,168.986l-20.904,0.234c0,0-0.235,0-0.235-0.234v-8.221
					c0,0,0-0.232,0.235-0.232h20.669c0,0,0.235,0,0.235,0.232V168.986z M240.987,208.682H107.104l-3.99-15.268
					c74.922,0,102.405,0,141.861,0L240.987,208.682z"/>
			</g>
			<g>
				<path fill="#005E9C" d="M172.167,109.8h22.079c1.409,0,2.349-0.941,2.349-2.351V83.023c0-1.408-0.939-2.349-2.349-2.349h-40.634
					c-1.41,0-2.35,0.94-2.35,2.349v24.426c0,1.409,0.939,2.351,2.35,2.351h4.227v3.991c0,1.881,1.881,2.82,3.525,2.115
					L172.167,109.8z M155.962,105.103V85.375h35.935v19.728h-20.197c-0.471,0-0.706,0-1.179,0.233l-7.75,4.464v-2.351
					c0-1.406-0.938-2.347-2.348-2.347H155.962z"/>
			</g>
			<g>
				<path fill="#005E9C" d="M163.007,93.124h22.314c1.407,0,2.346-0.94,2.346-2.349s-0.938-2.35-2.346-2.35h-22.314
					c-1.406,0-2.349,0.941-2.349,2.35S161.601,93.124,163.007,93.124z"/>
			</g>
			<g>
				<path fill="#005E9C" d="M185.083,100.875c1.413,0,2.352-0.939,2.352-2.347c0-1.41-0.938-2.351-2.352-2.351h-22.312
					c-1.406,0-2.348,0.94-2.348,2.351c0,1.407,0.941,2.347,2.348,2.347H185.083z"/>
			</g>
		</g>
	</g>
</g>
</svg>
