<?xml version="1.0" encoding="utf-8"?>
<!-- Generator: Adobe Illustrator 16.0.0, SVG Export Plug-In . SVG Version: 6.00 Build 0)  -->
<!DOCTYPE svg PUBLIC "-//W3C//DTD SVG 1.1//EN" "http://www.w3.org/Graphics/SVG/1.1/DTD/svg11.dtd">
<svg version="1.1" id="Layer_1" xmlns="http://www.w3.org/2000/svg" xmlns:xlink="http://www.w3.org/1999/xlink" x="0px" y="0px"
	 width="348px" height="348px" viewBox="0 0 348 348" enable-background="new 0 0 348 348" xml:space="preserve">
<g>
	<circle fill="#EF8122" cx="174" cy="174" r="170.219"/>
	<text transform="matrix(1 0 0 1 94.4004 259.8447)" fill="#005E9C" font-family="'GothamRounded-Bold'" font-size="25.6608">AKUNTANSI</text>
	<g>
		<path fill="#005E9C" d="M193.546,99.955c0-1.155-0.938-2.092-2.091-2.092h-46.747c-1.155,0-2.094,0.937-2.094,2.092
			c0,1.158,0.938,2.095,2.094,2.095h46.747C192.608,102.05,193.546,101.113,193.546,99.955z"/>
		<path fill="#005E9C" d="M112.842,200.516h15.63v8.429c0,1.156,0.939,2.094,2.092,2.094h92.272c1.156,0,2.093-0.938,2.093-2.094
			v-57.229l15.271-31.11c0.512-1.037,0.08-2.29-0.956-2.8l-0.093-0.045l3.308-6.732c0.245-0.498,0.28-1.071,0.101-1.599
			c-0.18-0.524-0.558-0.956-1.06-1.2l-7.462-3.664c-1.039-0.513-2.293-0.08-2.799,0.956l-3.301,6.723l-0.099-0.044
			c-0.5-0.245-1.071-0.283-1.598-0.104c-0.525,0.181-0.957,0.561-1.201,1.062l-0.112,0.223v-12.988c0-0.021-0.012-0.039-0.012-0.062
			c-0.015-0.463-0.158-0.918-0.469-1.288l-17.144-20.463c-0.026-0.03-0.061-0.047-0.087-0.076c-0.047-0.049-0.098-0.084-0.147-0.128
			c-0.142-0.128-0.294-0.232-0.466-0.314c-0.06-0.029-0.117-0.054-0.181-0.077c-0.211-0.08-0.429-0.124-0.65-0.132
			c-0.029,0-0.05-0.014-0.073-0.014h-0.057c-0.015,0-0.029-0.004-0.041,0h-75.039c-1.152,0-2.092,0.936-2.092,2.092v25.316h-15.63
			c-4.143,0-7.514,3.371-7.514,7.513v80.263C105.328,197.154,108.699,200.516,112.842,200.516z M234.073,109.243l3.706,1.819
			l-1.909,3.891l-3.709-1.819L234.073,109.243z M220.745,206.853h-88.088v-6.337h36.804c4.142,0,7.513-3.361,7.513-7.494v-0.104
			h12.139c0.234,1.454,0.979,2.793,2.141,3.781l-1.312,2.665c-0.508,1.037-0.083,2.291,0.954,2.799
			c1.036,0.51,2.294,0.086,2.805-0.952l1.297-2.653c2.86,0.63,5.647-0.803,6.924-3.36l3.932-8.26c0.147,0.032,0.288,0.1,0.433,0.1
			c0.775,0,1.518-0.429,1.881-1.167l12.58-25.629V206.853L220.745,206.853z M197.308,182.881l4.734,2.321l-3.883,8.162
			c-0.488,0.978-1.663,1.479-2.781,0.923l-1.018-0.477c-0.748-0.379-1.167-1.148-1.129-1.951
			C193.552,191.312,192.183,194.284,197.308,182.881z M227.874,116.878l7.649,3.762l-30.194,61.513l-7.649-3.747L227.874,116.878z
			 M207.793,98.295V85.68l10.565,12.615H207.793z M132.657,82.021h70.949v18.365v0.006c0,1.156,0.939,2.092,2.094,2.092h15.045
			v15.56c-6.468-1.479-13.148,1.623-16.1,7.638l-7.928,16.15c-0.512,1.037-0.084,2.293,0.956,2.8
			c0.294,0.146,0.607,0.216,0.919,0.216c0.773,0,1.517-0.432,1.88-1.172l7.927-16.151c2.172-4.421,7.188-6.659,11.927-5.319
			l0.239,0.067l-27.56,56.164c-0.438,0.891-0.153,1.917,0.587,2.515l-3.707,7.78h-12.912v-11.338h14.479
			c1.156,0,2.091-0.937,2.091-2.092c0-1.157-0.935-2.095-2.091-2.095h-14.479v-14.645h14.479c1.156,0,2.091-0.938,2.091-2.093
			s-0.935-2.094-2.091-2.094h-14.479V139.73h14.479c1.156,0,2.091-0.938,2.091-2.095c0-1.153-0.935-2.092-2.091-2.092h-14.479
			v-14.667h14.479c1.156,0,2.091-0.937,2.091-2.091c0-1.155-0.935-2.094-2.091-2.094h-14.479v-3.934
			c0-4.142-3.371-7.513-7.513-7.513h-36.804V82.021z M109.517,112.759c0-1.836,1.49-3.329,3.325-3.329h56.619
			c1.834,0,3.325,1.493,3.325,3.329v6.027v74.235c0,1.823-1.491,3.308-3.325,3.308c-31.691,0-24.899,0-56.619,0
			c-1.835,0-3.325-1.484-3.325-3.308V112.759z"/>
		<path fill="#005E9C" d="M116.396,136.005c11.442,0,37.978,0,49.507,0c1.157,0,2.094-0.936,2.094-2.092v-15.127v-2.49
			c0-1.155-0.937-2.095-2.094-2.095h-49.507c-1.155,0-2.094,0.939-2.094,2.095v17.617
			C114.303,135.069,115.241,136.005,116.396,136.005z M118.491,118.389h45.318v0.397v13.035c-10.701,0-34.584,0-45.318,0V118.389z"
			/>
		<path fill="#005E9C" d="M116.392,153.786h11.713c1.156,0,2.095-0.938,2.095-2.091v-9.938c0-1.154-0.938-2.09-2.095-2.09h-11.713
			c-1.159,0-2.095,0.936-2.095,2.09v9.938C114.297,152.849,115.232,153.786,116.392,153.786z M118.482,143.851h7.527v5.75h-7.527
			V143.851z"/>
		<path fill="#005E9C" d="M147.008,139.667h-11.714c-1.158,0-2.094,0.936-2.094,2.09v9.94c0,1.156,0.936,2.092,2.094,2.092h11.714
			c1.154,0,2.091-0.936,2.091-2.092v-9.94C149.099,140.603,148.162,139.667,147.008,139.667z M144.917,149.604h-7.53v-5.754h7.53
			V149.604z"/>
		<path fill="#005E9C" d="M116.392,172.69h11.713c1.156,0,2.095-0.936,2.095-2.091v-9.938c0-1.155-0.938-2.091-2.095-2.091h-11.713
			c-1.159,0-2.095,0.936-2.095,2.091v9.938C114.297,171.755,115.232,172.69,116.392,172.69z M118.482,162.757h7.527v5.748h-7.527
			V162.757z"/>
		<path fill="#005E9C" d="M147.008,158.584h-11.714c-1.158,0-2.094,0.936-2.094,2.092v9.914c0,1.158,0.936,2.095,2.094,2.095h11.714
			c1.154,0,2.091-0.937,2.091-2.095v-9.914C149.099,159.52,148.162,158.584,147.008,158.584z M144.917,168.5h-7.53v-5.734h7.53
			V168.5z"/>
		<path fill="#005E9C" d="M165.903,158.584h-11.696c-1.156,0-2.093,0.936-2.093,2.092v28.393c0,1.156,0.937,2.092,2.093,2.092
			h11.696c1.157,0,2.094-0.936,2.094-2.092v-28.393C167.997,159.52,167.061,158.584,165.903,158.584z M163.81,186.975h-7.509
			v-24.209h7.509V186.975z"/>
		<path fill="#005E9C" d="M116.392,191.557h11.713c1.156,0,2.095-0.936,2.095-2.09v-9.935c0-1.154-0.938-2.093-2.095-2.093h-11.713
			c-1.159,0-2.095,0.938-2.095,2.093v9.935C114.297,190.621,115.232,191.557,116.392,191.557z M118.482,181.623h7.527v5.752h-7.527
			V181.623z"/>
		<path fill="#005E9C" d="M147.008,177.435h-11.714c-1.158,0-2.094,0.936-2.094,2.094v9.938c0,1.154,0.936,2.09,2.094,2.09h11.714
			c1.154,0,2.091-0.936,2.091-2.09v-9.938C149.099,178.37,148.162,177.435,147.008,177.435z M144.917,187.37h-7.53v-5.751h7.53
			V187.37z"/>
		<path fill="#005E9C" d="M165.903,139.667h-11.696c-1.156,0-2.093,0.936-2.093,2.09v9.94c0,1.156,0.937,2.092,2.093,2.092h11.696
			c1.157,0,2.094-0.936,2.094-2.092v-9.94C167.997,140.603,167.061,139.667,165.903,139.667z M163.81,149.604h-7.509v-5.754h7.509
			V149.604z"/>
	</g>
</g>
<rect y="-24.5" fill="#FFFFFF" width="348" height="8"/>
<rect x="354.5" fill="#FFFFFF" width="29" height="348"/>
</svg>
