<?xml version="1.0" encoding="utf-8"?>
<!-- Generator: Adobe Illustrator 16.0.0, SVG Export Plug-In . SVG Version: 6.00 Build 0)  -->
<!DOCTYPE svg PUBLIC "-//W3C//DTD SVG 1.1//EN" "http://www.w3.org/Graphics/SVG/1.1/DTD/svg11.dtd">
<svg version="1.1" id="Layer_1" xmlns="http://www.w3.org/2000/svg" xmlns:xlink="http://www.w3.org/1999/xlink" x="0px" y="0px"
	 width="120px" height="120px" viewBox="0 0 120 120" enable-background="new 0 0 120 120" xml:space="preserve">
<rect y="-2.246" fill="#FFFFFF" width="120" height="0.195"/>
<rect x="121.702" fill="#FFFFFF" width="1.755" height="120"/>
<rect x="141.273" y="62.666" fill="#005E9C" width="20.226" height="20.226"/>
<g>
	<path fill="#FFFFFF" d="M106.164,50.766h-1.539V47.69c-0.004-1.096-0.592-2.105-1.541-2.651V27.686
		c-0.01-9.342-7.582-16.915-16.924-16.926H55.383c-9.343,0.011-16.914,7.584-16.925,16.926v7.694H13.837
		c-1.7,0-3.078,1.378-3.078,3.077v56.934c0.01,7.646,6.204,13.84,13.85,13.85h32.313c2.29,0.004,4.55-0.506,6.617-1.492
		c0.553,0.92,1.543,1.487,2.617,1.492h40.008c1.699,0,3.076-1.379,3.076-3.078V53.844C109.24,52.145,107.863,50.766,106.164,50.766z
		 M70.771,47.69h30.775v3.075H70.771V47.69z M65.105,13.837H86.16c7.645,0.01,13.84,6.203,13.848,13.849v16.927H72.311V27.686
		c-0.004-0.649-0.043-1.3-0.121-1.945c-0.023-0.202-0.061-0.397-0.09-0.6c-0.068-0.436-0.146-0.869-0.244-1.295
		c-0.053-0.221-0.109-0.439-0.168-0.655c-0.115-0.407-0.242-0.807-0.383-1.2c-0.074-0.2-0.143-0.401-0.223-0.601
		c-0.178-0.449-0.383-0.883-0.598-1.312c-0.064-0.124-0.115-0.252-0.182-0.374c-0.289-0.538-0.609-1.063-0.955-1.569
		c-0.09-0.128-0.189-0.249-0.283-0.376c-0.27-0.368-0.547-0.731-0.844-1.076c-0.141-0.164-0.287-0.319-0.434-0.478
		c-0.277-0.297-0.562-0.585-0.857-0.863c-0.152-0.153-0.322-0.309-0.49-0.445c-0.322-0.276-0.658-0.541-1.002-0.796
		C65.324,14.018,65.223,13.918,65.105,13.837z M13.837,95.391V38.457h24.621v55.396c-0.009,6.794-5.517,12.301-12.311,12.309h-1.539
		C18.663,106.156,13.845,101.337,13.837,95.391z M35.372,106.162c0.083-0.062,0.154-0.137,0.236-0.199
		c0.272-0.215,0.535-0.438,0.793-0.667c0.154-0.136,0.307-0.266,0.443-0.406c0.284-0.274,0.551-0.563,0.812-0.856
		c0.099-0.113,0.207-0.219,0.307-0.334c0.35-0.415,0.674-0.85,0.978-1.299c0.067-0.103,0.123-0.21,0.188-0.308
		c0.229-0.357,0.445-0.722,0.644-1.099c0.092-0.171,0.171-0.35,0.252-0.523c0.154-0.323,0.309-0.651,0.438-0.986
		c0.076-0.196,0.153-0.394,0.217-0.594c0.116-0.332,0.22-0.671,0.308-1.015c0.056-0.203,0.11-0.405,0.153-0.615
		c0.086-0.372,0.154-0.752,0.207-1.134c0.027-0.184,0.062-0.362,0.084-0.546c0.066-0.575,0.103-1.149,0.106-1.728V27.686
		c0-7.648,6.201-13.849,13.848-13.849c7.648,0,13.849,6.2,13.849,13.849v17.34c-0.025,0.014-0.043,0.037-0.066,0.052
		c-0.193,0.117-0.373,0.254-0.537,0.411l-0.027,0.023c-0.164,0.167-0.311,0.354-0.434,0.558c-0.039,0.06-0.068,0.121-0.102,0.184
		c-0.084,0.157-0.154,0.319-0.207,0.49c-0.023,0.07-0.047,0.136-0.066,0.205c-0.061,0.242-0.096,0.491-0.1,0.742v3.075h-1.537
		c-1.699,0-3.078,1.379-3.078,3.078v50.669c-1.871,1.085-3.994,1.653-6.156,1.649H35.372z M66.156,106.162V53.844h40.008v52.318
		H66.156z"/>
	<path fill="#FFFFFF" d="M100.008,56.922H72.311c-1.699,0-3.078,1.378-3.078,3.079v6.154c0,1.698,1.379,3.077,3.078,3.077h27.697
		c1.699,0,3.076-1.379,3.076-3.077v-6.154C103.084,58.3,101.707,56.922,100.008,56.922z M72.311,66.155v-6.154h27.697v6.154H72.311z
		"/>
	<path fill="#FFFFFF" d="M73.85,72.31c-2.551,0-4.617,2.065-4.617,4.616c0,2.55,2.066,4.617,4.617,4.617
		c2.549,0,4.615-2.067,4.615-4.617C78.465,74.375,76.398,72.31,73.85,72.31z M73.85,78.465c-0.85,0-1.539-0.689-1.539-1.539
		S73,75.388,73.85,75.388c0.852,0,1.539,0.688,1.539,1.538S74.701,78.465,73.85,78.465z"/>
	<path fill="#FFFFFF" d="M86.16,72.31c-2.551,0-4.617,2.065-4.617,4.616c0,2.55,2.066,4.617,4.617,4.617
		c2.549,0,4.615-2.067,4.615-4.617C90.775,74.375,88.709,72.31,86.16,72.31z M86.16,78.465c-0.85,0-1.539-0.689-1.539-1.539
		s0.689-1.538,1.539-1.538s1.539,0.688,1.539,1.538S87.01,78.465,86.16,78.465z"/>
	<path fill="#FFFFFF" d="M98.469,72.31c-2.549,0-4.615,2.065-4.615,4.616c0,2.55,2.066,4.617,4.615,4.617
		c2.551,0,4.615-2.067,4.615-4.617C103.084,74.375,101.02,72.31,98.469,72.31z M98.469,78.465c-0.848,0-1.537-0.689-1.537-1.539
		s0.689-1.538,1.537-1.538c0.85,0,1.539,0.688,1.539,1.538S99.318,78.465,98.469,78.465z"/>
	<path fill="#FFFFFF" d="M86.16,83.081c-2.551,0-4.617,2.065-4.617,4.617c0,2.55,2.066,4.616,4.617,4.616
		c2.549,0,4.615-2.066,4.615-4.616C90.775,85.146,88.709,83.081,86.16,83.081z M86.16,89.235c-0.85,0-1.539-0.688-1.539-1.537
		c0-0.851,0.689-1.54,1.539-1.54s1.539,0.689,1.539,1.54C87.699,88.547,87.01,89.235,86.16,89.235z"/>
	<path fill="#FFFFFF" d="M98.469,83.081c-2.549,0-4.615,2.065-4.615,4.617c0,2.55,2.066,4.616,4.615,4.616
		c2.551,0,4.615-2.066,4.615-4.616C103.084,85.146,101.02,83.081,98.469,83.081z M98.469,89.235c-0.848,0-1.537-0.688-1.537-1.537
		c0-0.851,0.689-1.54,1.537-1.54c0.85,0,1.539,0.689,1.539,1.54C100.008,88.547,99.318,89.235,98.469,89.235z"/>
	<path fill="#FFFFFF" d="M86.16,93.854c-2.551,0-4.617,2.065-4.617,4.615s2.066,4.616,4.617,4.616c2.549,0,4.615-2.066,4.615-4.616
		S88.709,93.854,86.16,93.854z M86.16,100.007c-0.85,0-1.539-0.688-1.539-1.538c0-0.851,0.689-1.539,1.539-1.539
		s1.539,0.688,1.539,1.539C87.699,99.318,87.01,100.007,86.16,100.007z"/>
	<path fill="#FFFFFF" d="M98.469,93.854c-2.549,0-4.615,2.065-4.615,4.615s2.066,4.616,4.615,4.616c2.551,0,4.615-2.066,4.615-4.616
		S101.02,93.854,98.469,93.854z M98.469,100.007c-0.848,0-1.537-0.688-1.537-1.538c0-0.851,0.689-1.539,1.537-1.539
		c0.85,0,1.539,0.688,1.539,1.539C100.008,99.318,99.318,100.007,98.469,100.007z"/>
	<path fill="#FFFFFF" d="M75.389,84.618h-3.078c-1.699,0-3.078,1.379-3.078,3.08v12.309c0,1.701,1.379,3.078,3.078,3.078h3.078
		c1.699,0,3.076-1.377,3.076-3.078V87.698C78.465,85.997,77.088,84.618,75.389,84.618z M72.311,100.007V87.698h3.078v12.309H72.311z
		"/>
	<path fill="#FFFFFF" d="M76.926,41.534c0.408,0,0.801-0.162,1.088-0.45l16.928-16.926c0.611-0.592,0.629-1.565,0.037-2.177
		c-0.59-0.61-1.564-0.628-2.176-0.039c-0.012,0.014-0.025,0.027-0.037,0.039L75.84,38.907c-0.602,0.602-0.602,1.576,0,2.178
		C76.129,41.372,76.518,41.534,76.926,41.534z"/>
	<path fill="#FFFFFF" d="M87.699,36.919c0,2.548,2.064,4.615,4.615,4.615c2.549,0,4.617-2.067,4.617-4.615
		c0-2.55-2.068-4.617-4.617-4.617C89.764,32.302,87.699,34.369,87.699,36.919z M93.854,36.919c0,0.849-0.689,1.538-1.539,1.538
		s-1.539-0.689-1.539-1.538c0-0.851,0.689-1.539,1.539-1.539S93.854,36.068,93.854,36.919z"/>
	<path fill="#FFFFFF" d="M80.004,29.224c2.551,0,4.617-2.065,4.617-4.615s-2.066-4.616-4.617-4.616
		c-2.549,0-4.615,2.066-4.615,4.616S77.455,29.224,80.004,29.224z M80.004,23.068c0.85,0,1.539,0.689,1.539,1.54
		s-0.689,1.54-1.539,1.54s-1.539-0.689-1.539-1.54S79.154,23.068,80.004,23.068z"/>
	<path fill="#FFFFFF" d="M18.454,44.612h15.388c0.85,0,1.538-0.688,1.538-1.539c0-0.85-0.688-1.539-1.538-1.539H18.454
		c-0.85,0-1.538,0.689-1.538,1.539C16.916,43.924,17.604,44.612,18.454,44.612z"/>
	<path fill="#FFFFFF" d="M18.454,50.766h4.616c0.85,0,1.539-0.688,1.539-1.537c0-0.849-0.689-1.538-1.539-1.538h-4.616
		c-0.85,0-1.538,0.689-1.538,1.538C16.916,50.078,17.604,50.766,18.454,50.766z"/>
	<path fill="#FFFFFF" d="M18.454,56.922h15.388c0.85,0,1.538-0.688,1.538-1.538c0-0.851-0.688-1.54-1.538-1.54H18.454
		c-0.85,0-1.538,0.689-1.538,1.54C16.916,56.233,17.604,56.922,18.454,56.922z"/>
	<path fill="#FFFFFF" d="M18.454,63.076h10.772c0.85,0,1.539-0.688,1.539-1.538c0-0.849-0.689-1.537-1.539-1.537H18.454
		c-0.85,0-1.538,0.688-1.538,1.537C16.916,62.388,17.604,63.076,18.454,63.076z"/>
	<path fill="#FFFFFF" d="M18.454,69.232h15.388c0.85,0,1.538-0.689,1.538-1.539s-0.688-1.538-1.538-1.538H18.454
		c-0.85,0-1.538,0.688-1.538,1.538S17.604,69.232,18.454,69.232z"/>
	<path fill="#FFFFFF" d="M18.454,75.388h4.616c0.85,0,1.539-0.689,1.539-1.54c0-0.85-0.689-1.538-1.539-1.538h-4.616
		c-0.85,0-1.538,0.688-1.538,1.538C16.916,74.698,17.604,75.388,18.454,75.388z"/>
	<path fill="#FFFFFF" d="M18.454,81.543h15.388c0.85,0,1.538-0.689,1.538-1.539s-0.688-1.539-1.538-1.539H18.454
		c-0.85,0-1.538,0.689-1.538,1.539S17.604,81.543,18.454,81.543z"/>
	<path fill="#FFFFFF" d="M18.454,87.698h9.232c0.851,0,1.54-0.689,1.54-1.54s-0.689-1.54-1.54-1.54h-9.232
		c-0.85,0-1.538,0.689-1.538,1.54S17.604,87.698,18.454,87.698z"/>
	<path fill="#FFFFFF" d="M24.609,93.854c0.851,0,1.539-0.689,1.539-1.539c0-0.851-0.688-1.54-1.539-1.54h-6.155
		c-0.85,0-1.538,0.689-1.538,1.54c0,0.85,0.688,1.539,1.538,1.539H24.609z"/>
	<path fill="#FFFFFF" d="M33.841,98.469c0-0.851-0.689-1.539-1.54-1.539H19.994c-0.851,0-1.54,0.688-1.54,1.539
		c0,0.85,0.689,1.538,1.54,1.538h12.308C33.152,100.007,33.841,99.318,33.841,98.469z"/>
</g>
</svg>
