<?xml version="1.0" encoding="utf-8"?>
<!-- Generator: Adobe Illustrator 16.0.0, SVG Export Plug-In . SVG Version: 6.00 Build 0)  -->
<!DOCTYPE svg PUBLIC "-//W3C//DTD SVG 1.1//EN" "http://www.w3.org/Graphics/SVG/1.1/DTD/svg11.dtd">
<svg version="1.1" id="Layer_1" xmlns="http://www.w3.org/2000/svg" xmlns:xlink="http://www.w3.org/1999/xlink" x="0px" y="0px"
	 width="348px" height="348px" viewBox="0 0 348 348" enable-background="new 0 0 348 348" xml:space="preserve">
<rect y="-24.5" fill="#FFFFFF" width="348" height="8"/>
<rect x="354.5" fill="#FFFFFF" width="29" height="348"/>
<g>
	<circle fill="#EF8122" cx="174" cy="174" r="170.219"/>
	<text transform="matrix(1 0 0 1 69.6001 259.8447)"><tspan x="0" y="0" fill="#005E9C" font-family="'GothamRounded-Bold'" font-size="25.6608">PERENCANAAN</tspan><tspan x="26.982" y="30.793" fill="#005E9C" font-family="'GothamRounded-Bold'" font-size="25.6608">KEUANGAN</tspan></text>
	<g>
		<g>
			<path fill="#005E9C" d="M201.756,211.853c-1.391,0-2.523,1.13-2.523,2.523c0,1.393-1.127,2.522-2.521,2.522h-95.887
				c-1.395,0-2.524-1.13-2.524-2.522V93.255c0-1.396,1.13-2.524,2.524-2.524h7.568v111.027c0,4.184,3.387,7.57,7.568,7.57h50.469
				c1.394,0,2.523-1.13,2.523-2.522c0-1.394-1.13-2.523-2.523-2.523H115.96c-1.391,0-2.521-1.13-2.521-2.524V68.021
				c0-1.395,1.131-2.524,2.521-2.524h73.176v32.805c0,1.393,1.133,2.523,2.527,2.523h32.803v22.711c0,1.392,1.131,2.523,2.525,2.523
				c1.393,0,2.523-1.132,2.523-2.523v-22.862c0.004-2.005-0.785-3.927-2.195-5.35l-32.379-32.628
				c-1.418-1.437-3.352-2.243-5.373-2.245H115.96c-4.182,0-7.568,3.387-7.568,7.57v17.664h-7.568c-4.182,0-7.572,3.387-7.572,7.57
				v121.121c0,4.182,3.391,7.57,7.572,7.57h95.887c4.182,0,7.568-3.389,7.568-7.57C204.279,212.982,203.152,211.853,201.756,211.853
				z M220.658,95.776h-26.471V69.104L220.658,95.776z"/>
			<path fill="#005E9C" d="M161.38,158.859h-35.328c-1.391,0-2.52,1.132-2.52,2.524s1.129,2.523,2.52,2.523h35.328
				c1.395,0,2.524-1.131,2.524-2.523S162.775,158.859,161.38,158.859z"/>
			<path fill="#005E9C" d="M206.803,118.489c0-1.396-1.129-2.524-2.523-2.524h-35.327c-1.391,0-2.523,1.128-2.523,2.524
				c0,1.392,1.133,2.521,2.523,2.521h35.327C205.674,121.011,206.803,119.881,206.803,118.489z"/>
			<path fill="#005E9C" d="M168.953,133.629c-1.391,0-2.523,1.128-2.523,2.522c0,1.394,1.133,2.523,2.523,2.523h15.141
				c1.393,0,2.523-1.13,2.523-2.523c0-1.395-1.131-2.522-2.523-2.522H168.953z"/>
			<path fill="#005E9C" d="M161.38,171.478h-35.328c-1.391,0-2.52,1.13-2.52,2.524c0,1.392,1.129,2.522,2.52,2.522h35.328
				c1.395,0,2.524-1.131,2.524-2.522C163.905,172.607,162.775,171.478,161.38,171.478z"/>
			<path fill="#005E9C" d="M161.38,184.094h-35.328c-1.391,0-2.52,1.132-2.52,2.524c0,1.392,1.129,2.523,2.52,2.523h35.328
				c1.395,0,2.524-1.132,2.524-2.523C163.905,185.226,162.775,184.094,161.38,184.094z"/>
			<path fill="#005E9C" d="M181.568,93.255V75.591c0-1.393-1.129-2.524-2.523-2.524h-55.512c-1.395,0-2.524,1.132-2.524,2.524
				v17.664c0,1.392,1.13,2.521,2.524,2.521h55.512C180.439,95.776,181.568,94.646,181.568,93.255z M176.521,90.73h-50.469V78.114
				h50.469V90.73z"/>
			<path fill="#005E9C" d="M126.052,143.72h30.281c1.396,0,2.523-1.128,2.523-2.522v-30.278c0-1.396-1.127-2.524-2.523-2.524
				h-30.281c-1.391,0-2.52,1.129-2.52,2.524v30.278C123.533,142.592,124.662,143.72,126.052,143.72z M128.577,113.441h25.235v25.233
				h-25.235V113.441z"/>
			<path fill="#005E9C" d="M146.974,119.22l-8.302,8.326l-3.255-3.28c-0.991-0.988-2.592-0.988-3.583,0
				c-0.991,0.989-0.991,2.594,0,3.585l5.044,5.048c0.985,0.986,2.582,0.994,3.573,0.012c0-0.005,0.007-0.011,0.013-0.012
				l10.094-10.095c0.987-0.991,0.987-2.595,0-3.584C149.566,118.229,147.966,118.229,146.974,119.22L146.974,119.22z"/>
			<path fill="#005E9C" d="M247.18,146.243h-17.664v-7.568c0-4.182-3.391-7.569-7.572-7.569h-20.188
				c-4.178,0-7.568,3.388-7.568,7.569v7.568h-17.666c-4.178,0-7.569,3.391-7.569,7.57v17.664c-0.033,1.188,0.765,2.238,1.918,2.524
				l3.127,0.783v29.497c0,1.393,1.133,2.523,2.524,2.523h70.658c1.391,0,2.52-1.131,2.52-2.523v-29.575l3.131-0.705
				c1.152-0.286,1.951-1.337,1.918-2.524v-17.664C254.748,149.634,251.357,146.243,247.18,146.243z M199.232,138.675
				c0-1.394,1.133-2.523,2.523-2.523h20.188c1.395,0,2.523,1.13,2.523,2.523v7.568h-25.234V138.675z M244.656,201.758h-65.611
				v-25.789l22.711,5.604v7.569c0,1.393,1.129,2.522,2.523,2.522h15.141c1.395,0,2.523-1.13,2.523-2.522v-7.569l22.713-5.678
				V201.758z M206.803,186.618v-10.094h10.094v10.094H206.803z M249.699,169.511l-27.756,7.014v-2.522
				c0-1.395-1.129-2.524-2.523-2.524h-15.141c-1.395,0-2.523,1.13-2.523,2.524v2.522l-27.758-7.014v-15.697
				c0-1.392,1.133-2.523,2.524-2.523h70.658c1.391,0,2.52,1.132,2.52,2.523V169.511z"/>
		</g>
	</g>
</g>
</svg>
