<?xml version="1.0" encoding="utf-8"?>
<!-- Generator: Adobe Illustrator 16.0.0, SVG Export Plug-In . SVG Version: 6.00 Build 0)  -->
<!DOCTYPE svg PUBLIC "-//W3C//DTD SVG 1.1//EN" "http://www.w3.org/Graphics/SVG/1.1/DTD/svg11.dtd">
<svg version="1.1" id="Layer_1" xmlns="http://www.w3.org/2000/svg" xmlns:xlink="http://www.w3.org/1999/xlink" x="0px" y="0px"
	 width="120px" height="120px" viewBox="0 0 120 120" enable-background="new 0 0 120 120" xml:space="preserve">
<rect y="-2.246" fill="#FFFFFF" width="120" height="0.195"/>
<rect x="121.702" fill="#FFFFFF" width="1.755" height="120"/>
<rect x="141.273" y="62.666" fill="#005E9C" width="20.226" height="20.226"/>
<g>
	<path fill="#005E9C" d="M19.593,65.272h1.755v38.647c0,2.905,2.365,5.271,5.272,5.271h36.892h42.166c2.904,0,5.27-2.366,5.27-5.271
		V86.354c0-2.906-2.365-5.271-5.27-5.271H70.54V61.756c0-2.904-2.365-5.268-5.27-5.268h-38.65c-2.907,0-5.272,2.363-5.272,5.268
		h-1.755c-4.844,0-8.785-3.939-8.785-8.784c0-4.842,3.941-8.785,8.785-8.785h5.271c0.969,0,1.757-0.786,1.757-1.756v-6.149
		c0-9.201,7.486-16.688,16.689-16.688c4.489,0,8.706,1.763,11.867,4.959c0.403,0.41,0.988,0.595,1.552,0.498
		c0.568-0.102,1.051-0.472,1.292-0.997c2.723-5.912,8.672-9.731,15.156-9.731c7.043,0,13.359,4.471,15.717,11.129
		c0.248,0.701,0.912,1.171,1.658,1.171h1.07c9.688,0,17.568,7.881,17.568,17.565c0,9.689-7.881,17.569-17.568,17.569H81.081v3.517
		h10.541c11.627,0,21.082-9.459,21.082-21.086c0-11.582-9.387-21.011-20.953-21.081c-3.152-7.403-10.463-12.297-18.574-12.297
		c-7.066,0-13.604,3.741-17.242,9.701c-3.572-2.872-7.976-4.43-12.625-4.43c-11.14,0-20.205,9.062-20.205,20.201v4.394h-3.512
		c-6.782,0-12.298,5.516-12.298,12.297C7.295,59.754,12.811,65.272,19.593,65.272z M105.679,84.597c0.969,0,1.756,0.789,1.756,1.757
		v17.566c0,0.969-0.787,1.76-1.756,1.76H91.622H63.513c-0.969,0-1.758-0.791-1.758-1.76V86.354c0-0.968,0.789-1.757,1.758-1.757
		h14.057H105.679z M24.864,61.756c0-0.967,0.788-1.755,1.757-1.755h38.65c0.967,0,1.758,0.788,1.758,1.755v19.326h-3.516
		c-2.904,0-5.27,2.365-5.27,5.271v17.566c0,0.619,0.125,1.206,0.324,1.76H26.621c-0.969,0-1.757-0.791-1.757-1.76V61.756z"/>
	<path fill="#005E9C" d="M91.622,31.89v3.514c3.877,0,7.029,3.153,7.029,7.027h3.512C102.163,36.618,97.435,31.89,91.622,31.89z"/>
	<rect x="98.651" y="45.947" fill="#005E9C" width="3.512" height="3.511"/>
	
		<rect x="72.172" y="93.38" transform="matrix(-0.707 0.7072 -0.7072 -0.707 211.6847 102.5804)" fill="#005E9C" width="24.845" height="3.513"/>
	<path fill="#005E9C" d="M96.894,100.408c0-2.907-2.365-5.271-5.271-5.271c-2.904,0-5.27,2.363-5.27,5.271
		c0,2.906,2.365,5.271,5.27,5.271C94.528,105.68,96.894,103.314,96.894,100.408z M91.622,102.164c-0.967,0-1.756-0.788-1.756-1.756
		c0-0.969,0.789-1.758,1.756-1.758c0.969,0,1.756,0.789,1.756,1.758C93.378,101.376,92.591,102.164,91.622,102.164z"/>
	<path fill="#005E9C" d="M72.298,89.866c0,2.907,2.363,5.271,5.271,5.271c2.902,0,5.268-2.364,5.268-5.271
		c0-2.906-2.365-5.27-5.268-5.27C74.661,84.597,72.298,86.96,72.298,89.866z M77.569,88.11c0.967,0,1.756,0.787,1.756,1.756
		c0,0.97-0.789,1.757-1.756,1.757c-0.969,0-1.756-0.787-1.756-1.757C75.813,88.897,76.601,88.11,77.569,88.11z"/>
	<path fill="#005E9C" d="M31.89,75.813h22.838v-3.517H31.89v-5.269h28.111v5.269h-1.758v3.517h1.758
		c1.938,0,3.512-1.576,3.512-3.517v-5.269c0-1.939-1.574-3.517-3.512-3.517H31.89c-1.937,0-3.513,1.577-3.513,3.517v5.269
		C28.377,74.237,29.954,75.813,31.89,75.813z"/>
	<polygon fill="#005E9C" points="37.162,79.325 33.648,79.325 33.648,82.839 30.133,82.839 30.133,86.354 33.648,86.354 
		33.648,89.866 37.162,89.866 37.162,86.354 40.674,86.354 40.674,82.839 37.162,82.839 	"/>
	<polygon fill="#005E9C" points="37.889,91.926 35.405,94.41 32.921,91.926 30.437,94.41 32.921,96.895 30.437,99.379 
		32.921,101.862 35.405,99.379 37.889,101.862 40.374,99.379 37.889,96.895 40.374,94.41 	"/>
	<rect x="44.187" y="82.839" fill="#005E9C" width="10.541" height="3.515"/>
	<rect x="44.187" y="95.138" fill="#005E9C" width="10.541" height="3.513"/>
	<rect x="47.703" y="91.623" fill="#005E9C" width="3.513" height="1.755"/>
	<rect x="47.703" y="100.408" fill="#005E9C" width="3.513" height="1.756"/>
	<rect x="74.052" y="61.756" fill="#005E9C" width="3.518" height="3.517"/>
</g>
</svg>
