<?xml version="1.0" encoding="utf-8"?>
<!-- Generator: Adobe Illustrator 16.0.0, SVG Export Plug-In . SVG Version: 6.00 Build 0)  -->
<!DOCTYPE svg PUBLIC "-//W3C//DTD SVG 1.1//EN" "http://www.w3.org/Graphics/SVG/1.1/DTD/svg11.dtd">
<svg version="1.1" id="Layer_1" xmlns="http://www.w3.org/2000/svg" xmlns:xlink="http://www.w3.org/1999/xlink" x="0px" y="0px"
	 width="120px" height="120px" viewBox="0 0 120 120" enable-background="new 0 0 120 120" xml:space="preserve">
<g>
	<path fill="#FFFFFF" d="M73.217,29.924c0-0.781-0.635-1.414-1.414-1.414H40.194c-0.781,0-1.416,0.633-1.416,1.414
		c0,0.783,0.635,1.416,1.416,1.416h31.608C72.582,31.34,73.217,30.707,73.217,29.924z"/>
	<path fill="#FFFFFF" d="M18.647,97.917h10.568v5.699c0,0.782,0.635,1.416,1.414,1.416h62.392c0.781,0,1.414-0.634,1.414-1.416
		V64.922l10.326-21.035c0.346-0.701,0.055-1.549-0.646-1.894l-0.062-0.03l2.236-4.552c0.166-0.337,0.189-0.725,0.068-1.081
		c-0.121-0.355-0.377-0.646-0.717-0.812l-5.045-2.478c-0.703-0.347-1.551-0.054-1.893,0.646l-2.232,4.546l-0.066-0.03
		c-0.338-0.165-0.725-0.191-1.08-0.07c-0.355,0.122-0.646,0.379-0.812,0.717l-0.076,0.151v-8.782c0-0.015-0.008-0.026-0.008-0.041
		c-0.01-0.313-0.107-0.621-0.316-0.871L82.52,15.471c-0.018-0.021-0.041-0.032-0.059-0.052c-0.031-0.033-0.066-0.057-0.1-0.086
		c-0.096-0.087-0.199-0.157-0.314-0.213c-0.041-0.02-0.08-0.037-0.123-0.053c-0.143-0.054-0.289-0.084-0.439-0.089
		c-0.02,0-0.033-0.01-0.049-0.01h-0.039c-0.01,0-0.02-0.002-0.027,0H30.63c-0.779,0-1.414,0.633-1.414,1.415v17.117H18.647
		c-2.801,0-5.08,2.279-5.08,5.08v54.27C13.567,95.645,15.847,97.917,18.647,97.917z M100.619,36.204l2.506,1.23l-1.291,2.63
		l-2.508-1.23L100.619,36.204z M91.607,102.202H32.046v-4.285h24.885c2.801,0,5.081-2.272,5.081-5.066v-0.07h8.207
		c0.158,0.982,0.662,1.888,1.447,2.556l-0.887,1.803c-0.344,0.701-0.057,1.549,0.645,1.893s1.551,0.058,1.896-0.645l0.877-1.794
		c1.934,0.426,3.818-0.543,4.682-2.271l2.658-5.586c0.1,0.022,0.195,0.068,0.293,0.068c0.523,0,1.025-0.29,1.271-0.79l8.506-17.328
		V102.202L91.607,102.202z M75.76,85.994l3.201,1.569l-2.625,5.519c-0.33,0.661-1.125,1-1.881,0.624l-0.688-0.322
		c-0.506-0.256-0.789-0.776-0.764-1.319C73.221,91.694,72.295,93.704,75.76,85.994z M96.428,41.366l5.172,2.543L81.184,85.501
		l-5.172-2.533L96.428,41.366z M82.85,28.801v-8.529l7.145,8.529H82.85z M32.046,17.798H80.02v12.417v0.004
		c0,0.782,0.635,1.415,1.416,1.415h10.172v10.52c-4.373-0.999-8.891,1.098-10.887,5.164l-5.359,10.921
		c-0.346,0.701-0.057,1.55,0.646,1.893c0.199,0.1,0.41,0.146,0.621,0.146c0.523,0,1.025-0.292,1.271-0.792l5.359-10.921
		c1.469-2.989,4.859-4.503,8.064-3.598l0.162,0.046L72.852,82.988c-0.297,0.603-0.104,1.296,0.396,1.7l-2.506,5.261h-8.73v-7.666
		h9.789c0.781,0,1.414-0.634,1.414-1.415c0-0.782-0.633-1.416-1.414-1.416h-9.789v-9.901h9.789c0.781,0,1.414-0.635,1.414-1.415
		c0-0.781-0.633-1.416-1.414-1.416h-9.789v-9.902h9.789c0.781,0,1.414-0.634,1.414-1.416c0-0.78-0.633-1.414-1.414-1.414h-9.789
		V44.07h9.789c0.781,0,1.414-0.634,1.414-1.414c0-0.781-0.633-1.415-1.414-1.415h-9.789v-2.66c0-2.801-2.28-5.08-5.081-5.08H32.046
		V17.798z M16.399,38.581c0-1.241,1.008-2.251,2.248-2.251h38.283c1.24,0,2.248,1.01,2.248,2.251v4.075v50.194
		c0,1.232-1.008,2.236-2.248,2.236c-21.428,0-16.836,0-38.283,0c-1.24,0-2.248-1.004-2.248-2.236V38.581z"/>
	<path fill="#FFFFFF" d="M21.052,54.299c7.736,0,25.678,0,33.473,0c0.783,0,1.416-0.633,1.416-1.414V42.656v-1.684
		c0-0.781-0.633-1.416-1.416-1.416H21.052c-0.781,0-1.416,0.635-1.416,1.416v11.912C19.636,53.666,20.271,54.299,21.052,54.299z
		 M22.468,42.388H53.11v0.269v8.813c-7.236,0-23.385,0-30.643,0V42.388z"/>
	<path fill="#FFFFFF" d="M21.048,66.321h7.92c0.781,0,1.416-0.634,1.416-1.414v-6.719c0-0.781-0.635-1.414-1.416-1.414h-7.92
		c-0.783,0-1.416,0.633-1.416,1.414v6.719C19.632,65.688,20.265,66.321,21.048,66.321z M22.462,59.604h5.09v3.889h-5.09V59.604z"/>
	<path fill="#FFFFFF" d="M41.749,56.774h-7.92c-0.783,0-1.416,0.633-1.416,1.414v6.721c0,0.781,0.633,1.414,1.416,1.414h7.92
		c0.781,0,1.414-0.633,1.414-1.414v-6.721C43.163,57.407,42.53,56.774,41.749,56.774z M40.335,63.494h-5.092v-3.891h5.092V63.494z"
		/>
	<path fill="#FFFFFF" d="M21.048,79.104h7.92c0.781,0,1.416-0.633,1.416-1.414v-6.719c0-0.781-0.635-1.414-1.416-1.414h-7.92
		c-0.783,0-1.416,0.633-1.416,1.414v6.719C19.632,78.471,20.265,79.104,21.048,79.104z M22.462,72.387h5.09v3.887h-5.09V72.387z"/>
	<path fill="#FFFFFF" d="M41.749,69.565h-7.92c-0.783,0-1.416,0.633-1.416,1.414v6.704c0,0.783,0.633,1.416,1.416,1.416h7.92
		c0.781,0,1.414-0.633,1.414-1.416v-6.704C43.163,70.198,42.53,69.565,41.749,69.565z M40.335,76.27h-5.092v-3.876h5.092V76.27z"/>
	<path fill="#FFFFFF" d="M54.524,69.565h-7.908c-0.781,0-1.414,0.633-1.414,1.414v19.198c0,0.781,0.633,1.414,1.414,1.414h7.908
		c0.783,0,1.416-0.633,1.416-1.414V70.979C55.94,70.198,55.308,69.565,54.524,69.565z M53.11,88.762h-5.078V72.394h5.078V88.762z"/>
	<path fill="#FFFFFF" d="M21.048,91.86h7.92c0.781,0,1.416-0.633,1.416-1.414v-6.717c0-0.78-0.635-1.415-1.416-1.415h-7.92
		c-0.783,0-1.416,0.635-1.416,1.415v6.717C19.632,91.228,20.265,91.86,21.048,91.86z M22.462,85.144h5.09v3.889h-5.09V85.144z"/>
	<path fill="#FFFFFF" d="M41.749,82.311h-7.92c-0.783,0-1.416,0.634-1.416,1.416v6.72c0,0.781,0.633,1.414,1.416,1.414h7.92
		c0.781,0,1.414-0.633,1.414-1.414v-6.72C43.163,82.944,42.53,82.311,41.749,82.311z M40.335,89.029h-5.092v-3.889h5.092V89.029z"/>
	<path fill="#FFFFFF" d="M54.524,56.774h-7.908c-0.781,0-1.414,0.633-1.414,1.414v6.721c0,0.781,0.633,1.414,1.414,1.414h7.908
		c0.783,0,1.416-0.633,1.416-1.414v-6.721C55.94,57.407,55.308,56.774,54.524,56.774z M53.11,63.494h-5.078v-3.891h5.078V63.494z"/>
</g>
<rect y="-2.246" fill="#FFFFFF" width="120" height="0.195"/>
<rect x="121.702" fill="#FFFFFF" width="1.755" height="120"/>
<rect x="141.273" y="62.666" fill="#005E9C" width="20.226" height="20.226"/>
</svg>
