<?xml version="1.0" encoding="utf-8"?>
<!-- Generator: Adobe Illustrator 16.0.0, SVG Export Plug-In . SVG Version: 6.00 Build 0)  -->
<!DOCTYPE svg PUBLIC "-//W3C//DTD SVG 1.1//EN" "http://www.w3.org/Graphics/SVG/1.1/DTD/svg11.dtd">
<svg version="1.1" id="Layer_1" xmlns="http://www.w3.org/2000/svg" xmlns:xlink="http://www.w3.org/1999/xlink" x="0px" y="0px"
	 width="120px" height="120px" viewBox="0 0 120 120" enable-background="new 0 0 120 120" xml:space="preserve">
<rect y="-2.246" fill="#FFFFFF" width="120" height="0.195"/>
<rect x="121.702" fill="#FFFFFF" width="1.755" height="120"/>
<rect x="141.273" y="62.666" fill="#005E9C" width="20.226" height="20.226"/>
<g>
	<g>
		<path fill="#005E9C" d="M112.895,94.779c-0.328-0.328-0.816-0.656-1.309-0.656h-4.42V37.496c0-3.272-2.617-6.054-6.055-6.054
			H89.654C86.383,18.184,74.27,8.365,60.033,8.365c-14.24,0-26.352,9.819-29.625,23.239H18.953c-3.273,0-6.057,2.619-6.057,6.055
			v56.628H8.479c-0.492,0-0.982,0.164-1.311,0.654c-0.326,0.326-0.49,0.982-0.326,1.473l3.764,14.074
			c0.164,0.654,0.818,1.146,1.637,1.146h95.58c0.816,0,1.309-0.492,1.635-1.146l3.766-14.074
			C113.223,95.76,113.223,95.268,112.895,94.779z M86.543,59.098V46.498c3.439,0.654,5.895,3.272,5.895,6.384
			C92.438,55.827,89.982,58.445,86.543,59.098z M83.271,61.229h-3.6v-16.86h3.6C83.271,60.409,83.271,45.189,83.271,61.229z
			 M36.791,44.369h3.602v16.86h-3.602C36.791,45.189,36.791,60.245,36.791,44.369z M33.52,59.098
			c-3.438-0.653-5.893-3.271-5.893-6.382c0-3.111,2.619-5.728,5.893-6.382V59.098z M16.17,37.496c0-1.473,1.146-2.783,2.783-2.783
			h10.801c-0.164,1.311-0.326,2.783-0.326,4.092v5.564c-3.109,1.801-5.074,4.748-5.074,8.184c0,4.91,3.928,8.838,9.166,9.657v0.49
			c0,0.982,0.654,1.637,1.637,1.637h6.873c0.982,0,1.637-0.654,1.637-1.637V42.732c0-0.981-0.654-1.635-1.637-1.635h-6.873
			c-0.982,0-1.637,0.653-1.637,1.635v0.491c-0.328,0-0.492,0.165-0.818,0.165v-4.419c0-15.058,12.273-27.331,27.332-27.331
			c15.057,0,27.33,12.273,27.33,27.331v4.419c-0.328,0-0.492-0.165-0.82-0.165v-0.491c0-0.981-0.652-1.635-1.635-1.635h-6.873
			c-0.982,0-1.637,0.653-1.637,1.635v20.131c0,0.984,0.654,1.637,1.637,1.637h6.873c0.982,0,1.635-0.652,1.635-1.637v-0.49
			c0.656-0.164,1.312-0.164,1.965-0.492v10.148c0,2.127-1.799,3.928-3.926,3.928H72.307v-1.146c0-1.799-1.473-3.436-3.438-3.436
			H54.467c-1.799,0-3.438,1.473-3.438,3.436v5.729c0,1.801,1.475,3.438,3.438,3.438h14.402c1.801,0,3.438-1.475,3.438-3.438v-1.145
			h12.275c3.926,0,7.201-3.273,7.201-7.203V60.409c2.455-1.8,4.092-4.582,4.092-7.527c0-3.438-2.129-6.547-5.074-8.185v-5.565
			c0-1.473-0.164-2.781-0.326-4.091h10.801c1.471,0,2.781,1.146,2.781,2.783v56.463H16.17V37.496z M69.033,80.539
			C69.033,80.539,68.869,80.701,69.033,80.539l-14.566,0.162c0,0-0.164,0-0.164-0.162v-5.729c0,0,0-0.162,0.164-0.162h14.402
			c0,0,0.164,0,0.164,0.162V80.539z M106.678,108.199H13.387l-2.781-10.639c52.207,0,71.357,0,98.852,0L106.678,108.199z"/>
	</g>
	<g>
		<path fill="#005E9C" d="M58.723,39.296h15.385c0.982,0,1.637-0.656,1.637-1.638V20.638c0-0.981-0.654-1.637-1.637-1.637H45.793
			c-0.982,0-1.637,0.655-1.637,1.637v17.021c0,0.981,0.654,1.638,1.637,1.638h2.945v2.781c0,1.311,1.311,1.965,2.457,1.474
			L58.723,39.296z M47.43,36.023V22.277h25.041v13.746H58.396c-0.328,0-0.492,0-0.82,0.163l-5.4,3.11v-1.638
			c0-0.98-0.654-1.636-1.637-1.636H47.43z"/>
	</g>
	<g>
		<path fill="#005E9C" d="M52.34,27.676h15.549c0.98,0,1.635-0.655,1.635-1.637s-0.654-1.637-1.635-1.637H52.34
			c-0.98,0-1.637,0.655-1.637,1.637S51.359,27.676,52.34,27.676z"/>
	</g>
	<g>
		<path fill="#005E9C" d="M67.723,33.078c0.984,0,1.639-0.655,1.639-1.636c0-0.982-0.654-1.638-1.639-1.638H52.176
			c-0.98,0-1.637,0.655-1.637,1.638c0,0.98,0.656,1.636,1.637,1.636H67.723z"/>
	</g>
</g>
</svg>
