<?xml version="1.0" encoding="utf-8"?>
<!-- Generator: Adobe Illustrator 16.0.0, SVG Export Plug-In . SVG Version: 6.00 Build 0)  -->
<!DOCTYPE svg PUBLIC "-//W3C//DTD SVG 1.1//EN" "http://www.w3.org/Graphics/SVG/1.1/DTD/svg11.dtd">
<svg version="1.1" id="Layer_1" xmlns="http://www.w3.org/2000/svg" xmlns:xlink="http://www.w3.org/1999/xlink" x="0px" y="0px"
	 width="348px" height="348px" viewBox="0 0 348 348" enable-background="new 0 0 348 348" xml:space="preserve">
<rect y="-24.5" fill="#FFFFFF" width="348" height="8"/>
<rect x="354.5" fill="#FFFFFF" width="29" height="348"/>
<g>
	<circle fill="#EF8122" cx="174" cy="174" r="170.219"/>
	<text transform="matrix(1 0 0 1 96.7231 259.8447)" fill="#005E9C" font-family="'GothamRounded-Bold'" font-size="25.6608">PELATIHAN</text>
	<g>
		<g>
			<path fill="#005E9C" d="M124.828,108.247c-3.811,0.005-7.459,1.542-10.119,4.271c-2.508,2.559-3.84,6.045-3.681,9.624
				l0.261,6.345c0.417,7.317,6.568,12.978,13.893,12.787l0,0c7.28,0.125,13.359-5.517,13.775-12.787l0.377-6.345
				c0.167-3.574-1.156-7.06-3.657-9.624c-2.665-2.731-6.323-4.272-10.141-4.271H124.828z M125.181,136.555L125.181,136.555
				c-4.746,0.124-8.743-3.519-9.058-8.254v-1.936c4.506-0.229,8.825-1.881,12.336-4.717c1.456,2.145,3.646,3.679,6.156,4.316v2.24
				c-0.26,4.88-4.429,8.622-9.308,8.359C125.267,136.562,125.225,136.559,125.181,136.555z M134.616,121.083
				c-1.624-0.741-2.813-2.197-3.207-3.94c-0.183-1.29-1.376-2.188-2.667-2.004c-0.709,0.101-1.335,0.517-1.697,1.129
				c0,0-2.971,4.72-11.228,5.381c-0.015-2.184,0.835-4.287,2.358-5.851c1.752-1.79,4.146-2.808,6.652-2.831h0.708
				c2.528,0.004,4.95,1.025,6.722,2.831C133.648,117.224,134.482,119.096,134.616,121.083z"/>
			<path fill="#005E9C" d="M216.826,164.864c-3.811,0-7.459,1.54-10.119,4.269c-2.508,2.559-3.84,6.044-3.682,9.623l0.262,6.346
				c0.416,7.315,6.566,12.979,13.893,12.787l0,0c7.279,0.125,13.359-5.517,13.775-12.787l0.377-6.346
				c0.168-3.573-1.156-7.061-3.658-9.623c-2.662-2.731-6.322-4.272-10.141-4.269H216.826z M226.613,178.545l-0.279,6.371
				c-0.318,4.773-4.373,8.43-9.154,8.255l0,0c-4.746,0.125-8.742-3.521-9.057-8.255l-0.381-6.371
				c-0.082-2.281,0.768-4.496,2.359-6.133c1.771-1.808,4.193-2.826,6.725-2.831h0.707c2.529,0.005,4.953,1.023,6.723,2.831
				C225.848,174.049,226.699,176.264,226.613,178.545z"/>
			<path fill="#005E9C" d="M106.309,195.529c0.804,0.002,1.603-0.134,2.36-0.4v2.76c0,1.303,1.057,2.36,2.358,2.36h28.306
				c1.305,0,2.359-1.058,2.359-2.36v-38.239c-0.003-0.603,0.223-1.188,0.635-1.628l30.032-32.175
				c2.554-2.605,2.511-6.788-0.095-9.342c-2.604-2.553-6.787-2.511-9.34,0.095l-26.232,26.351c-0.445,0.439-1.046,0.686-1.674,0.683
				h-23.991c-6.513,0-11.794,5.282-11.794,11.795v33.025C99.234,192.361,102.4,195.529,106.309,195.529z M103.95,155.428
				c0-3.908,3.17-7.076,7.078-7.076h23.991c1.875-0.002,3.674-0.748,5-2.076l26.349-26.231c0.669-0.75,1.813-0.818,2.563-0.15
				c0.75,0.666,0.818,1.812,0.152,2.562c-0.064,0.074-0.137,0.145-0.215,0.207l-30.006,32.151c-1.193,1.284-1.865,2.965-1.887,4.718
				v35.997h-23.588v-35.383c0-1.304-1.059-2.36-2.36-2.36s-2.358,1.057-2.358,2.36v28.307c0,1.301-1.057,2.359-2.36,2.359
				c-1.3,0-2.359-1.059-2.359-2.359V155.428z"/>
			<path fill="#005E9C" d="M125.181,183.736c1.305,0,2.359-1.06,2.359-2.358v-28.31c0-1.302-1.055-2.358-2.359-2.358
				c-1.304,0-2.359,1.057-2.359,2.358v28.31C122.822,182.677,123.877,183.736,125.181,183.736z"/>
			<path fill="#005E9C" d="M165.284,197.889L165.284,197.889c7.278,0.125,13.359-5.517,13.775-12.787l0.377-6.346
				c0.168-3.573-1.158-7.061-3.656-9.623c-2.665-2.731-6.324-4.272-10.143-4.269h-0.709c-3.811,0-7.458,1.54-10.117,4.269
				c-2.509,2.559-3.841,6.044-3.682,9.623l0.262,6.346C151.808,192.417,157.958,198.08,165.284,197.889z M158.206,172.412
				c1.771-1.808,4.194-2.826,6.722-2.831h0.709c2.531,0.005,4.951,1.023,6.724,2.831c1.591,1.637,2.445,3.852,2.359,6.133
				l-0.283,6.371c-0.316,4.773-4.369,8.43-9.152,8.255l0,0c-4.747,0.125-8.743-3.521-9.057-8.255l-0.381-6.371
				C155.763,176.264,156.615,174.049,158.206,172.412z"/>
			<path fill="#005E9C" d="M177.479,200.249h-24.392c-6.286,0.009-11.38,5.104-11.394,11.393v9.837c0,1.302,1.057,2.358,2.359,2.358
				c1.305,0,2.36-1.057,2.36-2.358v-9.837c0-3.688,2.987-6.676,6.674-6.676l0,0h24.392c3.686,0,6.676,2.988,6.676,6.676l0,0v9.837
				c0,1.302,1.057,2.358,2.359,2.358s2.357-1.057,2.357-2.358v-9.837C188.861,205.354,183.766,200.258,177.479,200.249z"/>
			<path fill="#005E9C" d="M240.768,211.642c-0.012-6.288-5.105-11.384-11.393-11.393h-24.393
				c-6.285,0.009-11.379,5.104-11.393,11.393v9.837c0,1.302,1.057,2.358,2.357,2.358c1.305,0,2.361-1.057,2.361-2.358v-9.837
				c0-3.688,2.988-6.676,6.674-6.676l0,0h24.393c3.688,0,6.676,2.988,6.676,6.676l0,0v9.837c0,1.302,1.057,2.358,2.357,2.358
				c1.307,0,2.359-1.057,2.359-2.358V211.642z"/>
			<path fill="#005E9C" d="M240.768,153.068V89.376c0-3.907-3.166-7.075-7.076-7.075h-82.563c-3.906,0-7.076,3.168-7.076,7.075
				v35.384c0,1.305,1.057,2.359,2.36,2.359c1.302,0,2.358-1.055,2.358-2.359V96.454h87.28v56.614c0,1.302-1.057,2.359-2.359,2.359
				h-80.392c-1.303,0-2.356,1.057-2.356,2.358c0,1.303,1.054,2.36,2.356,2.36h80.511
				C237.672,160.081,240.768,156.932,240.768,153.068z M148.771,91.736v-2.36c0-1.3,1.057-2.358,2.357-2.358h82.801
				c1.299,0,2.357,1.059,2.357,2.358v2.36H148.771z"/>
			<path fill="#005E9C" d="M228.973,112.375c-1.299,0-2.359,1.06-2.359,2.36v33.616c0,1.303,1.061,2.358,2.359,2.358
				c1.305,0,2.359-1.056,2.359-2.358v-33.616C231.332,113.435,230.277,112.375,228.973,112.375z"/>
			<path fill="#005E9C" d="M219.539,127.119c-1.303,0-2.359,1.058-2.359,2.36v18.872c0,1.303,1.057,2.358,2.359,2.358
				s2.357-1.056,2.357-2.358v-18.872C221.896,128.177,220.842,127.119,219.539,127.119z"/>
			<path fill="#005E9C" d="M207.742,124.76v23.592c0,1.303,1.059,2.358,2.359,2.358c1.305,0,2.359-1.056,2.359-2.358V124.76
				c0-1.301-1.055-2.358-2.359-2.358C208.801,122.401,207.742,123.459,207.742,124.76z"/>
			<path fill="#005E9C" d="M200.668,136.555c-1.303,0-2.359,1.058-2.359,2.36v9.437c0,1.303,1.057,2.358,2.359,2.358
				s2.357-1.056,2.357-2.358v-9.437C203.025,137.612,201.971,136.555,200.668,136.555z"/>
			<path fill="#005E9C" d="M189.344,137.972c0.445,0.594,1.145,0.943,1.885,0.943c0.514,0,1.012-0.165,1.418-0.473l9.436-7.076
				c0.295-0.211,0.531-0.497,0.684-0.825l8.188-16.347l7.076,5.377c0.523,0.379,1.176,0.541,1.814,0.447
				c0.643-0.113,1.205-0.491,1.559-1.037l9.436-14.153c0.615-1.146,0.186-2.578-0.963-3.192c-1.002-0.538-2.24-0.288-2.953,0.599
				l-8.068,12.076l-7.336-5.59c-0.561-0.418-1.275-0.565-1.957-0.4c-0.674,0.16-1.246,0.608-1.557,1.226l-9.201,18.377l-8.986,6.746
				C188.773,135.45,188.562,136.929,189.344,137.972z"/>
			<path fill="#005E9C" d="M184.154,101.172h-28.308c-1.3,0-2.358,1.057-2.358,2.358c0,1.303,1.059,2.358,2.358,2.358h28.308
				c1.305,0,2.359-1.056,2.359-2.358C186.514,102.229,185.459,101.172,184.154,101.172z"/>
			<path fill="#005E9C" d="M198.309,105.889c1.301,0,2.359-1.056,2.359-2.358c0-1.302-1.059-2.358-2.359-2.358h-4.719
				c-1.301,0-2.361,1.057-2.361,2.358c0,1.303,1.061,2.358,2.361,2.358H198.309z"/>
		</g>
	</g>
</g>
</svg>
