<?xml version="1.0" encoding="utf-8"?>
<!-- Generator: Adobe Illustrator 16.0.0, SVG Export Plug-In . SVG Version: 6.00 Build 0)  -->
<!DOCTYPE svg PUBLIC "-//W3C//DTD SVG 1.1//EN" "http://www.w3.org/Graphics/SVG/1.1/DTD/svg11.dtd">
<svg version="1.1" id="Layer_1" xmlns="http://www.w3.org/2000/svg" xmlns:xlink="http://www.w3.org/1999/xlink" x="0px" y="0px"
	 width="348px" height="348px" viewBox="0 0 348 348" enable-background="new 0 0 348 348" xml:space="preserve">
<rect y="-24.5" fill="#FFFFFF" width="348" height="8"/>
<rect x="354.5" fill="#FFFFFF" width="29" height="348"/>
<g>
	<circle fill="#EF8122" cx="174" cy="174" r="170.219"/>
	<text transform="matrix(1 0 0 1 82.9941 259.8447)" fill="#005E9C" font-family="'GothamRounded-Bold'" font-size="25.6608">PERPAJAKAN</text>
	<g>
		<g>
			<path fill="#005E9C" d="M237.651,126.886h-2.354v-4.698c-0.006-1.675-0.902-3.218-2.352-4.052V91.618
				c-0.016-14.275-11.586-25.848-25.863-25.864h-47.029c-14.275,0.017-25.846,11.589-25.861,25.864v11.757H96.569
				c-2.6,0-4.705,2.106-4.705,4.702v87c0.016,11.683,9.48,21.148,21.164,21.163h49.377c3.5,0.006,6.955-0.773,10.111-2.28
				c0.844,1.406,2.357,2.272,3.998,2.28h61.137c2.596,0,4.701-2.107,4.701-4.704V131.59
				C242.353,128.993,240.247,126.886,237.651,126.886z M183.569,122.188h47.027v4.698h-47.027V122.188z M174.911,70.456h32.172
				c11.684,0.015,21.15,9.479,21.162,21.162v25.865h-42.326V91.618c-0.004-0.992-0.064-1.986-0.184-2.973
				c-0.037-0.31-0.094-0.607-0.139-0.916c-0.104-0.666-0.223-1.328-0.373-1.979c-0.08-0.337-0.166-0.671-0.256-1.001
				c-0.176-0.622-0.369-1.232-0.584-1.834c-0.113-0.306-0.217-0.613-0.342-0.918c-0.271-0.687-0.584-1.349-0.912-2.004
				c-0.098-0.189-0.176-0.385-0.277-0.571c-0.443-0.822-0.932-1.625-1.461-2.398c-0.135-0.195-0.289-0.381-0.432-0.574
				c-0.41-0.562-0.836-1.118-1.289-1.645c-0.217-0.251-0.439-0.488-0.662-0.729c-0.426-0.454-0.861-0.895-1.312-1.319
				c-0.232-0.234-0.492-0.472-0.748-0.681c-0.492-0.422-1.004-0.827-1.529-1.216C175.245,70.732,175.091,70.58,174.911,70.456z
				 M96.569,195.077v-87h37.623v84.651c-0.014,10.381-8.43,18.796-18.812,18.808h-2.352
				C103.942,211.527,96.581,204.163,96.569,195.077z M129.474,211.536c0.127-0.094,0.236-0.208,0.361-0.304
				c0.418-0.328,0.818-0.669,1.213-1.02c0.234-0.207,0.469-0.406,0.678-0.621c0.434-0.419,0.842-0.86,1.24-1.309
				c0.15-0.173,0.316-0.334,0.467-0.51c0.535-0.635,1.031-1.299,1.494-1.985c0.104-0.156,0.189-0.32,0.287-0.47
				c0.35-0.546,0.68-1.103,0.982-1.679c0.141-0.262,0.262-0.534,0.387-0.8c0.234-0.494,0.471-0.995,0.668-1.508
				c0.115-0.3,0.234-0.601,0.33-0.907c0.178-0.507,0.336-1.024,0.471-1.55c0.086-0.311,0.168-0.619,0.234-0.94
				c0.131-0.568,0.236-1.149,0.316-1.732c0.041-0.28,0.096-0.554,0.129-0.834c0.102-0.879,0.156-1.757,0.162-2.64V91.618
				c0-11.688,9.477-21.162,21.16-21.162c11.688,0,21.162,9.475,21.162,21.162v26.496c-0.037,0.021-0.064,0.057-0.1,0.079
				c-0.297,0.18-0.57,0.389-0.822,0.629l-0.043,0.035c-0.25,0.256-0.473,0.541-0.662,0.853c-0.059,0.091-0.102,0.185-0.154,0.28
				c-0.127,0.24-0.234,0.488-0.316,0.749c-0.035,0.107-0.07,0.208-0.1,0.313c-0.096,0.37-0.146,0.751-0.152,1.135v4.698h-2.352
				c-2.594,0-4.701,2.107-4.701,4.704v77.427c-2.861,1.657-6.104,2.526-9.408,2.52H129.474z M176.515,211.536V131.59h61.137v79.946
				H176.515z"/>
			<path fill="#005E9C" d="M228.245,136.293h-42.326c-2.596,0-4.703,2.106-4.703,4.706v9.403c0,2.596,2.107,4.702,4.703,4.702
				h42.326c2.596,0,4.701-2.106,4.701-4.702v-9.403C232.946,138.399,230.841,136.293,228.245,136.293z M185.919,150.402v-9.403
				h42.326v9.403H185.919z"/>
			<path fill="#005E9C" d="M188.271,159.807c-3.895,0-7.055,3.156-7.055,7.055c0,3.896,3.16,7.055,7.055,7.055
				c3.896,0,7.055-3.158,7.055-7.055C195.325,162.963,192.167,159.807,188.271,159.807z M188.271,169.213
				c-1.297,0-2.352-1.054-2.352-2.352c0-1.299,1.055-2.351,2.352-2.351c1.303,0,2.354,1.052,2.354,2.351
				C190.624,168.159,189.573,169.213,188.271,169.213z"/>
			<path fill="#005E9C" d="M207.083,159.807c-3.898,0-7.055,3.156-7.055,7.055c0,3.896,3.156,7.055,7.055,7.055
				c3.896,0,7.055-3.158,7.055-7.055C214.138,162.963,210.979,159.807,207.083,159.807z M207.083,169.213
				c-1.299,0-2.35-1.054-2.35-2.352c0-1.299,1.051-2.351,2.35-2.351s2.352,1.052,2.352,2.351
				C209.435,168.159,208.382,169.213,207.083,169.213z"/>
			<path fill="#005E9C" d="M225.892,159.807c-3.893,0-7.053,3.156-7.053,7.055c0,3.896,3.16,7.055,7.053,7.055
				c3.898,0,7.055-3.158,7.055-7.055C232.946,162.963,229.79,159.807,225.892,159.807z M225.892,169.213
				c-1.295,0-2.35-1.054-2.35-2.352c0-1.299,1.055-2.351,2.35-2.351c1.299,0,2.354,1.052,2.354,2.351
				C228.245,168.159,227.19,169.213,225.892,169.213z"/>
			<path fill="#005E9C" d="M207.083,176.267c-3.898,0-7.055,3.156-7.055,7.056c0,3.896,3.156,7.054,7.055,7.054
				c3.896,0,7.055-3.157,7.055-7.054C214.138,179.423,210.979,176.267,207.083,176.267z M207.083,185.671
				c-1.299,0-2.35-1.052-2.35-2.349c0-1.3,1.051-2.354,2.35-2.354s2.352,1.054,2.352,2.354
				C209.435,184.619,208.382,185.671,207.083,185.671z"/>
			<path fill="#005E9C" d="M225.892,176.267c-3.893,0-7.053,3.156-7.053,7.056c0,3.896,3.16,7.054,7.053,7.054
				c3.898,0,7.055-3.157,7.055-7.054C232.946,179.423,229.79,176.267,225.892,176.267z M225.892,185.671
				c-1.295,0-2.35-1.052-2.35-2.349c0-1.3,1.055-2.354,2.35-2.354c1.299,0,2.354,1.054,2.354,2.354
				C228.245,184.619,227.19,185.671,225.892,185.671z"/>
			<path fill="#005E9C" d="M207.083,192.729c-3.898,0-7.055,3.155-7.055,7.052s3.156,7.054,7.055,7.054
				c3.896,0,7.055-3.157,7.055-7.054S210.979,192.729,207.083,192.729z M207.083,202.131c-1.299,0-2.35-1.052-2.35-2.351
				c0-1.3,1.051-2.352,2.35-2.352s2.352,1.052,2.352,2.352C209.435,201.079,208.382,202.131,207.083,202.131z"/>
			<path fill="#005E9C" d="M225.892,192.729c-3.893,0-7.053,3.155-7.053,7.052s3.16,7.054,7.053,7.054
				c3.898,0,7.055-3.157,7.055-7.054S229.79,192.729,225.892,192.729z M225.892,202.131c-1.295,0-2.35-1.052-2.35-2.351
				c0-1.3,1.055-2.352,2.35-2.352c1.299,0,2.354,1.052,2.354,2.352C228.245,201.079,227.19,202.131,225.892,202.131z"/>
			<path fill="#005E9C" d="M190.624,178.615h-4.705c-2.596,0-4.703,2.107-4.703,4.707v18.809c0,2.6,2.107,4.703,4.703,4.703h4.705
				c2.596,0,4.701-2.104,4.701-4.703v-18.809C195.325,180.723,193.22,178.615,190.624,178.615z M185.919,202.131v-18.809h4.705
				v18.809H185.919z"/>
			<path fill="#005E9C" d="M192.974,112.779c0.623,0,1.223-0.247,1.662-0.688l25.865-25.864c0.936-0.904,0.961-2.392,0.057-3.326
				c-0.898-0.933-2.389-0.959-3.322-0.06c-0.02,0.021-0.039,0.042-0.057,0.06l-25.865,25.864c-0.918,0.919-0.918,2.408,0,3.328
				C191.755,112.532,192.351,112.779,192.974,112.779z"/>
			<path fill="#005E9C" d="M209.435,105.728c0,3.894,3.156,7.052,7.053,7.052s7.055-3.158,7.055-7.052
				c0-3.896-3.158-7.056-7.055-7.056S209.435,101.831,209.435,105.728z M218.839,105.728c0,1.297-1.053,2.35-2.352,2.35
				s-2.35-1.053-2.35-2.35c0-1.3,1.051-2.353,2.35-2.353S218.839,104.428,218.839,105.728z"/>
			<path fill="#005E9C" d="M197.677,93.968c3.896,0,7.057-3.155,7.057-7.052s-3.16-7.055-7.057-7.055
				c-3.895,0-7.053,3.158-7.053,7.055S193.782,93.968,197.677,93.968z M197.677,84.562c1.297,0,2.352,1.054,2.352,2.354
				s-1.055,2.354-2.352,2.354c-1.299,0-2.352-1.054-2.352-2.354S196.378,84.562,197.677,84.562z"/>
			<path fill="#005E9C" d="M103.622,117.483h23.514c1.299,0,2.352-1.052,2.352-2.352c0-1.299-1.053-2.353-2.352-2.353h-23.514
				c-1.299,0-2.35,1.054-2.35,2.353C101.272,116.432,102.323,117.483,103.622,117.483z"/>
			<path fill="#005E9C" d="M103.622,126.886h7.055c1.299,0,2.352-1.05,2.352-2.349c0-1.297-1.053-2.35-2.352-2.35h-7.055
				c-1.299,0-2.35,1.053-2.35,2.35C101.272,125.836,102.323,126.886,103.622,126.886z"/>
			<path fill="#005E9C" d="M103.622,136.293h23.514c1.299,0,2.352-1.052,2.352-2.35c0-1.3-1.053-2.354-2.352-2.354h-23.514
				c-1.299,0-2.35,1.054-2.35,2.354C101.272,135.241,102.323,136.293,103.622,136.293z"/>
			<path fill="#005E9C" d="M103.622,145.697h16.461c1.299,0,2.352-1.052,2.352-2.35c0-1.297-1.053-2.349-2.352-2.349h-16.461
				c-1.299,0-2.35,1.052-2.35,2.349C101.272,144.646,102.323,145.697,103.622,145.697z"/>
			<path fill="#005E9C" d="M103.622,155.104h23.514c1.299,0,2.352-1.053,2.352-2.352c0-1.298-1.053-2.351-2.352-2.351h-23.514
				c-1.299,0-2.35,1.053-2.35,2.351C101.272,154.052,102.323,155.104,103.622,155.104z"/>
			<path fill="#005E9C" d="M103.622,164.511h7.055c1.299,0,2.352-1.054,2.352-2.354c0-1.298-1.053-2.351-2.352-2.351h-7.055
				c-1.299,0-2.35,1.053-2.35,2.351C101.272,163.457,102.323,164.511,103.622,164.511z"/>
			<path fill="#005E9C" d="M103.622,173.916h23.514c1.299,0,2.352-1.053,2.352-2.352c0-1.298-1.053-2.352-2.352-2.352h-23.514
				c-1.299,0-2.35,1.054-2.35,2.352C101.272,172.863,102.323,173.916,103.622,173.916z"/>
			<path fill="#005E9C" d="M103.622,183.322h14.107c1.301,0,2.354-1.054,2.354-2.354s-1.053-2.354-2.354-2.354h-14.107
				c-1.299,0-2.35,1.054-2.35,2.354S102.323,183.322,103.622,183.322z"/>
			<path fill="#005E9C" d="M113.028,192.729c1.299,0,2.352-1.054,2.352-2.353c0-1.3-1.053-2.354-2.352-2.354h-9.406
				c-1.299,0-2.35,1.054-2.35,2.354c0,1.299,1.051,2.353,2.35,2.353H113.028z"/>
			<path fill="#005E9C" d="M127.136,199.78c0-1.3-1.053-2.352-2.354-2.352h-18.807c-1.299,0-2.354,1.052-2.354,2.352
				c0,1.299,1.055,2.351,2.354,2.351h18.807C126.083,202.131,127.136,201.079,127.136,199.78z"/>
		</g>
	</g>
</g>
</svg>
