<?xml version="1.0" encoding="utf-8"?>
<!-- Generator: Adobe Illustrator 16.0.0, SVG Export Plug-In . SVG Version: 6.00 Build 0)  -->
<!DOCTYPE svg PUBLIC "-//W3C//DTD SVG 1.1//EN" "http://www.w3.org/Graphics/SVG/1.1/DTD/svg11.dtd">
<svg version="1.1" id="Layer_1" xmlns="http://www.w3.org/2000/svg" xmlns:xlink="http://www.w3.org/1999/xlink" x="0px" y="0px"
	 width="271.698px" height="83.02px" viewBox="0 0 271.698 83.02" enable-background="new 0 0 271.698 83.02" xml:space="preserve">
<g>
	<g>
		<path fill="#0063A0" d="M89.437,32.154c-0.202-0.222-0.494-0.458-0.876-0.71c-0.384-0.252-0.832-0.488-1.345-0.711
			c-0.515-0.221-1.083-0.402-1.708-0.543c-0.624-0.141-1.289-0.211-1.993-0.211c-1.33,0-2.337,0.262-3.021,0.785
			s-1.026,1.258-1.026,2.205c0,0.522,0.109,0.952,0.332,1.283c0.221,0.333,0.554,0.619,0.996,0.861
			c0.443,0.242,0.997,0.459,1.661,0.65c0.665,0.191,1.441,0.397,2.327,0.619c1.047,0.281,2.009,0.574,2.885,0.875
			c0.876,0.303,1.621,0.68,2.236,1.133c0.614,0.453,1.093,1.013,1.435,1.677c0.343,0.665,0.515,1.491,0.515,2.478
			c0,1.129-0.212,2.085-0.636,2.87c-0.423,0.786-0.992,1.425-1.707,1.919c-0.715,0.492-1.545,0.856-2.492,1.088
			c-0.946,0.23-1.954,0.346-3.02,0.346c-1.634,0-3.214-0.245-4.744-0.739c-1.53-0.493-2.91-1.213-4.139-2.161l1.571-2.898
			c0.262,0.262,0.634,0.554,1.116,0.875c0.484,0.323,1.053,0.619,1.707,0.893c0.655,0.272,1.375,0.502,2.161,0.693
			c0.784,0.192,1.602,0.288,2.447,0.288c1.287,0,2.29-0.236,3.006-0.709c0.715-0.474,1.071-1.165,1.071-2.071
			c0-0.544-0.131-0.996-0.393-1.358c-0.262-0.361-0.645-0.681-1.147-0.952c-0.504-0.271-1.117-0.514-1.843-0.726
			c-0.726-0.21-1.551-0.438-2.478-0.679c-1.067-0.281-1.999-0.579-2.794-0.892c-0.796-0.312-1.455-0.688-1.979-1.132
			c-0.524-0.443-0.921-0.962-1.194-1.558c-0.271-0.593-0.406-1.313-0.406-2.159c0-1.047,0.195-1.979,0.588-2.795
			c0.393-0.814,0.937-1.5,1.632-2.055c0.694-0.553,1.515-0.97,2.462-1.252c0.946-0.283,1.964-0.424,3.052-0.424
			c1.489,0,2.844,0.231,4.062,0.695c1.218,0.463,2.291,1.037,3.218,1.721L89.437,32.154z"/>
		<path fill="#0063A0" d="M95.268,48.558v-21.42h3.383v21.42H95.268z"/>
		<path fill="#0063A0" d="M106.867,33.452v15.105h-3.384V27.108h2.658l12.266,15.468V27.138h3.414v21.42h-2.811L106.867,33.452z"/>
		<path fill="#0063A0" d="M141.367,45.567v2.99h-14.713V27.108h14.44V30.1h-11.058v6.103h9.576v2.81h-9.576v6.556H141.367z"/>
		<path fill="#0063A0" d="M144.99,48.558V27.108h9.336c0.967,0,1.858,0.202,2.674,0.604c0.815,0.403,1.515,0.932,2.099,1.587
			c0.585,0.654,1.043,1.399,1.375,2.236c0.333,0.834,0.499,1.687,0.499,2.552c0,0.725-0.102,1.42-0.303,2.083
			c-0.202,0.665-0.482,1.281-0.845,1.843c-0.364,0.564-0.807,1.054-1.33,1.466c-0.523,0.413-1.098,0.721-1.723,0.923l5.105,8.155
			h-3.835l-4.713-7.461h-4.955v7.461H144.99z M148.375,38.106h5.92c0.484,0,0.923-0.106,1.314-0.318
			c0.393-0.212,0.73-0.504,1.013-0.876c0.281-0.373,0.503-0.8,0.665-1.284c0.16-0.484,0.241-0.997,0.241-1.54
			c0-0.544-0.096-1.059-0.286-1.542c-0.192-0.482-0.444-0.905-0.755-1.269c-0.313-0.362-0.677-0.649-1.09-0.86
			c-0.412-0.212-0.841-0.317-1.282-0.317h-5.74V38.106z"/>
		<path fill="#0063A0" d="M180.004,45.9c-1.752,1.873-3.796,2.809-6.132,2.809c-1.391,0-2.694-0.307-3.911-0.921
			c-1.221-0.613-2.277-1.43-3.174-2.447s-1.601-2.186-2.113-3.505c-0.515-1.318-0.771-2.683-0.771-4.093
			c0-1.451,0.257-2.83,0.771-4.14c0.513-1.308,1.217-2.456,2.113-3.444c0.896-0.986,1.959-1.767,3.188-2.34
			c1.229-0.574,2.568-0.861,4.018-0.861c2.015,0,3.707,0.428,5.076,1.284c1.369,0.855,2.406,1.988,3.111,3.398l-2.599,1.872
			c-0.583-1.167-1.374-2.043-2.37-2.628c-0.998-0.584-2.101-0.876-3.309-0.876c-0.987,0-1.884,0.217-2.688,0.649
			c-0.807,0.434-1.496,1.007-2.07,1.722c-0.573,0.716-1.018,1.547-1.328,2.492c-0.313,0.948-0.469,1.935-0.469,2.961
			c0,1.088,0.17,2.105,0.513,3.051c0.344,0.947,0.821,1.773,1.437,2.478c0.613,0.706,1.333,1.265,2.16,1.677
			c0.825,0.414,1.722,0.621,2.688,0.621c2.177,0,4.13-1.059,5.86-3.174V40.22h-4.501v-2.508h7.341v10.846h-2.84V45.9z"/>
		<path fill="#0063A0" d="M186.772,48.558v-21.42h3.384v21.42H186.772z"/>
		<path fill="#0063A0" d="M207.707,32.154c-0.201-0.222-0.493-0.458-0.876-0.71s-0.831-0.488-1.345-0.711
			c-0.514-0.221-1.082-0.402-1.707-0.543c-0.624-0.141-1.289-0.211-1.994-0.211c-1.328,0-2.336,0.262-3.021,0.785
			s-1.027,1.258-1.027,2.205c0,0.522,0.111,0.952,0.332,1.283c0.222,0.333,0.554,0.619,0.997,0.861s0.997,0.459,1.662,0.65
			s1.439,0.397,2.326,0.619c1.047,0.281,2.009,0.574,2.885,0.875c0.877,0.303,1.621,0.68,2.236,1.133
			c0.614,0.453,1.092,1.013,1.435,1.677c0.342,0.665,0.514,1.491,0.514,2.478c0,1.129-0.212,2.085-0.635,2.87
			c-0.423,0.786-0.992,1.425-1.707,1.919c-0.715,0.492-1.546,0.856-2.492,1.088c-0.946,0.23-1.954,0.346-3.021,0.346
			c-1.632,0-3.213-0.245-4.743-0.739c-1.531-0.493-2.911-1.213-4.138-2.161l1.57-2.898c0.262,0.262,0.634,0.554,1.116,0.875
			c0.484,0.323,1.054,0.619,1.708,0.893c0.654,0.272,1.374,0.502,2.161,0.693c0.784,0.192,1.6,0.288,2.446,0.288
			c1.289,0,2.29-0.236,3.005-0.709c0.715-0.474,1.073-1.165,1.073-2.071c0-0.544-0.131-0.996-0.393-1.358
			c-0.262-0.361-0.645-0.681-1.149-0.952c-0.503-0.271-1.116-0.514-1.843-0.726c-0.725-0.21-1.55-0.438-2.477-0.679
			c-1.067-0.281-1.998-0.579-2.795-0.892c-0.795-0.312-1.454-0.688-1.979-1.132s-0.921-0.962-1.192-1.558
			c-0.272-0.593-0.408-1.313-0.408-2.159c0-1.047,0.196-1.979,0.589-2.795c0.393-0.814,0.938-1.5,1.632-2.055
			c0.694-0.553,1.516-0.97,2.462-1.252c0.946-0.283,1.963-0.424,3.052-0.424c1.489,0,2.844,0.231,4.063,0.695
			c1.217,0.463,2.29,1.037,3.217,1.721L207.707,32.154z"/>
		<path fill="#0063A0" d="M231.573,48.558V33.12l-6.376,11.692h-1.873l-6.403-11.692v15.438h-3.384V27.108h3.625l7.1,13.111
			l7.1-13.111h3.625v21.449H231.573z"/>
		<path fill="#0063A0" d="M254.533,45.567v2.99H239.82V27.108h14.44V30.1h-11.056v6.103h9.574v2.81h-9.574v6.556H254.533z"/>
	</g>
	<path fill="#EB8023" d="M44.576,53.149c-7.47-4.288-14.892-8.547-22.311-12.812c-0.058-0.188-0.169-0.373-0.166-0.557
		c0.25-12.293-2.174-8.445,8.637-14.893c2.292-1.366,4.582-2.747,6.955-3.961c2.276-1.162,4.188-3.006,6.789-3.655
		c1.609,0.231,2.917,1.067,4.434,2.378c-5.8,3.373-11.457,6.664-17.142,9.97c0.916,1.716,2.656,1.69,3.639,2.884
		c6.145-3.55,12.103-6.995,18.131-10.479c4.356,2.547,8.647,5.057,13.483,7.884c-7.901,4.557-15.191,8.765-22.506,12.983
		c-1.466-0.888-2.812-1.703-4.482-2.715c5.94-3.437,11.676-6.754,17.753-10.269c-1.66-0.989-2.899-1.729-4.217-2.512
		c-5.993,3.436-11.969,6.86-17.956,10.293c-2.904-1.663-5.696-3.26-8.719-4.99c0,1.766,0,3.214,0,4.91
		c5.775,3.37,11.646,6.794,17.631,10.285c7.287-4.205,14.531-8.386,22.141-12.778c0,5.258,0,10.123,0,15.622
		c-7.063,4.077-14.45,8.339-22.1,12.753c-7.161-4.135-14.293-8.145-21.297-12.368c-2.051-1.235-1.032-3.6-1.198-5.861
		c7.553,4.337,14.885,8.548,22.505,12.924c5.893-3.407,11.916-6.891,17.938-10.375c0-1.611,0-3.083,0-4.935
		C56.526,46.307,50.724,49.63,44.576,53.149z"/>
</g>
</svg>
